<svg width="780" height="249" viewBox="0 0 780 249" fill="none" xmlns="http://www.w3.org/2000/svg">
<path d="M16.2339 249H779.887C779.887 249 786.617 206.281 696.391 197.326C618 189.546 554.963 184 554.963 138.766C554.963 79.5003 505.246 31.7957 397.5 35.9332C346 35.9332 302.5 74.5003 235.77 35.9332C155 -10.7483 69.229 4.00012 33.739 54.5371C-17.5 127.5 62.0186 143.583 36.4399 162.187C10.8613 180.791 1.40057 203.525 0.0720215 217.991C-1.25653 232.458 16.2339 249 16.2339 249Z" fill="#F0FCFF"/>
<path d="M211.24 228.361L303.488 226.848L308.529 246.508H207.711L211.24 228.361Z" fill="#FED546"/>
<path d="M156.637 88.5678L154.872 78.0584C154.872 78.0584 158.96 67.5689 159.948 66.3296C161.423 64.7733 162.992 63.3082 164.645 61.9424C164.752 61.8502 164.837 61.7355 164.895 61.6065C164.953 61.4775 164.982 61.3374 164.98 61.196C164.978 61.0546 164.944 60.9155 164.882 60.7884C164.82 60.6613 164.731 60.5495 164.621 60.4607C163.654 59.6687 161.807 58.8361 158.962 60.6292C156.349 62.2841 153.848 65.1042 152.332 67.0066C152.143 67.2368 151.907 67.4238 151.64 67.5549C151.373 67.686 151.08 67.758 150.783 67.7663C150.485 67.7745 150.189 67.7186 149.915 67.6025C149.641 67.4864 149.395 67.3127 149.194 67.0932C146.99 64.678 144.619 62.4195 142.101 60.334C140.599 59.2202 137.901 59.7063 136.887 60.6519C136.123 61.3621 136.522 63.7942 136.522 63.7942C136.522 63.7942 134.804 63.5365 133.733 64.2406C133.593 64.3303 133.46 64.4181 133.336 64.5113C132.934 64.8172 132.619 65.2228 132.421 65.6879C132.224 66.1531 132.151 66.6618 132.21 67.1637L132.306 67.8519C132.306 67.8519 130.431 67.1551 129.592 67.9173C129.013 68.4979 128.547 69.1818 128.219 69.9337L128.6 72.5071C127.929 72.5962 127.307 72.904 126.829 73.3827C126.162 74.1552 126.898 77.7884 126.898 77.7884L135.313 88.1005L137.019 93.9127L156.637 88.5678Z" fill="#FFC9BF"/>
<path d="M135.435 63.5227C135.472 63.6157 135.522 63.7036 135.581 63.7844L136.056 64.5076L137.832 67.1402L140.501 71.0219C141.015 71.7425 141.519 72.5461 142.142 73.2856C142.457 73.7014 142.866 74.0362 143.337 74.2625C143.807 74.4888 144.324 74.6 144.845 74.5868C145.386 74.5195 145.885 74.2592 146.249 73.8536C146.593 73.4695 146.838 73.0073 146.963 72.5071C147.171 71.5633 147.054 70.577 146.631 69.7083C146.269 68.9408 145.849 68.2017 145.376 67.4973L144.209 65.6401L142.501 62.965L142.027 62.2418C141.976 62.1545 141.914 62.0741 141.842 62.0024C141.877 62.0969 141.923 62.1869 141.978 62.2708L142.407 63.0183L144.036 65.7426L145.173 67.6201C145.627 68.3182 146.03 69.0479 146.379 69.8037C146.77 70.6206 146.878 71.5442 146.686 72.4291C146.594 72.8918 146.367 73.3166 146.032 73.6487C145.697 73.9808 145.668 74.0218 145.204 74.1092C144.726 74.1471 144.455 74.0879 144.036 73.8536C143.622 73.6224 143.495 73.4618 143.188 73.101C142.571 72.384 141.898 71.685 141.366 70.9854L138.651 67.1402L136.8 64.5596L135.614 63.7594C135.565 63.6731 135.505 63.5936 135.435 63.5227Z" fill="#F19F90"/>
<path d="M131.427 67.7622C131.527 67.9651 131.647 68.1573 131.786 68.336C132.034 68.6946 132.399 69.2026 132.87 69.8224C133.8 71.0615 135.14 72.74 136.7 74.5201C137.075 74.9644 137.475 75.3875 137.898 75.7875C138.302 76.171 138.798 76.4442 139.338 76.5809C139.807 76.6775 140.294 76.6391 140.742 76.47C141.19 76.3009 141.581 76.0082 141.869 75.6257C142.245 75.1048 142.402 74.4584 142.309 73.8233C142.284 73.6554 142.238 73.4912 142.174 73.334C142.126 73.2305 142.092 73.1794 142.085 73.1814C142.077 73.1834 142.164 73.4169 142.2 73.8364C142.243 74.4326 142.07 75.0242 141.712 75.5034C141.44 75.8409 141.076 75.9807 140.667 76.1256C140.259 76.2705 140.287 76.3317 139.863 76.2412C139.366 76.1033 138.83 76.013 138.462 75.6513C138.048 75.2545 137.656 74.836 137.287 74.3976C135.725 72.6223 134.368 70.9722 133.399 69.7677L132.246 68.336C132.117 68.1601 131.588 67.9089 131.427 67.7622Z" fill="#F19F90"/>
<path d="M128.444 72.2029C128.562 72.375 128.701 72.5317 128.858 72.6696L130.062 73.8711C131.09 74.8754 132.52 76.2451 134.109 77.7446C134.492 78.1233 134.896 78.4811 135.318 78.8164C135.727 79.1434 136.219 79.3505 136.738 79.4146C136.98 79.4472 137.225 79.4257 137.457 79.3517C137.689 79.2778 137.902 79.1532 138.08 78.987C138.38 78.6962 138.572 78.3106 138.621 77.8952C138.69 77.308 138.551 76.7153 138.229 76.2196C138.136 76.03 138.004 75.8617 137.843 75.7251C137.843 75.7251 137.959 75.9186 138.154 76.2838C138.417 76.7697 138.519 77.3271 138.443 77.8747C138.385 78.2459 138.503 78.3035 138.229 78.5597C138.072 78.6953 137.924 78.7588 137.725 78.8164C137.526 78.8739 137.282 78.7805 137.077 78.7494C136.608 78.682 136.166 78.4902 135.797 78.1939C135.385 77.8617 134.992 77.5079 134.618 77.1338C133.029 75.6343 131.573 74.2876 130.498 73.3123L129.25 72.1867C129.096 72.0328 128.626 72.322 128.444 72.2029Z" fill="#F19F90"/>
<path d="M126.553 76.6297C127.04 77.0054 127.193 77.2042 127.736 77.4949C128.718 78.062 130.08 78.8483 131.579 79.714L132.68 80.3496C133.021 80.5643 133.388 80.7355 133.771 80.8595C134.141 80.9789 134.54 80.9682 134.902 80.8291C135.062 80.7649 135.204 80.6653 135.32 80.5378C135.435 80.4104 135.52 80.2584 135.568 80.0934C135.621 79.8622 135.623 79.6224 135.575 79.3903C135.526 79.1581 135.428 78.9392 135.287 78.7485C135.199 78.6015 135.068 78.4843 134.912 78.4118C134.899 78.4355 135.04 78.5421 135.195 78.8092C135.307 78.991 135.381 79.1938 135.411 79.405C135.441 79.6163 135.287 79.9741 135.122 80.1584C135.078 80.2901 135.321 79.9938 135.224 80.0934C135.127 80.1929 135.288 80.0456 135.158 80.0934C134.843 80.1941 134.663 80.0934 134.451 80.0374C134.091 79.9052 133.935 79.9184 133.61 79.714L132.68 79.2964C131.181 78.4307 129.582 77.6807 128.569 77.1338C128.041 76.8174 127.123 76.8629 126.553 76.6297Z" fill="#F19F90"/>
<path d="M173.776 131.453L157.949 85.6328L134.903 93.7667L150.747 148.314C155.974 166.763 163.246 170.929 192.784 154.108L211.529 143.342L217.791 201.14L210.002 234.755C210.002 234.755 238.485 241.067 257.001 241C275.026 240.935 302.733 234.755 302.733 234.755C312.045 234.459 292.091 206.908 289.878 205.677L302.733 148.314L331.504 167.652L304.234 188.974L314.326 212.329L356.418 185.009C371.541 172.407 364.784 162.606 350.365 148.314C324.393 122.578 315.1 98.8806 292.896 95.0857C281.458 91.6475 274.729 91.0487 274.729 91.0487C256.859 90.793 255.527 90.8536 245.952 91.3044C244.088 91.4012 242.234 91.626 240.401 91.9772C229.955 93.5337 220.045 97.6121 211.529 103.86L173.776 131.453Z" fill="url(#paint0_linear)"/>
<path d="M304.997 190.804C304.876 191.026 302.171 193.126 302.171 193.126L297.212 191.336L291.022 194.498C291.022 194.498 285.464 195.084 285.417 197.089C285.37 199.094 282.113 208.944 286.339 215.686C290.564 222.428 293.559 224.662 293.559 224.662L308.576 210.633L313.192 209.684L304.997 190.804Z" fill="#FFC9BF"/>
<path d="M250.438 70.5609L248.352 87.0616C248.352 87.0616 234.92 117.473 240.981 124.014C247.042 130.555 269.036 98.909 274.165 93.2585L276.693 61.541L250.438 70.5609Z" fill="#FFC9BF"/>
<path d="M247.534 95.2809C247.534 92.2026 246.526 91.2482 246.526 91.2482C246.526 91.2482 240.83 99.147 236.444 109.9C231.047 123.129 236.444 154.764 236.444 154.764C236.444 154.764 274.165 108.891 274.164 93.259C274.164 93.259 257.358 107.181 252.071 106.875C247.994 106.639 247.534 98.8277 247.534 95.2809Z" fill="white"/>
<path d="M275.384 64.0103C273.277 75.219 258.603 84.8338 249.5 78.9999L249.858 73.8341L275.384 64.0103Z" fill="#F19F90" fill-opacity="0.5"/>
<path d="M255.749 75.8054C252.045 75.728 250.753 75.701 247.534 74.6132C244.297 73.5189 234.574 57.0601 234.849 47.2365C234.849 47.2365 235.864 41.5594 235.943 37.8821C236.024 34.1625 235.236 28.381 235.236 28.381C235.512 18.5574 243.706 10.8203 253.54 11.0997L265.829 11.4488C275.662 11.7281 283.411 19.9182 283.135 29.7418L281.63 52.9032C281.355 62.7268 265.609 76.0116 255.816 75.8068L255.749 75.8054Z" fill="#FFC9BF"/>
<path d="M250.549 26.9386C247.534 24.9736 244.377 22.4723 243.614 19.2703C243.331 18.383 243.049 17.5144 242.784 16.6836C242.624 16.2677 240.984 19.1132 238.765 22.0935C237.584 23.6791 236.553 27.2272 236.493 30.1257C236.416 33.875 235.966 35.672 235.534 38.7938C234.727 37.1878 233.635 26.9286 233.825 25.1422C233.898 19.3446 236.165 13.7904 240.17 9.59596C242.806 7.1724 245.861 5.24727 249.185 3.91424C254.283 1.46871 259.919 0.354108 265.566 0.67456C269.984 1.31283 274.269 2.66947 278.249 4.69066C283.682 7.05481 289.158 10.0763 292.817 14.7477C297.391 20.5822 298.603 28.2782 298.769 35.7835C298.881 41.281 298.02 45.2664 294.547 50.5545C290.827 54.3689 288.551 57.0043 288.215 57.6569C288.051 58.2664 292.803 60.3678 293.134 68.0185C292.888 74.1609 288.672 85.5722 275.259 81.1665C275.259 77.6379 275.579 75.0247 275.579 75.0247L275.735 70.8345C275.735 70.8345 276.351 63.9302 276.223 63.3292C276.223 63.3292 278.319 60.9509 278.442 60.349C278.442 60.349 279.364 58.2693 279.297 56.0736C277.831 42.1547 274.507 37.717 271.731 35.7835C267.078 33.8107 263.231 32.854 260.939 32.3321C256.815 30.783 254.088 29.2453 250.549 26.9386Z" fill="#535565"/>
<path d="M245.443 40.7408C245.468 41.2427 245.295 41.7341 244.962 42.1102C244.628 42.4863 244.161 42.7172 243.66 42.7536C243.415 42.7846 243.166 42.7659 242.928 42.6985C242.69 42.631 242.468 42.5163 242.276 42.3613C242.084 42.2062 241.924 42.0139 241.808 41.796C241.692 41.578 241.621 41.3388 241.599 41.0928C241.577 40.5896 241.751 40.0977 242.086 39.7215C242.421 39.3452 242.89 39.1143 243.392 39.0779C243.637 39.0497 243.884 39.0706 244.12 39.1394C244.357 39.2081 244.577 39.3233 244.768 39.4782C244.959 39.6332 245.117 39.8246 245.233 40.0415C245.349 40.2583 245.42 40.496 245.443 40.7408Z" fill="#525463"/>
<path d="M246.249 39.8127C246.019 40.0774 244.514 39.0461 242.439 39.1318C240.364 39.2175 238.884 40.3038 238.647 40.0573C238.533 39.9586 238.76 39.4894 239.44 38.9746C240.317 38.322 241.372 37.9527 242.465 37.9161C243.547 37.8767 244.614 38.1792 245.514 38.7806C246.129 39.2539 246.358 39.6971 246.249 39.8127Z" fill="#525463"/>
<path d="M264.214 41.1239C264.236 41.6251 264.063 42.1152 263.73 42.4907C263.397 42.8662 262.931 43.0978 262.431 43.1367C261.945 43.1939 261.457 43.0564 261.073 42.7542C260.688 42.4521 260.44 42.01 260.381 41.5249C260.358 41.0211 260.533 40.5283 260.867 40.1506C261.201 39.7728 261.669 39.5396 262.172 39.5002C262.658 39.448 263.144 39.5891 263.527 39.8931C263.909 40.197 264.156 40.6393 264.214 41.1239Z" fill="#525463"/>
<path d="M265.473 40.2496C265.24 40.5045 263.738 39.483 261.661 39.5589C259.584 39.6348 258.108 40.7407 257.87 40.4942C257.755 40.3857 257.972 39.9186 258.662 39.4017C259.538 38.7481 260.595 38.3818 261.689 38.353C262.769 38.3063 263.837 38.6058 264.736 39.2077C265.35 39.681 265.581 40.134 265.473 40.2496Z" fill="#525463"/>
<path d="M249.462 55.115C248.49 54.7291 247.475 54.4668 246.438 54.3335C245.969 54.2124 245.554 54.105 245.462 53.7651C245.466 53.2442 245.621 52.733 245.907 52.2991C246.469 51.1104 247.054 49.8683 247.665 48.5637C250.119 43.2689 251.947 38.8599 251.741 38.7472C251.534 38.6345 249.389 42.8825 246.93 48.1959C246.335 49.5143 245.767 50.7609 245.232 51.9566C244.878 52.543 244.729 53.2349 244.811 53.913C244.865 54.0973 244.96 54.2649 245.088 54.4026C245.216 54.5404 245.374 54.6444 245.549 54.7066C245.806 54.8141 246.077 54.8841 246.354 54.9145C247.374 55.1209 248.419 55.1883 249.462 55.115Z" fill="#F19F90"/>
<path d="M254.675 60.7677C254.428 60.5474 253.044 61.1607 250.556 61.5068C248.068 61.853 246.352 61.7125 246.139 61.9517C246.045 62.0563 246.367 62.5989 247.216 63.1544C248.325 63.8673 249.651 64.1647 250.958 63.9939C252.212 63.851 253.362 63.2321 254.171 62.2654C254.749 61.4378 254.814 60.8379 254.675 60.7677Z" fill="#F19F90"/>
<path d="M238.213 32.5204C238.649 32.9996 240.407 32.6267 242.523 32.6421C244.64 32.6575 246.399 33.1027 246.826 32.6326C247.013 32.4017 246.752 31.9201 245.979 31.4463C244.958 30.8696 243.749 30.556 242.516 30.5476C241.277 30.5169 240.065 30.8014 239.051 31.3612C238.288 31.8041 238.022 32.2821 238.213 32.5204Z" fill="#525463"/>
<path d="M257.178 32.7989C257.661 33.2955 259.664 32.9929 262.065 33.0929C264.466 33.1929 266.452 33.7085 266.947 33.2555C267.164 33.032 266.88 32.54 266.014 32.0353C264.868 31.4178 263.504 31.0559 262.105 30.9982C260.699 30.9179 259.318 31.154 258.155 31.6732C257.279 32.0856 256.967 32.5529 257.178 32.7989Z" fill="#525463"/>
<path d="M264.948 128.67C280.555 123.418 281.307 105.567 279.731 97.2974C279.805 118.61 270.995 125.543 262.995 127.137C265.142 151.483 241.776 158.147 232.46 158.648C234.18 158.956 240.238 158.502 250.717 154.225C261.196 149.948 264.57 135.406 264.948 128.67Z" fill="black" fill-opacity="0.04"/>
<path d="M225.052 124.763C218.193 115.205 225.785 103.814 230.439 99.3137C220.8 112.521 222.886 120.381 226.896 124.598C214.667 138.853 227.636 155.231 232.916 159.3C231.761 158.798 226.225 153.259 221.958 146.376C217.69 139.492 222.243 129.099 225.052 124.763Z" fill="#012F3E" fill-opacity="0.04"/>
<path d="M234.055 199.267C234.842 238.044 237.025 233.368 237.025 233.368C234.622 193.383 237.018 184.869 234.183 155.772C232.903 166.448 233.268 160.49 234.055 199.267Z" fill="black" fill-opacity="0.04"/>
<path d="M254.985 116.213L251.959 107.139L255.488 114.197L270.61 103.611L254.985 116.213Z" fill="black" fill-opacity="0.06"/>
<path d="M243.25 112.727L251.408 107.732L244.164 110.861L241.879 103.611L243.25 112.727Z" fill="black" fill-opacity="0.06"/>
<defs>
<linearGradient id="paint0_linear" x1="249.938" y1="85.6328" x2="268.001" y2="217" gradientUnits="userSpaceOnUse">
<stop stop-color="#7CED9E"/>
<stop offset="1" stop-color="#4CD174"/>
</linearGradient>
</defs>
</svg>
