<svg width="780" height="296" viewBox="0 0 780 296" fill="none" xmlns="http://www.w3.org/2000/svg">
<path d="M16.2339 266H779.887C779.887 266 786.617 223.281 696.391 214.326C618 206.546 554.963 201 554.963 155.766C554.963 96.5002 505.246 48.7956 397.5 52.9331C346 52.9331 302.5 91.5002 235.77 52.9331C155 6.25156 69.229 21 33.739 71.537C-17.5 144.5 62.0186 160.583 36.4399 179.187C10.8613 197.791 1.40057 220.525 0.0720215 234.991C-1.25653 249.458 16.2339 266 16.2339 266Z" fill="#F0FCFF"/>
<path d="M297.5 237.5L210.001 239L202.5 266.5L306.5 266C304.738 254.211 297.5 237.5 297.5 237.5Z" fill="#FED546"/>
<path d="M265.034 106.777C273.013 108.838 288.849 113.119 296.557 116.034C303.829 119.252 303.248 120.969 309.471 184.832C309.742 187.611 311.512 214.061 290.774 215.332C298.973 232.288 299.5 240 299.5 240C299.5 240 262.747 257.088 208.543 240C211.833 227.164 210.24 233.561 212.458 224.312C214.022 216.798 215.156 209.202 215.853 201.559C216.693 195.013 211.989 169.948 208.543 164.34C187.183 207.853 175.683 205.965 171.684 205.353C156.684 203.059 140.781 125.059 144.684 120.853C147.134 118.213 161.684 120.853 175.683 179.853C182.183 164.34 189.036 140.935 196.683 127.853C200.774 120.853 208.313 112.951 214.151 110.086C215.749 109.351 237.472 104.76 239.183 104.353C250.941 101.007 253.247 103.679 265.034 106.777Z" fill="url(#paint0_linear)"/>
<path d="M255.654 138.603C271.544 134.824 273.898 117.258 273.088 108.948C271.238 130.007 261.91 136.059 253.863 136.912C253.787 161.155 230.105 165.628 220.858 165.282C222.529 165.742 228.554 165.84 239.291 162.561C250.027 159.282 254.673 145.223 255.654 138.603Z" fill="black" fill-opacity="0.04"/>
<path d="M216.861 133.646C210.948 123.585 219.476 113.019 224.479 108.994C213.766 121.17 215.117 129.122 218.697 133.65C205.332 146.627 214.784 161.001 219.632 165.497C218.537 164.897 215.448 161.899 211.854 154.715C208.26 147.531 213.694 137.675 216.861 133.646Z" fill="#012F3E" fill-opacity="0.04"/>
<path d="M223.936 185.04L223.17 198.199C224.185 194.957 224.712 185.91 224.712 185.91C244.483 187.059 270.448 186.842 289.486 189.202C288.268 186.264 246.424 185.923 223.936 185.04Z" fill="black" fill-opacity="0.04"/>
<path d="M223.536 202.511C224.25 205.542 250.583 210.945 272.8 214.223C272.8 214.223 286.731 216.705 293.882 215.051C304.256 212.651 304.834 206.448 304.834 206.448L304.81 206.48C302.127 209.972 300.106 212.602 293.255 214.252C287.65 215.601 239.701 208.183 223.536 202.511Z" fill="black" fill-opacity="0.04"/>
<path d="M279.226 167.832C281.872 186.241 283.628 187.066 283.628 187.066C280.154 168.144 279.666 159.745 276.63 146.016C276.657 151.141 276.58 149.422 279.226 167.832Z" fill="black" fill-opacity="0.04"/>
<path d="M221.736 217.288C223 244 225 244 225 244C222.213 197.607 225.174 200.582 221.884 166.822C220.399 179.208 220.472 190.575 221.736 217.288Z" fill="black" fill-opacity="0.04"/>
<path d="M237.872 87.6488L237.738 104.145C237.738 104.145 218.583 134.325 225.315 140.063C232.047 145.8 259.492 113.407 263.886 107.244L262.684 75.7073L237.872 87.6488Z" fill="#FFC9BF"/>
<path d="M237.739 115.5C238.134 111.52 237.739 104.146 237.739 104.146C237.739 104.146 227.741 118.691 224.673 129.794C220.897 143.453 222.613 165.159 222.613 165.159C222.613 165.159 263.211 118.83 263.886 107.245C263.886 107.245 254 115.5 249.5 117.5C243.413 120.205 236.5 128 237.739 115.5Z" fill="white"/>
<path d="M240.502 134L237.5 125L241 132L256 121.5L240.502 134Z" fill="black" fill-opacity="0.06"/>
<path d="M228.86 130.542L236.951 125.588L229.767 128.691L227.5 121.5L228.86 130.542Z" fill="black" fill-opacity="0.06"/>
<path d="M261.684 78.2916C260.913 89.5779 247.624 99.2169 237.978 94.5302L237.683 90.9403L261.684 78.2916Z" fill="#F19F90"/>
<path d="M243.394 92.2101C239.685 92.57 242.601 92.0038 235.892 92.0038C229.184 92.0038 220.288 76.2171 219.415 66.5085C219.415 66.5085 219.753 60.7982 219.404 57.1667C219.05 53.4934 217.601 47.8902 217.601 47.8902C216.729 38.1816 223.9 29.6062 233.619 28.7365L245.764 27.6497C255.483 26.78 264.069 33.9454 264.941 43.654L266.155 66.6439C267.028 76.3526 253.064 91.2717 243.394 92.2101Z" fill="#FFC9BF"/>
<path d="M230.678 45.8326C228.195 43.7104 226.3 40.9858 225.175 37.9207C224.794 37.0794 224.414 36.2567 224.057 35.4692C223.85 35.0782 222.567 38.072 220.728 41.266C219.749 42.9654 219.146 46.5805 219.425 49.4425C219.786 53.1447 219.551 54.9672 219.489 58.0925C218.508 56.6045 216.237 46.6261 216.216 44.8443C215.613 39.125 217.2 33.39 220.657 28.792C222.971 26.0979 225.756 23.8459 228.875 22.1458C233.612 19.1434 239.033 17.3893 244.633 17.0475C249.06 17.1618 253.438 17.9993 257.594 19.5269C263.222 21.223 268.968 23.5617 273.115 27.7372C278.3 32.9519 280.39 40.3915 281.427 47.7653C282.178 53.1673 281.794 57.1934 278.988 62.8067C275.768 66.9971 273.833 69.858 273.578 70.5399C273.487 71.1594 278.413 72.676 279.63 80.1737C280.102 86.2528 277.616 97.7165 263.891 94.9383C262.994 91.8524 263.153 89.1189 263.153 89.1189L262.818 84.9733C262.818 84.9733 262.622 78.1005 262.426 77.5235C262.426 77.5235 264.214 74.9367 264.265 74.3294C264.265 74.3294 264.931 72.1736 264.609 70.0186C261.545 56.4787 255.533 53.6603 252.573 52.079C247.76 50.6775 243.859 50.183 241.541 49.9357C237.298 48.8899 234.108 48.396 230.678 45.8326Z" fill="#535565"/>
<path d="M229.481 58.8568C229.564 59.3483 229.451 59.8525 229.166 60.2617C228.882 60.6709 228.449 60.9527 227.959 61.0469C227.721 61.106 227.474 61.1165 227.232 61.0778C226.99 61.0391 226.758 60.9519 226.55 60.8216C226.343 60.6912 226.164 60.5204 226.024 60.3192C225.884 60.1181 225.786 59.8908 225.736 59.651C225.655 59.1581 225.77 58.6532 226.056 58.2436C226.342 57.8341 226.777 57.5521 227.268 57.4577C227.505 57.4015 227.751 57.3933 227.992 57.4335C228.233 57.4737 228.463 57.5616 228.669 57.6919C228.875 57.8223 229.053 57.9925 229.193 58.1925C229.332 58.3925 229.43 58.6184 229.481 58.8568Z" fill="#525463"/>
<path d="M230.166 57.8489C229.969 58.1365 228.368 57.2959 226.334 57.6218C224.3 57.9477 222.969 59.19 222.706 58.9749C222.583 58.8909 222.752 58.4023 223.361 57.8161C224.149 57.0713 225.146 56.5847 226.218 56.4214C227.279 56.2567 228.365 56.4305 229.321 56.9179C229.982 57.3125 230.259 57.7225 230.166 57.8489Z" fill="#525463"/>
<path d="M248.015 57.0486C248.095 57.5398 247.981 58.0426 247.697 58.4512C247.413 58.8598 246.981 59.1422 246.492 59.2387C246.021 59.3516 245.524 59.273 245.11 59.0201C244.696 58.7673 244.4 58.3608 244.286 57.8899C244.205 57.3963 244.319 56.8906 244.604 56.4797C244.889 56.0687 245.323 55.7846 245.814 55.6872C246.286 55.5792 246.782 55.6616 247.194 55.9165C247.606 56.1713 247.901 56.5781 248.015 57.0486Z" fill="#525463"/>
<path d="M249.152 56.0411C248.953 56.3192 247.354 55.488 245.317 55.8045C243.28 56.1211 241.956 57.3821 241.693 57.167C241.566 57.0736 241.726 56.5882 242.345 55.9989C243.132 55.2532 244.131 54.7693 245.204 54.6136C246.263 54.4418 247.349 54.6125 248.305 55.1007C248.965 55.4953 249.245 55.9146 249.152 56.0411Z" fill="#525463"/>
<path d="M235.114 72.5478C234.111 72.2809 233.081 72.1407 232.044 72.1301C231.568 72.0654 231.146 72.008 231.016 71.6839C230.959 71.1703 231.052 70.6487 231.284 70.188C231.699 68.9516 232.131 67.66 232.581 66.3038C234.381 60.8026 235.669 56.2468 235.452 56.1598C235.235 56.0729 233.617 60.5071 231.814 66.0271C231.381 67.3951 230.967 68.6892 230.579 69.9292C230.299 70.5481 230.233 71.2469 230.392 71.9054C230.467 72.0806 230.58 72.2346 230.722 72.3554C230.864 72.4761 231.032 72.5603 231.211 72.6011C231.477 72.6771 231.752 72.7145 232.028 72.7122C233.058 72.7968 234.095 72.7415 235.114 72.5478Z" fill="#F19F90"/>
<path d="M240.905 77.5092C240.637 77.3209 239.67 79.3747 237.259 80.0053C234.849 80.6359 232.818 79.4086 232.636 79.669C232.556 79.783 232.936 80.2799 233.837 80.7282C235.012 81.3012 236.352 81.4398 237.62 81.1194C238.838 80.8327 239.899 80.0893 240.583 79.043C241.056 78.1606 241.05 77.5622 240.905 77.5092Z" fill="#F19F90"/>
<path d="M221.392 51.6016C221.812 52.0274 223.253 51.4727 225.039 51.2622C226.825 51.0518 228.356 51.3031 228.665 50.7943C228.796 50.5469 228.524 50.1 227.821 49.7156C226.896 49.2562 225.843 49.076 224.803 49.1991C223.755 49.3009 222.765 49.7105 221.972 50.3701C221.377 50.8878 221.205 51.3871 221.392 51.6016Z" fill="#525463"/>
<path d="M160.044 86.9564C160.044 86.9564 167.502 85.6702 170.12 97.8499C171.568 104.589 167.572 109.913 167.572 109.913L164.173 111.026C164.173 111.026 155.113 88.5712 160.044 86.9564Z" fill="#D5E7ED"/>
<path d="M162.331 87.3639C162.465 85.6135 124.909 89.5244 105.285 107.431C105.285 107.431 112.446 141.807 127.013 169.846C135.861 186.96 141.999 205.341 145.207 224.336C145.207 224.336 182.276 220.431 201.482 206.559C201.482 206.559 187.882 158.452 180.654 146.891C173.426 135.33 154.135 92.2208 162.331 87.3639Z" fill="white"/>
<path d="M179.789 162.483L137.518 177.13" stroke="#53597C" stroke-width="0.57" stroke-linecap="round" stroke-linejoin="round"/>
<path d="M184.512 171.78L140.615 186.155" stroke="#53597C" stroke-width="0.57" stroke-linecap="round" stroke-linejoin="round"/>
<path d="M187.488 180.846L143.591 195.221" stroke="#53597C" stroke-width="0.57" stroke-linecap="round" stroke-linejoin="round"/>
<path d="M168.875 134.329L126.604 148.976" stroke="#53597C" stroke-width="0.57" stroke-linecap="round" stroke-linejoin="round"/>
<path d="M172.088 144.121L129.705 158.001" stroke="#53597C" stroke-width="0.57" stroke-linecap="round" stroke-linejoin="round"/>
<path d="M176.578 152.691L134.308 167.338" stroke="#53597C" stroke-width="0.57" stroke-linecap="round" stroke-linejoin="round"/>
<path d="M157.969 106.173L115.698 120.82" stroke="#90E486" stroke-width="2" stroke-linecap="round" stroke-linejoin="round"/>
<path d="M161.184 115.964L118.8 129.844" stroke="#53597C" stroke-width="0.57" stroke-linecap="round" stroke-linejoin="round"/>
<path d="M164.152 125.032L121.882 139.679" stroke="#53597C" stroke-width="0.57" stroke-linecap="round" stroke-linejoin="round"/>
<path d="M148.688 208.28C149.131 209.632 149.966 210.823 151.087 211.701C152.208 212.579 153.565 213.106 154.985 213.213C156.406 213.321 157.827 213.006 159.068 212.307C160.309 211.609 161.316 210.558 161.959 209.288C162.603 208.018 162.856 206.587 162.685 205.174C162.514 203.761 161.928 202.43 161 201.351C160.072 200.271 158.844 199.49 157.472 199.108C156.1 198.725 154.645 198.757 153.291 199.201C151.476 199.795 149.971 201.086 149.108 202.788C148.244 204.491 148.093 206.467 148.688 208.28Z" fill="#FED546"/>
<path d="M129.12 97.5185C129.109 98.7477 129.338 99.9671 129.794 101.109C130.011 101.68 130.081 102.296 129.998 102.902C129.914 103.507 129.68 104.082 129.317 104.573C129.043 104.817 128.713 104.99 128.357 105.076C128 105.162 127.627 105.158 127.272 105.065C126.917 104.972 126.591 104.793 126.322 104.543C126.053 104.293 125.85 103.981 125.732 103.634C125.689 104.232 125.496 104.81 125.17 105.314C124.844 105.817 124.395 106.23 123.867 106.514C123.607 106.641 123.324 106.711 123.035 106.72C122.747 106.728 122.46 106.675 122.193 106.564C121.927 106.453 121.688 106.286 121.491 106.075C121.294 105.864 121.145 105.613 121.054 105.34C121.091 105.848 120.953 106.353 120.662 106.772C120.371 107.19 119.945 107.496 119.455 107.639C118.965 107.781 118.441 107.75 117.971 107.553C117.501 107.355 117.113 107.002 116.873 106.553C116.924 106.833 116.906 107.121 116.82 107.392C116.734 107.663 116.583 107.91 116.38 108.109C116.177 108.309 115.928 108.456 115.655 108.538C115.383 108.62 115.094 108.633 114.814 108.578C114.05 108.223 113.451 107.588 113.14 106.805C112.104 104.98 111.57 102.914 111.593 100.816C111.587 99.9261 111.928 99.0689 112.543 98.4257C112.703 98.2752 112.891 98.158 113.097 98.0812C113.303 98.0043 113.522 97.9693 113.741 97.9781C113.96 97.9869 114.176 98.0395 114.374 98.1327C114.573 98.2258 114.751 98.3578 114.898 98.5207C115.248 97.318 116.051 96.2975 117.138 95.6737C117.692 95.3904 118.335 95.3324 118.93 95.512C119.526 95.6916 120.029 96.0948 120.333 96.637C120.828 96.1694 121.406 95.798 122.038 95.5417C122.355 95.4301 122.696 95.4079 123.025 95.4775C123.354 95.547 123.657 95.7058 123.901 95.9362C124.138 95.1507 124.605 94.4541 125.242 93.9366C125.88 93.4191 126.658 93.1045 127.476 93.0333C128.852 92.9464 130.984 93.842 131.179 95.285C130.636 95.375 130.139 95.6436 129.765 96.0482C129.392 96.4528 129.165 96.9703 129.12 97.5185Z" fill="#FFC9BF"/>
<path d="M125.733 103.637C124.683 101.189 124.094 98.5684 123.996 95.9066" stroke="#F19F90" stroke-width="0.28" stroke-linecap="round" stroke-linejoin="round"/>
<path d="M121.136 105.316C120.276 102.502 120.025 99.5364 120.4 96.6169" stroke="#F19F90" stroke-width="0.28" stroke-linecap="round" stroke-linejoin="round"/>
<path d="M116.935 106.536C115.771 104.015 115.098 101.296 114.949 98.5231" stroke="#F19F90" stroke-width="0.28" stroke-linecap="round" stroke-linejoin="round"/>
<path d="M210.169 175.919C211.309 178.93 213.112 186.404 213.112 186.404L223.819 187.026L223.12 199.022L210.762 198.304C210.762 198.304 201.75 198.321 199.737 194.991C198.208 192.463 198.423 187.511 198.423 187.511C198.423 187.511 186.605 187.276 187.001 185.244C187.363 183.382 198.3 183.671 198.3 183.671C198.3 183.671 186.378 182.445 186.69 180.335C186.942 178.632 200.751 178.794 200.751 178.794C200.751 178.794 187.086 176.445 187.446 175.226C188.138 172.888 202.323 175.187 202.323 175.187C202.323 175.187 189.919 173.181 190.525 170.783C190.85 169.496 202.2 171.347 202.2 171.347C202.2 171.347 208.776 172.242 210.169 175.919Z" fill="#FFC9BF"/>
<defs>
<linearGradient id="paint0_linear" x1="221.885" y1="105.274" x2="270.452" y2="227.519" gradientUnits="userSpaceOnUse">
<stop stop-color="#7CED9E"/>
<stop offset="1" stop-color="#4CD174"/>
</linearGradient>
</defs>
</svg>
