<svg width="780" height="246" viewBox="0 0 780 246" fill="none" xmlns="http://www.w3.org/2000/svg">
<path d="M16.2339 245H779.887C779.887 245 786.617 202.281 696.391 193.326C618 185.546 554.963 180 554.963 134.766C554.963 75.5002 505.246 27.7956 397.5 31.9331C346 31.9331 302.5 70.5002 235.77 31.9331C155 -14.7484 69.229 0 33.739 50.537C-17.5 123.5 62.0186 139.583 36.4399 158.187C10.8613 176.791 1.40057 199.525 0.0720215 213.991C-1.25653 228.458 16.2339 245 16.2339 245Z" fill="#F0FCFF"/>
<path d="M406.106 168.055C406.106 168.055 406.402 160.371 409.647 155.054C412.893 149.738 424.71 145.9 430.914 148.582C434.053 149.869 437.111 151.349 440.068 153.011C433.906 154.944 428.043 157.727 422.648 161.277C417.658 164.648 412.027 166.956 406.106 168.055Z" fill="#E0F4FA"/>
<path d="M393.695 171.865C393.695 171.865 400.787 165.078 402.017 155.619C403.247 146.159 393.15 131.402 393.15 131.402C389.826 137.709 387.156 144.34 385.179 151.19C382.183 161.851 393.695 171.865 393.695 171.865Z" fill="#E0F4FA"/>
<path d="M380.114 168.943C380.114 168.943 381.89 160.085 378.635 153.88C375.38 147.676 366.818 148.268 358.293 150.921C349.767 153.575 347.067 153.584 347.067 153.584C347.067 153.584 357.109 160.371 365.681 163.922C370.376 165.912 375.198 167.59 380.114 168.943Z" fill="#E0F4FA"/>
<path d="M393.624 209.331C393.826 209.329 394.019 209.247 394.161 209.103C394.303 208.96 394.382 208.766 394.382 208.564V157.773C394.394 157.666 394.383 157.557 394.35 157.454C394.317 157.352 394.263 157.257 394.191 157.177C394.119 157.096 394.031 157.032 393.932 156.988C393.834 156.944 393.727 156.921 393.619 156.921C393.511 156.921 393.405 156.944 393.306 156.988C393.208 157.032 393.12 157.096 393.048 157.177C392.976 157.257 392.921 157.352 392.888 157.454C392.856 157.557 392.845 157.666 392.856 157.773V208.564C392.856 208.768 392.937 208.963 393.081 209.107C393.225 209.251 393.42 209.331 393.624 209.331Z" fill="#CBE3EB"/>
<path d="M390.074 209.332H390.148C390.247 209.318 390.342 209.285 390.428 209.234C390.515 209.184 390.59 209.116 390.65 209.036C390.71 208.956 390.754 208.865 390.779 208.768C390.804 208.672 390.809 208.571 390.795 208.472C390.647 207.408 387.096 173.825 374.965 159.937C374.827 159.806 374.645 159.73 374.454 159.726C374.264 159.721 374.079 159.788 373.935 159.912C373.79 160.037 373.698 160.211 373.675 160.4C373.651 160.589 373.699 160.78 373.809 160.935C385.626 174.481 389.251 208.425 389.288 208.684C389.315 208.87 389.411 209.04 389.556 209.159C389.701 209.279 389.886 209.34 390.074 209.332Z" fill="#CBE3EB"/>
<path d="M397.163 208.74C397.264 208.739 397.364 208.718 397.456 208.678C397.549 208.638 397.633 208.581 397.703 208.509C397.774 208.436 397.829 208.351 397.867 208.258C397.904 208.164 397.923 208.064 397.922 207.963C397.922 207.723 397.801 175.12 412.106 163.682C412.206 163.63 412.293 163.557 412.362 163.468C412.431 163.378 412.479 163.275 412.503 163.165C412.528 163.055 412.528 162.941 412.503 162.831C412.478 162.721 412.43 162.618 412.361 162.529C412.292 162.44 412.204 162.368 412.104 162.316C412.003 162.265 411.893 162.236 411.78 162.233C411.668 162.229 411.556 162.25 411.452 162.294C411.349 162.338 411.256 162.405 411.181 162.489C396.294 174.398 396.387 206.964 396.387 207.982C396.388 208.082 396.409 208.182 396.449 208.275C396.488 208.367 396.546 208.451 396.618 208.522C396.69 208.592 396.775 208.647 396.869 208.685C396.963 208.722 397.063 208.741 397.163 208.74Z" fill="#CBE3EB"/>
<path d="M385.347 208.444C385.414 208.453 385.483 208.453 385.55 208.444C385.744 208.392 385.909 208.265 386.009 208.092C386.109 207.919 386.137 207.713 386.086 207.519C386.003 207.196 383.932 191.07 379.179 184.532C379.12 184.451 379.045 184.382 378.959 184.33C378.873 184.277 378.777 184.243 378.678 184.227C378.578 184.212 378.476 184.216 378.378 184.24C378.28 184.264 378.188 184.307 378.107 184.366C378.026 184.425 377.957 184.499 377.905 184.584C377.853 184.669 377.818 184.764 377.802 184.863C377.787 184.962 377.791 185.063 377.815 185.16C377.838 185.257 377.881 185.349 377.94 185.429C382.564 191.736 384.589 207.843 384.616 207.917C384.666 208.071 384.763 208.206 384.895 208.301C385.026 208.396 385.185 208.446 385.347 208.444Z" fill="#CBE3EB"/>
<path d="M380.703 188.139C380.703 188.139 380.999 179.872 377.448 178.689C373.898 177.505 370.661 180.464 367.998 182.23C365.335 183.996 362.386 185.781 362.386 191.098C362.386 196.414 364.457 206.16 364.457 206.16C364.457 206.16 367.406 196.997 372.427 192.864C377.448 188.731 380.703 188.139 380.703 188.139Z" fill="#E0F4FA"/>
<path d="M402.48 208.74C402.642 208.74 402.8 208.689 402.931 208.595C403.062 208.5 403.16 208.366 403.211 208.213C403.211 208.139 405.578 192.429 410.932 188.203C411.011 188.141 411.076 188.064 411.125 187.976C411.174 187.888 411.205 187.792 411.216 187.692C411.227 187.592 411.218 187.491 411.19 187.395C411.162 187.299 411.115 187.209 411.052 187.131C410.926 186.972 410.743 186.869 410.542 186.845C410.341 186.821 410.139 186.877 409.979 187.001C404.256 191.523 401.852 207.436 401.75 207.741C401.702 207.93 401.727 208.13 401.819 208.301C401.912 208.472 402.065 208.602 402.249 208.666C402.321 208.704 402.399 208.729 402.48 208.74Z" fill="#CBE3EB"/>
<path d="M406.107 190.801C406.107 190.801 404.923 185.485 407.882 181.638C410.841 177.792 417.924 178.689 421.465 182.822C425.006 186.955 430.027 199.364 430.027 199.364C430.027 199.364 422.945 193.751 414.669 193.751C406.393 193.751 406.107 190.801 406.107 190.801Z" fill="#E0F4FA"/>
<path d="M382.573 245.458H406.142L417.932 206.465H370.784L382.573 245.458Z" fill="#E0F4FA"/>
<path d="M213.965 21.757C213.965 9.73657 229.286 0 248.177 0C267.067 0 282.389 9.74582 282.389 21.757C282.389 33.7682 267.067 43.5048 248.177 43.5048C241.55 43.5673 234.981 42.2773 228.87 39.7137L214.584 47.3421L219.087 33.1672C215.842 29.8755 213.965 25.9549 213.965 21.757Z" fill="#FED546"/>
<path d="M257.469 22.3951C257.469 21.7623 257.656 21.1438 258.008 20.6177C258.359 20.0915 258.859 19.6815 259.444 19.4393C260.028 19.1972 260.671 19.1338 261.292 19.2573C261.913 19.3807 262.483 19.6854 262.93 20.1329C263.378 20.5803 263.682 21.1503 263.806 21.7709C263.929 22.3915 263.866 23.0348 263.624 23.6194C263.382 24.204 262.971 24.7037 262.445 25.0552C261.919 25.4067 261.301 25.5944 260.668 25.5944C259.819 25.5944 259.006 25.2573 258.406 24.6573C257.806 24.0573 257.469 23.2436 257.469 22.3951Z" fill="white"/>
<path d="M244.055 22.3951C244.055 21.7623 244.242 21.1438 244.594 20.6177C244.945 20.0915 245.445 19.6815 246.03 19.4393C246.614 19.1972 247.257 19.1338 247.878 19.2573C248.499 19.3807 249.069 19.6854 249.516 20.1329C249.964 20.5803 250.268 21.1503 250.392 21.7709C250.515 22.3915 250.452 23.0348 250.21 23.6194C249.967 24.204 249.557 24.7037 249.031 25.0552C248.505 25.4067 247.887 25.5944 247.254 25.5944C246.405 25.5944 245.592 25.2573 244.992 24.6573C244.392 24.0573 244.055 23.2436 244.055 22.3951Z" fill="white"/>
<path d="M230.599 22.3951C230.599 21.7623 230.787 21.1438 231.139 20.6177C231.49 20.0915 231.99 19.6815 232.574 19.4393C233.159 19.1972 233.802 19.1338 234.423 19.2573C235.044 19.3807 235.614 19.6854 236.061 20.1329C236.508 20.5803 236.813 21.1503 236.937 21.7709C237.06 22.3915 236.997 23.0348 236.755 23.6194C236.512 24.204 236.102 24.7037 235.576 25.0552C235.05 25.4067 234.432 25.5944 233.799 25.5944C232.95 25.5944 232.136 25.2573 231.537 24.6573C230.937 24.0573 230.599 23.2436 230.599 22.3951Z" fill="white"/>
<circle cx="200" cy="97" r="13" fill="#535565"/>
<path d="M186.766 28.0864C178.819 26.673 169.447 26.1954 162.084 29.4329C162.084 29.4329 152.236 33.3007 147.801 42.7814C144.475 49.8919 144 55.5803 144 74.5417C147.326 88.7627 169.308 120 189.617 110.094C211 99.6654 211 76.5947 211 61.2687C211 43.2554 200.348 30.3798 186.766 28.0864Z" fill="#535565"/>
<path d="M301.224 144.051C301.224 144.051 307.622 128.378 309.86 124.227C312.098 120.075 318.82 117.828 321.696 116.83C324.571 115.831 334.493 107.87 335.769 105.956C337.045 104.042 339.606 108.193 336.092 111.393C332.579 114.592 327.456 119.067 327.456 119.067L346.643 121.009C346.643 121.009 360.725 113.325 359.763 116.848C358.802 120.371 349.528 131.883 343.767 132.844C338.006 133.806 317.535 134.121 317.535 134.121L309.213 151.069L301.224 144.051Z" fill="#FFC9BF"/>
<path d="M337.535 126.89C334.178 126.039 323.841 123.57 323.841 123.57L327.456 119.104L346.643 121.009C346.643 121.009 360.725 113.325 359.763 116.848C358.802 120.371 349.528 131.883 343.767 132.844C342.75 133.011 341.27 133.159 339.532 133.288C339.763 130.912 339.708 127.482 337.535 126.89Z" fill="#F4B5A9"/>
<path d="M342.49 132.863C342.49 132.863 355.685 115.295 354.64 114.305C350.812 110.699 340.891 127.741 340.891 127.741C340.891 127.741 324.571 125.179 321.057 125.179C317.543 125.179 316.582 127.741 316.582 127.741C315.968 128.738 315.609 129.872 315.537 131.042C315.537 132.697 317.534 134.139 317.534 134.139C317.534 134.139 339.559 134.675 342.49 132.863Z" fill="#FFC9BF"/>
<path d="M235.334 128.406L262.842 187.27L301.862 141.204L318.82 152.715C318.82 152.715 277.877 208.056 268.279 214.131C258.681 220.206 248.769 209.341 248.769 209.341L229.249 181.509L235.334 128.406Z" fill="url(#paint0_linear)"/>
<path d="M197.587 117.505C197.587 117.505 235.331 125.826 235.331 128.378C235.331 130.93 233.084 173.806 229.894 187.556C227.963 195.466 226.466 203.477 225.41 211.551C224.772 216.026 236.148 245.127 236.148 245.127H140.93C140.93 245.127 151.197 225.938 153.444 217.626C155.691 209.313 130.726 140.214 130.411 137.015C130.097 133.815 162.395 123.265 168.155 122.303C173.916 121.342 197.587 117.505 197.587 117.505Z" fill="url(#paint1_linear)"/>
<path d="M130.41 137.015C130.41 137.015 105.14 184.422 107.756 189.655C110.373 194.889 118.242 194.279 124.132 190.968C130.022 187.658 140.887 168.777 140.887 168.777L130.41 137.015Z" fill="#57D87E"/>
<path d="M206.223 153.011C203.712 170.142 197.489 186.517 187.989 200.991C187.989 200.991 165.918 145.013 165.918 130.302V122.803C166.842 122.562 167.619 122.396 168.155 122.303C173.916 121.379 197.587 117.505 197.587 117.505C197.587 117.505 200.777 118.207 205.299 119.271C206.778 123.117 208.997 132.863 206.223 153.011Z" fill="white"/>
<path d="M188.626 131.215L204.003 141.451C204.003 141.451 205.926 133.129 205.288 126.416C204.65 119.703 196.042 113.942 195.052 113.628C194.063 113.313 179.694 114.904 174.895 116.503C170.096 118.103 166.897 123.54 166.259 125.14C165.621 126.739 177.142 143.374 177.142 143.374L188.626 131.215Z" fill="#E2E3EF"/>
<path d="M188.442 129.2L203.819 139.436C203.819 139.436 205.743 131.114 205.105 124.401C204.467 117.688 195.858 111.928 194.869 111.613C193.879 111.299 179.51 112.889 174.711 114.489C169.912 116.089 166.713 121.526 166.075 123.125C165.437 124.725 176.958 141.359 176.958 141.359L188.442 129.2Z" fill="white"/>
<path d="M198.225 83.7496C198.225 83.7496 198.863 116.229 197.587 120.066C196.311 123.903 190.541 131.901 187.989 131.901C185.437 131.901 172.462 117.756 172.462 117.756L172.462 98.5888L198.226 73.2384C199.422 74.7109 197.938 81.8739 198.225 83.7496Z" fill="#FFC9BF"/>
<path d="M198.432 94.2607L171.227 105.39C172.415 110.822 172.463 113.428 172.463 113.428C184.829 118.993 197.983 106.371 198.432 94.2607Z" fill="#F19F90"/>
<path d="M200.347 65.9243C200.347 65.9243 202.994 83.4653 200.347 90.7396C196.363 101.691 187.228 110.337 179.235 110.337C168.388 110.337 160.554 98.1791 156.971 90.7396C154.116 82.6702 153.545 75.7536 152.059 66.2195C153.552 55.4958 168.453 43.5839 177.695 42.3957C186.938 41.2074 199.157 54.9054 200.347 65.9243Z" fill="#FFC9BF"/>
<path d="M165.761 29.2831C176.996 23.6577 190.66 29.2831 199.08 36.8798C209.922 48.9939 204.783 70 204.783 70C204.783 70 196.755 69.3385 184.76 62.4109C172.765 55.4832 168.24 45.8858 168.24 45.8858C168.24 45.8858 168.056 49.6665 164.11 53.5582C160.164 57.4498 151.945 63.0798 150.758 65.0219C149.604 66.7629 148.354 68.4253 147.015 70C147.015 70 146.64 52.0075 149.596 44.0084C152.552 36.0092 165.761 29.2831 165.761 29.2831Z" fill="#535565"/>
<path d="M152.747 72.119C152.747 72.119 146.754 71.7446 145.984 75.9833C145.214 80.2219 148.466 92.9389 151.055 94.6826C153.644 96.4262 158.358 94.2658 158.358 94.2658L152.747 72.119Z" fill="#6FF296"/>
<path d="M153.758 93.0242C153.758 93.0242 156.525 97.4419 163.448 99.9767C167.704 101.485 172.297 101.776 176.709 100.817" stroke="#2DB974" stroke-miterlimit="10"/>
<path d="M173.629 100.809C173.629 101.136 173.865 101.528 174.457 101.866C175.036 102.197 175.869 102.417 176.816 102.417C177.762 102.417 178.595 102.197 179.174 101.866C179.767 101.528 180.002 101.136 180.002 100.809C180.002 100.484 179.767 100.093 179.175 99.7566C178.596 99.4276 177.763 99.2091 176.816 99.2091C175.869 99.2091 175.036 99.4292 174.457 99.7591C173.863 100.097 173.629 100.488 173.629 100.809Z" fill="#2DB974" stroke="#2DB974"/>
<path d="M134.542 90.1998C134.542 90.1998 136.058 79.03 136.058 76.6074C136.058 74.1848 139.683 73.5931 139.979 76.3115C140.275 79.03 138.777 85.3731 138.777 85.3731L134.542 90.1998Z" fill="#F4B5A9"/>
<path d="M148.321 80.084L147.396 93.5099C147.396 93.5099 163.115 110.154 162.116 114.629C161.118 119.104 149.92 137.653 149.92 137.653L136.602 132.596L148.968 114.046C148.968 114.046 134.275 98.3089 134.275 92.2339C134.275 86.159 141.672 75.2851 141.672 73.9998C141.672 72.7145 148.644 70.4861 148.321 80.084Z" fill="#FFC9BF"/>
<path d="M142.165 93.0243C141.729 91.7877 144.638 76.3301 144.638 76.3301C144.638 76.3301 140.09 91.7877 140.928 93.6426C142.165 96.3784 147.111 100.444 147.111 100.444C147.111 100.444 143.322 96.3088 142.165 93.0243Z" fill="#F19F90"/>
<path d="M138.455 92.406C138.019 91.1693 142.783 76.3301 142.783 76.3301C142.783 76.3301 136.38 91.1693 137.218 93.0243C138.455 95.7601 142.165 99.8256 142.165 99.8256C142.165 99.8256 139.612 95.6905 138.455 92.406Z" fill="#F19F90"/>
<path d="M140.647 124.227L157.291 137.015C157.291 137.015 130.421 191.717 126.898 197.478C123.375 203.238 108.349 207.714 103.55 196.553C98.7514 185.393 106.426 176.719 108.664 172.244C110.901 167.769 140.647 124.227 140.647 124.227Z" fill="url(#paint2_linear)"/>
<path d="M161.115 74.5805C161.185 75.1186 161.462 75.6082 161.887 75.9457C162.313 76.2832 162.853 76.442 163.393 76.3886C163.658 76.3764 163.919 76.311 164.158 76.196C164.398 76.0811 164.612 75.9191 164.787 75.7196C164.962 75.5202 165.096 75.2875 165.179 75.0354C165.262 74.7834 165.294 74.5171 165.272 74.2526C165.21 73.7122 164.938 73.2177 164.514 72.8759C164.091 72.5342 163.55 72.3727 163.008 72.4262C162.741 72.4408 162.48 72.5085 162.239 72.6252C161.999 72.742 161.785 72.9055 161.608 73.1061C161.432 73.3068 161.298 73.5405 161.213 73.7937C161.128 74.0469 161.095 74.3144 161.115 74.5805Z" fill="#535565"/>
<path d="M159.913 73.7268C160.194 73.9719 161.609 72.6096 163.845 72.3172C166.08 72.0249 167.841 72.9222 168.052 72.6294C168.262 72.3365 167.826 72.0454 167.04 71.6176C165.996 71.0761 164.809 70.872 163.644 71.0336C162.468 71.1692 161.37 71.6856 160.516 72.5037C159.932 73.1108 159.769 73.646 159.913 73.7268Z" fill="#535565"/>
<path d="M184.465 71.1965C184.526 71.7353 184.799 72.228 185.222 72.5671C185.646 72.9062 186.187 73.0641 186.727 73.0066C186.992 72.9945 187.252 72.929 187.492 72.8141C187.731 72.6991 187.945 72.5371 188.121 72.3377C188.296 72.1383 188.429 71.9056 188.512 71.6535C188.596 71.4014 188.627 71.1352 188.605 70.8707C188.543 70.3302 188.271 69.8357 187.848 69.494C187.424 69.1523 186.883 68.9907 186.341 69.0442C186.075 69.0587 185.815 69.1264 185.576 69.2432C185.336 69.36 185.123 69.5236 184.948 69.7243C184.773 69.925 184.64 70.1587 184.557 70.4115C184.474 70.6644 184.443 70.9313 184.465 71.1965Z" fill="#535565"/>
<path d="M183.433 70.7521C183.728 70.9788 185.143 69.6165 187.363 69.3263C189.582 69.036 191.361 69.9476 191.57 69.6384C191.778 69.3292 191.36 69.0523 190.574 68.6245C189.527 68.0931 188.343 67.8896 187.178 68.0405C186.006 68.1875 184.911 68.7023 184.051 69.5106C183.466 70.1177 183.285 70.6388 183.433 70.7521Z" fill="#535565"/>
<path d="M177.982 86.3379C176.745 86.2981 175.508 86.4227 174.304 86.7083C173.751 86.8671 173.179 86.843 172.979 86.5067C172.786 85.9659 172.755 85.3802 172.89 84.8218L173.271 80.1799C173.825 73.5728 174.061 68.1857 173.785 68.1792C172.975 72.1117 172.482 76.1025 172.31 80.1133C172.178 81.742 172.075 83.2937 171.938 84.7869C171.782 85.5465 171.9 86.3367 172.27 87.018C172.406 87.1877 172.579 87.3248 172.775 87.4195C172.971 87.5142 173.185 87.5641 173.403 87.5655C173.737 87.5567 174.068 87.5132 174.393 87.4355C175.632 87.2265 176.838 86.8576 177.982 86.3379Z" fill="#F19F90"/>
<path d="M181.428 93.1108C181.13 92.9062 178.856 93.661 176.156 93.9042C173.456 94.1474 172.381 93.7096 172.181 93.9716C171.982 94.2336 172.387 94.6904 173.251 95.3221C174.419 96.1391 175.834 96.5237 177.254 96.4097C178.617 96.2941 179.881 95.6508 180.776 94.6169C181.461 93.8503 181.614 93.2182 181.428 93.1108Z" fill="white"/>
<path d="M181.919 63.6061C182.271 64.1519 184.54 63.3541 187.353 63.0771C190.166 62.8 192.542 62.9885 192.787 62.3799C192.885 62.0892 192.385 61.6092 191.371 61.2414C190.022 60.7935 188.574 60.6433 187.137 60.8023C185.7 60.9612 184.311 61.4251 183.076 62.1589C182.148 62.7651 181.753 63.3394 181.919 63.6061Z" fill="#535565"/>
<path d="M156.958 66.8884C157.589 67.2892 159.758 66.5223 162.439 66.1717C165.12 65.8211 167.416 65.8484 167.872 65.2741C168.077 64.9978 167.778 64.5535 166.604 64.2546C165.202 63.886 163.614 63.8165 162.045 64.055C160.476 64.2935 158.998 64.8291 157.802 65.5928C156.911 66.1615 156.667 66.6925 156.958 66.8884Z" fill="#535565"/>
<path d="M153.324 239.672H273.695V245.063H153.324V239.672Z" fill="#6E8DAA"/>
<path d="M226.622 245.063H361.603L374.742 154.854H239.762L226.622 245.063Z" fill="#6E8DAA"/>
<path d="M231.07 245.063H366.05L379.189 154.854H244.2L231.07 245.063Z" fill="#839EB7"/>
<path d="M165.248 162.025C152.622 153.306 156.67 136.755 160.271 129.57C154.568 149.086 160.645 157.645 167.407 161.109C159.04 182.887 178.768 197.709 187 200.5C185.375 200.352 175.733 195.49 170 188C163.587 179.622 163.805 168.294 165.248 162.025Z" fill="black" fill-opacity="0.04"/>
<path d="M208.5 162C221 154.5 217.338 134.076 214 124C219.187 150.107 213.305 158.908 206.833 161.14C214.526 190.891 196.106 199.869 188.244 200.808C189.792 201.126 194.874 200.359 202.825 194.754C210.775 189.149 209.796 170.266 208.5 162Z" fill="#012F3E" fill-opacity="0.04"/>
<defs>
<linearGradient id="paint0_linear" x1="274.035" y1="128.406" x2="274.035" y2="215.977" gradientUnits="userSpaceOnUse">
<stop stop-color="#7CED9E"/>
<stop offset="1" stop-color="#4CD174"/>
</linearGradient>
<linearGradient id="paint1_linear" x1="183.279" y1="117.505" x2="183.279" y2="245.127" gradientUnits="userSpaceOnUse">
<stop stop-color="#7CED9E"/>
<stop offset="1" stop-color="#4CD174"/>
</linearGradient>
<linearGradient id="paint2_linear" x1="129.646" y1="124.227" x2="129.646" y2="203.429" gradientUnits="userSpaceOnUse">
<stop stop-color="#7CED9E"/>
<stop offset="1" stop-color="#4CD174"/>
</linearGradient>
</defs>
</svg>
