<svg width="780" height="251" viewBox="0 0 780 251" fill="none" xmlns="http://www.w3.org/2000/svg">
<path d="M16.2339 249.893H779.887C779.887 249.893 786.617 207.366 696.391 198.452C618 190.707 554.963 185.187 554.963 140.157C554.963 81.159 505.246 33.67 397.5 37.7888C346 37.7888 302.5 76.1816 235.77 37.7888C155 -8.68164 69.229 6.00012 33.739 56.3086C-17.5 128.942 62.0186 144.952 36.4399 163.472C10.8613 181.992 1.40057 204.623 0.0720215 219.024C-1.25653 233.425 16.2339 249.893 16.2339 249.893Z" fill="#F0FCFF"/>
<path d="M228.451 121.919L225.499 148.034C224.279 139.531 221.947 134.913 228.451 121.919Z" fill="black" fill-opacity="0.04"/>
<path d="M333.253 141.089C333.769 144.714 333.24 148.411 331.728 151.749C330.215 155.088 327.781 157.932 324.708 159.951C326.858 154.517 330.575 146.676 333.253 141.089Z" fill="black" fill-opacity="0.04"/>
<g filter="url(#filter0_d)">
<path d="M67.5277 48.6041L16.7065 79.4449C23.2823 83.4596 40.9136 100.366 38.1311 137.615C34.6928 183.644 60.1428 196.444 86.0351 210.719C97.5622 217.074 106.706 237.306 105.353 247.464L163.834 211.975C166.432 190.469 147.747 171.887 141.302 169.16C128.427 161.282 94.6225 154.947 97.6088 112.337C100.847 66.137 75.1809 47.6293 67.5277 48.6041Z" fill="white"/>
</g>
<path d="M33.1094 84.1793C32.8516 83.758 32.9849 83.2088 33.4071 82.9525L72.7299 59.0885C73.1521 58.8323 73.7034 58.966 73.9612 59.3873C74.2189 59.8086 74.0856 60.3579 73.6634 60.6141L34.3407 84.4781C33.9184 84.7344 33.3672 84.6006 33.1094 84.1793Z" fill="#95B7D6"/>
<path d="M38.7988 91.1874C38.541 90.7661 38.6743 90.2168 39.0965 89.9606L78.4193 66.0966C78.8415 65.8403 79.3928 65.9741 79.6506 66.3954C79.9084 66.8167 79.7751 67.3659 79.3529 67.6222L40.0301 91.4862C39.6079 91.7424 39.0566 91.6086 38.7988 91.1874Z" fill="#95B7D6"/>
<path d="M42.4453 99.4354C42.1875 99.0141 42.3208 98.4649 42.743 98.2086L82.0658 74.3446C82.488 74.0884 83.0393 74.2221 83.2971 74.6434C83.5549 75.0647 83.4216 75.614 82.9994 75.8702L43.6766 99.7342C43.2544 99.9905 42.7031 99.8567 42.4453 99.4354Z" fill="#95B7D6"/>
<path d="M46.0898 107.683C45.832 107.262 45.9653 106.713 46.3876 106.456L85.7103 82.5924C86.1326 82.3362 86.6838 82.47 86.9416 82.8912C87.1994 83.3125 87.0661 83.8618 86.6439 84.118L47.3211 107.982C46.8989 108.238 46.3476 108.104 46.0898 107.683Z" fill="#95B7D6"/>
<path d="M48.2051 116.86C47.9473 116.439 48.0806 115.89 48.5028 115.634L87.8256 91.7696C88.2478 91.5134 88.7991 91.6472 89.0569 92.0685C89.3147 92.4898 89.1814 93.039 88.7591 93.2952L49.4364 117.159C49.0141 117.416 48.4629 117.282 48.2051 116.86Z" fill="#95B7D6"/>
<path d="M48.2773 127.278C48.0195 126.856 48.1528 126.307 48.5751 126.051L87.8978 102.187C88.3201 101.931 88.8713 102.064 89.1291 102.486C89.3869 102.907 89.2536 103.456 88.8314 103.712L49.5086 127.577C49.0864 127.833 48.5351 127.699 48.2773 127.278Z" fill="#95B7D6"/>
<path d="M48.3496 137.695C48.0918 137.273 48.2251 136.724 48.6473 136.468L87.9701 112.604C88.3923 112.348 88.9436 112.481 89.2014 112.903C89.4592 113.324 89.3259 113.873 88.9037 114.129L49.5809 137.994C49.1587 138.25 48.6074 138.116 48.3496 137.695Z" fill="#95B7D6"/>
<path d="M48.4199 148.112C48.1621 147.691 48.2954 147.141 48.7176 146.885L88.0404 123.021C88.4626 122.765 89.0139 122.899 89.2717 123.32C89.5295 123.741 89.3962 124.29 88.974 124.547L49.6512 148.411C49.229 148.667 48.6777 148.533 48.4199 148.112Z" fill="#95B7D6"/>
<path d="M50.0254 157.599C49.7676 157.178 49.9009 156.629 50.3231 156.372L89.6459 132.508C90.0681 132.252 90.6194 132.386 90.8772 132.807C91.135 133.229 91.0017 133.778 90.5794 134.034L51.2567 157.898C50.8344 158.154 50.2832 158.021 50.0254 157.599Z" fill="#95B7D6"/>
<path d="M52.6504 166.467C52.3926 166.046 52.5259 165.496 52.9481 165.24L92.2709 141.376C92.6931 141.12 93.2444 141.254 93.5022 141.675C93.76 142.096 93.6267 142.645 93.2044 142.902L53.8817 166.766C53.4594 167.022 52.9082 166.888 52.6504 166.467Z" fill="#95B7D6"/>
<path d="M56.8066 174.405C56.5488 173.984 56.6821 173.434 57.1044 173.178L96.4271 149.314C96.8494 149.058 97.4006 149.192 97.6584 149.613C97.9162 150.034 97.7829 150.583 97.3607 150.84L58.0379 174.704C57.6157 174.96 57.0644 174.826 56.8066 174.405Z" fill="#95B7D6"/>
<path d="M61.9863 181.723C61.7285 181.302 61.8618 180.753 62.284 180.496L101.607 156.632C102.029 156.376 102.58 156.51 102.838 156.931C103.096 157.353 102.963 157.902 102.54 158.158L63.2176 182.022C62.7954 182.278 62.2441 182.145 61.9863 181.723Z" fill="#95B7D6"/>
<path d="M68.6953 188.111C68.4375 187.69 68.5708 187.141 68.993 186.885L108.316 163.021C108.738 162.764 109.289 162.898 109.547 163.319C109.805 163.741 109.672 164.29 109.249 164.546L69.9266 188.41C69.5044 188.667 68.9531 188.533 68.6953 188.111Z" fill="#95B7D6"/>
<path d="M76.4277 193.88C76.1699 193.459 76.3032 192.909 76.7255 192.653L116.048 168.789C116.47 168.533 117.022 168.667 117.28 169.088C117.537 169.509 117.404 170.059 116.982 170.315L77.659 194.179C77.2368 194.435 76.6855 194.301 76.4277 193.88Z" fill="#95B7D6"/>
<path d="M84.1621 199.649C83.9043 199.228 84.0376 198.678 84.4598 198.422L123.783 174.558C124.205 174.302 124.756 174.436 125.014 174.857C125.272 175.278 125.138 175.827 124.716 176.084L85.3934 199.948C84.9712 200.204 84.4199 200.07 84.1621 199.649Z" fill="#95B7D6"/>
<path d="M93.9355 204.178C93.6777 203.756 93.811 203.207 94.2333 202.951L133.556 179.087C133.978 178.831 134.53 178.964 134.787 179.386C135.045 179.807 134.912 180.356 134.49 180.612L95.1668 204.476C94.7446 204.733 94.1933 204.599 93.9355 204.178Z" fill="#95B7D6"/>
<path d="M102.176 209.636C101.918 209.215 102.051 208.666 102.474 208.41L141.796 184.546C142.218 184.289 142.77 184.423 143.028 184.844C143.285 185.266 143.152 185.815 142.73 186.071L103.407 209.935C102.985 210.191 102.434 210.058 102.176 209.636Z" fill="#95B7D6"/>
<path d="M108.885 216.025C108.627 215.604 108.76 215.054 109.182 214.798L148.505 190.934C148.927 190.678 149.479 190.812 149.737 191.233C149.994 191.654 149.861 192.204 149.439 192.46L110.116 216.324C109.694 216.58 109.143 216.446 108.885 216.025Z" fill="#95B7D6"/>
<path d="M111.512 224.892C111.254 224.471 111.387 223.922 111.809 223.666L151.132 199.802C151.554 199.545 152.106 199.679 152.363 200.1C152.621 200.522 152.488 201.071 152.066 201.327L112.743 225.191C112.321 225.448 111.769 225.314 111.512 224.892Z" fill="#95B7D6"/>
<path d="M225.282 214.491L228.926 202.975L304.286 212.918L311 225.433L313.014 247.711V250H206.021C208.472 226.856 225.282 214.491 225.282 214.491Z" fill="#FED546"/>
<path d="M157.564 95.2191C157.564 95.2191 155.286 133.305 154.603 137.615C153.92 141.926 157.564 147.368 157.564 147.368C157.564 147.368 166 148.273 171.703 137.842L175.347 129.692C173.149 122.734 172.45 115.394 173.297 108.15C174.664 95.9073 175.347 90.2388 175.347 90.2388L157.564 95.2191Z" fill="#FFC9BF"/>
<path d="M167.797 42.1295C166.804 51.3205 166.886 59.271 171.441 60.9009C171.823 61.0367 174.884 61.1545 175.285 61.1997C180.533 61.7612 185.662 54.1367 186.746 44.176C187.83 34.2153 184.459 25.6763 179.212 25.1058C178.72 25.1058 175.923 24.6621 175.44 24.7436C170.785 25.5767 168.781 33.1015 167.797 42.1295Z" fill="#4CD174"/>
<path d="M153.229 75.0352C153.229 75.0352 149.384 76.312 150.086 79.9974C150.915 83.4707 151.965 86.8883 153.229 90.2298L158.011 95.4908L175.321 90.2298C176.148 88.6395 176.555 86.8667 176.505 85.0774C176.387 82.1888 176.505 75.0352 176.505 75.0352C174.992 73.0951 173.92 70.8524 173.362 68.4611C172.779 65.482 172.36 62.0139 172.242 60.9544C172.236 60.9105 172.222 60.8682 172.199 60.8301C172.177 60.7919 172.147 60.7587 172.111 60.7324C172.075 60.7061 172.034 60.6874 171.991 60.6773C171.948 60.6672 171.903 60.666 171.859 60.6737C171.074 60.8387 170.347 61.2095 169.754 61.7476C169.161 62.2858 168.724 62.9717 168.488 63.7343C167.577 66.6229 167.787 67.4288 167.787 67.4288L153.229 75.0352Z" fill="#FFC9BF"/>
<path d="M167.014 62.7564L169.501 58.8174L172.097 60.8095L167.278 70.2903L165.957 66.3241L167.014 62.7564Z" fill="#4CD174"/>
<path d="M167.021 62.7563C167.021 62.7563 164.288 58.6815 161.783 60.6193C159.277 62.5571 159.851 63.7162 161.783 67.2839C161.783 67.2839 156.845 66.6048 158.011 71.8115C158.011 71.8115 153.11 70.8517 153.228 75.0351C153.228 75.0351 149.192 78.3584 150.932 80.8666C152.672 83.3749 159.359 88.1832 161.209 87.6037C163.058 87.0242 163.268 84.5249 163.268 84.5249C163.268 84.5249 165.472 83.7553 166.146 82.7139C166.821 81.6726 165.955 79.9974 165.955 79.9974C165.955 79.9974 167.896 78.3312 168.378 77.8694C168.861 77.4076 168.378 74.9899 168.378 74.9899L165.764 72.0017C165.764 72.0017 169.535 74.021 170.41 73.4505C171.285 72.88 172.232 72.391 171.476 71.1323C170.359 69.6678 169.142 68.2821 167.832 66.9851L167.021 62.7563Z" fill="#FFC9BF"/>
<path d="M163.068 84.9436C162.866 87.5695 160.028 90.3975 150.906 80.7017C152.73 84.9436 163.068 93.6698 163.068 84.9436Z" fill="#F19F90" fill-opacity="0.5"/>
<path d="M166.108 82.5196C163.676 89.1855 155.162 77.6718 153.337 75.2478C153.337 75.2478 161.243 83.7316 163.676 83.7316C164.955 83.7316 166.108 82.5196 166.108 82.5196Z" fill="#F19F90" fill-opacity="0.5"/>
<path d="M168.543 75.248C169.759 86.7617 159.421 72.824 158.205 72.218C158.205 72.218 165.129 81.4319 167.327 80.7018C170.367 79.6919 168.543 75.248 168.543 75.248Z" fill="#F19F90" fill-opacity="0.5"/>
<path d="M165.502 71.612C163.696 70.3788 161.853 67.3701 161.853 67.3701C161.853 67.3701 164.966 70.3029 166.718 71.612C171.583 75.2479 170.975 69.7941 170.975 69.7941C170.975 69.7941 171.583 73.0521 170.367 73.43C168.43 74.0319 166.389 72.218 165.502 71.612Z" fill="#F19F90" fill-opacity="0.5"/>
<path d="M171.863 60.8271C167.386 60.345 164.637 51.8768 165.721 41.9129C166.806 31.949 171.315 24.2626 175.792 24.7447C180.269 25.2268 183.019 33.695 181.934 43.6589C180.849 53.6228 176.34 61.3093 171.863 60.8271Z" fill="#21B74E"/>
<path d="M173.518 60.6112C169.327 58.5285 166.822 50.8588 167.779 42.0844C168.735 33.3099 172.789 26.428 177.308 25.2236C180.861 27.2339 182.883 34.8493 181.927 43.6328C180.97 52.4163 177.399 59.3344 173.518 60.6112Z" fill="white"/>
<path d="M173.323 53.4384C173.728 50.6076 173.977 47.7571 174.071 44.8994C174.318 42.0511 174.413 39.1916 174.353 36.3333C173.937 39.1629 173.685 42.0139 173.597 44.8723C173.349 47.7206 173.258 50.5802 173.323 53.4384Z" fill="white"/>
<path d="M174.894 47.6795C175.152 46.9039 175.32 46.102 175.396 45.289C175.606 43.8039 175.825 41.7575 175.952 39.4756C176.08 37.1937 176.08 35.1381 176.034 33.644C176.058 32.8362 175.991 32.0283 175.834 31.2354C175.718 32.0328 175.672 32.8387 175.697 33.644C175.697 35.1381 175.606 37.1846 175.478 39.4574C175.35 41.7303 175.186 43.7677 175.059 45.2528C174.937 46.0559 174.882 46.8675 174.894 47.6795Z" fill="white"/>
<path d="M152.424 146.336C152.424 126.924 155.893 99.4847 157.107 97.2476C157.107 97.2476 174.024 97.809 175.5 97.2476C176.975 96.6862 179.327 136.185 179.327 136.185C179.327 136.185 212.288 112.035 218.073 106.303C223.858 100.571 231.875 97.2476 231.875 97.2476L230.408 139.119C230.408 139.119 175.209 170.685 165.306 168.466C165.306 168.466 152.424 165.747 152.424 146.336Z" fill="url(#paint0_linear)"/>
<path d="M231.877 97.2474L261.767 90.9087L269.547 82.9583L303.92 82.6323L308.065 90.1119L333.82 105.678C333.82 105.678 327.333 148.319 324.965 153.29C322.596 158.261 303.847 213.054 303.847 213.054L228.907 204.171L228.269 169.761L226.101 153.109C225.636 149.547 225.563 145.946 225.882 142.369C227.322 126.849 231.877 97.2474 231.877 97.2474Z" fill="white"/>
<path d="M258 91.5842L232 97.0594L228 119.955L226 141.358L223.5 202.082L209 227.965C209 227.965 251.5 235.431 257 235.431C262.5 235.431 261.5 178.191 261.5 178.191C247 143.847 253.333 100.544 258 91.5842Z" fill="url(#paint1_linear)"/>
<path d="M308.999 90.5886L334.999 105.521L327.299 131.555L323.318 152.682L304.499 209.051L314 229.956C314 229.956 285 237.919 257 235.431L261.5 177.693C282.98 159.367 311.015 100.479 308.999 90.5886Z" fill="url(#paint2_linear)"/>
<path d="M260.999 178C259.166 185.333 255.699 207 256.499 235L260.999 178Z" fill="black" fill-opacity="0.04"/>
<path d="M325.5 222.49L331.5 244.888L375.908 203.311L379 198.729C379 198.729 386.285 190.869 385.519 183.525C384.754 176.181 371.399 157.265 371.399 157.265C371.399 157.265 342.765 110.685 333.892 105.651C332.653 104.953 321.875 130.806 321.875 140.966C321.875 151.126 323.889 151.126 323.889 151.126C323.889 151.126 330.428 159.206 337.5 166.245C344 172.716 352 180.182 356.5 184.661L325.5 222.49Z" fill="url(#paint3_linear)"/>
<path d="M298.5 138.87C315.191 134.003 317.183 109.644 316 97.5571C314.862 128.033 305.214 136.452 296.72 137.378C297.587 172.541 272.667 178.111 262.854 177.252C264.642 177.983 271.031 178.36 282.281 174.019C293.53 169.679 297.719 148.434 298.5 138.87Z" fill="black" fill-opacity="0.04"/>
<path d="M244.478 131.505C233.058 117.318 242.067 101.635 248 95.5659C236.355 113.686 240.646 125.077 247.096 131.413C231.909 150.829 247.096 169.231 261 177.195C259.26 176.388 250.87 172.305 243.611 162.141C236.351 151.976 241.164 137.481 244.478 131.505Z" fill="#012F3E" fill-opacity="0.04"/>
<path d="M256.3 110.078C257.275 108.557 259.945 105.343 259.945 105.343C260.036 107.715 260.245 110.966 260.327 113.347L260.673 119.043C260.318 117.06 260.054 113.23 259.699 111.237L255.453 115.24C255.19 114.372 255.13 113.456 255.277 112.562C255.424 111.667 255.774 110.818 256.3 110.078Z" fill="black" fill-opacity="0.04"/>
<path d="M298.437 113.936C297.283 116.268 295.698 118.363 293.763 120.111L293.855 115.158L271.079 125.236L295.531 107.769C296.87 110.006 297.098 111.681 298.437 113.917" fill="black" fill-opacity="0.04"/>
<path d="M316.437 17.7246C309.54 8.15334 298.107 2.55725 286.455 0.429283C281.554 -0.476234 278.338 0.184793 273.455 1.17181C268.572 2.01301 264.144 4.536 260.946 8.29823C257.239 12.8801 254.032 18.0778 253.011 23.8731C251.964 29.8314 250.916 35.8259 250.98 41.8657C251.044 47.9055 256.616 57.6942 259.841 62.8013H270.767C279.249 63.6253 287.858 64.4493 296.276 63.0548C304.694 61.6603 313.02 57.7304 317.922 50.7941C324.736 41.1775 323.342 27.296 316.437 17.7246Z" fill="#535565"/>
<path d="M315.572 65.8203C315.532 64.0753 315.092 62.3624 314.285 60.8121C313.479 59.2617 312.327 57.9148 310.917 56.8737C308.02 54.9178 303.802 54.8273 301.142 57.0911L298.536 59.8076C296.598 60.5455 294.941 61.8678 293.797 63.5892C292.654 65.3106 292.081 67.3447 292.159 69.4061C292.314 71.4606 293.053 73.4291 294.29 75.082C295.527 76.735 297.211 78.0043 299.147 78.742C301.101 79.4253 303.199 79.5976 305.24 79.2424C307.28 78.8872 309.194 78.0164 310.799 76.7136C312.381 75.3831 313.635 73.7087 314.463 71.8199C315.29 69.931 315.67 67.8782 315.572 65.8203Z" fill="#535565"/>
<path d="M270.764 85.8747C270.764 80.1289 270.764 74.3831 270.764 74.3831C270.764 74.3831 260.247 71.5102 258.071 57.1457C256.85 49.0866 255.763 31.8642 258.071 24.3947C261.501 13.2932 265.637 2.73682 277.708 3.41596L283.111 3.13525L303.153 12.5526C304.579 12.7153 305.891 13.4038 306.831 14.4819C307.771 15.56 301.385 21.2452 301.343 22.671L303.846 87.7377L266.64 126.675L264.508 115.691L270.764 85.8747Z" fill="#FFC9BF"/>
<path d="M259.527 38.4878C259.517 39.0295 259.72 39.5539 260.092 39.9495C260.465 40.3451 260.978 40.5808 261.522 40.6067C261.788 40.6301 262.056 40.6004 262.31 40.5192C262.564 40.438 262.799 40.307 263.001 40.1339C263.203 39.9608 263.368 39.7492 263.487 39.5116C263.605 39.2739 263.674 39.0151 263.69 38.7503C263.703 38.2103 263.502 37.687 263.131 37.2926C262.759 36.8981 262.247 36.664 261.704 36.6405C261.439 36.6157 261.171 36.6442 260.916 36.7243C260.662 36.8043 260.426 36.9343 260.223 37.1066C260.02 37.2788 259.854 37.4898 259.734 37.7271C259.615 37.9643 259.544 38.223 259.527 38.4878Z" fill="#535565"/>
<path d="M258.725 37.9924C258.98 38.2641 260.547 37.0869 262.824 37.1412C265.102 37.1956 266.715 38.3003 266.961 38.0467C267.079 37.929 266.815 37.44 266.104 36.9149C265.137 36.2338 263.982 35.8669 262.797 35.8645C261.63 35.8543 260.489 36.209 259.536 36.8786C258.843 37.3857 258.597 37.8747 258.725 37.9924Z" fill="#535565"/>
<path d="M271.317 51.8622C271.317 51.7454 269.929 51.5117 267.664 51.228C267.088 51.1696 266.54 51.0612 266.449 50.7024C266.4 50.1593 266.541 49.616 266.851 49.1505L268.586 45.1539C271.007 39.4718 272.77 34.7994 272.514 34.716C272.258 34.6325 270.093 39.1631 267.682 44.8452L266.011 48.8585C265.636 49.4879 265.523 50.2196 265.691 50.9193C265.769 51.1035 265.891 51.269 266.05 51.4035C266.208 51.5379 266.398 51.6377 266.604 51.6953C266.919 51.7793 267.245 51.8242 267.572 51.8288C269.892 51.9873 271.308 51.9873 271.317 51.8622Z" fill="#F19F90"/>
<path d="M270.707 74.6415C279.09 76.1026 288.821 69.7936 294.902 62.5217C294.902 62.5217 290.037 79.9898 270.707 79.4894V74.6415Z" fill="#F19F90" fill-opacity="0.5"/>
<path d="M275.26 57.7017C274.972 57.4639 273.411 59.2915 270.694 59.2672C267.977 59.243 266.179 57.3657 265.943 57.6059C265.844 57.7243 266.076 58.3404 266.901 59.0702C267.977 60.0048 269.349 60.5323 270.776 60.5598C272.15 60.5836 273.479 60.0756 274.483 59.1429C275.205 58.4339 275.392 57.7992 275.26 57.7017Z" fill="#F19F90"/>
<path d="M258.744 31.2439C259.136 31.751 260.694 31.2439 262.552 31.2439C264.411 31.2439 265.996 31.6152 266.36 31.0809C266.524 30.8274 266.278 30.3203 265.595 29.8313C264.674 29.2459 263.598 28.9462 262.504 28.9704C261.411 28.9945 260.349 29.3415 259.455 29.9672C258.799 30.4742 258.571 30.9904 258.744 31.2439Z" fill="#535565"/>
<path d="M284.816 38.9496C284.795 39.4901 284.562 40.0009 284.167 40.373C283.772 40.7452 283.246 40.9493 282.702 40.9418C282.436 40.9502 282.171 40.9058 281.922 40.8112C281.673 40.7166 281.446 40.5736 281.253 40.3907C281.061 40.2077 280.907 39.9885 280.801 39.7457C280.694 39.5029 280.638 39.2415 280.634 38.9768C280.656 38.4355 280.888 37.9238 281.283 37.5502C281.677 37.1766 282.203 36.9705 282.748 36.9756C283.015 36.9672 283.281 37.0118 283.53 37.107C283.78 37.2022 284.007 37.346 284.2 37.5299C284.393 37.7138 284.546 37.9341 284.652 38.178C284.758 38.4218 284.814 38.6841 284.816 38.9496Z" fill="#535565"/>
<path d="M287.703 38.2373C287.43 38.4999 285.881 37.2593 283.658 37.1597C281.435 37.0601 279.713 38.1105 279.485 37.8207C279.367 37.6939 279.659 37.2231 280.397 36.7341C281.399 36.106 282.575 35.8052 283.758 35.8739C284.924 35.9199 286.045 36.3356 286.956 37.0601C287.621 37.6215 287.84 38.1195 287.703 38.2373Z" fill="#535565"/>
<path d="M288.27 32.2674C287.851 32.7564 286.329 32.1587 284.471 32.0501C282.612 31.9414 281.018 32.2312 280.681 31.6879C280.526 31.4253 280.799 30.9272 281.51 30.4745C282.463 29.9417 283.553 29.7021 284.643 29.7859C285.733 29.8697 286.773 30.2732 287.632 30.9454C288.261 31.4977 288.452 32.032 288.27 32.2674Z" fill="#535565"/>
<path d="M310.615 38.1635L305.999 43.9093C287.824 36.8534 253.941 13.432 260.418 11.1581C267.342 -0.333476 280.586 0.770483 286.382 1.96493C295.31 4.06572 314.387 12.22 313.449 22.7783C312.51 33.3366 310.615 38.1635 310.615 38.1635Z" fill="#535565"/>
<path d="M296.768 44.4829C296.768 43.7228 299.411 40.6567 300.164 40.5481C303.114 38.7371 305.827 40.4453 305.816 45.543C305.816 52.5152 298.761 51.0579 298.75 50.8579C298.738 50.6579 296.734 47.1118 296.768 44.4829Z" fill="#FFC9BF"/>
<path d="M319.999 229.458L326.499 225.974C326.499 225.974 330.246 240.158 330.5 240.408C330.754 240.659 328.498 241.185 322.5 244.888L317.502 243.586L319.999 229.458Z" fill="#FFC9BF"/>
<path d="M289.268 217.337C289.268 217.337 300.128 215.634 301.112 216.341C302.096 217.047 309.548 222.027 309.548 222.027C310.538 223.569 311.637 225.04 312.836 226.428C312.836 226.428 315.26 229.271 317.118 229.552C318.112 229.736 319.131 229.736 320.125 229.552L324.98 242.908C324.98 242.908 321.263 246.748 318.977 246.458C316.69 246.168 304.546 239.504 304.546 239.504L301.54 238.508C301.54 238.508 289.824 238.933 289.25 235.384V234.387L300.829 233.391L305.111 234.107L297.677 231.327C297.677 231.327 286.818 230.693 285.834 230.421C284.85 230.15 283.693 228.61 284.121 227.705L286.408 227.424C286.408 227.424 283.939 225.731 284.03 224.164L294.306 222.543C294.306 222.543 288.12 219.456 289.268 217.337Z" fill="#FFC9BF"/>
<path d="M286.379 227.199C286.686 227.19 286.658 227.274 286.956 227.199C287.548 227.09 287.6 226.917 288.675 226.763C290.834 226.446 293.822 226.066 297.129 225.704C297.525 225.646 297.923 225.612 298.323 225.604C298.698 225.611 299.07 225.675 299.425 225.794C300.127 226.075 300.828 226.401 301.475 226.7C302.778 227.306 303.935 227.895 304.882 228.429C305.629 228.842 306.353 229.296 307.05 229.788C307.297 229.986 307.559 230.165 307.834 230.322C307.834 229.788 306.844 228.139 306.581 227.956C305.916 227.403 306.088 227.583 305.346 227.137C304.435 226.566 303.26 225.941 301.957 225.326C301.302 225.009 300.637 224.692 299.871 224.42C299.473 224.28 299.055 224.204 298.632 224.194C298.209 224.203 297.786 224.236 297.366 224.293C294.05 224.664 292.871 224.828 290.721 225.236C289.646 225.435 289.124 225.734 288.338 226.138C287.121 226.763 286.654 227.077 286.379 227.199Z" fill="#F19F90" fill-opacity="0.5"/>
<path d="M294.199 222.453C294.199 222.525 295.028 222.503 296.219 222.453C298.004 222.094 299.847 222.143 301.61 222.597C303.373 223.05 305.009 223.896 306.395 225.07C307.461 225.975 307.999 226.664 308.062 226.609C307.706 225.916 307.307 224.229 306.395 223.375C305.019 222.087 303.787 221.353 301.958 220.879C300.129 220.404 299.903 220.229 298.069 220.685C297.3 220.841 294.842 222.006 294.199 222.453Z" fill="#F19F90" fill-opacity="0.5"/>
<defs>
<filter id="filter0_d" x="13.7065" y="45.5676" width="153.374" height="204.897" filterUnits="userSpaceOnUse" color-interpolation-filters="sRGB">
<feFlood flood-opacity="0" result="BackgroundImageFix"/>
<feColorMatrix in="SourceAlpha" type="matrix" values="0 0 0 0 0 0 0 0 0 0 0 0 0 0 0 0 0 0 127 0"/>
<feOffset/>
<feGaussianBlur stdDeviation="1.5"/>
<feColorMatrix type="matrix" values="0 0 0 0 0.843137 0 0 0 0 0.890196 0 0 0 0 0.945098 0 0 0 1 0"/>
<feBlend mode="normal" in2="BackgroundImageFix" result="effect1_dropShadow"/>
<feBlend mode="normal" in="SourceGraphic" in2="effect1_dropShadow" result="shape"/>
</filter>
<linearGradient id="paint0_linear" x1="192.149" y1="97.2417" x2="192.149" y2="168.578" gradientUnits="userSpaceOnUse">
<stop stop-color="#7CED9E"/>
<stop offset="1" stop-color="#4CD174"/>
</linearGradient>
<linearGradient id="paint1_linear" x1="235.285" y1="91.5842" x2="235.285" y2="235.431" gradientUnits="userSpaceOnUse">
<stop stop-color="#7CED9E"/>
<stop offset="1" stop-color="#4CD174"/>
</linearGradient>
<linearGradient id="paint2_linear" x1="319.386" y1="93.5412" x2="277.401" y2="241.23" gradientUnits="userSpaceOnUse">
<stop stop-color="#7CED9E"/>
<stop offset="1" stop-color="#4CD174"/>
</linearGradient>
<linearGradient id="paint3_linear" x1="353.726" y1="105.637" x2="353.726" y2="244.888" gradientUnits="userSpaceOnUse">
<stop stop-color="#7CED9E"/>
<stop offset="1" stop-color="#4CD174"/>
</linearGradient>
</defs>
</svg>
