<svg width="32" height="32" viewBox="0 0 32 32" fill="none" xmlns="http://www.w3.org/2000/svg">
<path d="M19.7564 16.3686L31.212 5.33347C31.7136 4.84909 31.9955 4.19214 31.9955 3.50714C31.9955 2.82213 31.7136 2.16518 31.212 1.68081C30.7103 1.19643 30.0299 0.924316 29.3205 0.924316C28.611 0.924316 27.9306 1.19643 27.429 1.68081L16 12.7417L4.57104 1.68081C4.06939 1.19643 3.38899 0.924316 2.67954 0.924316C1.97009 0.924316 1.28969 1.19643 0.788034 1.68081C0.286375 2.16518 0.00454655 2.82213 0.00454654 3.50714C0.00454653 4.19214 0.286375 4.84909 0.788034 5.33347L12.2436 16.3686L0.788034 27.4038C0.538333 27.6429 0.34014 27.9274 0.204888 28.2408C0.0696353 28.5543 0 28.8905 0 29.2301C0 29.5697 0.0696353 29.9059 0.204888 30.2193C0.34014 30.5328 0.538333 30.8173 0.788034 31.0564C1.0357 31.2975 1.33035 31.4889 1.65499 31.6195C1.97964 31.7501 2.32785 31.8173 2.67954 31.8173C3.03123 31.8173 3.37944 31.7501 3.70409 31.6195C4.02873 31.4889 4.32338 31.2975 4.57104 31.0564L16 19.9955L27.429 31.0564C27.6766 31.2975 27.9713 31.4889 28.2959 31.6195C28.6206 31.7501 28.9688 31.8173 29.3205 31.8173C29.6722 31.8173 30.0204 31.7501 30.345 31.6195C30.6697 31.4889 30.9643 31.2975 31.212 31.0564C31.4617 30.8173 31.6599 30.5328 31.7951 30.2193C31.9304 29.9059 32 29.5697 32 29.2301C32 28.8905 31.9304 28.5543 31.7951 28.2408C31.6599 27.9274 31.4617 27.6429 31.212 27.4038L19.7564 16.3686Z" fill="#4CD174"/>
</svg>
