<svg width="420" height="509" viewBox="0 0 420 509" fill="none" xmlns="http://www.w3.org/2000/svg">
<path d="M221.136 285.516C230.943 285.516 238.894 277.565 238.894 267.758C238.894 257.95 230.943 250 221.136 250C211.328 250 203.378 257.95 203.378 267.758C203.378 277.565 211.328 285.516 221.136 285.516Z" fill="#7095E1"/>
<path d="M282.257 285.516C292.065 285.516 300.015 277.565 300.015 267.758C300.015 257.95 292.065 250 282.257 250C272.45 250 264.499 257.95 264.499 267.758C264.499 277.565 272.45 285.516 282.257 285.516Z" fill="#FEB415"/>
<path d="M400.451 175.87C400.795 175.799 401.147 175.775 401.497 175.801C402.53 175.806 403.559 175.921 404.567 176.146C406.241 176.495 407.852 177.098 409.344 177.935C411.417 179.097 413.233 180.666 414.685 182.547C416.555 184.947 417.765 187.794 418.195 190.806C418.325 191.649 418.399 192.5 418.416 193.353C418.416 194.206 418.416 195.06 418.416 195.941C418.416 197.703 418.416 199.548 418.416 201.447C418.484 209.087 418.54 217.87 418.622 227.713C418.718 247.412 418.829 271.365 418.966 298.938C418.966 305.83 418.994 312.942 419.049 320.275C419.049 323.946 419.049 327.667 419.049 331.439C419.049 333.325 419.049 335.225 419.049 337.138C419.049 338.088 419.049 339.052 419.049 340.015C419.032 341.058 418.94 342.097 418.774 343.126C418.061 347.406 415.889 351.307 412.627 354.168C409.365 357.028 405.214 358.672 400.878 358.82L375.796 358.902L377.283 357.526C375.659 375.16 373.952 393.785 372.162 413.112L371.887 416.127L369.547 414.2L302.217 358.723L303.319 359.109L165.356 359.178H132.965C131.864 359.178 130.859 359.178 129.689 359.178C126.727 359.11 123.823 358.35 121.208 356.959C118.593 355.567 116.34 353.583 114.629 351.166C113.265 349.247 112.263 347.097 111.669 344.82C111.159 342.609 110.951 340.34 111.05 338.074C111.05 333.853 111.05 329.64 111.05 325.437C111.05 317.058 111.05 308.739 111.05 300.48C111.05 267.441 111.119 235.642 111.146 205.316C111.146 201.53 111.146 197.758 111.146 194.028C111.093 192.005 111.348 189.985 111.903 188.039C112.468 186.081 113.337 184.222 114.477 182.533C116.77 179.204 120.063 176.692 123.88 175.361C125.75 174.694 127.717 174.336 129.703 174.301C131.575 174.301 133.323 174.301 135.14 174.301L176.933 174.383L251.944 174.604L360.571 175.168L390.099 175.512L397.78 175.691C398.656 175.673 399.531 175.733 400.396 175.87C399.532 176.017 398.656 176.077 397.78 176.049L390.099 176.228L360.571 176.572L251.944 177.137L176.933 177.357L135.14 177.44C133.364 177.44 131.506 177.44 129.771 177.44C128.118 177.469 126.481 177.771 124.926 178.334C121.766 179.451 119.042 181.543 117.148 184.309C115.233 187.148 114.269 190.522 114.395 193.945C114.395 197.675 114.395 201.447 114.395 205.233C114.395 235.518 114.464 267.386 114.505 300.397C114.505 308.657 114.505 316.976 114.505 325.355V337.992C114.404 339.961 114.58 341.935 115.028 343.856C115.748 346.654 117.234 349.195 119.317 351.196C121.401 353.197 124.001 354.579 126.825 355.185C127.768 355.383 128.726 355.498 129.689 355.53C130.666 355.53 131.809 355.53 132.869 355.53H165.522L303.484 355.598H304.103L304.585 355.998L371.763 411.653L369.134 412.741C370.992 393.468 372.782 374.802 374.488 357.181L374.612 355.805H375.989H400.988C404.677 355.695 408.215 354.313 411 351.891C413.785 349.47 415.647 346.159 416.268 342.521C416.409 341.642 416.487 340.754 416.502 339.864C416.502 338.9 416.502 337.937 416.502 336.987C416.502 335.073 416.502 333.174 416.502 331.288C416.502 327.516 416.502 323.794 416.502 320.124C416.502 312.782 416.53 305.669 416.585 298.786C416.722 271.254 416.833 247.26 416.929 227.561C417.012 217.719 417.067 208.936 417.135 201.296C417.135 199.396 417.135 197.552 417.135 195.79C417.135 194.909 417.135 194.055 417.135 193.202C417.134 192.401 417.084 191.601 416.984 190.806C416.63 187.971 415.554 185.274 413.859 182.973C412.522 181.139 410.833 179.59 408.89 178.417C407.476 177.556 405.946 176.902 404.347 176.476C401.869 175.925 400.451 176.008 400.451 175.87Z" fill="#FEAF0D"/>
<path d="M18.4326 264.248H286.566C291.458 264.248 296.15 266.191 299.609 269.651C303.069 273.11 305.012 277.802 305.012 282.694V427.319C305.012 432.211 303.069 436.903 299.609 440.363C296.15 443.822 291.458 445.765 286.566 445.765H18.4326C13.544 445.765 8.85557 443.823 5.39878 440.367C1.942 436.91 5.14087e-06 432.221 5.14087e-06 427.333V282.694C-0.00180349 280.272 0.473634 277.874 1.39915 275.636C2.32466 273.398 3.68212 271.364 5.39392 269.651C7.10573 267.938 9.13833 266.579 11.3756 265.652C13.6128 264.725 16.0108 264.248 18.4326 264.248Z" fill="#FED546"/>
<path d="M187 443.995L259.12 508.034L265.5 443.995" fill="#FED546"/>
<path d="M95.0676 375.325C104.875 375.325 112.826 367.374 112.826 357.567C112.826 347.759 104.875 339.809 95.0676 339.809C85.2601 339.809 77.3096 347.759 77.3096 357.567C77.3096 367.374 85.2601 375.325 95.0676 375.325Z" fill="white"/>
<path d="M156.188 375.325C165.996 375.325 173.946 367.374 173.946 357.567C173.946 347.759 165.996 339.809 156.188 339.809C146.381 339.809 138.43 347.759 138.43 357.567C138.43 367.374 146.381 375.325 156.188 375.325Z" fill="white"/>
<path d="M217.309 375.325C227.117 375.325 235.067 367.374 235.067 357.567C235.067 347.759 227.117 339.809 217.309 339.809C207.502 339.809 199.551 347.759 199.551 357.567C199.551 367.374 207.502 375.325 217.309 375.325Z" fill="white"/>
<path d="M343.378 285.516C353.185 285.516 361.136 277.565 361.136 267.758C361.136 257.95 353.185 250 343.378 250C333.57 250 325.62 257.95 325.62 267.758C325.62 277.565 333.57 285.516 343.378 285.516Z" fill="#FEB415"/>
<path d="M171.5 7.49985C177.224 3.20968 184.159 0.840807 191.312 0.732422C244.848 0.732422 228.628 64.0428 213.826 95.698C210.371 106.945 205.815 118.26 197.211 126.217C189.364 133.472 178.902 137.188 168.468 139.501C163.826 140.707 159.016 141.139 154.234 140.781C149.403 140.396 144.915 138.133 141.734 134.476C138.747 130.705 137.907 125.198 140.454 121.069C137.042 122.192 133.347 122.097 129.997 120.802C126.646 119.506 123.849 117.089 122.081 113.962C120.314 110.835 119.684 107.192 120.301 103.654C120.917 100.115 122.742 96.8999 125.463 94.5554C123.849 93.0132 122.648 91.0906 121.97 88.9638C121.292 86.837 121.158 84.5741 121.582 82.3823C122.005 80.1906 122.971 78.1401 124.393 76.4188C125.814 74.6974 127.644 73.3603 129.717 72.5299C134.122 70.7679 139.284 71.4699 143.758 69.7767C150.627 67.1612 154.275 59.5899 155.569 52.349C156.863 45.1081 156.464 37.5919 158.474 30.53C160.585 23.6952 165.776 11.79 171.5 7.49985Z" fill="#535565"/>
<path d="M142.367 125.942L130.763 151.313L105.365 103V95.3402C104.167 90.8112 102.818 85.7041 102.543 84.6854C102.133 83.119 101.989 81.4951 102.116 79.8811C102.2 77.877 102.561 75.8942 103.19 73.9893C103.947 72.296 102.253 70.5753 100.794 71.4013C99.335 72.2272 97.1463 76.9076 97.2151 82.7857C97.2839 88.6638 76.814 74.6225 73.4964 77.9538C73.4964 77.9538 71.7384 79.5978 71.5003 81C71.2506 82.4702 72.5003 84.6854 72.5003 84.6854C72.5003 84.6854 71.3821 86.6531 71.5003 88C71.5922 89.0475 72.5003 90.5 72.5003 90.5C72.5003 90.5 72.0842 92.698 72.5003 94C73.0983 95.8715 75.9742 97.6391 75.9742 97.6391C78.2181 99.6903 87.4762 106.375 91.0003 109.5L112.027 168.079C113.369 171.748 115.734 174.956 118.841 177.323C121.949 179.691 125.669 181.119 129.563 181.439C133.456 181.759 137.36 180.957 140.812 179.129C144.264 177.301 147.121 174.522 149.044 171.122L164.475 143.92L142.367 125.942Z" fill="#FFC9BF"/>
<path d="M88.5565 59.8652C88.6567 59.8294 88.7632 59.8151 88.8692 59.8233C88.9753 59.8314 89.0784 59.8618 89.1719 59.9124C89.2654 59.9631 89.3472 60.0329 89.412 60.1172C89.4767 60.2016 89.5229 60.2986 89.5477 60.4021L102.722 99.5111C102.846 99.8528 102.851 100.226 102.736 100.571C102.621 100.916 102.393 101.212 102.088 101.411L86.4503 110.18C86.292 110.262 86.1173 110.308 85.9389 110.314C85.7606 110.32 85.5831 110.286 85.4195 110.215C85.2559 110.144 85.1103 110.037 84.9933 109.902C84.8763 109.768 84.7909 109.608 84.7434 109.436L69.9312 68.9507C69.783 68.5858 69.7788 68.1783 69.9193 67.8104C70.0598 67.4425 70.3346 67.1416 70.6883 66.9684L88.5565 59.8652Z" fill="#4F5160"/>
<path d="M88.9831 62.7423L101.097 97.6252L85.6105 105.885L72.2988 69.3637L88.9831 62.7423Z" fill="#F5F5F5"/>
<path d="M75.2584 71.7312C75.7264 72.9288 76.4973 74.856 76.9791 76.0537C77.0349 76.1945 77.1184 76.3227 77.2247 76.4306C77.331 76.5385 77.458 76.6239 77.598 76.6817C77.738 76.7395 77.8882 76.7685 78.0397 76.767C78.1912 76.7656 78.3408 76.7336 78.4796 76.6731L86.7392 73.2179L89.5887 73.6309L88.7903 72.1304L89.7264 71.7449C89.8673 71.6892 89.9954 71.6057 90.1033 71.4994C90.2112 71.393 90.2966 71.2661 90.3544 71.1261C90.4122 70.9861 90.4413 70.8359 90.4398 70.6844C90.4383 70.5329 90.4064 70.3833 90.3459 70.2444L88.6664 66.3212C88.5483 66.0484 88.3273 65.8333 88.0516 65.7225C87.7758 65.6117 87.4675 65.6141 87.1935 65.7292L75.9329 70.272C75.7911 70.321 75.6605 70.3982 75.5492 70.4989C75.4379 70.5996 75.348 70.7217 75.285 70.858C75.222 70.9942 75.1872 71.1418 75.1826 71.2919C75.1781 71.4419 75.2038 71.5913 75.2584 71.7312Z" fill="#6BEC91" fill-opacity="0.78"/>
<path d="M82.2376 92.3528L83.9584 96.6615C84.0142 96.8007 84.0973 96.9273 84.2026 97.034C84.3079 97.1408 84.4334 97.2254 84.5718 97.2831C84.7102 97.3408 84.8587 97.3703 85.0087 97.3699C85.1586 97.3696 85.307 97.3393 85.4451 97.281L93.7047 93.8258L96.5542 94.2387L95.7558 92.7382L96.6919 92.3528C96.8327 92.2971 96.9609 92.2135 97.0688 92.1072C97.1767 92.0009 97.2621 91.874 97.3199 91.734C97.3777 91.5939 97.4067 91.4437 97.4053 91.2923C97.4038 91.1408 97.3719 90.9912 97.3113 90.8523L95.6319 86.9428C95.5761 86.807 95.494 86.6836 95.3904 86.5796C95.2868 86.4757 95.1637 86.3932 95.0281 86.3369C94.8925 86.2806 94.7472 86.2517 94.6004 86.2517C94.4536 86.2517 94.3083 86.2808 94.1727 86.3371L82.8984 90.8798C82.7573 90.9317 82.6279 91.0113 82.5179 91.1139C82.408 91.2165 82.3196 91.3401 82.2581 91.4773C82.1965 91.6145 82.163 91.7626 82.1595 91.913C82.156 92.0633 82.1826 92.2129 82.2376 92.3528Z" fill="#6BEC91" fill-opacity="0.78"/>
<path d="M91.8737 76.6045C92.3968 77.7746 93.2503 79.6881 93.7459 80.8582C93.8067 80.9962 93.8394 81.145 93.8418 81.2958C93.8442 81.4466 93.8163 81.5964 93.7598 81.7363C93.7033 81.8762 93.6194 82.0033 93.513 82.1102C93.4066 82.2171 93.2798 82.3016 93.1402 82.3586L84.8806 85.8001L83.1874 88.1266L82.6643 86.4884L81.742 86.9014C81.6037 86.9604 81.4552 86.9915 81.3048 86.993C81.1545 86.9944 81.0054 86.9662 80.866 86.91C80.7266 86.8537 80.5997 86.7705 80.4926 86.6651C80.3854 86.5597 80.3001 86.4341 80.2415 86.2957L78.6171 82.3449C78.5065 82.0688 78.5079 81.7605 78.621 81.4855C78.7341 81.2104 78.95 80.9903 79.2228 80.8719L90.3594 76.0263C90.4965 75.9625 90.6449 75.9268 90.796 75.9214C90.9471 75.916 91.0977 75.941 91.2389 75.9949C91.3802 76.0488 91.5091 76.1306 91.6182 76.2353C91.7272 76.34 91.8141 76.4656 91.8737 76.6045Z" fill="#6BEC91" fill-opacity="0.78"/>
<path d="M73.4961 78.9312C76.1529 79.3717 79.4155 79.6332 82.0723 80.0737C82.8388 80.1399 83.5791 80.3851 84.2335 80.7896C84.5498 81.0042 84.7825 81.3211 84.8928 81.6871C85.0031 82.053 84.9842 82.4457 84.8392 82.7994C84.4125 83.5703 83.3663 83.6253 82.4853 83.5978C80.5305 83.5978 78.3555 83.9557 76.4007 83.8869C78.9061 84.1071 81.2188 84.3136 84.0133 84.644C84.6066 84.7017 85.1627 84.9592 85.5904 85.3744C86.0181 85.7896 86.292 86.3378 86.3673 86.9292C86.3238 87.4294 86.1053 87.8982 85.7503 88.2532C85.3953 88.6082 84.9264 88.8267 84.4263 88.8702C83.3996 88.9411 82.3693 88.9411 81.3427 88.8702C81.3427 88.8702 77.3093 88.8702 77.1303 89.4483C79.6495 89.4483 82.9671 89.9714 85.4862 90.2055C86.1745 90.2055 86.4774 91.1966 86.6426 91.8711C86.7425 92.2024 86.726 92.558 86.5958 92.8786C86.4656 93.1992 86.2294 93.4655 85.9267 93.6332C85.6076 93.7382 85.2701 93.7757 84.9356 93.7433C81.6731 93.6469 79.9799 93.8534 76.676 93.7433" fill="#FFC9BF"/>
<path d="M133.915 169.428C134.168 166.282 134.057 163.118 133.585 159.998C132.874 156.92 131.807 153.936 130.405 151.105L132 149C133.078 151.016 134.121 155.754 134.548 158C134.993 160.267 134.819 164.45 134.548 166.743C134.498 167.669 134.284 168.578 133.915 169.428Z" fill="#F19F90" fill-opacity="0.5"/>
<path d="M86.0921 90.6183C84.1918 90.7573 82.2816 90.6556 80.4068 90.3154C78.8512 90.164 77.4196 89.8474 76.4697 89.8474C75.9448 89.8806 75.4331 90.0261 74.9692 90.2741C74.9692 90.2741 74.9692 90.0814 75.217 89.8611C75.5546 89.564 75.9799 89.3851 76.4284 89.3518C77.7868 89.3103 79.1461 89.3933 80.4894 89.5996C82.3915 89.7098 84.273 90.0519 86.0921 90.6183Z" fill="#F19F90" fill-opacity="0.5"/>
<path d="M85.1975 84.9056C83.3161 85.0455 81.4245 84.9484 79.5672 84.6165C78.0255 84.4651 76.6076 84.1347 75.6853 84.1623C74.7629 84.1898 74.3086 84.7267 74.2261 84.6441C74.1435 84.5615 74.4876 83.8594 75.6026 83.6667C76.2147 83.5839 76.8352 83.5839 77.4473 83.6667L79.6223 83.9007C81.5153 84.002 83.3883 84.3396 85.1975 84.9056Z" fill="#F19F90" fill-opacity="0.5"/>
<path d="M163.746 202.838C163.746 202.838 79.9663 196.506 55.7245 215.475C31.4826 234.445 43.0873 265.032 43.0873 265.032H180.086L185.345 201.847L163.746 202.838Z" fill="#5ADE82"/>
<path d="M79.1403 224.822C85.4985 225.215 91.8045 226.215 97.9721 227.809L109 230.5L111 226.5L105 224.822C98.792 223.242 92.4422 222.282 86.0443 221.959C81.721 221.762 77.3898 222.09 73.1456 222.936C71.9936 223.156 63.9776 225.79 62.8552 226.13C62.4559 226.223 62.0647 226.347 61.6851 226.502C62.0937 226.451 62.4984 226.373 62.8964 226.268C63.6811 226.13 64.8099 225.758 66.3242 225.565C70.5544 224.834 74.8539 224.585 79.1403 224.822Z" fill="black" fill-opacity="0.08"/>
<path d="M224.245 195.013C224.245 195.013 147.61 197.091 123.369 216.061C99.1267 235.03 110.731 265.618 110.731 265.618L253.32 267.495V248.995L235.809 247.268L235.671 246.415C242.898 238.499 237.392 210.912 225.36 196.362L224.245 195.013Z" fill="#5ADE82"/>
<path d="M245.901 248.458C245.491 248.457 245.109 248.163 244.703 248.1C243.905 248.018 242.67 247.867 241.156 247.674C238.127 247.289 233.787 246.958 228.418 246.035C214.399 243.635 200.531 240.417 186.887 236.399C178.902 234.032 171.359 231.636 164.365 229.915C158.208 228.31 151.911 227.296 145.561 226.887C141.275 226.649 136.975 226.899 132.745 227.63C131.231 227.823 130.102 228.209 129.317 228.346C128.92 228.453 128.515 228.526 128.106 228.566C128.485 228.413 128.876 228.294 129.276 228.209C130.398 227.865 132 225.183 136.5 223.495C140.5 221.995 142.748 221.301 147.06 221.512C153.455 221.798 159.804 222.72 166.016 224.265C173.05 225.972 180.622 228.395 188.592 230.708C202.214 234.693 216.035 237.961 230 240.495C235.355 241.473 239 241.995 235.5 246.995L244.703 248.1C245.113 248.183 245.514 248.303 245.901 248.458Z" fill="black" fill-opacity="0.08"/>
<path d="M184.767 198.13C184.378 198.231 183.982 198.3 183.583 198.336L180.169 198.818C177.223 199.259 172.955 199.974 167.779 201.021C162.603 202.067 156.326 203.43 149.457 205.068C142.013 206.785 134.877 209.635 128.299 213.52C124.916 215.545 121.819 218.012 119.089 220.857C116.571 223.529 114.427 226.53 112.716 229.778C109.824 235.303 108.29 241.437 108.242 247.673C108.204 251.872 108.817 256.052 110.059 260.063C110.499 261.439 110.912 262.568 111.201 263.298C111.36 263.666 111.498 264.043 111.614 264.427C111.394 264.089 111.21 263.729 111.064 263.353C110.586 262.306 107.736 260.858 107.37 259.768C105.681 254.753 105.018 249.45 105.42 244.174C105.822 238.898 107.281 233.756 109.711 229.056C111.426 225.742 113.589 222.68 116.139 219.956C118.908 217.058 122.057 214.548 125.5 212.495C132.118 208.579 141.735 206.1 149.237 204.407C156.12 202.796 162.356 201.502 167.614 200.511C172.873 199.52 177.168 198.887 180.127 198.529C181.614 198.35 182.77 198.226 183.569 198.171C183.967 198.136 184.367 198.122 184.767 198.13Z" fill="black" fill-opacity="0.08"/>
<path d="M253.319 249.821L259 244.995L274.5 251.495L291.754 255.864C299.724 256.277 303.901 266.781 299 266.781C295.104 266.781 268.889 266.368 268.889 266.368L253.319 266.781V249.821Z" fill="#FFC9BF"/>
<path d="M253 249.821C253 249.821 257 244.904 259.5 243.995C263 242.723 276 248.995 276 248.995L293.5 255.495C305.566 260.626 304.401 271.495 299.5 271.495C295.604 271.495 288 266.495 288 266.495L276 259.995L253 249.821Z" fill="#4CD174"/>
<path d="M167.587 90.6596C167.587 90.6596 151.246 126.575 152.21 132.673C153.174 138.772 157.95 163.11 157.95 163.11L161.406 202.701C161.406 202.701 223.118 195.226 224.399 195.226C225.679 195.226 222.471 162.477 222.471 162.477L231.873 99.5386C231.873 99.5386 227.565 90.9625 208.127 87.989C196.495 86.1857 167.587 90.6596 167.587 90.6596Z" fill="#FED546"/>
<path d="M212.698 139.061C213.485 145.463 215.46 151.663 218.521 157.342C219.705 159.476 220.806 162.477 222.761 163.936C225.817 166.235 230.208 164.073 232.975 161.444C235.742 158.815 238.55 155.483 242.363 155.346C244.8 155.263 247.058 156.53 249.439 157.039C251.821 157.548 254.945 156.764 255.455 154.396C255.608 152.997 255.278 151.588 254.519 150.404C248.679 138.801 244.207 126.559 241.193 113.924C239.923 110.336 238.299 106.882 236.348 103.613C234.971 101.287 231.419 97.9143 227.923 95.0785" fill="#FED546"/>
<path d="M179.233 88.2782C162.245 88.8701 149.512 100.103 145.891 108.198C141.638 117.696 138.334 129.177 133.351 138.317C132.232 140.019 131.365 141.874 130.776 143.824C130.502 144.811 130.533 145.859 130.868 146.827C131.202 147.796 131.823 148.64 132.649 149.248C135.209 150.762 138.926 148.793 141.28 150.624C142.574 151.615 142.959 153.377 144.033 154.616C145.41 156.089 147.571 156.392 149.539 156.612L161.006 157.851" fill="#FED546"/>
<path d="M223.5 174.495C223.235 174.069 213.627 178.481 213.5 177.995C213.156 177.128 214.064 160.565 213.5 158.995C213.5 155.495 213 151.995 212.5 146.495C211.913 139.495 211.5 136.495 211.417 133.774C211.032 132.15 210.743 130.842 210.564 129.92C210.442 129.471 210.373 129.009 210.357 128.543C210.581 128.978 210.744 129.441 210.839 129.92C211.142 130.966 211.5 132.219 211.913 133.706C212.794 136.913 214.033 141.332 215.451 146.205C216.869 151.078 218.204 155.456 219.195 158.594C219.636 160.067 220.021 161.348 220.338 162.366C220.506 162.834 222.439 163.319 222.5 163.812L223.5 174.495Z" fill="black" fill-opacity="0.04"/>
<path d="M149 204.5C149 204.5 170.436 190.476 180.843 187.971C191.25 185.465 228.529 172.291 228.529 172.291L226.175 164.872C228.573 164.617 230.798 163.502 232.438 161.733L234.847 159.338C238.123 155.758 242.074 153.831 247.801 155.772L251.408 156.846L255.166 167.859C256.042 170.427 256.339 173.157 256.035 175.854C255.732 178.55 254.836 181.146 253.411 183.455C251.986 185.764 250.067 187.73 247.793 189.21C245.519 190.691 242.946 191.649 240.257 192.018L149 204.5Z" fill="#FFC9BF"/>
<path d="M243.347 173.136C240.953 172.629 238.495 172.255 236 172.017C233.496 171.921 230.983 171.967 228.492 172.153L228 170C230.564 170.17 238.992 170.136 243.307 173.136H243.347Z" fill="#F19F90" fill-opacity="0.5"/>
<path d="M201.5 42.9955C202.5 51.4955 202 52.9955 202.5 56.4955C202.5 60.9955 203.5 73.9955 205 80.4955C206.5 86.9955 208.058 89.6133 208.058 89.6133C207.962 97.4461 196.523 101.865 188.153 101.686C179.687 101.507 179.398 97.3635 179.274 89.9162C179.081 77.5268 179.081 72.8051 179.081 72.8739C179.081 72.9428 169.42 69.4954 167.5 57.4954C166.399 50.6124 165.908 45.7874 166.5 36.4954C166.5 25.4953 176.542 14.4953 180.5 14.4954C180.5 14.4954 200.5 34.4955 201.5 42.9955Z" fill="#FFC9BF"/>
<path d="M170.596 38.5692C170.596 39.0335 170.774 39.4801 171.095 39.816C171.415 40.1519 171.853 40.3513 172.317 40.3725C172.545 40.3913 172.774 40.3642 172.99 40.2928C173.207 40.2215 173.408 40.1073 173.58 39.9571C173.752 39.807 173.892 39.6238 173.992 39.4185C174.092 39.2132 174.149 38.9899 174.162 38.7619C174.169 38.2943 173.993 37.8422 173.672 37.5026C173.35 37.163 172.908 36.9628 172.441 36.9448C172.213 36.928 171.983 36.9569 171.766 37.0299C171.549 37.1028 171.349 37.2183 171.177 37.3695C171.005 37.5208 170.866 37.7048 170.766 37.9108C170.666 38.1168 170.608 38.3406 170.596 38.5692Z" fill="#3C4045"/>
<path d="M169.028 37.868C169.248 38.102 170.611 37.1108 172.525 37.1108C174.438 37.1108 175.87 38.0745 176.076 37.8404C176.283 37.6064 175.953 37.3173 175.333 36.8631C174.5 36.2872 173.51 35.9842 172.497 35.9958C171.507 35.9918 170.542 36.3054 169.744 36.8906C169.125 37.3449 168.918 37.7716 169.028 37.868Z" fill="#3C4045"/>
<path d="M188.415 38.5692C188.414 39.0358 188.595 39.4844 188.918 39.8207C189.242 40.1569 189.683 40.3548 190.149 40.3726C190.376 40.3894 190.604 40.361 190.821 40.2889C191.037 40.2168 191.236 40.1025 191.408 39.9527C191.58 39.8029 191.72 39.6205 191.82 39.4161C191.921 39.2117 191.98 38.9893 191.994 38.762C191.998 38.2953 191.821 37.8452 191.5 37.5063C191.179 37.1675 190.739 36.9662 190.273 36.9448C190.044 36.928 189.814 36.9568 189.596 37.0296C189.378 37.1024 189.177 37.2176 189.004 37.3687C188.831 37.5198 188.69 37.7038 188.589 37.9098C188.488 38.1159 188.429 38.3401 188.415 38.5692Z" fill="#3C4045"/>
<path d="M186.956 38.2395C187.177 38.4735 188.54 37.4686 190.453 37.4686C192.366 37.4686 193.798 38.4322 194.005 38.1982C194.211 37.9642 193.881 37.6751 193.261 37.2208C192.426 36.6507 191.437 36.3482 190.425 36.3536C189.436 36.3496 188.471 36.6632 187.672 37.2484C187.053 37.7026 186.846 38.1294 186.956 38.2395Z" fill="#3C4045"/>
<path d="M180.215 51.9116C179.335 51.6345 178.422 51.47 177.5 51.4223C177.069 51.4223 176.675 51.291 176.603 51.0045C176.56 50.5645 176.656 50.122 176.878 49.7394L178.146 46.4931C179.904 41.8743 181.172 38.0671 180.981 37.9955C179.602 40.6507 178.431 43.4079 177.476 46.2425C177.057 47.436 176.651 48.4743 176.28 49.5127C176.007 50.025 175.93 50.619 176.065 51.1836C176.123 51.3342 176.216 51.4689 176.337 51.5767C176.458 51.6846 176.602 51.7625 176.758 51.8042C176.997 51.8649 177.242 51.9009 177.488 51.9116C178.394 52.0234 179.31 52.0234 180.215 51.9116Z" fill="#F19F90"/>
<path d="M179.054 72.874C186.5 74.4955 192 71.4955 199.5 62.4955C199.5 62.4955 193.205 77.5269 179.233 76.1503L179.054 72.874Z" fill="#F19F90"/>
<path d="M184.191 58.1126C183.968 57.8887 182.507 59.3488 180.191 59.1347C177.874 58.9205 176.463 57.1782 176.249 57.3728C176.034 57.5675 176.307 58.0153 176.91 58.6577C177.77 59.535 178.91 60.0827 180.132 60.2054C181.299 60.3215 182.465 59.9794 183.384 59.2515C184.104 58.7259 184.299 58.2002 184.191 58.1126Z" fill="#F19F90"/>
<path d="M186.501 32.4432C186.694 32.9663 188.607 32.7185 190.865 32.9801C193.122 33.2416 194.995 33.8749 195.256 33.4068C195.394 33.1866 195.077 32.691 194.334 32.1817C193.353 31.5594 192.243 31.169 191.088 31.0402C189.934 30.9113 188.765 31.0475 187.671 31.4383C186.859 31.7824 186.418 32.1954 186.501 32.4432Z" fill="#3C4045"/>
<path d="M169.073 32.8189C169.489 33.2162 171.085 32.8189 173.013 32.8189C174.941 32.8189 176.57 33.088 176.952 32.6652C177.118 32.4601 176.852 32.0501 176.138 31.6656C175.189 31.195 174.074 30.9622 172.946 30.9993C171.812 31.0067 170.711 31.2941 169.805 31.8194C169.123 32.191 168.857 32.6139 169.073 32.8189Z" fill="#3C4045"/>
</svg>
