<svg width="160" height="23" viewBox="0 0 160 23" fill="none" xmlns="http://www.w3.org/2000/svg">
<path d="M66.1673 6.88486L69.2554 4.58057H58.9191V18.4193H69.2554V16.115H61.8688V12.5726H68.1692V10.2683H61.8688V6.88486H66.1673Z" fill="#2A9E3E"/>
<path d="M51.1178 9.97531H47.5282V6.88486H53.2588L56.347 4.58057H44.5784V18.4193H50.7374C54.1918 18.4193 56.1733 16.8349 56.1733 14.0717C56.1733 11.4303 54.3774 9.97531 51.1178 9.97531ZM50.6044 16.115H47.5282V12.2789H50.6044C52.477 12.2789 53.349 12.9204 53.349 14.1965C53.3482 15.5009 52.4252 16.115 50.6044 16.115Z" fill="#2A9E3E"/>
<path d="M77.629 4.58057H72.0015V18.4193H74.9512V14.4994H77.629C81.22 14.4994 83.4512 12.5877 83.4512 9.53313C83.4512 6.47849 81.2208 4.58057 77.629 4.58057ZM77.5658 12.1951H74.9512V6.88486H77.5658C79.4557 6.88486 80.4968 7.82774 80.4968 9.53998C80.4968 11.2522 79.4565 12.1951 77.5658 12.1951Z" fill="#2A9E3E"/>
<path d="M39.5144 15.4236C38.7581 15.8461 37.8771 16.0697 36.9683 16.0697C34.3085 16.0697 32.3789 14.1483 32.3789 11.5008C32.3789 8.85324 34.3094 6.93173 36.9683 6.93173C37.9741 6.93173 38.8762 7.21786 39.6512 7.78177L41.7666 6.20346L41.6268 6.07942C40.3917 4.98054 38.7408 4.3999 36.854 4.3999C34.807 4.3999 32.9487 5.09849 31.6226 6.36783C30.2883 7.64402 29.5538 9.43997 29.5538 11.4246C29.5538 13.4184 30.286 15.2411 31.615 16.556C32.9486 17.8756 34.8025 18.6023 36.8351 18.6023C38.9618 18.6023 40.8187 17.852 42.0771 16.486C41.1058 15.7615 40.1684 15.0622 40.1684 15.0622L39.5144 15.4236Z" fill="#2A9E3E"/>
<path d="M20.3479 4.46973C20.8846 5.17136 21.3432 5.93769 21.7093 6.75576L11.3586 14.4776L7.03455 11.7335V8.43224L11.3586 11.1764L20.3479 4.46973Z" fill="#2A9E3E"/>
<path d="M2.62357 11.4999C2.62357 11.3515 2.62733 11.2046 2.63486 11.0577L0.0142833 10.9253C0.00526236 11.1156 0 11.3074 0 11.4999C0 14.6755 1.27119 17.5505 3.3272 19.6312L5.18551 17.75C3.6031 16.1488 2.62357 13.9381 2.62357 11.4999Z" fill="url(#paint0_linear)"/>
<path d="M11.3583 2.65664C11.5049 2.65664 11.65 2.66196 11.795 2.66881L11.9258 0.0144591C11.7379 0.00532716 11.5485 0 11.3583 0C8.22127 0 5.38118 1.28684 3.32593 3.36817L5.18423 5.24936C6.76589 3.64821 8.95045 2.65664 11.3583 2.65664Z" fill="url(#paint1_linear)"/>
<path d="M11.3587 20.343C11.2121 20.343 11.067 20.3392 10.9219 20.3316L10.7911 22.9844C10.979 22.9936 11.1685 22.9989 11.3587 22.9989C14.4957 22.9989 17.3358 21.712 19.391 19.6307L17.5327 17.7495C15.951 19.3507 13.7672 20.343 11.3587 20.343Z" fill="url(#paint2_linear)"/>
<path d="M16.284 4.19994L18.4934 2.55162C16.5434 0.956573 14.0619 0 11.3594 0V2.65664C13.1854 2.65664 14.8813 3.22662 16.284 4.19994Z" fill="url(#paint3_linear)"/>
<path d="M22.7183 11.5C22.7183 10.7967 22.6558 10.1081 22.5363 9.43994L20.0909 11.264C20.0932 11.3424 20.094 11.4208 20.094 11.5C20.094 14.0965 18.9829 16.435 17.2163 18.0544L18.9791 20.0269C21.2757 17.9235 22.7183 14.8826 22.7183 11.5Z" fill="#2A9E3E"/>
<path d="M11.3582 20.3432C8.79324 20.3432 6.48315 19.2185 4.88345 17.4302L2.93494 19.2147C5.01349 21.5387 8.01745 22.9991 11.3582 22.9991V20.3432Z" fill="url(#paint4_linear)"/>
<path d="M5.50124 4.94516L3.73841 2.97266C1.4426 5.07682 0 8.11777 0 11.4997H2.62433C2.62357 8.90312 3.73465 6.56457 5.50124 4.94516Z" fill="url(#paint5_linear)"/>
<path d="M99.4303 18.4158H102.496V4.59668H90.2322V18.4158H93.2982V7.55793H99.4303V18.4158Z" fill="#0EA1B0"/>
<path d="M110.214 14.5474C114.411 14.5474 116.595 12.8694 116.595 9.45411C116.595 6.33492 114.928 4.59766 110.214 4.59766H105.654V18.4168H108.72V14.5474H110.214ZM110.75 7.55891C112.667 7.55891 113.433 8.1709 113.433 9.47385C113.433 10.9149 112.533 11.5862 110.597 11.5862H108.72V7.55891H110.75Z" fill="#0EA1B0"/>
<path d="M125.419 4.59766H122.027L116.661 18.4168H119.727L120.801 15.5937H126.549L127.603 18.4168H130.841L125.419 4.59766ZM121.931 12.6325L123.694 7.99322L125.438 12.6325H121.931Z" fill="#0EA1B0"/>
<path d="M138.598 18.4168C141.798 18.4168 143.829 17.252 143.829 14.3895C143.829 12.593 143.101 11.5664 141.587 11.2111C142.891 10.5793 143.426 9.59225 143.426 8.13141C143.426 5.90061 141.971 4.59766 138.655 4.59766H132.599V18.4168H138.598ZM135.666 15.4555V12.6325H138.675C140.188 12.6325 140.744 13.1458 140.744 14.0144C140.744 14.962 140.208 15.4555 138.675 15.4555H135.666ZM135.666 10.1845V7.55891H138.483C139.825 7.55891 140.36 8.03271 140.36 8.82237C140.36 9.63173 139.767 10.1845 138.406 10.1845H135.666Z" fill="#0EA1B0"/>
<path d="M152.569 18.6528C156.919 18.633 159.908 15.7902 159.908 11.526C159.908 6.96576 156.861 4.35986 152.55 4.35986C148.18 4.35986 145.192 7.22241 145.192 11.4866C145.192 16.0666 148.238 18.6528 152.569 18.6528ZM148.449 11.5063C148.449 9.0189 149.982 7.34086 152.53 7.32111C155.271 7.34086 156.65 9.21632 156.65 11.5063C156.65 14.0135 155.099 15.6915 152.569 15.6915C149.829 15.6718 148.449 13.7963 148.449 11.5063Z" fill="#0EA1B0"/>
<defs>
<linearGradient id="paint0_linear" x1="3.85759" y1="19.299" x2="0.926986" y2="10.9309" gradientUnits="userSpaceOnUse">
<stop offset="0.1444" stop-color="#F2E913"/>
<stop offset="0.3037" stop-color="#E7E518"/>
<stop offset="0.5823" stop-color="#CADB26"/>
<stop offset="0.891" stop-color="#A3CD39"/>
</linearGradient>
<linearGradient id="paint1_linear" x1="4.07556" y1="3.83865" x2="11.4833" y2="1.05006" gradientUnits="userSpaceOnUse">
<stop offset="0.0592" stop-color="#0FA8E0"/>
<stop offset="0.5385" stop-color="#0099F9"/>
<stop offset="0.9234" stop-color="#0291EB"/>
</linearGradient>
<linearGradient id="paint2_linear" x1="10.6182" y1="21.3965" x2="18.9792" y2="19.5299" gradientUnits="userSpaceOnUse">
<stop offset="0.1226" stop-color="#A3CD39"/>
<stop offset="0.2846" stop-color="#86C339"/>
<stop offset="0.8693" stop-color="#21A038"/>
</linearGradient>
<linearGradient id="paint3_linear" x1="10.8104" y1="0.890579" x2="17.9656" y2="3.07139" gradientUnits="userSpaceOnUse">
<stop offset="0.0566" stop-color="#0291EB"/>
<stop offset="0.79" stop-color="#0C8ACB"/>
</linearGradient>
<linearGradient id="paint4_linear" x1="3.59299" y1="18.8918" x2="11.388" y2="21.7689" gradientUnits="userSpaceOnUse">
<stop offset="0.1324" stop-color="#F2E913"/>
<stop offset="0.2977" stop-color="#EBE716"/>
<stop offset="0.5306" stop-color="#D9E01F"/>
<stop offset="0.8023" stop-color="#BBD62D"/>
<stop offset="0.9829" stop-color="#A3CD39"/>
</linearGradient>
<linearGradient id="paint5_linear" x1="0.976828" y1="11.8219" x2="4.1637" y2="3.63246" gradientUnits="userSpaceOnUse">
<stop offset="0.0698" stop-color="#A3CD39"/>
<stop offset="0.2599" stop-color="#81C55F"/>
<stop offset="0.9216" stop-color="#0FA8E0"/>
</linearGradient>
</defs>
</svg>
