<svg width="459" height="473" viewBox="0 0 459 473" fill="none" xmlns="http://www.w3.org/2000/svg">
<path d="M405.796 396.42C396.371 406.347 387.452 412.747 380.407 417.804C297.577 477.253 199.58 459.925 178.751 455.693C147.995 449.443 88.5436 437.363 45.5595 386.799C-19.4716 310.298 -9.3443 189.774 41.0961 110.212C50.318 95.6602 99.06 14.8881 198.118 1.93596C258.067 -5.90375 327.953 9.90482 378.556 52.3187C484.782 141.348 477.22 321.2 405.796 396.42Z" fill="#F0FCFF"/>
<mask id="mask0" mask-type="alpha" maskUnits="userSpaceOnUse" x="0" y="0" width="459" height="462">
<path d="M405.796 396.42C396.371 406.347 387.452 412.747 380.407 417.804C297.577 477.253 199.58 459.925 178.751 455.693C147.995 449.443 88.5436 437.363 45.5595 386.799C-19.4716 310.298 -9.3443 189.774 41.0961 110.212C50.318 95.6602 99.06 14.8881 198.118 1.93596C258.067 -5.90375 327.953 9.90482 378.556 52.3187C484.782 141.348 477.22 321.2 405.796 396.42Z" fill="#F0FCFF"/>
</mask>
<g mask="url(#mask0)">
<path d="M0 187.859H53.9902V258.306H107.98V435.672H0V187.859Z" fill="#E1F9FF"/>
<rect x="111.98" y="242.817" width="69.9873" height="247.814" fill="#D0F6FF"/>
<path d="M183.967 360.229H243.956V304.771H303.945V490.631H183.967V360.229Z" fill="#D0F6FF"/>
<rect x="307.943" y="176.867" width="58.9893" height="313.764" fill="#E1F9FF"/>
<rect x="369.934" y="229.827" width="48.9911" height="260.804" fill="#DEF8FF"/>
<rect x="423.924" y="292.78" width="48.9911" height="197.851" fill="#DEF8FF"/>
</g>
<path d="M262.08 469.688C268.925 470.196 280.787 471.017 290.146 471.371C295.769 471.583 299.007 471.112 300.874 470.469C300.874 470.649 300.874 470.818 300.855 470.976C300.829 471.387 300.626 471.774 300.286 472.064C299.945 472.353 299.491 472.525 299.012 472.544C286.773 473.141 274.505 473.152 262.265 472.576C262.028 472.566 261.799 472.504 261.598 472.396C261.398 472.288 261.233 472.137 261.12 471.959C261.007 471.78 260.95 471.58 260.953 471.377C260.957 471.174 261.021 470.976 261.14 470.8C261.423 470.411 261.737 470.04 262.08 469.688Z" fill="#4F5160"/>
<path d="M290.146 471.369C280.787 471.015 268.919 470.194 262.08 469.686C268.804 462.616 290.146 457.851 290.146 457.851H296.179C300.326 462.972 300.918 467.85 300.881 470.469C299.007 471.109 295.769 471.581 290.146 471.369Z" fill="#4F5160"/>
<path d="M297.188 448.019L296.624 459.172C296.595 459.762 296.362 460.323 295.965 460.76C295.568 461.197 295.032 461.483 294.447 461.569C292.929 461.797 291.379 461.669 289.919 461.195C289.404 461.027 288.943 460.723 288.587 460.315C288.23 459.907 287.99 459.41 287.892 458.877L285.941 448.019H297.188Z" fill="#9BC4CE"/>
<path d="M372.742 469.688C365.897 470.196 354.035 471.017 344.676 471.371C339.053 471.583 335.815 471.112 333.949 470.469C333.949 470.649 333.949 470.818 333.967 470.976C333.993 471.387 334.196 471.774 334.537 472.064C334.877 472.353 335.331 472.525 335.81 472.544C348.049 473.141 360.317 473.152 372.558 472.576C372.794 472.566 373.024 472.504 373.224 472.396C373.425 472.288 373.589 472.137 373.702 471.959C373.815 471.78 373.873 471.58 373.869 471.377C373.865 471.174 373.801 470.976 373.682 470.8C373.399 470.411 373.085 470.04 372.742 469.688Z" fill="#4F5160"/>
<path d="M344.677 471.369C354.035 471.015 365.903 470.194 372.742 469.686C366.019 462.616 344.677 457.851 344.677 457.851H338.643C334.497 462.972 333.904 467.85 333.941 470.469C335.815 471.109 339.053 471.581 344.677 471.369Z" fill="#4F5160"/>
<path d="M334.939 446.52L338.198 459.172C338.227 459.761 338.46 460.323 338.857 460.76C339.254 461.197 339.79 461.483 340.375 461.569C341.893 461.797 343.443 461.669 344.903 461.195C345.418 461.027 345.878 460.723 346.235 460.315C346.592 459.907 346.832 459.41 346.93 458.877L344.903 445.021L334.939 446.52Z" fill="#9BC4CE"/>
<path d="M284.356 453.494C284.439 453.66 285.277 453.384 286.383 453.43C287.488 453.476 288.308 453.78 288.41 453.623C288.511 453.467 287.682 452.84 286.41 452.803C285.139 452.767 284.255 453.356 284.356 453.494Z" fill="#3F4256"/>
<path d="M285.169 449.103C285.814 449.25 286.486 449.231 287.122 449.047C287.822 448.91 288.505 448.694 289.157 448.403C289.538 448.23 289.907 448.033 290.262 447.814C290.478 447.695 290.674 447.542 290.843 447.363C290.954 447.238 291.02 447.079 291.03 446.912C291.04 446.745 290.993 446.58 290.898 446.442C290.797 446.319 290.668 446.22 290.523 446.153C290.378 446.086 290.22 446.053 290.06 446.056C289.81 446.054 289.561 446.092 289.323 446.166C288.91 446.274 288.506 446.415 288.116 446.59C287.469 446.88 286.872 447.271 286.348 447.749C285.427 448.56 285.178 449.241 285.242 449.268C285.307 449.296 285.749 448.753 286.661 448.081C287.504 447.453 288.466 447.002 289.489 446.755C289.894 446.645 290.253 446.636 290.364 446.81C290.474 446.985 290.41 446.903 290.364 447.013C290.236 447.143 290.09 447.255 289.931 447.344C289.604 447.556 289.266 447.75 288.918 447.924C288.326 448.221 287.71 448.464 287.075 448.652C286.43 448.756 285.793 448.906 285.169 449.103Z" fill="#3F4256"/>
<path d="M285.426 449.351C285.791 448.81 285.957 448.16 285.896 447.51C285.913 446.824 285.803 446.141 285.573 445.494C285.436 445.109 285.261 444.739 285.048 444.389C284.933 444.14 284.755 443.925 284.532 443.764C284.31 443.603 284.05 443.501 283.777 443.469C283.607 443.475 283.442 443.528 283.301 443.623C283.159 443.717 283.047 443.848 282.976 444.003C282.876 444.218 282.814 444.448 282.791 444.684C282.726 445.096 282.726 445.515 282.791 445.927C282.935 446.623 283.252 447.272 283.713 447.814C284.505 448.734 285.306 448.946 285.316 448.882C285.325 448.817 284.708 448.458 284.099 447.556C283.747 447.042 283.52 446.452 283.436 445.835C283.381 445.481 283.381 445.121 283.436 444.767C283.482 444.38 283.63 444.058 283.786 444.095C283.943 444.132 284.321 444.371 284.486 444.684C284.687 444.996 284.86 445.326 285.002 445.669C285.231 446.259 285.373 446.879 285.426 447.51C285.509 448.688 285.325 449.324 285.426 449.351Z" fill="#3F4256"/>
<path d="M269.188 281.235L333.481 283.297C333.481 283.297 347.795 378.826 347.399 385.482L352.934 458.011L335.437 459.011C335.437 459.011 327.757 433.924 324.939 418.541C323.096 408.304 318.393 392.598 317.463 384.055C316.533 375.512 303.739 316.696 303.739 316.696C303.739 316.696 302.624 385.104 302.596 387.958C302.569 390.812 299.443 459.011 299.443 459.011H282.946C281.629 447.31 275.608 397.108 274.936 387.645C273.72 370.559 267.742 321.363 267.18 309.055C266.618 296.747 269.188 281.235 269.188 281.235Z" fill="#4CD174"/>
<path d="M265.95 285.312C266.18 284.492 271.301 242.044 271.301 242.044L268.639 187.022L291.556 178.985L295.185 176.223L318.213 176.49L320.829 180.375L342.641 190.29L336.561 235.398L334.857 273.142L333.245 287.116L268.593 290.973L265.95 285.312Z" fill="url(#paint0_linear)"/>
<g opacity="0.3">
<path opacity="0.3" d="M269.308 257.208L293.496 260.117C293.534 261.017 293.287 261.906 292.791 262.657C292.295 263.409 291.575 263.986 290.733 264.306C289.018 264.894 287.176 265.012 285.4 264.647C283.632 264.276 281.827 264.109 280.021 264.149C278.178 264.315 276.456 265.024 274.651 264.913C273.75 264.858 272.874 264.599 272.089 264.156C271.304 263.712 270.63 263.096 270.119 262.353C269.608 261.61 269.272 260.761 269.138 259.87C269.004 258.978 269.075 258.068 269.345 257.208H269.308Z" fill="#3F4256"/>
</g>
<path d="M269.383 186.715C269.383 186.715 263.12 187.99 259.988 197.371C256.856 206.751 249.487 240.886 249.018 243.234C248.548 245.581 250.583 253.112 258.763 256.472C263.189 258.384 268.029 259.141 272.828 258.672V241.393L269.383 237.637L270.728 231.542L269.383 186.715Z" fill="url(#paint1_linear)"/>
<path d="M252.953 239.676C253.234 239.583 254.454 239.039 254.718 238.905C255.243 238.675 255.746 238.603 256.704 238.244C257.816 237.82 258.962 237.493 260.131 237.269C260.821 237.13 261.519 237.041 262.222 237.002C262.967 236.949 263.716 236.992 264.451 237.131C267.059 237.639 269.679 238.07 271.399 240.095C271.891 240.726 272.285 241.427 272.569 242.175C272.637 242.463 272.723 242.746 272.827 243.022C272.839 242.949 272.839 242.874 272.827 242.801C272.827 242.645 272.753 242.424 272.689 242.148C272.434 241.373 272.055 240.645 271.565 239.994C269.853 237.887 267.452 236.453 264.786 235.943C264.031 235.796 263.259 235.752 262.492 235.814C261.781 235.861 261.073 235.953 260.374 236.09C259.197 236.337 258.045 236.685 256.929 237.131C256.008 237.508 255.225 237.867 254.718 238.125C254.46 238.244 254.082 238.603 253.953 238.676C253.87 238.708 253.023 239.622 252.953 239.676Z" fill="black" fill-opacity="0.04"/>
<path d="M298.269 200.381L298.668 200.298L298.946 200.205C299.629 199.751 300.287 199.586 301.014 199.206C301.935 198.699 303.087 198.342 304.404 197.707C305.885 197.017 307.237 196.592 308.549 195.617H308.383L312.443 201.704L313.443 203.203L313.943 201.704C314.044 201.373 314.841 199.065 314.943 198.706C316.329 193.955 317.418 190.733 319.442 186.216C320.216 184.485 320.981 183.074 321.441 182.117L321.941 181.219L321.059 180.764C321.061 180.73 320.829 180.714 320.827 180.681C320.827 180.681 320.827 180.681 320.763 180.764L320.606 181.04C320.477 181.288 320.274 181.647 320.026 182.117C319.528 183.037 318.838 184.437 318.036 186.167C315.965 190.67 314.229 195.32 312.841 200.077L312.546 201.136H312.767L308.715 194.37L308.65 194.259L308.549 194.342C307.253 195.314 305.865 196.156 304.404 196.855C303.096 197.509 301.935 198.061 301.014 198.577C300.292 198.974 299.594 199.414 298.923 199.893L298.407 200.298C298.359 200.322 298.313 200.35 298.269 200.381Z" fill="black" fill-opacity="0.04"/>
<path d="M289.947 179.72C289.947 179.72 289.947 179.72 289.272 179.953L288.447 180.22C288.235 181.205 287.998 183.513 287.593 185.216C287.188 186.919 286.917 188.929 286.447 191.212C286.198 192.41 286.017 193.987 285.947 195.209C285.864 196.535 286.017 197.918 286.447 199.175C286.521 199.414 287.355 200.475 287.447 200.705L287.947 201.204L288.447 200.205C289.936 197.642 290.722 195.712 291.766 192.938H291.581L294.946 197.707L296.584 199.608L297.108 199.928C297.142 199.979 297.9 200.164 297.945 200.205C297.915 200.15 297.44 199.657 297.403 199.608L297.108 199.175L295.929 197.536L291.701 191.737L291.581 191.58L291.517 191.764C290.46 194.52 289.182 197.186 287.694 199.736H287.906C287.823 199.525 287.713 199.313 287.639 199.083C287.224 197.854 287.049 196.557 287.123 195.262C287.191 194.053 287.348 192.85 287.593 191.663C288.053 189.38 288.514 187.327 288.827 185.596C289.14 183.866 289.454 182.494 289.656 181.5C289.739 181.03 289.813 180.662 289.868 180.386C289.901 180.244 289.943 179.866 289.947 179.72Z" fill="black" fill-opacity="0.04"/>
<path d="M269.95 207.699C269.876 207.699 269.349 210.824 269.45 221.189C269.552 231.555 269.386 237.177 269.45 237.177C269.482 237.177 270.45 233.68 270.95 231.681C271.118 229.085 270.65 225.832 270.599 220.608C270.498 210.243 270.015 207.699 269.95 207.699Z" fill="black" fill-opacity="0.04"/>
<path d="M317.727 177.999L308.977 189.884L297.666 198.961L292.572 190.087L293.947 181.863V172.87C293.947 172.87 289.044 170.662 288.281 164.218C288.281 158.381 289.448 147.72 289.448 140.394C290.187 136.126 292.103 133.46 295.542 130.823C298.981 128.185 303.287 126.939 307.604 127.331L308.525 127.414C318.068 128.84 322.176 137.742 320.5 147.234L317.736 177.999" fill="#FFC9BF"/>
<path d="M293.946 172.87C298.197 173.337 302.87 173.243 306.66 171.263C306.66 171.263 303.074 177.034 293.946 175.368V172.87Z" fill="#F19F90"/>
<path d="M291.954 149.973C291.918 150.316 292.019 150.659 292.234 150.928C292.45 151.197 292.763 151.37 293.106 151.409C293.272 151.438 293.442 151.433 293.606 151.395C293.77 151.357 293.925 151.287 294.062 151.188C294.198 151.09 294.313 150.965 294.401 150.821C294.488 150.677 294.546 150.517 294.571 150.35C294.602 150.007 294.5 149.666 294.285 149.396C294.071 149.127 293.76 148.951 293.419 148.905C293.252 148.877 293.082 148.883 292.918 148.922C292.754 148.961 292.599 149.033 292.463 149.132C292.326 149.231 292.211 149.357 292.124 149.501C292.036 149.646 291.979 149.806 291.954 149.973Z" fill="#3F4256"/>
<path d="M290.418 148.207C290.566 148.391 291.625 147.747 293.044 147.875C294.463 148.004 295.439 148.796 295.605 148.658C295.771 148.52 295.55 148.262 295.126 147.894C294.556 147.407 293.847 147.113 293.099 147.056C292.363 146.987 291.623 147.154 290.989 147.535C290.519 147.829 290.344 148.124 290.418 148.207Z" fill="#3F4256"/>
<path d="M304.951 150.965C304.915 151.308 305.015 151.652 305.231 151.923C305.446 152.193 305.76 152.368 306.103 152.41C306.269 152.439 306.439 152.434 306.603 152.396C306.767 152.358 306.922 152.288 307.059 152.189C307.195 152.091 307.311 151.966 307.398 151.822C307.486 151.678 307.543 151.518 307.568 151.351C307.602 151.008 307.5 150.665 307.285 150.395C307.07 150.125 306.759 149.95 306.416 149.906C306.25 149.877 306.08 149.882 305.916 149.92C305.752 149.957 305.597 150.028 305.46 150.126C305.324 150.225 305.208 150.35 305.121 150.494C305.034 150.638 304.976 150.798 304.951 150.965Z" fill="#3F4256"/>
<path d="M304.218 148.848C304.347 149.051 305.48 148.526 306.871 148.848C308.262 149.171 309.146 150.036 309.331 149.898C309.515 149.76 309.331 149.493 308.934 149.078C308.414 148.541 307.743 148.175 307.009 148.029C306.285 147.885 305.534 147.972 304.862 148.278C304.393 148.48 304.218 148.756 304.218 148.848Z" fill="#3F4256"/>
<path d="M298.701 158.412C297.979 158.106 297.22 157.896 296.444 157.786C296.084 157.721 295.743 157.611 295.706 157.362C295.71 156.986 295.829 156.62 296.047 156.313C296.462 155.466 296.904 154.582 297.365 153.652C299.207 149.869 300.58 146.748 300.423 146.674C300.267 146.601 298.655 149.611 296.812 153.395C296.361 154.315 295.937 155.236 295.531 156.074C295.263 156.487 295.152 156.984 295.218 157.473C295.26 157.604 295.33 157.724 295.424 157.824C295.518 157.925 295.634 158.003 295.762 158.053C295.958 158.126 296.162 158.175 296.37 158.2C297.135 158.369 297.918 158.44 298.701 158.412Z" fill="#F19F90"/>
<path d="M303.947 144.043C304.049 144.439 305.477 144.384 307.125 144.733C308.774 145.083 310.073 145.654 310.322 145.341C310.432 145.184 310.239 144.798 309.723 144.42C309.05 143.887 308.256 143.526 307.411 143.371C306.571 143.188 305.698 143.21 304.869 143.435C304.233 143.573 303.901 143.85 303.947 144.043Z" fill="#3F4256"/>
<path d="M291.37 144.506C291.591 144.846 292.595 144.598 293.774 144.69C294.953 144.782 295.921 145.104 296.179 144.791C296.289 144.634 296.179 144.303 295.755 143.953C295.204 143.538 294.543 143.295 293.855 143.254C293.167 143.213 292.481 143.376 291.886 143.723C291.443 144.018 291.277 144.34 291.37 144.506Z" fill="#3F4256"/>
<path d="M289.269 131.319C289.432 130.711 289.77 130.163 290.242 129.746C290.714 129.328 291.298 129.059 291.922 128.972C291.712 128.355 291.719 127.684 291.94 127.071C292.162 126.458 292.586 125.939 293.142 125.598C293.698 125.258 294.353 125.116 295 125.197C295.648 125.278 296.248 125.577 296.703 126.044C296.764 125.577 296.936 125.13 297.204 124.742C297.472 124.354 297.829 124.036 298.245 123.814C298.661 123.591 299.125 123.471 299.597 123.464C300.068 123.456 300.535 123.561 300.958 123.77C300.977 123.205 301.187 122.663 301.555 122.233C301.922 121.802 302.425 121.51 302.981 121.403C303.536 121.296 304.112 121.381 304.613 121.644C305.114 121.907 305.511 122.332 305.739 122.85C306.146 122.349 306.662 121.947 307.247 121.672C307.831 121.398 308.47 121.258 309.116 121.265C309.762 121.271 310.398 121.422 310.978 121.708C311.557 121.993 312.065 122.406 312.463 122.914C313.781 122.627 315.158 122.832 316.336 123.49C317.513 124.148 318.409 125.214 318.855 126.486C319.881 126.651 320.835 127.119 321.593 127.829C322.351 128.539 322.88 129.46 323.111 130.472C323.77 130.588 324.387 130.876 324.901 131.305C325.414 131.735 325.805 132.292 326.036 132.92C326.266 133.548 326.327 134.226 326.213 134.885C326.099 135.545 325.814 136.162 325.386 136.677C325.742 136.927 326.036 137.256 326.244 137.638C326.452 138.02 326.569 138.445 326.586 138.88C326.603 139.315 326.52 139.747 326.342 140.145C326.164 140.542 325.897 140.892 325.561 141.169C326.015 141.439 326.382 141.833 326.619 142.305C326.856 142.777 326.952 143.307 326.897 143.832C326.842 144.357 326.637 144.855 326.307 145.268C325.977 145.68 325.536 145.989 325.036 146.159C325.957 146.361 326.215 147.623 325.856 148.488C325.496 149.353 325.828 150.413 325.386 151.242C325.017 151.923 326.307 155.239 324.44 159.236C325.44 161.734 323 166.763 322.44 167.23C321.88 167.697 321.226 168.037 320.522 168.227L320.669 168.43C320.761 169.249 319.582 169.7 318.827 169.35C318.148 168.865 318.722 167.016 318.441 166.231C317.943 165.425 318.663 153.162 318.441 152.241C318.338 151.777 317.941 151.741 317.353 151.242C317.059 150.682 316.643 150.089 317.059 149.86C316.549 149.595 316.117 149.2 315.808 148.715C315.5 148.23 315.324 147.672 315.3 147.098C315.266 145.944 315.437 144.794 315.806 143.701C316.248 142.062 316.697 140.424 317.151 138.785C316.009 138.636 314.929 138.18 314.027 137.465C313.125 136.75 312.435 135.803 312.03 134.725C311.585 134.975 311.092 135.128 310.583 135.174C310.075 135.22 309.562 135.158 309.079 134.992C308.596 134.826 308.154 134.559 307.782 134.211C307.409 133.862 307.115 133.438 306.918 132.967C306.409 134.047 305.509 134.894 304.399 135.337C303.289 135.779 302.053 135.785 300.94 135.351C301.078 136.677 298.619 137.671 297.311 137.901C296.298 137.945 295.299 137.657 294.464 137.082C294.464 137.082 292.143 138.187 290.983 137.588C289.822 136.99 288.376 135.351 289.269 134.173C289.031 133.237 289.031 132.255 289.269 131.319Z" fill="#535565"/>
<path d="M316.141 150.452C316.27 150.376 320.713 146.866 321.439 153.385C320.992 158.132 317.264 158.073 317.232 157.884C317.199 157.695 316.141 150.452 316.141 150.452Z" fill="#FFC9BF"/>
<path d="M295.144 163.318C295.327 163.457 296.517 163.521 298.232 163.611C299.947 163.701 300.876 163.758 301.027 163.606C301.177 163.455 300.956 163.136 300.457 162.652C299.8 162.031 298.944 161.663 298.042 161.612C297.175 161.563 296.323 161.852 295.667 162.419C295.193 162.858 295.056 163.251 295.144 163.318Z" fill="white"/>
<path d="M269.825 239.58L282.721 239.414C283.152 239.412 283.576 239.524 283.95 239.739C284.324 239.954 284.634 240.264 284.849 240.638L293.654 259.703L293.323 260.983H278.355L269.595 241.329L269.825 239.58Z" fill="#414350"/>
<path d="M269.926 242.111L270.396 243.188L273.003 248.454C273.003 248.454 279.754 247.855 280.823 247.708C281.891 247.561 282.444 248.702 282.518 249.365C282.495 249.893 282.297 250.398 281.956 250.801C281.956 250.801 286.128 249.485 287.547 248.49C288.965 247.496 289.665 248.122 289.665 248.122C289.874 247.927 290.124 247.78 290.395 247.692C290.667 247.603 290.955 247.576 291.239 247.611C291.523 247.646 291.796 247.743 292.038 247.895C292.28 248.047 292.486 248.25 292.641 248.49C292.144 250.219 291.455 251.887 290.587 253.462C290.025 254.327 286.902 257.337 286.69 257.687C286.478 258.037 284.074 258.681 281.311 260.191C280.566 260.625 279.702 260.811 278.844 260.722C277.986 260.632 277.179 260.272 276.54 259.694C276.411 259.707 276.281 259.707 276.153 259.694C275.508 259.62 273.813 258 273.39 258.046C272.966 258.092 272.607 258.046 271.759 257.061C270.184 254.896 268.925 252.519 268.02 250C267.531 248.316 267.817 247.883 267.955 247.772C267.172 248.162 266.327 248.414 265.459 248.518C263.69 248.803 262.769 247.524 262.631 245.121C262.493 242.718 267.955 242.746 269.926 242.111Z" fill="#FFC9BF"/>
<path d="M270.847 253.103C270.989 253.16 271.138 253.197 271.289 253.213C271.584 253.268 272.008 253.324 272.542 253.37C273.922 253.462 275.262 254.103 276.613 253.809C277.969 253.52 279.233 252.973 280.449 252.31C280.82 252.118 281.609 251.554 281.949 251.311C282.083 251.235 281.863 250.807 281.974 250.7C281.974 250.7 281.403 251.031 280.473 251.501C279.246 252.107 277.95 252.561 276.613 252.854C275.277 253.144 273.909 253.265 272.542 253.213C271.511 253.176 270.847 253.066 270.847 253.103Z" fill="#F19F90" fill-opacity="0.5"/>
<path d="M267.531 248.058C267.531 248.113 271.717 248.654 272.951 248.313C272.451 247.314 271.96 246.379 271.951 246.315C271.169 246.304 270.42 246.922 269.677 247.165C268.915 247.335 268.189 247.637 267.531 248.058Z" fill="#F19F90" fill-opacity="0.5"/>
<path d="M268.147 243.51C268.083 243.51 268.332 244.265 268.341 245.204C268.362 245.598 268.322 245.992 268.221 246.373C268.165 246.522 268.07 246.653 267.945 246.751C267.945 246.751 268 246.751 268.092 246.751C268.207 246.68 268.3 246.578 268.359 246.456C268.514 246.064 268.58 245.643 268.553 245.223C268.584 244.625 268.443 244.031 268.147 243.51Z" fill="#F19F90" fill-opacity="0.5"/>
<path d="M274.643 257.208H274.854L275.389 257.623C275.914 257.623 276.805 257.733 277.735 257.623C278.826 257.507 279.903 257.282 280.95 256.951C281.568 256.75 282.167 256.491 282.737 256.177C283.326 255.855 283.906 255.478 284.505 255.1C287.195 253.379 289.509 251.243 291.057 250.23C290.979 249.627 290.672 249.077 290.2 248.693C290.075 248.594 289.939 248.511 289.795 248.445C289.703 248.445 289.647 248.38 289.647 248.389C289.647 248.399 289.85 248.491 290.154 248.748C290.583 249.139 290.855 249.672 290.918 250.249V250.184C289.343 251.151 286.939 252.679 284.25 254.392C283.651 254.769 283.071 255.146 282.49 255.469C281.929 255.774 281.344 256.033 280.74 256.242C279.708 256.575 278.647 256.813 277.572 256.951C276.651 257.08 275.904 257.135 275.389 257.19L274.79 257.254L274.643 257.208Z" fill="#F19F90" fill-opacity="0.5"/>
<path d="M276.927 259.5C277.14 259.5 277.536 259.865 277.745 259.823C278.151 259.758 278.731 259.657 279.45 259.5C281.319 259.099 283.15 258.535 284.921 257.816C285.899 257.404 286.814 256.856 287.638 256.186C288.298 255.637 288.914 255.037 289.48 254.391C289.969 253.839 290.337 253.379 290.595 253.056C290.732 252.895 291.839 250.993 291.947 250.811C291.791 250.953 290.479 252.45 290.347 252.615C290.071 252.918 289.684 253.369 289.186 253.894C288.618 254.523 288.002 255.108 287.344 255.643C286.527 256.286 285.625 256.813 284.664 257.208C282.901 257.922 281.088 258.503 279.239 258.948C278.529 259.123 277.958 259.243 277.553 259.335C277.341 259.377 277.132 259.432 276.927 259.5Z" fill="#F19F90" fill-opacity="0.5"/>
<g opacity="0.3">
<path opacity="0.3" d="M340.05 258.81C342.381 257.47 344.852 256.39 347.419 255.588C349.997 254.785 352.768 254.853 355.304 255.781C355.58 255.892 355.893 256.076 355.912 256.37C355.93 256.665 355.414 256.978 354.991 257.042C350.072 257.825 344.858 258.184 339.958 258.884" fill="#3F4256"/>
</g>
<path d="M312.896 301.249C312.896 301.249 317.944 297.152 319.399 295.293C320.855 293.433 321.813 292.365 321.813 292.365C321.813 292.365 327.855 290.524 330.103 288.002C332.35 285.479 335.97 281.769 335.97 281.769L343.127 289.263C343.127 289.263 339 295.946 338.66 298.156C338.319 300.365 335.804 306.441 335.804 306.441L322.071 298.238C322.071 298.238 319.141 302.326 317.272 302.777C315.706 303.127 313.016 304.241 312.896 301.249Z" fill="#FFC9BF"/>
<path d="M342.481 190.531C342.481 190.531 347.427 191.792 352.337 210.24C356.767 226.894 362.791 259.031 362.589 262.271C362.386 265.512 343.246 294.492 343.246 294.492L339.11 295.965L330.221 288.6C330.221 288.6 327.32 283.785 328.149 282.616C328.978 281.447 332.662 278.934 332.662 278.934L339.939 258.865L335.895 232.261L342.481 190.531Z" fill="url(#paint2_linear)"/>
<path d="M347.428 257.65C347.25 257.63 347.071 257.63 346.893 257.65L345.383 257.853L339.902 258.69H339.801L339.755 258.801C338.613 261.931 337.167 265.862 335.592 270.142C334.459 273.309 332.866 276.014 331.936 278.592L332 278.5C331.401 279.006 330.812 279.421 330.287 279.955C329.798 280.451 329.396 281.027 329.099 281.658C328.626 282.687 328.453 283.83 328.601 284.953C328.727 285.657 328.809 286.636 329.099 287.289L329.5 287.358C329.569 287.358 329.945 288.433 329.881 287.086C329.641 286.427 329.471 285.888 329.374 285.194C329.276 284.124 329.473 283.048 329.945 282.082C330.229 281.494 330.613 280.958 331.078 280.499C331.566 280.029 332.193 279.578 332.791 279.1H332.837V279.044C333.759 276.467 334.873 273.521 336.024 270.345L340.096 258.966L339.948 259.086L345.457 258.129L346.949 257.825C347.116 257.791 347.278 257.732 347.428 257.65Z" fill="black" fill-opacity="0.04"/>
<path d="M337.93 210C337.811 210 337.08 215.812 336.231 222.984C335.381 230.157 336.811 238.479 336.938 238.479C337.026 238.479 338.438 249.47 338.438 249.47C338.703 247.44 338.688 226.216 338.938 223.989C339.745 216.813 338.015 210 337.93 210Z" fill="black" fill-opacity="0.04"/>
<path d="M186.488 428.819L85.8883 428.731C80.08 428.731 74.5097 426.425 70.4026 422.321C66.2956 418.216 63.9883 412.649 63.9883 406.844L64.0408 154.787C64.0408 148.982 66.3482 143.415 70.4552 139.311C74.5622 135.206 80.1326 132.9 85.9408 132.9L186.532 132.961C192.34 132.961 197.91 135.267 202.018 139.372C206.125 143.477 208.432 149.044 208.432 154.849L208.388 406.905C208.392 409.782 207.828 412.631 206.729 415.289C205.63 417.948 204.017 420.364 201.983 422.399C199.949 424.434 197.534 426.049 194.875 427.15C192.216 428.252 189.366 428.819 186.488 428.819Z" fill="#839EB7"/>
<path d="M186.435 141.883H166.953C165.67 141.91 164.45 142.446 163.561 143.371C162.673 144.297 162.188 145.538 162.214 146.82V150.322C162.228 150.958 162.116 151.59 161.885 152.182C161.655 152.774 161.309 153.315 160.869 153.774C160.429 154.232 159.902 154.6 159.32 154.855C158.738 155.11 158.11 155.248 157.475 155.26H119.456C118.172 155.228 116.953 154.688 116.066 153.76C115.18 152.831 114.698 151.588 114.726 150.305V146.82C114.74 146.185 114.628 145.552 114.398 144.959C114.167 144.367 113.822 143.825 113.382 143.366C112.942 142.906 112.415 142.538 111.833 142.282C111.25 142.026 110.623 141.887 109.987 141.874H86.0544C84.0389 141.874 82.0432 142.271 80.1811 143.041C78.3191 143.812 76.6272 144.942 75.202 146.366C73.7769 147.791 72.6464 149.482 71.8751 151.343C71.1038 153.204 70.7069 155.198 70.7069 157.213L70.6543 403.228C70.6566 407.294 72.2731 411.193 75.1489 414.069C78.0248 416.944 81.9249 418.562 85.9931 418.567L186.391 418.628C190.462 418.628 194.366 417.012 197.244 414.136C200.122 411.259 201.739 407.357 201.739 403.289L201.791 157.274C201.797 155.255 201.404 153.254 200.635 151.387C199.866 149.52 198.736 147.823 197.309 146.393C195.883 144.963 194.188 143.829 192.322 143.055C190.456 142.281 188.456 141.883 186.435 141.883Z" fill="#FAFAFA"/>
<rect x="89.3926" y="261.249" width="93.732" height="58.6585" rx="7" fill="#DAEEF3"/>
<rect x="89.3926" y="277.008" width="93.732" height="13.1325" fill="#535565"/>
<path d="M123.209 339.237V346.981H122.415V339.943H120.584V339.237H123.209Z" fill="#434552"/>
<path d="M125.059 343.108C125.059 340.64 126.356 339.169 128.148 339.169C129.94 339.169 131.248 340.64 131.248 343.108C131.248 345.577 129.94 347.048 128.148 347.048C126.356 347.048 125.059 345.577 125.059 343.108ZM130.424 343.108C130.424 341.047 129.456 339.904 128.148 339.904C126.841 339.904 125.862 341.047 125.862 343.108C125.862 345.17 126.831 346.322 128.148 346.322C129.465 346.322 130.424 345.18 130.424 343.108Z" fill="#434552"/>
<path d="M132.381 343.108C132.381 340.64 133.679 339.169 135.471 339.169C137.262 339.169 138.57 340.64 138.57 343.108C138.57 345.577 137.262 347.048 135.471 347.048C133.679 347.048 132.381 345.577 132.381 343.108ZM137.756 343.108C137.756 341.047 136.788 339.904 135.471 339.904C134.153 339.904 133.194 341.047 133.194 343.108C133.194 345.17 134.163 346.322 135.471 346.322C136.778 346.322 137.756 345.18 137.756 343.108Z" fill="#434552"/>
<path d="M139.955 343.108C139.955 340.64 141.253 339.169 143.045 339.169C144.837 339.169 146.144 340.64 146.144 343.108C146.144 345.577 144.837 347.048 143.045 347.048C141.253 347.048 139.955 345.577 139.955 343.108ZM145.331 343.108C145.331 341.047 144.362 339.904 143.045 339.904C141.728 339.904 140.769 341.047 140.769 343.108C140.769 345.17 141.737 346.322 143.045 346.322C144.352 346.322 145.331 345.18 145.331 343.108Z" fill="#434552"/>
<path fill-rule="evenodd" clip-rule="evenodd" d="M149.364 339.168H152.572C153.157 339.168 153.718 339.397 154.131 339.803C154.545 340.209 154.777 340.761 154.777 341.335C154.776 341.91 154.544 342.461 154.13 342.868C153.716 343.274 153.155 343.502 152.57 343.502H150.164L150.164 343.975H153.212L153.212 344.763H150.164L150.163 347.048H149.361L149.362 344.763H148.961L148.961 343.975H149.362L149.362 343.502H148.961L148.962 342.714H149.363L149.364 339.168ZM150.166 339.956H152.572C152.944 339.956 153.301 340.102 153.564 340.36C153.827 340.619 153.975 340.97 153.975 341.335C153.974 341.701 153.826 342.052 153.563 342.31C153.3 342.569 152.943 342.714 152.571 342.714H150.165L150.165 341.335L150.166 339.956Z" fill="#434552"/>
<rect x="114.797" y="342.67" width="4.38079" height="0.876159" fill="#434552"/>
<path d="M143.818 240.596L141.75 235.194L145.342 225.38C146.181 223.083 146.171 220.562 145.313 218.273C144.455 215.983 142.806 214.076 140.664 212.895L142.162 208.789L139.578 207.844L138.089 211.906C135.648 211.326 133.08 211.66 130.869 212.846C128.659 214.032 126.961 215.987 126.096 218.341L122.68 227.691L117.424 230.948L127.174 234.529C127.179 235.234 127.357 235.928 127.694 236.548C128.03 237.168 128.513 237.697 129.101 238.086C129.69 238.476 130.365 238.716 131.067 238.784C131.77 238.852 132.478 238.747 133.13 238.477C133.758 238.219 134.313 237.813 134.751 237.295L143.818 240.596Z" fill="#FED546"/>
<path d="M199.045 169.566C199.789 174.179 199.146 178.91 197.199 183.158C195.252 187.406 192.088 190.982 188.107 193.432C184.126 195.882 179.507 197.097 174.834 196.923C170.162 196.748 165.647 195.192 161.86 192.452C158.072 189.712 155.184 185.91 153.559 181.528C151.935 177.147 151.648 172.382 152.734 167.837C153.82 163.292 156.231 159.171 159.662 155.996C163.092 152.821 167.388 150.735 172.005 150.001C178.187 149.013 184.508 150.519 189.578 154.188C194.649 157.857 198.054 163.388 199.045 169.566Z" fill="#FFDF71"/>
<path d="M193.495 170.447C194.058 173.957 193.567 177.556 192.083 180.787C190.6 184.019 188.191 186.738 185.162 188.602C182.132 190.465 178.618 191.389 175.063 191.256C171.508 191.123 168.072 189.94 165.19 187.855C162.308 185.771 160.109 182.879 158.872 179.546C157.634 176.213 157.413 172.588 158.237 169.129C159.061 165.67 160.893 162.533 163.5 160.115C166.108 157.697 169.375 156.105 172.887 155.542C175.22 155.169 177.603 155.258 179.901 155.805C182.198 156.351 184.366 157.345 186.28 158.729C188.193 160.113 189.815 161.86 191.053 163.871C192.291 165.881 193.121 168.116 193.495 170.447Z" fill="#FED546"/>
<path d="M193.399 169.889C193.293 169.89 193.096 169.147 192.592 167.829C191.887 165.982 190.902 164.255 189.672 162.708C188.822 161.653 187.859 160.695 186.802 159.85C185.586 158.89 184.252 158.091 182.832 157.473C182.069 157.135 181.281 156.856 180.476 156.639C179.638 156.402 178.782 156.231 177.917 156.127C177.033 156.019 176.141 155.98 175.251 156.01C174.324 156.042 173.401 156.144 172.49 156.313C171.589 156.496 170.702 156.742 169.835 157.048C168.987 157.354 168.164 157.724 167.371 158.153C166.606 158.569 165.875 159.044 165.185 159.575C164.498 160.064 163.851 160.608 163.248 161.199C162.159 162.298 161.215 163.532 160.44 164.872C159.768 166.048 159.228 167.295 158.831 168.589C158.258 170.481 157.981 172.45 158.01 174.426C158.029 175.831 158.133 176.622 158.04 176.637C157.947 176.651 157.684 175.902 157.498 174.46C157.252 172.408 157.392 170.329 157.908 168.329C158.266 166.934 158.786 165.586 159.46 164.313C160.235 162.841 161.21 161.484 162.357 160.278C162.967 159.627 163.627 159.024 164.331 158.474C165.068 157.895 165.85 157.374 166.668 156.918C167.517 156.442 168.403 156.036 169.317 155.704C170.26 155.362 171.227 155.093 172.211 154.899C173.195 154.721 174.192 154.614 175.191 154.579C176.163 154.553 177.135 154.604 178.098 154.733C179.028 154.85 179.947 155.045 180.844 155.316C181.707 155.563 182.548 155.876 183.362 156.254C186.187 157.566 188.624 159.586 190.436 162.118C191.655 163.787 192.555 165.666 193.089 167.662C193.461 169.069 193.479 169.874 193.399 169.889Z" fill="#FACB29"/>
<path fill-rule="evenodd" clip-rule="evenodd" d="M167.553 164.763L175.088 162.394C176.461 161.962 177.948 162.084 179.219 162.733C180.491 163.382 181.444 164.505 181.868 165.855C182.293 167.205 182.154 168.671 181.483 169.931C180.811 171.191 179.663 172.141 178.289 172.573L172.638 174.35L172.987 175.461L180.145 173.21L180.727 175.061L173.569 177.312L175.257 182.679L173.374 183.272L171.686 177.904L170.744 178.2L170.162 176.349L171.104 176.053L170.754 174.943L169.813 175.239L169.23 173.388L170.172 173.092L167.553 164.763ZM170.019 166.022L175.67 164.245C176.544 163.97 177.49 164.047 178.299 164.46C179.108 164.873 179.714 165.588 179.985 166.447C180.255 167.306 180.166 168.239 179.739 169.041C179.312 169.843 178.581 170.448 177.707 170.723L172.056 172.5L171.037 169.261L170.019 166.022Z" fill="#3F4256"/>
<path d="M208.102 112.015C208.634 116.028 207.963 120.109 206.173 123.741C204.383 127.373 201.556 130.393 198.048 132.418C194.541 134.443 190.511 135.383 186.469 135.118C182.427 134.853 178.555 133.396 175.342 130.931C172.129 128.465 169.719 125.103 168.419 121.269C167.119 117.434 166.986 113.301 168.038 109.391C169.089 105.482 171.277 101.972 174.326 99.3055C177.374 96.6394 181.145 94.9369 185.162 94.4136C190.539 93.7078 195.977 95.1656 200.279 98.4664C204.581 101.767 207.395 106.641 208.102 112.015Z" fill="#FFDF71"/>
<path d="M203.245 112.652C203.651 115.71 203.14 118.82 201.778 121.587C200.415 124.355 198.261 126.657 195.59 128.201C192.918 129.745 189.848 130.463 186.768 130.263C183.688 130.063 180.737 128.955 178.287 127.078C175.838 125.202 174 122.641 173.007 119.72C172.014 116.8 171.91 113.651 172.708 110.671C173.506 107.691 175.17 105.015 177.49 102.981C179.81 100.947 182.682 99.646 185.742 99.2433C187.772 98.9744 189.836 99.1079 191.815 99.6364C193.793 100.165 195.648 101.078 197.274 102.323C198.899 103.568 200.263 105.122 201.288 106.894C202.313 108.666 202.978 110.623 203.245 112.652Z" fill="#FED546"/>
<path d="M203.177 112.165C202.897 111.587 202.68 110.982 202.53 110.358C201.964 108.742 201.152 107.222 200.123 105.853C198.601 103.84 196.613 102.227 194.33 101.151C192.993 100.523 191.572 100.092 190.112 99.8701C189.338 99.7547 188.556 99.6977 187.774 99.6994C186.971 99.7106 186.17 99.7763 185.377 99.8963C184.584 100.032 183.802 100.223 183.035 100.467C180.881 101.172 178.914 102.352 177.28 103.921C176.313 104.846 175.469 105.891 174.768 107.031C173.273 109.506 172.477 112.341 172.467 115.233C172.517 115.873 172.502 116.516 172.423 117.153C172.353 117.175 172.126 116.499 171.997 115.249C171.839 113.465 172.013 111.668 172.511 109.948C172.851 108.753 173.332 107.603 173.945 106.523C174.656 105.275 175.533 104.13 176.551 103.118C177.089 102.576 177.666 102.074 178.278 101.617C178.929 101.134 179.618 100.704 180.339 100.332C181.088 99.9426 181.866 99.611 182.666 99.3406C183.49 99.0734 184.333 98.8661 185.187 98.7204C186.044 98.5876 186.909 98.5179 187.776 98.5118C188.619 98.5141 189.46 98.5827 190.292 98.717C191.094 98.8451 191.885 99.0347 192.658 99.2839C193.396 99.5251 194.117 99.8183 194.814 100.161C196.096 100.79 197.288 101.589 198.357 102.535C199.283 103.365 200.107 104.303 200.81 105.329C201.832 106.814 202.57 108.475 202.985 110.229C203.253 111.456 203.257 112.153 203.177 112.165Z" fill="#FACB29"/>
<path fill-rule="evenodd" clip-rule="evenodd" d="M179.397 108.71L184.873 104.991C185.871 104.313 187.093 104.052 188.271 104.267C189.448 104.481 190.484 105.152 191.15 106.134C191.817 107.115 192.06 108.325 191.825 109.498C191.591 110.671 190.898 111.711 189.9 112.389L185.793 115.179L186.342 115.986L191.543 112.453L192.457 113.798L187.256 117.331L189.906 121.232L188.538 122.161L185.887 118.26L185.202 118.725L184.288 117.38L184.973 116.915L184.424 116.108L183.74 116.573L182.826 115.228L183.51 114.763L179.397 108.71ZM181.68 109.125L185.787 106.336C186.422 105.905 187.2 105.739 187.949 105.875C188.698 106.012 189.357 106.439 189.782 107.063C190.206 107.688 190.36 108.458 190.211 109.204C190.062 109.951 189.621 110.613 188.986 111.044L184.879 113.833L183.28 111.479L181.68 109.125Z" fill="#3F4256"/>
<path d="M242.386 58.2599C245.315 61.0586 247.347 64.6629 248.225 68.6165C249.104 72.5702 248.789 76.6955 247.32 80.4701C245.852 84.2448 243.296 87.4992 239.976 89.8213C236.656 92.1434 232.721 93.4289 228.67 93.515C224.618 93.6011 220.633 92.484 217.217 90.3051C213.801 88.1262 211.109 84.9833 209.481 81.2745C207.853 77.5657 207.363 73.4575 208.072 69.4701C208.782 65.4827 210.659 61.7953 213.466 58.8746C217.22 54.9614 222.376 52.6984 227.799 52.5831C233.222 52.4678 238.469 54.5097 242.386 58.2599Z" fill="#FFDF71"/>
<path d="M239.013 61.7832C241.244 63.9159 242.792 66.6622 243.46 69.6744C244.129 72.6867 243.888 75.8294 242.769 78.7049C241.65 81.5804 239.702 84.0594 237.172 85.828C234.642 87.5967 231.645 88.5755 228.558 88.6406C225.472 88.7057 222.435 87.8542 219.833 86.1938C217.231 84.5334 215.18 82.1387 213.94 79.313C212.701 76.4873 212.328 73.3575 212.868 70.3197C213.409 67.282 214.84 64.4729 216.979 62.2479C218.395 60.7711 220.088 59.5876 221.962 58.765C223.836 57.9424 225.853 57.4967 227.9 57.4536C229.946 57.4104 231.98 57.7706 233.887 58.5135C235.794 59.2563 237.536 60.3674 239.013 61.7832Z" fill="#FED546"/>
<path d="M238.652 61.4372C238.072 61.1635 237.523 60.8275 237.016 60.4351C235.563 59.5239 233.977 58.8444 232.315 58.4211C231.175 58.1396 230.007 57.982 228.832 57.9508C227.492 57.9273 226.153 58.0732 224.849 58.385C224.143 58.5487 223.451 58.767 222.779 59.0378C221.351 59.6042 220.017 60.3819 218.821 61.3448C218.199 61.855 217.614 62.4096 217.072 63.0043C216.537 63.6043 216.046 64.2414 215.602 64.911C215.178 65.5644 214.805 66.2496 214.487 66.9603C214.167 67.6375 213.904 68.3397 213.699 69.0598C213.499 69.7545 213.351 70.4633 213.257 71.1801C212.928 73.6768 213.215 76.2163 214.092 78.5769C214.682 80.1843 215.521 81.6893 216.578 83.037C217.018 83.5056 217.409 84.0177 217.745 84.5654C217.157 84.2729 216.639 83.8558 216.228 83.3431C214.991 82.048 214.006 80.533 213.326 78.8761C212.284 76.3994 211.895 73.6968 212.197 71.027C212.283 70.2536 212.428 69.488 212.631 68.7367C212.836 67.9645 213.102 67.2099 213.429 66.4804C213.765 65.7089 214.165 64.9663 214.623 64.2602C215.091 63.531 215.618 62.8413 216.198 62.1979C216.783 61.5567 217.415 60.9605 218.089 60.4146C218.749 59.8892 219.448 59.4166 220.181 59.0011C220.885 58.5983 221.62 58.2539 222.38 57.9712C223.108 57.6934 223.857 57.4727 224.62 57.3111C227.246 56.7244 229.98 56.8292 232.554 57.6151C234.276 58.1247 235.889 58.9486 237.311 60.0453C237.85 60.4105 238.307 60.8846 238.652 61.4372Z" fill="#FACB29"/>
<path fill-rule="evenodd" clip-rule="evenodd" d="M220.737 66.6935L226.99 64.5227C228.131 64.1269 229.379 64.1924 230.46 64.7048C231.541 65.2171 232.367 66.1344 232.756 67.2548C233.145 68.3753 233.065 69.607 232.534 70.6792C232.003 71.7513 231.064 72.576 229.923 72.9718L225.233 74.5999L225.553 75.5216L231.494 73.4594L232.027 74.9956L226.087 77.0578L227.633 81.5128L226.07 82.0555L224.523 77.6005L223.742 77.8718L223.208 76.3356L223.99 76.0643L223.67 75.1426L222.888 75.4139L222.355 73.8777L223.137 73.6064L220.737 66.6935ZM222.833 67.687L227.524 66.0589C228.249 65.807 229.043 65.8487 229.732 66.1748C230.42 66.5008 230.945 67.0845 231.193 67.7975C231.44 68.5105 231.389 69.2944 231.051 69.9766C230.713 70.6589 230.116 71.1837 229.39 71.4356L224.7 73.0637L223.767 70.3753L222.833 67.687Z" fill="#3F4256"/>
<path d="M307.437 47.8993C308.784 51.7193 308.966 55.8526 307.96 59.7761C306.955 63.6995 304.807 67.2366 301.79 69.9396C298.772 72.6426 295.019 74.39 291.007 74.9607C286.996 75.5313 282.904 74.8994 279.252 73.1451C275.599 71.3907 272.55 68.5928 270.489 65.1055C268.429 61.6181 267.45 57.5981 267.676 53.5544C267.903 49.5107 269.325 45.6251 271.762 42.3894C274.199 39.1536 277.542 36.7134 281.367 35.3774C286.486 33.5843 292.108 33.8961 296.996 36.2442C301.885 38.5923 305.641 42.7845 307.437 47.8993Z" fill="#FFDF71"/>
<path d="M302.822 49.514C303.847 52.4244 303.986 55.5734 303.22 58.5625C302.454 61.5516 300.818 64.2464 298.518 66.3057C296.219 68.365 293.36 69.6963 290.304 70.131C287.247 70.5658 284.131 70.0844 281.348 68.7479C278.565 67.4113 276.242 65.2797 274.672 62.6228C273.102 59.966 272.356 56.9033 272.528 53.8226C272.701 50.7418 273.784 47.7814 275.641 45.3162C277.498 42.851 280.044 40.9917 282.959 39.9738C286.859 38.608 291.142 38.8457 294.866 40.6346C298.591 42.4236 301.452 45.6173 302.822 49.514Z" fill="#FED546"/>
<path d="M302.674 49.0493C302.281 48.5408 301.943 47.9921 301.666 47.4126C300.781 45.9464 299.674 44.6257 298.386 43.4969C297.503 42.725 296.536 42.0559 295.502 41.5023C294.314 40.8738 293.051 40.3991 291.743 40.09C290.303 39.746 288.82 39.615 287.342 39.7013C286.563 39.7435 285.789 39.8472 285.027 40.0113C283.451 40.3452 281.938 40.9274 280.545 41.736C279.871 42.1262 279.227 42.5664 278.619 43.0531C278.028 43.5255 277.476 44.0435 276.966 44.6024C276.471 45.134 276.015 45.7015 275.603 46.3002C274.177 48.3805 273.275 50.7752 272.977 53.2794C272.779 54.9806 272.847 56.7022 273.178 58.3826C273.36 58.9976 273.477 59.6299 273.527 60.2691C273.462 60.3033 273.109 59.6916 272.725 58.4938C272.199 56.7805 271.998 54.9837 272.134 53.1966C272.224 51.9578 272.46 50.7339 272.838 49.5507C273.28 48.186 273.904 46.8871 274.693 45.6888C275.122 45.028 275.602 44.402 276.13 43.8167C276.67 43.2117 277.258 42.6501 277.886 42.137C278.539 41.604 279.231 41.1228 279.959 40.6976C280.709 40.262 281.492 39.8844 282.3 39.568C283.112 39.2667 283.944 39.0215 284.79 38.8342C285.614 38.6652 286.451 38.5612 287.292 38.523C288.104 38.4833 288.917 38.5073 289.725 38.5946C290.496 38.6771 291.26 38.8206 292.008 39.0239C294.618 39.6921 297.01 41.0235 298.953 42.8887C300.251 44.1253 301.309 45.5914 302.073 47.213C302.399 47.7765 302.604 48.402 302.674 49.0493Z" fill="#FACB29"/>
<path fill-rule="evenodd" clip-rule="evenodd" d="M286.773 44.9415L293.25 46.3059C294.431 46.5546 295.467 47.2542 296.129 48.2506C296.791 49.247 297.025 50.4587 296.78 51.619C296.535 52.7794 295.83 53.7934 294.822 54.438C293.813 55.0826 292.583 55.305 291.402 55.0562L286.544 54.033L286.342 54.9876L292.496 56.2837L292.16 57.8747L286.006 56.5786L285.032 61.1924L283.412 60.8513L284.387 56.2375L283.577 56.0669L283.913 54.476L284.723 54.6465L284.925 53.6919L284.115 53.5214L284.451 51.9304L285.261 52.1009L286.773 44.9415ZM288.056 46.8736L292.914 47.8968C293.666 48.0551 294.325 48.5003 294.746 49.1344C295.167 49.7685 295.316 50.5395 295.16 51.2779C295.004 52.0164 294.556 52.6616 293.914 53.0718C293.273 53.4821 292.49 53.6236 291.738 53.4653L286.88 52.442L287.468 49.6578L288.056 46.8736Z" fill="#3F4256"/>
<defs>
<linearGradient id="paint0_linear" x1="304.295" y1="176.223" x2="304.295" y2="290.973" gradientUnits="userSpaceOnUse">
<stop stop-color="#FED546"/>
<stop offset="0.0001" stop-color="#FFE89A"/>
<stop offset="0.671875" stop-color="#FED546"/>
</linearGradient>
<linearGradient id="paint1_linear" x1="260.891" y1="186.715" x2="260.891" y2="258.807" gradientUnits="userSpaceOnUse">
<stop stop-color="#FED546"/>
<stop offset="0.0001" stop-color="#FFE89A"/>
<stop offset="0.671875" stop-color="#FED546"/>
</linearGradient>
<linearGradient id="paint2_linear" x1="345.297" y1="190.531" x2="345.297" y2="295.965" gradientUnits="userSpaceOnUse">
<stop stop-color="#FED546"/>
<stop offset="0.0001" stop-color="#FFE89A"/>
<stop offset="0.671875" stop-color="#FED546"/>
</linearGradient>
</defs>
</svg>
