<svg width="196" height="193" viewBox="0 0 196 193" fill="none" xmlns="http://www.w3.org/2000/svg">
<path d="M187.327 130.855C167.572 176.404 115.426 195.97 74.5681 192.637C63.4127 191.727 40.9665 189.895 23.4428 173.548C-10.2161 142.144 -5.03237 76.5124 27.1871 37.8728C31.3358 32.897 60.0561 -0.441456 104.811 0.00443166C137.578 0.331183 160.577 18.591 163.373 20.8657C166.907 23.7396 174.698 30.5679 181.721 41.4016C198.221 66.8555 199.672 102.391 187.327 130.855Z" fill="#ECFBFF"/>
<path d="M125.727 37.3308L124.086 79.7629L102.498 74C102.248 71.5351 102.871 64.4169 102.871 64.4169C102.871 64.4169 96.4962 64.4169 94.9923 55.6441C94.7381 51.3726 93.7259 44.0937 93.9898 36.0935C94.1336 31.8305 95.1123 27.8674 98.189 24.918C101.266 21.9686 105.372 20.3414 109.631 20.3839C111.807 20.4113 113.956 20.8744 115.95 21.7461C117.945 22.6179 119.745 23.8805 121.245 25.4598C122.745 27.039 123.914 28.9029 124.684 30.9416C125.454 32.9804 125.808 35.1528 125.727 37.3308Z" fill="#FFC9BF"/>
<path d="M102.854 64.4169C108.277 65.498 113.836 61.6597 117.05 57.6494C117.05 57.6494 114.042 67.4247 102.854 66.4943L102.854 64.4169Z" fill="#F19F90"/>
<path d="M97.2485 41.3008C97.261 41.6288 97.4009 41.939 97.6384 42.1651C97.8759 42.3913 98.1922 42.5157 98.5199 42.5117C98.68 42.5168 98.8396 42.4899 98.9892 42.4325C99.1388 42.375 99.2755 42.2883 99.3912 42.1773C99.5069 42.0664 99.5994 41.9334 99.6631 41.7862C99.7269 41.639 99.7606 41.4805 99.7625 41.3201C99.75 40.9916 99.6103 40.681 99.3729 40.454C99.1356 40.2271 98.8193 40.1017 98.4911 40.1044C98.3307 40.0999 98.1711 40.1275 98.0215 40.1854C97.8718 40.2434 97.7352 40.3305 97.6196 40.4419C97.5039 40.5533 97.4115 40.6865 97.3478 40.834C97.2841 40.9815 97.2504 41.1402 97.2485 41.3008Z" fill="#3F4256"/>
<path d="M96.2688 41.0448C96.4319 41.2033 97.3483 40.4538 98.7012 40.3913C100.054 40.3288 101.076 40.9631 101.215 40.7901C101.282 40.7132 101.11 40.4249 100.663 40.127C100.058 39.7491 99.351 39.5679 98.6388 39.6081C97.9386 39.6403 97.2666 39.8944 96.7198 40.3336C96.3168 40.6652 96.1872 40.9775 96.2688 41.0448Z" fill="#3F4256"/>
<path d="M108.517 41.0627C108.528 41.389 108.666 41.6982 108.9 41.925C109.135 42.1518 109.448 42.2785 109.774 42.2783C109.935 42.2834 110.095 42.2563 110.244 42.1986C110.394 42.1409 110.531 42.0538 110.647 41.9423C110.763 41.8308 110.855 41.6972 110.919 41.5495C110.982 41.4017 111.015 41.2427 111.017 41.0819C111.004 40.7593 110.868 40.454 110.637 40.2293C110.405 40.0047 110.096 39.8781 109.774 39.8758C109.613 39.8681 109.452 39.8929 109.301 39.9489C109.149 40.0049 109.011 40.0908 108.894 40.2016C108.776 40.3124 108.682 40.4458 108.618 40.5937C108.553 40.7417 108.519 40.9011 108.517 41.0627Z" fill="#3F4256"/>
<path d="M107.799 40.7939C107.962 40.9477 108.878 40.1981 110.231 40.1404C111.584 40.0828 112.63 40.7074 112.745 40.5344C112.812 40.4576 112.639 40.1693 112.193 39.8762C111.589 39.4992 110.884 39.318 110.173 39.3572C109.473 39.3872 108.8 39.6415 108.254 40.0828C107.847 40.4239 107.717 40.7266 107.799 40.7939Z" fill="#3F4256"/>
<path d="M104.128 50.5443C104.128 50.4674 103.289 50.3617 101.917 50.2512C101.571 50.2512 101.24 50.1791 101.173 49.9437C101.125 49.5887 101.189 49.2278 101.355 48.9106C101.638 48.0553 101.936 47.1664 102.248 46.2295C103.49 42.4144 104.368 39.2864 104.215 39.2384C104.061 39.1903 102.914 42.2414 101.691 46.0373C101.394 46.9758 101.111 47.8728 100.842 48.728C100.643 49.1547 100.602 49.6385 100.727 50.0926C100.783 50.2121 100.865 50.3174 100.967 50.4006C101.069 50.4838 101.189 50.5428 101.317 50.5731C101.511 50.6147 101.709 50.6324 101.907 50.626C103.279 50.6548 104.128 50.6212 104.128 50.5443Z" fill="#F19F90"/>
<path d="M106.042 54.5583C105.889 54.4057 104.914 55.4691 103.264 55.416C101.614 55.3629 100.586 54.1721 100.437 54.3148C100.372 54.3793 100.504 54.7629 100.979 55.2174C101.608 55.8051 102.424 56.1519 103.284 56.1968C104.109 56.2429 104.92 55.9631 105.542 55.4177C105.997 55.0031 106.123 54.6194 106.042 54.5583Z" fill="#F19F90"/>
<path d="M106.787 36.6434C106.969 36.9727 108.597 36.751 110.528 36.8497C112.46 36.9483 114.02 37.2737 114.275 36.9735C114.379 36.8257 114.094 36.54 113.441 36.2294C112.578 35.8672 111.616 35.6562 110.628 35.6124C109.639 35.5686 108.649 35.6932 107.734 35.9767C107.065 36.2086 106.705 36.4917 106.787 36.6434Z" fill="#3F4256"/>
<path d="M95.2994 36.9896C95.6573 37.2646 96.9405 36.9275 98.5208 36.8655C100.101 36.8034 101.438 36.9675 101.729 36.6615C101.85 36.5107 101.621 36.218 101.019 35.983C100.212 35.687 99.29 35.5543 98.3683 35.6016C97.4466 35.6489 96.5669 35.8742 95.8397 36.2491C95.3062 36.5595 95.1441 36.8566 95.2994 36.9896Z" fill="#3F4256"/>
<path d="M115.733 28.2593L115.786 28.2929C117.238 29.3338 118.235 30.8943 118.569 32.651C118.569 32.7134 118.569 32.7711 118.602 32.8287C119.082 35.3225 119.121 37.8835 119.61 40.3724C120.099 42.8614 121.083 45.3743 123.016 47.0128C123.813 47.6903 123.016 57.1481 125.062 56.0598C125.254 55.702 125.344 55.2979 125.321 54.8922C126.601 48.626 128.636 36.1794 128.329 29.8273C128.291 28.9775 127.023 26.5234 126.601 25.7847C126.18 25.0461 125.589 24.4186 124.878 23.9541C123.506 23.0652 121.841 22.1571 120.401 22.921C118.962 23.685 117.182 26.5439 116.084 27.7692" fill="#535565"/>
<path d="M120.246 43.613C120.246 41.6078 126.011 39.1013 125.008 46.6208C123.817 51.3832 119.821 50.4338 119.807 50.2608C119.793 50.0879 120.246 43.613 120.246 43.613Z" fill="#FFC9BF"/>
<path d="M121.415 25.0951C122.947 22.6536 121.174 18.3428 117.184 17.0354C114.645 15.6597 111.103 16.7781 108.416 17.4922C106.724 17.9437 105.01 18.6631 103.296 18.3428C102.158 18.0418 101.063 17.5321 100.046 16.8306C99.0258 16.1302 97.9017 15.6927 96.7416 15.5442C95.5822 15.4864 94.3297 16.0692 93.7796 17.3557C93.2295 18.6421 93.6907 20.5061 94.8163 20.8788C93.4453 19.6817 91.2195 20.7056 90.8006 22.7218C90.3817 24.7381 91.9346 26.9644 93.6018 26.7438C92.9163 25.9352 91.6596 26.9434 91.6511 28.1195C91.6427 29.2957 92.417 30.2565 93.2379 30.8446C95.3537 32.341 97.9307 32.3043 100.292 31.6637C102.653 31.0231 104.896 29.8207 107.244 29.1066C109.593 28.3925 113.536 27.0694 115.707 28.3715C117.315 29.3272 118.246 31.9787 119.245 31.5534C119.715 31.3203 120.135 30.9531 120.47 30.4815C120.805 30.01 121.046 29.4473 121.174 28.8388C121.412 27.6143 121.505 26.3499 121.415 25.0951Z" fill="#535565"/>
<path d="M86.3769 193C94.6958 192.482 101.837 191.721 108.498 190.465C109 190.37 109.5 190.272 109.998 190.172C123.923 187.356 135.944 182.244 152.642 172.447L146.021 148.271L144.826 77.3749L131.22 73.2138L124.503 69.418L102.401 72.2192L96 76.5C96 76.5 89.8839 79.095 85.7004 81.0122L85.4125 81.1419C82.4454 82.4973 79.9318 84.6812 78.1729 87.4315L59.7357 116.16L32.7732 100.414L23.2739 114.267C23.2739 114.267 56.3774 141.866 62.3792 141.304C68.381 140.742 70.4632 140.737 72.5358 137.912C74.1238 135.74 80.3655 128.384 83.34 123.468L86.3769 157.434V193Z" fill="#4CD174"/>
<path d="M110.498 190L107.998 170.5H106.498L108.498 190.5L110.498 190Z" fill="black" fill-opacity="0.1"/>
<path d="M94.2407 149.638V151.894V170.692C116.14 170.711 128.176 169.917 149.133 166.932L142.867 112.792L135.849 109.032V143.622L94.2407 149.638Z" fill="black" fill-opacity="0.1"/>
<path d="M82.2094 113.294L83.4627 123.57L76.1938 133.345C80.4842 126.795 82.2242 122.682 82.2094 113.294Z" fill="black" fill-opacity="0.1"/>
<path d="M102.498 72L104.2 123.516L124.484 69.418L102.498 72Z" fill="#FFC9BF"/>
<path d="M104.537 145C104.53 144.949 103.993 125.444 104 125.392L104.071 124.949C104.176 124.369 104.332 123.8 104.537 123.247C105.343 121.223 106.365 119.291 107.587 117.486C108.346 116.334 109.212 115.093 110.193 113.79C111.228 112.4 112.339 111.069 113.522 109.802C114.837 108.38 116.277 107.078 117.824 105.911C118.65 105.301 119.508 104.734 120.394 104.214C121.282 103.682 122.214 103.177 123.102 102.587L123.071 102.747C121.861 100.943 120.221 99.4675 118.299 98.4527L118.139 98.3685L118.285 98.2621C121.03 96.2194 124.228 94.868 127.607 94.3224L127.523 94.4155L128.486 81.1916C128.611 79.5963 128.708 78.3288 128.779 77.4514C128.779 76.9999 128.797 76.6956 128.797 76.4644L128 71.5C128 71.5 129.023 76.2626 129.029 76.2333C129.032 76.2627 128 71.5 128 71.5L129.725 72.4376C129.957 72.6688 129.979 76.9681 129.957 77.3891C129.957 78.3138 130.054 79.5918 129.957 81.1916C129.739 84.4223 129.165 89.7564 128.797 95.1896V95.2693H128.717C125.37 95.8171 122.933 96.3424 120.216 98.3685V98.1779C122.172 99.2086 124.02 101.353 125.252 103.188L125.318 103.281L125.221 103.347C124.333 103.941 122.036 105.061 121.144 105.592C120.264 106.105 119.277 106.918 118.456 107.521C116.924 108.678 115.495 109.967 114.186 111.372C113.002 112.638 111.509 114.373 110.475 115.764C109.49 117.054 108.615 118.286 107.852 119.433C106.619 121.218 106.533 121.081 105.837 122.237C105.141 123.247 105.032 123.555 104.66 124.248C104.472 124.599 104.399 125.286 104.377 125.392C104.373 125.425 105.537 139.201 105.585 145C105.585 145 104.543 144.984 104.537 145Z" fill="black" fill-opacity="0.1"/>
<path d="M103.717 124.838C103.737 124.797 103.752 124.753 103.76 124.708L103.826 124.317C103.902 123.801 103.933 123.28 103.918 122.76C103.817 120.836 103.508 118.93 102.998 117.074C102.689 115.894 102.316 114.611 101.865 113.243C101.393 111.787 100.841 110.358 100.211 108.963C99.514 107.402 98.6795 105.905 97.7169 104.492C97.1992 103.748 96.6426 103.032 96.0495 102.346C95.4582 101.651 94.8223 100.965 94.2472 100.221L94.2281 100.363C95.7482 99.1925 97.5346 98.4177 99.4269 98.1086L99.5841 98.083L99.4918 97.9526C97.7762 95.4682 95.487 93.4354 92.8183 92.0268L92.8624 92.1285L95.793 80.7765C96.1398 79.4046 96.4162 78.3151 96.6048 77.5598C96.7323 77.1815 96.8035 76.9216 96.8688 76.7278L96.9993 76.3404C97.0122 76.3174 96.7366 76.4949 96.7403 76.4688C96.7295 76.4927 96.9993 76.3404 96.9993 76.3404L96.1592 76.2729C95.9002 76.4013 95.7394 76.8172 95.639 77.1762C95.3778 77.951 94.9353 78.9945 94.565 80.3625C93.8341 83.1308 92.8066 87.7621 91.5797 92.4184L91.5572 92.4853L91.6239 92.5078C94.2645 93.909 96.1521 95.0355 97.8491 97.4982L97.903 97.3385C95.9779 97.6514 93.8285 98.9282 92.2819 100.119L92.2 100.178L92.2628 100.261C92.8366 101.009 94.4388 102.593 95.0338 103.29C95.6239 103.968 96.2186 104.926 96.7336 105.663C97.687 107.064 98.5165 108.546 99.2128 110.092C99.844 111.486 100.601 113.361 101.072 114.817C101.53 116.175 101.913 117.454 102.226 118.631C102.752 120.473 102.863 120.383 103.117 121.547C103.413 122.59 103.435 123.164 103.55 123.85C103.627 124.312 103.743 124.611 103.732 124.707C103.722 124.75 103.717 124.794 103.717 124.838Z" fill="black" fill-opacity="0.1"/>
<path d="M102.498 72C102.498 72 107.933 74.334 108.498 75C109.062 75.666 109.498 77 109.498 77C109.498 77 110.567 75.3723 111.498 75C113.998 74 120.498 70.5 124.498 69.5C124.498 69.5 104.205 124.242 104.181 123.497C104.157 122.752 102.498 72 102.498 72Z" fill="white"/>
<path d="M143.843 77.2692C143.843 77.2692 154.522 77.2692 157.199 97.8438C159.876 118.418 165.763 156.151 155.059 163.306C144.356 170.46 94.7583 169.956 94.7583 169.956V150.025L137.371 145.377C137.371 145.377 137.371 143.371 137.371 141.847L135.058 94.8167C135.058 94.8167 134.578 78.1629 143.843 77.2692Z" fill="#4CD174"/>
<path d="M0.497559 90.3683L22.0169 147.584L67.6641 148.508L48.8523 90.7611L0.497559 90.3683Z" fill="white"/>
<path d="M94.8544 151.649H88.6511C88.6511 151.649 85.4751 148.579 84.6115 148.146C83.748 147.714 79.5069 146.431 79.5069 146.431C79.5069 146.431 76.773 145.123 76.2382 146.105C74.7989 148.748 81.1428 150.976 81.1428 150.976C81.3989 151.05 81.6504 151.138 81.8961 151.241C82.9803 151.663 82.6781 152.624 81.8145 152.624H75.568C75.568 152.624 69.168 149.549 68.2181 150.111C67.4217 150.592 67.1434 151.433 67.959 152.624C68.7746 153.816 74.383 156.617 75.0259 156.834L76.8586 157.372L75.1362 157.91L66.9803 155.061C66.4478 154.964 65.7185 154.878 65.4787 155.185C65.3752 155.29 65.2939 155.415 65.2398 155.552C65.1858 155.689 65.1599 155.835 65.164 155.983C65.168 156.13 65.2018 156.275 65.2633 156.409C65.3248 156.543 65.4128 156.663 65.5218 156.761C66.684 157.814 67.9166 158.785 69.2112 159.668C69.2112 159.668 67.911 161.59 68.9857 162.551C70.0604 163.512 73.1884 166.439 73.1884 166.439C73.1884 166.439 73.5147 168.058 74.4838 168.812C75.4529 169.567 86.1228 169.567 86.876 169.567C87.6292 169.567 91.9423 167.087 91.9423 167.087L94.7633 166.789L94.8544 151.649Z" fill="#FFC9BF"/>
<path d="M76.3597 162.753C76.1938 163.173 75.8367 163.44 75.4418 163.423C75.0064 163.425 74.427 163.323 74.0184 163.173C73.5299 162.979 72.6162 162.719 72.1834 162.421C71.2575 161.82 69.2692 160.829 68.6743 160.416L69.2592 159.664C69.6205 159.814 69.9647 160.002 70.2859 160.226C70.9 160.601 71.7252 161.134 72.6847 161.735C73.1042 162.023 73.5509 162.269 74.0184 162.47C74.4005 162.625 74.806 162.714 75.2178 162.734C75.9087 162.768 76.3597 162.71 76.3597 162.753Z" fill="#F19F90" fill-opacity="0.5"/>
<path d="M76.8489 166.751C76.8728 166.751 76.7694 167.285 76.1937 167.434C75.4394 167.595 74.5981 168.084 73.9378 167.684C73.2905 167.316 73.4365 166.682 72.6846 165.93C73.1859 166.181 73.6643 166.998 74.1885 167.183C74.8046 167.401 75.4417 167.113 76.1937 166.933C76.4829 166.863 76.5763 166.87 76.8489 166.751Z" fill="#F19F90" fill-opacity="0.5"/>
<path d="M79.886 157.905C79.3201 157.975 75.7398 158.065 75.1913 157.909C74.6263 157.834 77.0876 157.514 76.5948 157.228C77.1547 157.277 77.7088 157.378 78.25 157.53C78.8056 157.605 79.3532 157.731 79.886 157.905Z" fill="#F19F90" fill-opacity="0.5"/>
<path d="M1.80883 106.373C1.50479 106.199 1.23889 105.966 1.0271 105.687C0.815317 105.408 0.662022 105.089 0.576429 104.75C0.490835 104.41 0.474711 104.056 0.529025 103.71C0.583338 103.364 0.70697 103.032 0.892487 102.735C1.11949 102.312 1.44955 101.954 1.85201 101.693C2.89309 101.14 12.1045 99.4102 13.0928 99.2901C14.0811 99.17 14.2634 101.054 12.9729 101.99C11.6823 102.927 1.83282 106.382 1.83282 106.382L1.80883 106.373Z" fill="#FFC9BF"/>
<path d="M3.9534 113.061C3.65118 112.887 3.38695 112.654 3.17641 112.376C2.96588 112.098 2.81333 111.78 2.72785 111.442C2.64237 111.103 2.62569 110.751 2.67881 110.406C2.73193 110.061 2.85376 109.73 3.03706 109.433C3.26267 109.009 3.59303 108.65 3.99658 108.391C5.03766 107.838 14.441 105.363 15.2374 105.988C16.1969 106.709 16.408 107.747 15.1174 108.689C13.8269 109.63 3.97739 113.08 3.97739 113.08L3.9534 113.061Z" fill="#FFC9BF"/>
<path d="M5.8243 111.677C5.38985 111.778 4.9828 111.973 4.63207 112.248C4.28133 112.524 3.99551 112.874 3.79491 113.272C3.57489 113.702 3.50884 114.194 3.60781 114.666C3.75989 115.373 4.10088 116.025 4.59435 116.553C5.08782 117.081 5.71525 117.465 6.40961 117.664C8.09357 118.193 13.5772 116.958 13.5772 116.958L12.3107 113.417L16.1488 112.158C17.7128 111.533 16.9548 109.083 15.0741 109.558C14.46 109.712 8.02161 111.129 5.8243 111.677Z" fill="#FFC9BF"/>
<path d="M2.94602 109.529C2.6433 109.356 2.37858 109.123 2.16766 108.845C1.95674 108.567 1.80396 108.249 1.71843 107.91C1.6329 107.572 1.61638 107.219 1.66986 106.874C1.72333 106.529 1.84571 106.198 2.02967 105.902C2.25668 105.479 2.58674 105.12 2.9892 104.859C4.03028 104.306 12.4069 102.812 13.3808 102.605C14.3547 102.399 15.4006 104.201 14.11 105.138C12.8195 106.075 2.94602 109.529 2.94602 109.529Z" fill="#FFC9BF"/>
<path d="M12.0277 106.275C11.5491 106.439 11.4423 106.45 10.9437 106.536C10.0322 106.738 8.77042 107.016 7.37432 107.276C6.18496 107.463 5.04394 107.883 4.01599 108.511C3.61338 108.809 3.25342 109.162 2.94612 109.558C2.94612 109.558 2.80698 109.008 2.94611 108.782C3.15184 108.465 3.41168 108.187 3.71373 107.96C4.15256 107.629 4.63745 107.363 5.15301 107.172C5.7878 106.941 6.43887 106.758 7.10084 106.624C8.50174 106.346 8.09878 106.434 9.01992 106.275C9.52633 106.163 11.5094 106.297 12.0277 106.275Z" fill="#F19F90" fill-opacity="0.5"/>
<path d="M10.7949 103.096C10.3373 103.25 9.86689 103.365 9.38924 103.437L5.96855 104.1C4.83335 104.288 3.74996 104.712 2.78773 105.344C2.4335 105.653 2.11196 105.998 1.82821 106.373C1.82821 106.373 1.12014 105.99 1.24967 105.774C1.43645 105.466 1.67318 105.192 1.95013 104.962C2.64578 104.347 3.86917 103.905 5.18852 103.617C6.50786 103.328 7.74564 103.165 8.6284 103.021C9.0962 102.925 10.3177 103.112 10.7949 103.096Z" fill="#F19F90" fill-opacity="0.5"/>
<path d="M12.5413 110.087C12.1138 110.259 11.6724 110.394 11.222 110.49C10.4016 110.711 9.25496 111.004 7.97879 111.216C6.88368 111.357 5.82628 111.709 4.86515 112.254C4.50909 112.519 4.18685 112.827 3.90563 113.171C3.90563 113.171 3.62199 112.994 3.75632 112.792C3.95539 112.51 4.34856 111.83 4.62907 111.629C5.58054 111.027 6.65098 110.638 7.7667 110.49C9.04766 110.279 10.1712 110.255 11.0251 110.087C11.4678 109.966 12.084 110.123 12.5413 110.087Z" fill="#F19F90" fill-opacity="0.5"/>
<path d="M13.0592 113.171C12.4245 113.513 11.7534 113.782 11.0586 113.974C10.3848 114.24 9.68305 114.429 8.9668 114.536C9.60066 114.194 10.272 113.926 10.9674 113.738C11.641 113.471 12.3428 113.281 13.0592 113.171Z" fill="#F19F90" fill-opacity="0.5"/>
<path d="M120.998 78.8052C119.18 79.9857 117.591 81.0766 114.682 82.6507C113.81 83.1251 112.46 83.6094 111.953 83.7848C111.42 82.1979 111.232 81.8229 110.853 80.4842C110.664 79.8352 110.035 77.6774 110.035 77.6774L109.693 77.0044C109.693 77.0044 109.607 76.9594 109.664 77.1551C109.766 77.6039 109.89 78.1493 110.035 78.8052C110.377 80.186 110.66 83.1075 111.286 85.4065L111.337 85.6137L111.54 85.517C112.537 85.0268 114.402 83.9778 115.493 83.3841C117.987 82.0323 118.176 81.6054 120.498 80L120.998 78.8052Z" fill="#EAEAEA"/>
<path d="M103.498 81.9324C104.35 82.6916 105.478 84.5669 106.426 85.1681L106.561 85.2635L106.634 85.1L107.794 81.6202C108.406 80.2577 108.568 79.6469 108.954 78.7204C109.194 78.2336 109.248 77.5323 109.391 77C109.088 77.442 108.829 77.9194 108.62 78.4239C108.179 79.3163 107.585 80.563 106.955 81.9528L106.129 83.7855L106.337 83.7173C105.431 83.0467 104.482 82.4502 103.498 81.9324Z" fill="#EAEAEA"/>
</svg>
