<svg width="192" height="191" viewBox="0 0 192 191" fill="none" xmlns="http://www.w3.org/2000/svg">
<g clip-path="url(#clip0)">
<path d="M183.95 129.16C164.5 174.16 113.16 193.43 72.95 190.16C61.95 189.26 39.87 187.45 22.61 171.32C-10.53 140.32 -5.38997 75.54 26.3 37.4C30.37 32.47 58.64 -0.440023 102.71 -2.29403e-05C134.97 0.329977 157.61 18.35 160.37 20.6C167.405 26.3788 173.498 33.2173 178.43 40.87C194.68 66 196.11 101.06 183.95 129.16Z" fill="#ECFBFF"/>
<path d="M85.2458 36.1826L74.5956 123.173C74.4614 124.269 75.2413 125.267 76.3377 125.401L142.94 133.555C144.037 133.69 145.034 132.91 145.169 131.813L155.819 44.8228C155.953 43.7265 155.173 42.7289 154.077 42.5946L87.4741 34.4404C86.3777 34.3062 85.3801 35.0862 85.2458 36.1826Z" fill="white"/>
<path d="M92.1901 51.9999L145.19 58.4899C145.626 58.5448 146.023 58.7704 146.293 59.1172C146.562 59.464 146.684 59.9037 146.63 60.3399C146.604 60.5567 146.536 60.7662 146.428 60.9565C146.321 61.1467 146.178 61.314 146.006 61.4487C145.834 61.5834 145.637 61.6828 145.427 61.7414C145.217 61.7999 144.997 61.8164 144.78 61.7899L91.7801 55.2999C91.3441 55.2449 90.9476 55.0193 90.6777 54.6725C90.4078 54.3257 90.2864 53.886 90.3401 53.4499C90.3661 53.2331 90.4346 53.0235 90.5417 52.8333C90.6488 52.643 90.7924 52.4757 90.9643 52.341C91.1361 52.2063 91.3329 52.1069 91.5432 52.0483C91.7535 51.9898 91.9734 51.9733 92.1901 51.9999Z" fill="#8CE983"/>
<path d="M93.3699 42.3101L146.37 48.8001C146.806 48.855 147.202 49.0806 147.472 49.4274C147.742 49.7742 147.864 50.2139 147.81 50.6501C147.755 51.0765 147.536 51.4649 147.201 51.7335C146.865 52.002 146.438 52.1299 146.01 52.0901L93.0099 45.6001C92.7931 45.5741 92.5836 45.5056 92.3933 45.3985C92.2031 45.2914 92.0358 45.1478 91.9011 44.9759C91.7664 44.8041 91.6669 44.6073 91.6084 44.397C91.5498 44.1866 91.5334 43.9668 91.5599 43.7501C91.6151 43.3218 91.8349 42.9318 92.1728 42.663C92.5108 42.3941 92.9402 42.2675 93.3699 42.3101Z" fill="#95B7D6"/>
<path d="M90.5662 67.4648L85.3687 109.918C85.1002 112.111 86.6602 114.106 88.8529 114.374L133.45 119.834C135.643 120.103 137.638 118.543 137.906 116.35L143.104 73.897C143.372 71.7042 141.812 69.709 139.62 69.4406L95.0226 63.9805C92.8299 63.7121 90.8347 65.272 90.5662 67.4648Z" stroke="#95B7D6" stroke-width="2"/>
<path d="M93.5407 91.9277C93.0309 91.8653 92.567 92.228 92.5046 92.7378C92.4422 93.2476 92.8049 93.7115 93.3147 93.7739L134.09 98.7661C134.6 98.8285 135.064 98.4658 135.126 97.956C135.189 97.4462 134.826 96.9823 134.316 96.9198L93.5407 91.9277Z" fill="#95B7D6"/>
<path d="M94.2009 86.5275C93.6911 86.4651 93.2272 86.8278 93.1648 87.3376C93.1024 87.8475 93.465 88.3113 93.9749 88.3738L134.75 93.3659C135.26 93.4283 135.724 93.0656 135.787 92.5558C135.849 92.046 135.486 91.5821 134.976 91.5197L94.2009 86.5275Z" fill="#95B7D6"/>
<path d="M94.8611 81.1374C94.3512 81.075 93.8873 81.4377 93.8249 81.9475C93.7625 82.4573 94.1252 82.9212 94.635 82.9836L135.411 87.9758C135.92 88.0382 136.384 87.6755 136.447 87.1657C136.509 86.6559 136.146 86.192 135.637 86.1296L94.8611 81.1374Z" fill="#95B7D6"/>
<path d="M95.5212 75.7473C95.0114 75.6849 94.5475 76.0475 94.4851 76.5574C94.4227 77.0672 94.7854 77.5311 95.2952 77.5935L136.071 82.5856C136.581 82.6481 137.044 82.2854 137.107 81.7756C137.169 81.2657 136.807 80.8018 136.297 80.7394L95.5212 75.7473Z" fill="#95B7D6"/>
<path d="M76.1644 33.2755L67.8406 120.519C67.7357 121.619 68.542 122.595 69.6416 122.7L136.438 129.073C137.538 129.178 138.514 128.372 138.619 127.272L146.943 40.0283C147.048 38.9288 146.242 37.9523 145.142 37.8474L78.3453 31.4745C77.2457 31.3696 76.2693 32.1759 76.1644 33.2755Z" fill="white"/>
<path d="M83.54 48.8598L136.71 53.9298C137.148 53.9729 137.551 54.1872 137.832 54.5262C138.113 54.8652 138.249 55.3013 138.21 55.7398C138.167 56.178 137.953 56.5813 137.614 56.8622C137.275 57.1431 136.838 57.2789 136.4 57.2398L83.23 52.1598C82.7918 52.1168 82.3885 51.9024 82.1076 51.5635C81.8266 51.2245 81.6909 50.7883 81.73 50.3498C81.773 49.9125 81.9877 49.51 82.327 49.2307C82.6663 48.9514 83.1025 48.818 83.54 48.8598Z" fill="#95B7D6"/>
<path d="M84.4701 39.1899L137.64 44.2599C138.077 44.3029 138.48 44.5176 138.759 44.8569C139.039 45.1962 139.172 45.6324 139.13 46.0699C139.087 46.5072 138.872 46.9097 138.533 47.189C138.194 47.4683 137.758 47.6017 137.32 47.5599L84.1501 42.4899C83.7128 42.4469 83.3103 42.2322 83.031 41.8929C82.7517 41.5536 82.6183 41.1174 82.6601 40.6799C82.6801 40.4628 82.743 40.2519 82.845 40.0592C82.947 39.8666 83.0862 39.6961 83.2545 39.5575C83.4228 39.419 83.6169 39.3151 83.8255 39.252C84.0342 39.1889 84.2533 39.1678 84.4701 39.1899Z" fill="#95B7D6"/>
<path d="M82.3149 64.397L78.2527 106.974C78.0429 109.173 79.6556 111.126 81.8547 111.335L126.582 115.603C128.781 115.813 130.734 114.2 130.943 112.001L135.006 69.4241C135.215 67.225 133.603 65.2721 131.404 65.0623L86.6767 60.795C84.4776 60.5852 82.5247 62.1978 82.3149 64.397Z" stroke="#95B7D6" stroke-width="2"/>
<path d="M84.3802 60.5799L133.73 65.2899C134.173 65.333 134.58 65.5498 134.863 65.8928C135.146 66.2359 135.282 66.6772 135.24 67.12C135.197 67.5626 134.98 67.9701 134.637 68.2532C134.294 68.5363 133.853 68.6717 133.41 68.6299L84.0602 63.9199C83.6175 63.8769 83.21 63.6601 82.9269 63.3171C82.6439 62.974 82.5084 62.5327 82.5502 62.0899V62.0899C82.5932 61.6473 82.81 61.2398 83.1531 60.9567C83.4961 60.6736 83.9374 60.5382 84.3802 60.5799V60.5799Z" stroke="#95B7D6" stroke-width="2"/>
<path d="M85.9489 88.7741C85.4376 88.7253 84.9835 89.1003 84.9348 89.6116C84.886 90.1229 85.2609 90.5769 85.7722 90.6257L126.667 94.5273C127.178 94.5761 127.632 94.2012 127.681 93.6899C127.729 93.1786 127.354 92.7245 126.843 92.6757L85.9489 88.7741Z" fill="#95B7D6"/>
<path d="M86.4618 83.3725C85.9505 83.3237 85.4965 83.6986 85.4477 84.2099C85.3989 84.7212 85.7739 85.1753 86.2852 85.2241L127.179 89.1257C127.691 89.1745 128.145 88.7996 128.194 88.2883C128.242 87.777 127.867 87.3229 127.356 87.2741L86.4618 83.3725Z" fill="#95B7D6"/>
<path d="M86.9757 77.9611C86.4644 77.9123 86.0104 78.2873 85.9616 78.7986C85.9128 79.3099 86.2878 79.7639 86.7991 79.8127L127.693 83.7144C128.205 83.7631 128.659 83.3882 128.708 82.8769C128.756 82.3656 128.381 81.9115 127.87 81.8628L86.9757 77.9611Z" fill="#95B7D6"/>
<path d="M87.4994 72.5495C86.9881 72.5007 86.5341 72.8756 86.4853 73.3869C86.4365 73.8983 86.8115 74.3523 87.3228 74.4011L128.217 78.3027C128.728 78.3515 129.182 77.9766 129.231 77.4653C129.28 76.954 128.905 76.4999 128.394 76.4511L87.4994 72.5495Z" fill="#95B7D6"/>
<path d="M64.9109 34.0981L63.5802 121.728C63.5634 122.832 64.4451 123.741 65.5496 123.758L132.642 124.777C133.746 124.794 134.655 123.912 134.672 122.808L136.003 35.1777C136.019 34.0732 135.138 33.1643 134.033 33.1475L66.941 32.1287C65.8366 32.1119 64.9277 32.9937 64.9109 34.0981Z" fill="white"/>
<path d="M73.5101 49.0498L126.92 49.8598C127.36 49.8703 127.777 50.0536 128.082 50.37C128.387 50.6864 128.555 51.1103 128.55 51.5498C128.542 51.9884 128.361 52.4059 128.046 52.7114C127.732 53.0168 127.309 53.1852 126.87 53.1798L73.4601 52.3698C73.2421 52.3659 73.027 52.3191 72.8271 52.2321C72.6272 52.145 72.4464 52.0194 72.295 51.8625C72.1437 51.7056 72.0247 51.5203 71.9449 51.3174C71.8651 51.1145 71.8261 50.8978 71.8301 50.6798C71.8327 50.4623 71.8783 50.2474 71.9643 50.0476C72.0502 49.8477 72.1749 49.6668 72.331 49.5153C72.4872 49.3639 72.6717 49.2447 72.8741 49.1648C73.0764 49.0849 73.2926 49.0459 73.5101 49.0498Z" fill="#95B7D6"/>
<path d="M73.66 39.3298L127.07 40.1498C127.509 40.1577 127.926 40.3388 128.232 40.6536C128.537 40.9684 128.705 41.3913 128.7 41.8298C128.697 42.0487 128.652 42.2649 128.565 42.4659C128.479 42.667 128.353 42.849 128.196 43.0014C128.039 43.1538 127.853 43.2737 127.65 43.3541C127.446 43.4345 127.229 43.4738 127.01 43.4698L73.61 42.6498C73.1812 42.6368 72.7742 42.4573 72.4755 42.1492C72.1768 41.8412 72.0098 41.4289 72.01 40.9998C72.0087 40.7818 72.0504 40.5657 72.1326 40.3638C72.2148 40.1619 72.3359 39.9782 72.4892 39.8231C72.6424 39.668 72.8246 39.5446 73.0255 39.46C73.2264 39.3754 73.442 39.3311 73.66 39.3298Z" fill="#8CE983"/>
<path d="M72.5364 64.6293L71.887 107.394C71.845 110.155 74.0494 112.428 76.8105 112.47L121.735 113.152C124.496 113.194 126.769 110.99 126.811 108.228L127.46 65.4633C127.502 62.7022 125.298 60.4299 122.537 60.388L77.6117 59.7058C74.8506 59.6639 72.5783 61.8682 72.5364 64.6293Z" fill="#ECFBFF"/>
<path d="M121.6 28H52.4099C51.3053 28 50.4099 28.8954 50.4099 30V120.33C50.4099 121.435 51.3053 122.33 52.4099 122.33H121.6C122.704 122.33 123.6 121.435 123.6 120.33V30C123.6 28.8954 122.704 28 121.6 28Z" fill="white"/>
<path d="M58.73 52.0801H115.22C115.485 52.0801 115.74 52.1854 115.927 52.373C116.115 52.5605 116.22 52.8149 116.22 53.0801C116.22 53.3453 116.115 53.5996 115.927 53.7872C115.74 53.9747 115.485 54.0801 115.22 54.0801H58.73C58.6005 54.0817 58.4721 54.0566 58.3527 54.0063C58.2334 53.9559 58.1258 53.8815 58.0366 53.7876C57.9474 53.6937 57.8785 53.5824 57.8344 53.4606C57.7902 53.3389 57.7717 53.2093 57.78 53.0801C57.7797 52.8233 57.8781 52.5762 58.055 52.3901C58.2319 52.2039 58.4735 52.0929 58.73 52.0801Z" fill="#95B7D6"/>
<path d="M58.73 46.49H115.22C115.485 46.49 115.74 46.5953 115.927 46.7829C116.115 46.9704 116.22 47.2248 116.22 47.49C116.207 47.7464 116.096 47.9881 115.91 48.165C115.724 48.3418 115.477 48.4403 115.22 48.44H58.73C58.482 48.4279 58.2473 48.3239 58.0717 48.1483C57.8961 47.9727 57.7922 47.738 57.78 47.49C57.7797 47.2332 57.8782 46.9862 58.055 46.8C58.2319 46.6138 58.4736 46.5028 58.73 46.49Z" fill="#95B7D6"/>
<path d="M58.73 40.8999H115.22C115.485 40.8999 115.74 41.0053 115.927 41.1928C116.115 41.3803 116.22 41.6347 116.22 41.8999C116.22 42.1651 116.115 42.4195 115.927 42.607C115.74 42.7945 115.485 42.8999 115.22 42.8999H58.73C58.4736 42.8871 58.2319 42.7761 58.055 42.5899C57.8782 42.4037 57.7797 42.1567 57.78 41.8999C57.7797 41.6431 57.8782 41.3961 58.055 41.2099C58.2319 41.0237 58.4736 40.9127 58.73 40.8999Z" fill="#95B7D6"/>
<path d="M58.7298 35.3101H115.22C115.477 35.3098 115.724 35.4083 115.91 35.5851C116.096 35.762 116.207 36.0037 116.22 36.2601C116.22 36.5253 116.114 36.7797 115.927 36.9672C115.739 37.1548 115.485 37.2601 115.22 37.2601H58.7298C58.4734 37.2473 58.2317 37.1363 58.0548 36.9501C57.878 36.7639 57.7795 36.5169 57.7798 36.2601C57.7785 36.135 57.8022 36.0108 57.8494 35.895C57.8967 35.7791 57.9666 35.6739 58.0551 35.5854C58.1436 35.4969 58.2488 35.427 58.3647 35.3797C58.4806 35.3324 58.6047 35.3088 58.7298 35.3101Z" fill="#95B7D6"/>
<path d="M58.7298 74.6599H115.22C115.485 74.6599 115.739 74.7653 115.927 74.9528C116.114 75.1403 116.22 75.3947 116.22 75.6599C116.207 75.9164 116.096 76.1581 115.91 76.3349C115.724 76.5118 115.477 76.6102 115.22 76.6099H58.7298C58.6047 76.6112 58.4806 76.5876 58.3647 76.5403C58.2488 76.4931 58.1436 76.4231 58.0551 76.3346C57.9666 76.2462 57.8967 76.1409 57.8494 76.025C57.8022 75.9092 57.7785 75.785 57.7798 75.6599C57.7795 75.4031 57.878 75.1561 58.0548 74.9699C58.2317 74.7837 58.4734 74.6728 58.7298 74.6599Z" fill="#95B7D6"/>
<path d="M58.73 69.0701H115.22C115.485 69.0701 115.74 69.1754 115.927 69.363C116.115 69.5505 116.22 69.8049 116.22 70.0701C116.22 70.3353 116.115 70.5896 115.927 70.7772C115.74 70.9647 115.485 71.0701 115.22 71.0701H58.73C58.4736 71.0572 58.2319 70.9462 58.055 70.7601C57.8782 70.5739 57.7797 70.3268 57.78 70.0701C57.7797 69.8133 57.8782 69.5662 58.055 69.3801C58.2319 69.1939 58.4736 69.0829 58.73 69.0701Z" fill="#95B7D6"/>
<path d="M58.73 63.48H115.22C115.485 63.48 115.74 63.5853 115.927 63.7729C116.115 63.9604 116.22 64.2148 116.22 64.48C116.22 64.7452 116.115 64.9995 115.927 65.1871C115.74 65.3746 115.485 65.48 115.22 65.48H58.73C58.4736 65.4671 58.2319 65.3561 58.055 65.17C57.8782 64.9838 57.7797 64.7368 57.78 64.48C57.7797 64.2232 57.8782 63.9761 58.055 63.79C58.2319 63.6038 58.4736 63.4928 58.73 63.48Z" fill="#95B7D6"/>
<path d="M58.73 57.89H115.22C115.485 57.89 115.74 57.9953 115.927 58.1829C116.115 58.3704 116.22 58.6248 116.22 58.89C116.22 59.1552 116.115 59.4095 115.927 59.5971C115.74 59.7846 115.485 59.89 115.22 59.89H58.73C58.4735 59.8771 58.2319 59.7661 58.055 59.58C57.8781 59.3938 57.7797 59.1467 57.78 58.89C57.7717 58.7607 57.7902 58.6312 57.8344 58.5094C57.8785 58.3877 57.9474 58.2764 58.0366 58.1825C58.1258 58.0886 58.2334 58.0141 58.3527 57.9638C58.4721 57.9135 58.6005 57.8883 58.73 57.89Z" fill="#95B7D6"/>
<path d="M58.73 97.24H115.22C115.485 97.24 115.74 97.3453 115.927 97.5329C116.115 97.7204 116.22 97.9748 116.22 98.24C116.22 98.5052 116.115 98.7596 115.927 98.9471C115.74 99.1346 115.485 99.24 115.22 99.24H58.73C58.6005 99.2416 58.4721 99.2165 58.3527 99.1662C58.2334 99.1158 58.1258 99.0414 58.0366 98.9475C57.9474 98.8536 57.8785 98.7423 57.8344 98.6205C57.7902 98.4988 57.7717 98.3692 57.78 98.24C57.7797 97.9832 57.8781 97.7362 58.055 97.55C58.2319 97.3638 58.4735 97.2528 58.73 97.24Z" fill="#95B7D6"/>
<path d="M58.73 91.6499H115.22C115.485 91.6499 115.74 91.7553 115.927 91.9428C116.115 92.1303 116.22 92.3847 116.22 92.6499C116.22 92.9151 116.115 93.1695 115.927 93.357C115.74 93.5445 115.485 93.6499 115.22 93.6499H58.73C58.4736 93.6371 58.2319 93.5261 58.055 93.3399C57.8782 93.1537 57.7797 92.9067 57.78 92.6499C57.7797 92.3931 57.8782 92.1461 58.055 91.9599C58.2319 91.7737 58.4736 91.6627 58.73 91.6499Z" fill="#95B7D6"/>
<path d="M58.73 86.0601H115.22C115.485 86.0601 115.74 86.1654 115.927 86.353C116.115 86.5405 116.22 86.7948 116.22 87.0601C116.22 87.3253 116.115 87.5796 115.927 87.7672C115.74 87.9547 115.485 88.0601 115.22 88.0601H58.73C58.4736 88.0472 58.2319 87.9362 58.055 87.7501C57.8782 87.5639 57.7797 87.3168 57.78 87.0601C57.7797 86.8033 57.8782 86.5562 58.055 86.3701C58.2319 86.1839 58.4736 86.0729 58.73 86.0601Z" fill="#95B7D6"/>
<path d="M58.73 80.47H115.22C115.485 80.47 115.74 80.5754 115.927 80.7629C116.115 80.9505 116.22 81.2048 116.22 81.47C116.22 81.7353 116.115 81.9896 115.927 82.1772C115.74 82.3647 115.485 82.47 115.22 82.47H58.73C58.4735 82.4572 58.2319 82.3462 58.055 82.16C57.8781 81.9739 57.7797 81.7268 57.78 81.47C57.7717 81.3408 57.7902 81.2112 57.8344 81.0895C57.8785 80.9678 57.9474 80.8564 58.0366 80.7625C58.1258 80.6686 58.2334 80.5942 58.3527 80.5439C58.4721 80.4935 58.6005 80.4684 58.73 80.47Z" fill="#95B7D6"/>
<path d="M58.73 114.23H115.22C115.485 114.23 115.74 114.335 115.927 114.523C116.115 114.71 116.22 114.965 116.22 115.23C116.22 115.495 116.115 115.75 115.927 115.937C115.74 116.125 115.485 116.23 115.22 116.23H58.73C58.4736 116.217 58.2319 116.106 58.055 115.92C57.8782 115.734 57.7797 115.487 57.78 115.23C57.7797 114.973 57.8782 114.726 58.055 114.54C58.2319 114.354 58.4736 114.243 58.73 114.23Z" fill="#95B7D6"/>
<path d="M58.73 108.64H115.22C115.485 108.64 115.74 108.745 115.927 108.933C116.115 109.12 116.22 109.375 116.22 109.64C116.22 109.905 116.115 110.159 115.927 110.347C115.74 110.535 115.485 110.64 115.22 110.64H58.73C58.4736 110.627 58.2319 110.516 58.055 110.33C57.8782 110.144 57.7797 109.897 57.78 109.64C57.7797 109.383 57.8782 109.136 58.055 108.95C58.2319 108.764 58.4736 108.653 58.73 108.64Z" fill="#95B7D6"/>
<path d="M58.73 103.05H115.22C115.485 103.05 115.74 103.155 115.927 103.343C116.115 103.53 116.22 103.785 116.22 104.05C116.22 104.315 116.115 104.569 115.927 104.757C115.74 104.945 115.485 105.05 115.22 105.05H58.73C58.4735 105.037 58.2319 104.926 58.055 104.74C57.8781 104.554 57.7797 104.307 57.78 104.05C57.7717 103.921 57.7902 103.791 57.8344 103.669C57.8785 103.548 57.9474 103.436 58.0366 103.342C58.1258 103.248 58.2334 103.174 58.3527 103.124C58.4721 103.073 58.6005 103.048 58.73 103.05Z" fill="#95B7D6"/>
<path d="M37.01 44C37.01 42.9391 37.4314 41.9217 38.1816 41.1716C38.9317 40.4214 39.9491 40 41.01 40H119.01C121.132 40 123.167 40.8429 124.667 42.3431C126.167 43.8434 127.01 45.8783 127.01 48V152C127.01 154.122 126.167 156.157 124.667 157.657C123.167 159.157 121.132 160 119.01 160H41.01C39.9491 160 38.9317 159.579 38.1816 158.828C37.4314 158.078 37.01 157.061 37.01 156V44Z" fill="url(#paint0_linear)"/>
<path d="M82.08 57.5701H17.04C14.8309 57.5701 13.04 59.3609 13.04 61.5701V150.97C13.04 153.179 14.8309 154.97 17.04 154.97H82.08C84.2892 154.97 86.08 153.179 86.08 150.97V61.5701C86.08 59.3609 84.2892 57.5701 82.08 57.5701Z" fill="#4CCE73"/>
<path d="M79.2701 57.5701H19.8401C18.7355 57.5701 17.8401 58.4655 17.8401 59.5701V145.03C17.8401 146.135 18.7355 147.03 19.8401 147.03H79.2701C80.3747 147.03 81.2701 146.135 81.2701 145.03V59.5701C81.2701 58.4655 80.3747 57.5701 79.2701 57.5701Z" fill="white" fill-opacity="0.85"/>
<path d="M78.3201 58.77H20.8101C19.7055 58.77 18.8101 59.6654 18.8101 60.77V141.66C18.8101 142.765 19.7055 143.66 20.8101 143.66H78.3201C79.4246 143.66 80.3201 142.765 80.3201 141.66V60.77C80.3201 59.6654 79.4246 58.77 78.3201 58.77Z" fill="white"/>
<path d="M49.56 48.4299C50.0966 48.4299 50.628 48.5358 51.1237 48.7415C51.6193 48.9471 52.0695 49.2485 52.4485 49.6285C52.8275 50.0084 53.1278 50.4593 53.3323 50.9555C53.5367 51.4517 53.6413 51.9833 53.64 52.5199V55.1699C53.6413 55.7061 53.5367 56.2372 53.3321 56.7328C53.1275 57.2284 52.8271 57.6787 52.4479 58.0579C52.0688 58.437 51.6185 58.7375 51.1229 58.942C50.6273 59.1466 50.0962 59.2513 49.56 59.2499C49.0238 59.2513 48.4927 59.1466 47.9971 58.942C47.5015 58.7375 47.0512 58.437 46.6721 58.0579C46.2929 57.6787 45.9924 57.2284 45.7879 56.7328C45.5833 56.2372 45.4787 55.7061 45.48 55.1699V52.5199C45.4787 51.9833 45.5832 51.4517 45.7877 50.9555C45.9921 50.4593 46.2925 50.0084 46.6715 49.6285C47.0505 49.2485 47.5007 48.9471 47.9963 48.7415C48.492 48.5358 49.0234 48.4299 49.56 48.4299Z" fill="#4CD174"/>
<path d="M49.5601 53.2401C50.2228 53.2401 50.7601 52.7028 50.7601 52.0401C50.7601 51.3773 50.2228 50.8401 49.5601 50.8401C48.8974 50.8401 48.3601 51.3773 48.3601 52.0401C48.3601 52.7028 48.8974 53.2401 49.5601 53.2401Z" fill="#FFE791"/>
<path d="M35.5 117.79H73.83C74.0952 117.79 74.3496 117.895 74.5371 118.083C74.7246 118.27 74.83 118.525 74.83 118.79C74.83 119.055 74.7246 119.31 74.5371 119.497C74.3496 119.685 74.0952 119.79 73.83 119.79H35.5C35.2348 119.79 34.9804 119.685 34.7929 119.497C34.6054 119.31 34.5 119.055 34.5 118.79C34.5 118.525 34.6054 118.27 34.7929 118.083C34.9804 117.895 35.2348 117.79 35.5 117.79Z" fill="#95B7D6"/>
<path d="M73.87 127.49H35.44C34.9319 127.49 34.52 127.9 34.52 128.405C34.52 128.91 34.9319 129.32 35.44 129.32H73.87C74.3781 129.32 74.79 128.91 74.79 128.405C74.79 127.9 74.3781 127.49 73.87 127.49Z" fill="#95B7D6"/>
<path d="M35.5 99.3701H73.3C73.5652 99.3701 73.8196 99.4755 74.0071 99.663C74.1946 99.8505 74.3 100.105 74.3 100.37C74.3 100.635 74.1946 100.89 74.0071 101.077C73.8196 101.265 73.5652 101.37 73.3 101.37H35.5C35.2348 101.37 34.9804 101.265 34.7929 101.077C34.6054 100.89 34.5 100.635 34.5 100.37C34.5 100.105 34.6054 99.8505 34.7929 99.663C34.9804 99.4755 35.2348 99.3701 35.5 99.3701Z" fill="#95B7D6"/>
<path d="M26.3101 88.8H73.4901C73.7553 88.8 74.0096 88.9054 74.1972 89.0929C74.3847 89.2805 74.4901 89.5348 74.4901 89.8C74.4901 90.0653 74.3847 90.3196 74.1972 90.5072C74.0096 90.6947 73.7553 90.8 73.4901 90.8H26.3101C26.0448 90.8 25.7905 90.6947 25.603 90.5072C25.4154 90.3196 25.3101 90.0653 25.3101 89.8C25.3101 89.5348 25.4154 89.2805 25.603 89.0929C25.7905 88.9054 26.0448 88.8 26.3101 88.8Z" fill="#95B7D6"/>
<path d="M26.3101 83.1599H73.4901C73.7553 83.1599 74.0096 83.2653 74.1972 83.4528C74.3847 83.6403 74.4901 83.8947 74.4901 84.1599C74.4901 84.4251 74.3847 84.6795 74.1972 84.867C74.0096 85.0545 73.7553 85.1599 73.4901 85.1599H26.3101C26.0448 85.1599 25.7905 85.0545 25.603 84.867C25.4154 84.6795 25.3101 84.4251 25.3101 84.1599C25.3101 83.8947 25.4154 83.6403 25.603 83.4528C25.7905 83.2653 26.0448 83.1599 26.3101 83.1599Z" fill="#95B7D6"/>
<path d="M26.3101 77.52H73.4901C73.7553 77.52 74.0096 77.6254 74.1972 77.8129C74.3847 78.0005 74.4901 78.2548 74.4901 78.52C74.4901 78.7852 74.3847 79.0396 74.1972 79.2271C74.0096 79.4147 73.7553 79.52 73.4901 79.52H26.3101C26.0448 79.52 25.7905 79.4147 25.603 79.2271C25.4154 79.0396 25.3101 78.7852 25.3101 78.52C25.3101 78.2548 25.4154 78.0005 25.603 77.8129C25.7905 77.6254 26.0448 77.52 26.3101 77.52Z" fill="#95B7D6"/>
<path d="M26.3101 71.8799H73.4901C73.7553 71.8799 74.0096 71.9852 74.1972 72.1728C74.3847 72.3603 74.4901 72.6147 74.4901 72.8799C74.4901 73.1451 74.3847 73.3995 74.1972 73.587C74.0096 73.7745 73.7553 73.8799 73.4901 73.8799H26.3101C26.0448 73.8799 25.7905 73.7745 25.603 73.587C25.4154 73.3995 25.3101 73.1451 25.3101 72.8799C25.3101 72.6147 25.4154 72.3603 25.603 72.1728C25.7905 71.9852 26.0448 71.8799 26.3101 71.8799Z" fill="#95B7D6"/>
<path d="M35.5 108.1H73.83C74.0952 108.1 74.3496 108.205 74.5371 108.393C74.7246 108.581 74.83 108.835 74.83 109.1C74.83 109.365 74.7246 109.62 74.5371 109.807C74.3496 109.995 74.0952 110.1 73.83 110.1H35.5C35.2348 110.1 34.9804 109.995 34.7929 109.807C34.6054 109.62 34.5 109.365 34.5 109.1C34.5 108.835 34.6054 108.581 34.7929 108.393C34.9804 108.205 35.2348 108.1 35.5 108.1Z" fill="#95B7D6"/>
<path d="M28.1801 115.89C28.9439 115.89 29.6764 116.193 30.2165 116.733C30.7566 117.274 31.0601 118.006 31.0601 118.77V119C31.0614 119.379 30.9879 119.755 30.8437 120.105C30.6996 120.456 30.4876 120.774 30.2201 121.043C29.9525 121.311 29.6346 121.524 29.2845 121.67C28.9344 121.815 28.5591 121.89 28.1801 121.89C27.801 121.89 27.4257 121.815 27.0756 121.67C26.7256 121.524 26.4076 121.311 26.1401 121.043C25.8725 120.774 25.6606 120.456 25.5164 120.105C25.3723 119.755 25.2988 119.379 25.3001 119V118.75C25.3053 117.99 25.6111 117.262 26.1506 116.726C26.6902 116.191 27.4197 115.89 28.1801 115.89Z" fill="#E9FAFF"/>
<path d="M28.16 125.18C28.9186 125.188 29.6435 125.495 30.1771 126.034C30.7107 126.573 31.01 127.301 31.01 128.06V128.31C31.01 129.074 30.7066 129.806 30.1665 130.347C29.6264 130.887 28.8938 131.19 28.13 131.19C27.3662 131.19 26.6336 130.887 26.0935 130.347C25.5534 129.806 25.25 129.074 25.25 128.31V128.06C25.25 127.679 25.3255 127.302 25.4721 126.951C25.6187 126.6 25.8335 126.281 26.1041 126.013C26.3747 125.745 26.6958 125.534 27.0487 125.391C27.4015 125.248 27.7793 125.176 28.16 125.18Z" fill="#E9FAFF"/>
<path d="M28.16 97.33C28.9186 97.3379 29.6435 97.6448 30.1771 98.1841C30.7107 98.7233 31.01 99.4513 31.01 100.21V100.46C31.01 101.224 30.7066 101.956 30.1665 102.496C29.6264 103.037 28.8938 103.34 28.13 103.34C27.3662 103.34 26.6336 103.037 26.0935 102.496C25.5534 101.956 25.25 101.224 25.25 100.46V100.21C25.25 99.8292 25.3255 99.4523 25.4721 99.1009C25.6187 98.7495 25.8335 98.4307 26.1041 98.1628C26.3747 97.895 26.6958 97.6835 27.0487 97.5405C27.4015 97.3976 27.7793 97.326 28.16 97.33Z" fill="#E9FAFF"/>
<path d="M28.16 106.61C28.9186 106.618 29.6435 106.925 30.1771 107.464C30.7107 108.003 31.01 108.731 31.01 109.49V109.74C31.01 110.504 30.7066 111.236 30.1665 111.776C29.6264 112.317 28.8938 112.62 28.13 112.62C27.3662 112.62 26.6336 112.317 26.0935 111.776C25.5534 111.236 25.25 110.504 25.25 109.74V109.49C25.25 109.109 25.3255 108.732 25.4721 108.381C25.6187 108.03 25.8335 107.711 26.1041 107.443C26.3747 107.175 26.6958 106.964 27.0487 106.821C27.4015 106.678 27.7793 106.606 28.16 106.61Z" fill="#E9FAFF"/>
<path d="M33.9501 55.6499H65.1701C65.5491 55.6486 65.9247 55.7221 66.2753 55.8663C66.6258 56.0104 66.9445 56.2223 67.213 56.4899C67.4815 56.7575 67.6945 57.0754 67.8399 57.4255C67.9852 57.7755 68.0601 58.1509 68.0601 58.5299C68.0601 59.2964 67.7556 60.0315 67.2136 60.5735C66.6716 61.1154 65.9365 61.4199 65.1701 61.4199H33.9501C33.1836 61.4199 32.4485 61.1154 31.9065 60.5735C31.3645 60.0315 31.0601 59.2964 31.0601 58.5299C31.0601 58.1509 31.1349 57.7755 31.2802 57.4255C31.4256 57.0754 31.6386 56.7575 31.9071 56.4899C32.1756 56.2223 32.4943 56.0104 32.8449 55.8663C33.1954 55.7221 33.571 55.6486 33.9501 55.6499Z" fill="#4CD174"/>
<path d="M38.5701 55.6499C38.57 55.3309 38.6334 55.015 38.7563 54.7207C38.8793 54.4263 39.0595 54.1593 39.2865 53.9351C39.5135 53.7109 39.7827 53.534 40.0786 53.4147C40.3744 53.2954 40.6911 53.236 41.0101 53.2399H58.3001C58.9375 53.2426 59.5479 53.4977 59.9977 53.9493C60.4475 54.401 60.7001 55.0125 60.7001 55.6499H38.5701Z" fill="#4CD174"/>
<path d="M25.6501 98.4801C25.7296 98.4342 25.8185 98.4068 25.9101 98.4001C25.999 98.3802 26.0912 98.3802 26.1801 98.4001C26.2678 98.4272 26.3494 98.4714 26.4201 98.5301C26.4902 98.588 26.548 98.6594 26.5901 98.7401L27.4401 100.34C27.4459 100.36 27.4561 100.379 27.4699 100.394C27.4837 100.41 27.5009 100.422 27.5201 100.43C27.556 100.44 27.5941 100.44 27.6301 100.43C27.6692 100.442 27.7109 100.442 27.7501 100.43C27.7819 100.405 27.809 100.375 27.8301 100.34L30.1401 95.5201C30.1693 95.4706 30.2106 95.4293 30.2601 95.4001C30.3115 95.38 30.3686 95.38 30.4201 95.4001C30.4487 95.4035 30.4762 95.4133 30.5005 95.4289C30.5247 95.4445 30.5451 95.4654 30.5601 95.4901C30.5916 95.5376 30.609 95.5931 30.6101 95.6501C30.5142 98.1641 29.4373 100.541 27.6101 102.27C27.6101 102.27 26.3101 101.73 25.3101 99.3801C25.2449 99.2163 25.2449 99.0338 25.3101 98.8701C25.372 98.7029 25.4929 98.5642 25.6501 98.4801Z" fill="#8CE983"/>
<path d="M25.6501 107.69C25.7314 107.649 25.8194 107.622 25.9101 107.61C25.999 107.591 26.0911 107.591 26.1801 107.61C26.2672 107.634 26.3488 107.675 26.4201 107.73C26.4902 107.788 26.548 107.859 26.5901 107.94L27.4401 109.55C27.4549 109.589 27.4833 109.621 27.5201 109.64C27.556 109.65 27.5941 109.65 27.6301 109.64C27.6692 109.652 27.7109 109.652 27.7501 109.64C27.7839 109.617 27.8115 109.586 27.8301 109.55L30.1401 104.73C30.1667 104.681 30.2089 104.642 30.2601 104.62C30.3117 104.601 30.3684 104.601 30.4201 104.62C30.4748 104.635 30.5236 104.667 30.5601 104.71C30.5902 104.758 30.6074 104.813 30.6101 104.87C30.5125 107.387 29.4361 109.766 27.6101 111.5C26.5199 110.846 25.703 109.819 25.3101 108.61C25.2453 108.443 25.2453 108.257 25.3101 108.09C25.373 107.921 25.4934 107.779 25.6501 107.69Z" fill="#8CE983"/>
<path d="M25.6501 116.91C25.7277 116.86 25.8177 116.832 25.9101 116.83C25.999 116.81 26.0912 116.81 26.1801 116.83C26.2678 116.857 26.3494 116.901 26.4201 116.96C26.4902 117.018 26.548 117.089 26.5901 117.17L27.4401 118.77C27.4459 118.79 27.4561 118.809 27.4699 118.824C27.4837 118.84 27.5009 118.852 27.5201 118.86C27.556 118.87 27.5941 118.87 27.6301 118.86C27.6692 118.872 27.7109 118.872 27.7501 118.86C27.7819 118.835 27.809 118.805 27.8301 118.77L30.1401 114C30.1693 113.951 30.2106 113.909 30.2601 113.88C30.3115 113.86 30.3686 113.86 30.4201 113.88C30.4487 113.883 30.4762 113.893 30.5005 113.909C30.5247 113.924 30.5451 113.945 30.5601 113.97C30.5927 114.017 30.6101 114.073 30.6101 114.13C30.5142 116.644 29.4373 119.021 27.6101 120.75C27.6101 120.75 26.3101 120.21 25.3101 117.86C25.2449 117.696 25.2449 117.514 25.3101 117.35C25.3609 117.164 25.4831 117.006 25.6501 116.91Z" fill="#8CE983"/>
<path d="M25.6501 126.12C25.7314 126.079 25.8194 126.051 25.9101 126.04C25.999 126.02 26.0911 126.02 26.1801 126.04C26.2672 126.064 26.3488 126.104 26.4201 126.16C26.4902 126.218 26.548 126.289 26.5901 126.37L27.4401 127.98C27.4578 128.017 27.4855 128.048 27.5201 128.07C27.556 128.08 27.5941 128.08 27.6301 128.07C27.6692 128.082 27.7109 128.082 27.7501 128.07C27.7839 128.047 27.8115 128.016 27.8301 127.98L30.1401 123.16C30.1667 123.111 30.2089 123.072 30.2601 123.05C30.3117 123.031 30.3684 123.031 30.4201 123.05C30.4748 123.065 30.5236 123.097 30.5601 123.14C30.5902 123.188 30.6074 123.243 30.6101 123.3C30.5125 125.817 29.4361 128.196 27.6101 129.93C26.5199 129.276 25.703 128.249 25.3101 127.04C25.2453 126.873 25.2453 126.687 25.3101 126.52C25.373 126.351 25.4934 126.209 25.6501 126.12Z" fill="#8CE983"/>
<path d="M138.71 159L167.87 154.68L165.21 158.4C155.01 167.34 145.51 173 134.71 178.5L138.71 159Z" fill="#535565"/>
<path d="M171.01 142C171.81 130 173.29 113.19 172.77 100.13C172.77 100.13 141.22 93.5099 136.01 105.5C136.01 105.5 138.22 125.5 138.22 159C149.07 160.17 162.22 159.47 165.22 158.5L171.01 150.5V142Z" fill="url(#paint1_linear)"/>
<path d="M167.01 113L171.51 134.5V135.5L170.01 137L167.01 113Z" fill="#FFC600" fill-opacity="0.39"/>
<path d="M180.7 136.37C178.12 143.86 162.55 151.25 154.09 151.57L154.17 149.18C154.17 149.18 165.01 142 172.09 135C174.39 137.05 179.68 134 180.7 136.37Z" fill="#FFC9BF"/>
<path d="M167.44 115.29L172.76 100.13C172.76 100.13 185.76 116.27 181.01 137.35C178.63 136.35 174.45 137.7 171.64 134.93C170.52 127.32 168.85 124.73 167.44 115.29Z" fill="url(#paint2_linear)"/>
<path d="M136.5 104.5L137.5 124C135 127 132 134.5 126.02 139.59C126.25 135.367 125.91 131.132 125.01 127C132.01 114 136.5 104.5 136.5 104.5Z" fill="url(#paint3_linear)"/>
<path d="M137.01 114.5L137.51 124L136.01 126L137.01 114.5Z" fill="#FFC600" fill-opacity="0.39"/>
<path d="M125.32 127C126.097 129.591 126.329 132.315 126 135C110.42 138.36 106.29 126.89 106.29 126.89H109.08C114.43 128.026 119.955 128.064 125.32 127Z" fill="url(#paint4_linear)"/>
<path d="M99.1999 120.23L153.52 150.43C154.06 150.732 154.533 151.14 154.91 151.63C155.281 152.123 155.548 152.687 155.692 153.288C155.837 153.888 155.856 154.512 155.75 155.12C155.647 155.727 155.418 156.306 155.08 156.82L154.84 157.18C154.538 157.64 154.147 158.034 153.69 158.34C153.235 158.645 152.726 158.859 152.19 158.97C151.651 159.07 151.099 159.07 150.56 158.97C150.023 158.863 149.512 158.649 149.06 158.34L97.1899 123.48L99.1999 120.23Z" fill="#2DB974"/>
<path opacity="0.75" d="M70.37 131.48C86.06 133.97 100.77 123.48 103.22 108.11C105.67 92.74 94.92 78.21 79.22 75.72C63.52 73.23 48.81 83.72 46.37 99.08C43.93 114.44 54.67 129 70.37 131.48Z" fill="white"/>
<path d="M43.1299 98.57C40.3999 115.75 52.3699 131.94 69.8499 134.72C87.3299 137.5 103.73 125.82 106.46 108.63C109.19 91.44 97.2299 75.25 79.7399 72.48C62.2499 69.71 45.8699 81.38 43.1299 98.57ZM47.7899 99.31C48.5499 93.9342 50.8927 88.9063 54.5199 84.8665C58.1471 80.8267 62.8945 77.9579 68.1576 76.6253C73.4208 75.2927 78.9614 75.5567 84.074 77.3837C89.1866 79.2107 93.6398 82.5179 96.8664 86.8843C100.093 91.2506 101.947 96.4785 102.193 101.902C102.438 107.326 101.064 112.7 98.2447 117.34C95.4256 121.98 91.2894 125.676 86.3627 127.957C81.436 130.238 75.9419 131.002 70.5799 130.15C63.4687 129.081 57.073 125.232 52.7993 119.449C48.5255 113.666 46.7237 106.422 47.7899 99.31Z" fill="#2DB974"/>
<path d="M154.48 149.17L146.07 147.17L141.85 149.93C141.85 149.93 142.53 151.26 145.37 151.02C147.571 150.896 149.778 150.953 151.97 151.19C151.97 151.19 155.48 153.46 155.97 150.34L154.48 149.17Z" fill="#FFC9BF"/>
<path d="M107.01 131C106.17 131.44 103.78 129.86 102.33 128.79C101.988 128.55 101.743 128.195 101.64 127.79C101.541 127.394 101.587 126.975 101.77 126.61C102.34 125.52 103.2 124.15 104.01 124.09C105.33 124 110.46 129.16 107.01 131Z" fill="url(#paint5_linear)"/>
<path d="M160.25 99.9999C160.25 99.9999 158.99 101.83 158.25 103C157.7 103.908 156.887 104.627 155.92 105.063C154.952 105.499 153.874 105.63 152.83 105.44C152.126 105.293 151.48 104.942 150.975 104.429C150.469 103.917 150.127 103.266 149.99 102.56C149.712 101.298 149.682 99.9937 149.9 98.7199L149.76 95.2599C149.009 94.8933 148.356 94.3511 147.859 93.6793C147.361 93.0074 147.032 92.2256 146.9 91.3999C146.354 87.9247 146.21 84.3982 146.47 80.8899C146.663 78.8887 147.603 77.0337 149.102 75.6939C150.601 74.3542 152.55 73.628 154.56 73.6599H154.99C159.45 73.9799 161.66 77.9599 161.21 82.4099L161.29 98.0899" fill="#FFC9BF"/>
<path d="M149.72 95.23C153.01 96.5 156.5 94 159.01 90.5C159.01 90.5 156.01 98.5 149.81 96.29L149.72 95.23Z" fill="#F19F90"/>
<path d="M147.32 84.0701C147.316 84.1504 147.328 84.2308 147.355 84.3063C147.383 84.3819 147.425 84.4512 147.48 84.5101C147.592 84.6226 147.741 84.6902 147.9 84.7001C147.976 84.7154 148.054 84.7154 148.13 84.7001C148.203 84.6721 148.271 84.6315 148.33 84.5801C148.39 84.5297 148.441 84.4687 148.48 84.4001C148.51 84.33 148.531 84.2559 148.54 84.1801C148.541 84.0221 148.484 83.8692 148.38 83.7501C148.271 83.6314 148.121 83.5597 147.96 83.5501C147.884 83.5347 147.806 83.5347 147.73 83.5501C147.654 83.578 147.583 83.6185 147.52 83.6701C147.46 83.7182 147.412 83.7799 147.38 83.8501C147.342 83.9172 147.321 83.9929 147.32 84.0701Z" fill="#3F4256"/>
<path d="M147.06 83.92C147.13 84 147.6 83.67 148.26 83.68C148.92 83.69 149.4 84.02 149.47 83.95C149.54 83.88 149.47 83.77 149.22 83.61C148.929 83.4002 148.578 83.2913 148.22 83.3C147.863 83.2793 147.51 83.3816 147.22 83.59C147.09 83.74 147.01 83.89 147.06 83.92Z" fill="#3F4256"/>
<path d="M153.58 84C153.576 84.0803 153.588 84.1607 153.615 84.2363C153.643 84.3119 153.685 84.3812 153.74 84.44C153.852 84.5525 154.001 84.6201 154.16 84.63C154.236 84.6449 154.314 84.6449 154.39 84.63C154.463 84.6075 154.532 84.57 154.59 84.52C154.651 84.4659 154.701 84.4016 154.74 84.33C154.772 84.2604 154.792 84.1861 154.8 84.11C154.8 83.9503 154.739 83.7966 154.63 83.68C154.579 83.6207 154.516 83.5724 154.445 83.538C154.375 83.5037 154.298 83.4839 154.22 83.48C154.145 83.4601 154.065 83.4601 153.99 83.48C153.912 83.5004 153.841 83.538 153.78 83.59C153.72 83.6382 153.672 83.6998 153.64 83.77C153.6 83.8401 153.579 83.9194 153.58 84Z" fill="#3F4256"/>
<path d="M153.11 83.89C153.19 83.96 153.64 83.6 154.3 83.59C154.96 83.58 155.46 83.86 155.53 83.78C155.6 83.7 155.48 83.6 155.26 83.46C154.963 83.2691 154.613 83.1781 154.26 83.2C153.919 83.2164 153.593 83.3427 153.33 83.56C153.15 83.7 153.1 83.84 153.11 83.89Z" fill="#3F4256"/>
<path d="M151.63 88C151.276 87.92 150.912 87.8897 150.55 87.91C150.38 87.91 150.22 87.91 150.18 87.78C150.145 87.608 150.166 87.4292 150.24 87.27C150.36 86.85 150.48 86.41 150.61 85.94C150.966 84.8172 151.227 83.6665 151.39 82.5C150.945 83.5957 150.59 84.7262 150.33 85.88C150.21 86.33 150.1 86.79 149.99 87.21C149.91 87.4228 149.91 87.6572 149.99 87.87C150.022 87.9287 150.066 87.9798 150.12 88.02C150.172 88.0534 150.23 88.0772 150.29 88.09C150.386 88.1041 150.484 88.1041 150.58 88.09C150.932 88.1027 151.285 88.0724 151.63 88Z" fill="#F19F90"/>
<path d="M153.01 81.08C153.07 81.26 153.73 81.19 154.5 81.29C155.27 81.39 155.9 81.61 156 81.46C156.1 81.31 156 81.21 155.69 81.06C155.364 80.8324 154.985 80.6914 154.59 80.65C154.193 80.5893 153.787 80.6306 153.41 80.77C153.08 80.85 152.94 81 153.01 81.08Z" fill="#3F4256"/>
<path d="M147.1 81.2301C147.21 81.3801 147.67 81.2301 148.22 81.2301C148.77 81.2301 149.22 81.3401 149.33 81.2301C149.44 81.1201 149.33 81.0001 149.11 80.8601C148.845 80.6814 148.53 80.5905 148.21 80.6C147.889 80.6021 147.576 80.6996 147.31 80.88C147.12 81 147.01 81.1601 147.1 81.2301Z" fill="#3F4256"/>
<path d="M146.01 75.84C146.06 75.553 146.196 75.2879 146.4 75.0792C146.603 74.8705 146.864 74.7279 147.15 74.67C147.03 74.392 147.009 74.0816 147.09 73.79C147.17 73.4946 147.35 73.2363 147.6 73.06C147.846 72.8883 148.14 72.8006 148.44 72.81C148.742 72.8256 149.031 72.9418 149.26 73.14C149.273 72.922 149.338 72.7102 149.449 72.5224C149.56 72.3345 149.715 72.176 149.9 72.06C150.083 71.9402 150.292 71.8681 150.51 71.85C150.727 71.8293 150.947 71.8601 151.15 71.94C151.141 71.6787 151.221 71.422 151.377 71.2117C151.532 71.0014 151.754 70.8498 152.006 70.7815C152.259 70.7132 152.527 70.7322 152.767 70.8354C153.007 70.9386 153.206 71.1199 153.33 71.35C153.502 71.1042 153.727 70.9001 153.988 70.753C154.25 70.6058 154.541 70.5194 154.84 70.5C155.138 70.4819 155.437 70.5309 155.714 70.6434C155.991 70.7559 156.239 70.929 156.44 71.15C157.039 70.9708 157.684 71.0174 158.251 71.2808C158.819 71.5443 159.27 72.0065 159.52 72.58C160.003 72.6192 160.464 72.804 160.84 73.11C161.214 73.4128 161.489 73.8202 161.63 74.28C161.937 74.3053 162.231 74.4111 162.484 74.5867C162.737 74.7622 162.939 75.0014 163.07 75.28C163.199 75.5613 163.251 75.872 163.22 76.18C163.191 76.4898 163.08 76.7865 162.9 77.04C163.078 77.1438 163.228 77.2889 163.337 77.4629C163.447 77.637 163.513 77.835 163.53 78.04C163.552 78.2394 163.528 78.4412 163.46 78.63C163.391 78.8203 163.278 78.9915 163.13 79.13C163.351 79.2382 163.535 79.4085 163.66 79.62C163.789 79.8298 163.852 80.0738 163.84 80.32C163.837 80.5638 163.761 80.8009 163.62 81C163.482 81.2049 163.288 81.3648 163.06 81.46C163.5 81.52 164.16 82.9 163.94 84.25C163.81 84.66 162.67 86.4 162.5 86.8C162.33 87.2 162.5 88.01 161.69 88.58C161.57 88.9 161.48 91.23 161.23 91.46C160.98 91.69 161.3 91.83 160.98 91.94V90.94C160.956 89.787 160.788 88.6414 160.48 87.53C160.318 86.9136 160.047 86.3311 159.68 85.81C159.42 85.4551 159.221 85.0598 159.09 84.64C159.018 84.4294 159.018 84.2006 159.09 83.99C159.17 83.787 159.31 83.6129 159.49 83.49C159.246 83.3852 159.035 83.2158 158.88 83C158.716 82.7883 158.612 82.536 158.58 82.27C158.53 81.737 158.571 81.1994 158.7 80.68L159.15 78.36C158.618 78.3287 158.103 78.1561 157.66 77.86C157.227 77.5553 156.882 77.1413 156.66 76.66C156.463 76.7898 156.242 76.8783 156.01 76.92C155.776 76.9601 155.536 76.9496 155.307 76.8892C155.078 76.8288 154.864 76.72 154.68 76.57C154.493 76.4229 154.343 76.2347 154.24 76.02C154.038 76.5388 153.649 76.9633 153.15 77.21C152.652 77.454 152.079 77.4969 151.55 77.33C151.66 77.94 150.55 78.49 149.96 78.64C149.495 78.699 149.023 78.6004 148.62 78.36C148.62 78.36 147.62 78.95 147.03 78.72C146.44 78.49 145.74 77.72 146.12 77.2C145.963 76.7644 145.925 76.2951 146.01 75.84Z" fill="#535565"/>
<path d="M158.46 84.23C158.46 83 161.31 80.84 161.31 84.41C161.32 84.7788 161.238 85.1444 161.07 85.4732C160.903 85.802 160.656 86.0837 160.351 86.2925C160.047 86.5013 159.695 86.6306 159.328 86.6686C158.961 86.7065 158.591 86.652 158.25 86.51C158.25 86.42 158.46 84.23 158.46 84.23Z" fill="#FFC9BF"/>
<path d="M149.85 90.31C150.319 90.1985 150.798 90.1381 151.28 90.13C151.707 90.0615 152.143 90.0615 152.57 90.13C152.64 90.19 152.57 90.3401 152.32 90.5801C152.024 90.8728 151.635 91.0532 151.22 91.09C151.02 91.1102 150.818 91.0905 150.626 91.0322C150.434 90.9738 150.255 90.8779 150.1 90.75C149.88 90.52 149.81 90.34 149.85 90.31Z" fill="white"/>
</g>
<defs>
<linearGradient id="paint0_linear" x1="55.6" y1="35.92" x2="108.3" y2="167.02" gradientUnits="userSpaceOnUse">
<stop stop-color="#FFEEB4"/>
<stop offset="1" stop-color="#F1A700"/>
</linearGradient>
<linearGradient id="paint1_linear" x1="158.3" y1="97.7699" x2="148.32" y2="160.61" gradientUnits="userSpaceOnUse">
<stop stop-color="#FFE68D"/>
<stop offset="1" stop-color="#FEDF6F"/>
</linearGradient>
<linearGradient id="paint2_linear" x1="178.29" y1="101.01" x2="172.69" y2="136.25" gradientUnits="userSpaceOnUse">
<stop stop-color="#FFE68B"/>
<stop offset="1" stop-color="#FEDF6F"/>
</linearGradient>
<linearGradient id="paint3_linear" x1="1819.03" y1="3185.4" x2="1338.73" y2="2110.17" gradientUnits="userSpaceOnUse">
<stop stop-color="#FFE68B"/>
<stop offset="1" stop-color="#FEDF6F"/>
</linearGradient>
<linearGradient id="paint4_linear" x1="116.99" y1="125.63" x2="115.49" y2="135.06" gradientUnits="userSpaceOnUse">
<stop stop-color="#FFDAD3"/>
<stop offset="1" stop-color="#FFC9BF"/>
</linearGradient>
<linearGradient id="paint5_linear" x1="105.51" y1="124.29" x2="104.48" y2="130.73" gradientUnits="userSpaceOnUse">
<stop stop-color="#FFC9BF"/>
<stop offset="1" stop-color="#FFEAE7"/>
</linearGradient>
<clipPath id="clip0">
<rect width="192" height="190.5" fill="white"/>
</clipPath>
</defs>
</svg>
