<svg width="248" height="204" viewBox="0 0 248 204" fill="none" xmlns="http://www.w3.org/2000/svg">
<g clip-path="url(#clip0)">
<path fill-rule="evenodd" clip-rule="evenodd" d="M141.535 198.86C109.895 198.19 76.1648 194.01 56.2448 169.49C36.1748 144.78 37.2948 110.49 44.6148 79.5499C51.8548 48.9999 66.3048 18.2099 95.0748 5.36989C123.125 -7.16011 154.395 4.36989 181.745 18.3699C207.975 31.8099 230.505 51.3699 239.505 79.3699C249.615 110.83 252.455 147.67 231.505 173.25C210.765 198.54 174.345 199.56 141.535 198.86Z" fill="#F0FCFF"/>
<path d="M192.145 52.2L190.765 87.81L172.965 87.23C172.755 85.16 172.965 74.93 172.965 74.93C172.965 74.93 167.615 74.93 166.355 67.57C166.145 63.98 165.295 57.87 165.515 51.16C165.635 47.58 166.455 44.26 169.035 41.78C171.003 39.8966 173.49 38.6442 176.175 38.1836C178.86 37.723 181.621 38.0752 184.105 39.195C186.588 40.3148 188.68 42.1511 190.113 44.4683C191.546 46.7855 192.253 49.4779 192.145 52.2Z" fill="#FFC9BF"/>
<path d="M172.955 74.93C177.505 75.84 182.165 72.61 184.865 69.25C184.023 71.6596 182.384 73.7092 180.217 75.0588C178.051 76.4084 175.489 76.9769 172.955 76.67V74.93Z" fill="#F19F90" fill-opacity="0.5"/>
<path d="M168.245 55.5299C168.26 55.8022 168.38 56.0582 168.579 56.2444C168.779 56.4307 169.042 56.5329 169.315 56.5299C169.448 56.5328 169.581 56.509 169.705 56.4599C169.83 56.4117 169.946 56.3405 170.045 56.2499C170.143 56.1566 170.221 56.0444 170.275 55.9199C170.325 55.7959 170.352 55.6637 170.355 55.5299C170.345 55.2528 170.226 54.9907 170.025 54.7999C169.928 54.7036 169.812 54.6281 169.685 54.5782C169.558 54.5284 169.421 54.5051 169.285 54.5099C169.152 54.5053 169.02 54.5257 168.895 54.5699C168.77 54.6241 168.655 54.6984 168.555 54.7899C168.46 54.8841 168.385 54.9963 168.335 55.1199C168.276 55.2414 168.245 55.3748 168.245 55.5099V55.5299Z" fill="#3F4256"/>
<path d="M167.425 55.3201C167.565 55.4501 168.335 54.8201 169.425 54.7701C170.515 54.7201 171.425 55.2501 171.535 55.1001C171.645 54.9501 171.445 54.7901 171.075 54.5501C170.567 54.2319 169.973 54.0782 169.375 54.1101C168.787 54.1379 168.223 54.3515 167.765 54.7201C167.465 55.0001 167.355 55.2601 167.425 55.3201Z" fill="#3F4256"/>
<path d="M177.705 55.3301C177.707 55.4655 177.736 55.5991 177.791 55.7229C177.846 55.8467 177.926 55.958 178.025 56.0501C178.22 56.2403 178.482 56.3478 178.755 56.3501C178.891 56.352 179.027 56.3283 179.155 56.2801C179.279 56.2296 179.394 56.1586 179.495 56.0701C179.586 55.9732 179.66 55.8616 179.715 55.7401C179.768 55.6167 179.799 55.4845 179.805 55.3501C179.787 55.0797 179.674 54.8244 179.485 54.6301C179.286 54.444 179.027 54.3373 178.755 54.3301C178.621 54.3272 178.489 54.351 178.365 54.4001C178.233 54.4402 178.112 54.5124 178.015 54.6101C177.917 54.7034 177.838 54.8156 177.785 54.9401C177.732 55.0634 177.705 55.196 177.705 55.3301Z" fill="#3F4256"/>
<path d="M177.105 55.0999C177.235 55.2299 178.005 54.5999 179.105 54.5599C180.205 54.5199 181.105 55.0299 181.215 54.8899C181.325 54.7499 181.125 54.5799 180.745 54.3299C180.237 54.0224 179.648 53.8727 179.055 53.8999C178.466 53.9235 177.901 54.1376 177.445 54.5099C177.145 54.7899 177.035 55.0499 177.105 55.0999Z" fill="#3F4256"/>
<path d="M174.025 63.29C173.421 63.11 172.795 63.0125 172.165 63C171.875 63 171.595 62.94 171.535 62.74C171.501 62.4438 171.557 62.1442 171.695 61.88C171.922 61.16 172.172 60.41 172.445 59.63C173.15 57.7203 173.702 55.7574 174.095 53.76C173.232 55.5983 172.523 57.5048 171.975 59.46C171.725 60.25 171.485 61 171.265 61.72C171.093 62.0786 171.058 62.4872 171.165 62.87C171.214 62.9687 171.282 63.057 171.365 63.13C171.452 63.2003 171.555 63.2484 171.665 63.27C171.828 63.2901 171.992 63.2901 172.155 63.27C172.775 63.3545 173.403 63.3612 174.025 63.29Z" fill="#F19F90"/>
<path d="M175.625 66.6599C175.495 66.5299 174.625 67.4199 173.295 67.3699C171.965 67.3199 171.045 66.3698 170.925 66.4498C170.805 66.5298 170.975 66.8299 171.375 67.2099C171.906 67.7012 172.592 67.9913 173.315 68.0299C174.005 68.0671 174.683 67.834 175.205 67.3798C175.585 66.9998 175.695 66.7099 175.625 66.6599Z" fill="#EB7D6E"/>
<path d="M176.255 51.6201C176.405 51.9001 177.775 51.7101 179.395 51.7901C181.015 51.8701 182.325 52.1501 182.535 51.9001C182.745 51.6501 182.385 51.5301 181.835 51.2701C181.085 50.9611 180.286 50.7884 179.475 50.7601C178.654 50.7178 177.831 50.8193 177.045 51.0601C176.485 51.2601 176.185 51.4901 176.255 51.6201Z" fill="#3F4256"/>
<path d="M166.615 51.9101C166.915 52.1401 167.985 51.9101 169.315 51.8101C170.645 51.7101 171.765 51.8901 172.005 51.6401C172.245 51.3901 171.915 51.2601 171.415 51.0701C170.7 50.8153 169.942 50.7065 169.185 50.7501C168.449 50.7821 167.727 50.966 167.065 51.2901C166.615 51.5501 166.485 51.8001 166.615 51.9101Z" fill="#3F4256"/>
<path d="M151.705 19H120.705C119.98 19 119.284 19.2873 118.771 19.799C118.257 20.3106 117.967 21.005 117.965 21.73V43.51C117.967 44.2349 118.257 44.9293 118.771 45.441C119.284 45.9527 119.98 46.24 120.705 46.24H151.755C152.479 46.24 153.173 45.9523 153.685 45.4404C154.197 44.9284 154.485 44.234 154.485 43.51V21.73C154.485 21.3672 154.413 21.0081 154.272 20.6736C154.132 20.339 153.926 20.0358 153.668 19.7817C153.409 19.5275 153.102 19.3275 152.765 19.1933C152.428 19.059 152.068 18.9933 151.705 19Z" fill="#FED546"/>
<path fill-rule="evenodd" clip-rule="evenodd" d="M148.925 41.1099C148.925 41.1099 148.165 49.1899 157.765 52.9999C157.765 52.9999 144.935 51.9999 144.325 40.9299L148.925 41.1099Z" fill="#FED546"/>
<path d="M132.255 33.1499C132.055 33.6741 131.708 34.1291 131.255 34.4599C130.786 34.7783 130.232 34.949 129.665 34.9499C129.097 34.9521 128.543 34.7811 128.075 34.4599C127.62 34.1312 127.272 33.6755 127.075 33.1499H132.255Z" fill="#FED546"/>
<path d="M132.255 33.1499C132.055 33.6741 131.708 34.1291 131.255 34.4599C130.786 34.7783 130.232 34.949 129.665 34.9499C129.097 34.9521 128.543 34.7811 128.075 34.4599C127.62 34.1312 127.272 33.6755 127.075 33.1499H132.255Z" fill="white"/>
<path d="M132.255 32.7799L129.695 28.32L127.165 32.7799L127.105 32.83H127.035C127.035 32.83 127.035 32.83 127.035 32.77C127.03 32.7589 127.028 32.747 127.028 32.735C127.028 32.7229 127.03 32.711 127.035 32.7L129.665 27.7H129.755L132.375 32.7C132.38 32.711 132.382 32.7229 132.382 32.735C132.382 32.747 132.38 32.7589 132.375 32.77C132.381 32.7895 132.381 32.8104 132.375 32.83L132.255 32.7799Z" fill="white"/>
<path d="M129.625 32.9999V27.6799H129.685C129.692 27.7026 129.692 27.7272 129.685 27.7499V32.9899L129.625 32.9999Z" fill="white"/>
<path d="M132.635 32.6799H126.635V33.1499H132.635V32.6799Z" fill="#FED546"/>
<path d="M132.635 32.6799H126.635V33.1499H132.635V32.6799Z" fill="white"/>
<path d="M145.235 33.1499C145.035 33.6741 144.688 34.1291 144.235 34.4599C143.767 34.7811 143.212 34.9521 142.645 34.9499C142.078 34.949 141.524 34.7783 141.055 34.4599C140.606 34.1251 140.259 33.6714 140.055 33.1499H145.235Z" fill="#FED546"/>
<path d="M145.235 33.1499C145.035 33.6741 144.688 34.1291 144.235 34.4599C143.767 34.7811 143.212 34.9521 142.645 34.9499C142.078 34.949 141.524 34.7783 141.055 34.4599C140.606 34.1251 140.259 33.6714 140.055 33.1499H145.235Z" fill="white"/>
<path d="M145.235 32.78L142.685 28.33L140.145 32.78H140.075L142.695 27.78H142.785L145.415 32.78C145.42 32.8031 145.42 32.8269 145.415 32.85C145.421 32.8696 145.421 32.8905 145.415 32.91L145.235 32.78Z" fill="white"/>
<path d="M142.615 32.9999C142.604 33.0045 142.592 33.0069 142.58 33.0069C142.568 33.0069 142.556 33.0045 142.545 32.9999C142.54 32.9905 142.538 32.9802 142.538 32.9699C142.538 32.9595 142.54 32.9492 142.545 32.9399V27.6799C142.537 27.6572 142.537 27.6326 142.545 27.6099H142.615H142.675C142.682 27.6326 142.682 27.6572 142.675 27.6799V32.9199L142.615 32.9999Z" fill="white"/>
<path d="M145.615 32.6799H139.615V33.1499H145.615V32.6799Z" fill="#FED546"/>
<path d="M145.615 32.6799H139.615V33.1499H145.615V32.6799Z" fill="white"/>
<path d="M136.085 26.0901V27.0901C135.02 27.1812 133.992 27.5239 133.085 28.0901C132.51 28.4027 131.858 28.5482 131.205 28.5101C130.42 28.3833 129.674 28.0789 129.025 27.6201V27.0801C129.651 27.5313 130.394 27.7918 131.165 27.8301C131.863 27.7976 132.534 27.5495 133.085 27.1201C133.987 26.5434 135.017 26.1997 136.085 26.1201V26.0901Z" fill="#FED546"/>
<path d="M136.085 26.0901V27.0901C135.02 27.1812 133.992 27.5239 133.085 28.0901C132.51 28.4027 131.858 28.5482 131.205 28.5101C130.42 28.3833 129.674 28.0789 129.025 27.6201V27.0801C129.651 27.5313 130.394 27.7918 131.165 27.8301C131.863 27.7976 132.534 27.5495 133.085 27.1201C133.987 26.5434 135.017 26.1997 136.085 26.1201V26.0901Z" fill="white"/>
<path d="M129.615 27.3099C129.616 27.4167 129.584 27.5213 129.525 27.6099C129.464 27.7028 129.377 27.7758 129.275 27.8199C129.17 27.8499 129.059 27.8499 128.955 27.8199C128.847 27.8032 128.748 27.7503 128.675 27.6699C128.596 27.5911 128.544 27.4898 128.525 27.3799C128.486 27.2769 128.486 27.163 128.525 27.0599C128.568 26.96 128.637 26.8736 128.725 26.8099C128.817 26.7502 128.925 26.7189 129.035 26.7199C129.104 26.7057 129.176 26.7057 129.245 26.7199C129.312 26.7481 129.373 26.7888 129.425 26.8399C129.474 26.8935 129.514 26.9542 129.545 27.0199C129.56 27.0925 129.56 27.1674 129.545 27.2399L129.615 27.3099Z" fill="#FED546"/>
<path d="M129.615 27.3099C129.616 27.4167 129.584 27.5213 129.525 27.6099C129.464 27.7028 129.377 27.7758 129.275 27.8199C129.17 27.8499 129.059 27.8499 128.955 27.8199C128.847 27.8032 128.748 27.7503 128.675 27.6699C128.596 27.5911 128.544 27.4898 128.525 27.3799C128.486 27.2769 128.486 27.163 128.525 27.0599C128.568 26.96 128.637 26.8736 128.725 26.8099C128.817 26.7502 128.925 26.7189 129.035 26.7199C129.104 26.7057 129.176 26.7057 129.245 26.7199C129.312 26.7481 129.373 26.7888 129.425 26.8399C129.474 26.8935 129.514 26.9542 129.545 27.0199C129.56 27.0925 129.56 27.1674 129.545 27.2399L129.615 27.3099Z" fill="white"/>
<path d="M136.085 26.0901V27.0901C137.149 27.1845 138.177 27.527 139.085 28.0901C139.66 28.4027 140.311 28.5482 140.965 28.5101C141.75 28.3833 142.496 28.0789 143.145 27.6201V27.0801C142.519 27.5313 141.776 27.7918 141.005 27.8301C140.307 27.7995 139.635 27.5513 139.085 27.1201C138.183 26.5449 137.152 26.2014 136.085 26.1201V26.0901Z" fill="#FED546"/>
<path d="M136.085 26.0901V27.0901C137.149 27.1845 138.177 27.527 139.085 28.0901C139.66 28.4027 140.311 28.5482 140.965 28.5101C141.75 28.3833 142.496 28.0789 143.145 27.6201V27.0801C142.519 27.5313 141.776 27.7918 141.005 27.8301C140.307 27.7995 139.635 27.5513 139.085 27.1201C138.183 26.5449 137.152 26.2014 136.085 26.1201V26.0901Z" fill="white"/>
<path d="M142.615 27.31C142.615 27.4166 142.646 27.5208 142.705 27.61C142.767 27.6999 142.854 27.7696 142.955 27.81C143.059 27.84 143.17 27.84 143.275 27.81C143.381 27.7886 143.478 27.7364 143.555 27.66C143.628 27.5807 143.679 27.4844 143.705 27.38C143.74 27.2762 143.74 27.1637 143.705 27.06C143.664 26.9586 143.595 26.8716 143.505 26.81C143.416 26.7515 143.311 26.7202 143.205 26.72C143.132 26.7096 143.058 26.7096 142.985 26.72C142.922 26.7507 142.865 26.7912 142.815 26.84C142.768 26.8951 142.728 26.9555 142.695 27.02C142.68 27.0925 142.68 27.1674 142.695 27.24L142.615 27.31Z" fill="#FED546"/>
<path d="M142.615 27.31C142.615 27.4166 142.646 27.5208 142.705 27.61C142.767 27.6999 142.854 27.7696 142.955 27.81C143.059 27.84 143.17 27.84 143.275 27.81C143.381 27.7886 143.478 27.7364 143.555 27.66C143.628 27.5807 143.679 27.4844 143.705 27.38C143.74 27.2762 143.74 27.1637 143.705 27.06C143.664 26.9586 143.595 26.8716 143.505 26.81C143.416 26.7515 143.311 26.7202 143.205 26.72C143.132 26.7096 143.058 26.7096 142.985 26.72C142.922 26.7507 142.865 26.7912 142.815 26.84C142.768 26.8951 142.728 26.9555 142.695 27.02C142.68 27.0925 142.68 27.1674 142.695 27.24L142.615 27.31Z" fill="white"/>
<path d="M136.765 24.4099H135.365V38.7299H136.765V24.4099Z" fill="white"/>
<path d="M137.285 26.7501C137.287 26.9854 137.217 27.2157 137.085 27.4103C136.952 27.605 136.764 27.7549 136.545 27.8401C136.331 27.9331 136.093 27.9575 135.865 27.9101C135.635 27.8653 135.423 27.7541 135.255 27.5901C135.087 27.425 134.975 27.2118 134.935 26.9801C134.885 26.7493 134.906 26.5088 134.995 26.2901C135.087 26.0742 135.24 25.89 135.435 25.7602C135.631 25.6305 135.86 25.5609 136.095 25.5601C136.249 25.559 136.403 25.5896 136.545 25.6501C136.691 25.7093 136.824 25.7978 136.935 25.9101C137.047 26.0189 137.136 26.1496 137.196 26.294C137.257 26.4384 137.287 26.5936 137.285 26.7501Z" fill="#FED546"/>
<path d="M137.285 26.7501C137.287 26.9854 137.217 27.2157 137.085 27.4103C136.952 27.605 136.764 27.7549 136.545 27.8401C136.331 27.9331 136.093 27.9575 135.865 27.9101C135.635 27.8653 135.423 27.7541 135.255 27.5901C135.087 27.425 134.975 27.2118 134.935 26.9801C134.885 26.7493 134.906 26.5088 134.995 26.2901C135.087 26.0742 135.24 25.89 135.435 25.7602C135.631 25.6305 135.86 25.5609 136.095 25.5601C136.249 25.559 136.403 25.5896 136.545 25.6501C136.691 25.7093 136.824 25.7978 136.935 25.9101C137.047 26.0189 137.136 26.1496 137.196 26.294C137.257 26.4384 137.287 26.5936 137.285 26.7501Z" fill="white"/>
<path d="M137.015 23.5701C137.017 23.7559 136.961 23.9377 136.855 24.0901C136.755 24.2418 136.612 24.3602 136.445 24.4301C136.278 24.5011 136.092 24.5185 135.915 24.4801C135.733 24.448 135.565 24.3607 135.435 24.2301C135.304 24.0996 135.217 23.9319 135.185 23.7501C135.13 23.5776 135.13 23.3925 135.185 23.2201C135.255 23.0525 135.373 22.9098 135.525 22.8101C135.677 22.7025 135.859 22.6464 136.045 22.6501C136.289 22.6501 136.523 22.747 136.695 22.9195C136.868 23.0921 136.965 23.3261 136.965 23.5701H137.015Z" fill="#FED546"/>
<path d="M137.015 23.5701C137.017 23.7559 136.961 23.9377 136.855 24.0901C136.755 24.2418 136.612 24.3602 136.445 24.4301C136.278 24.5011 136.092 24.5185 135.915 24.4801C135.733 24.448 135.565 24.3607 135.435 24.2301C135.304 24.0996 135.217 23.9319 135.185 23.7501C135.13 23.5776 135.13 23.3925 135.185 23.2201C135.255 23.0525 135.373 22.9098 135.525 22.8101C135.677 22.7025 135.859 22.6464 136.045 22.6501C136.289 22.6501 136.523 22.747 136.695 22.9195C136.868 23.0921 136.965 23.3261 136.965 23.5701H137.015Z" fill="white"/>
<path d="M139.935 40.87H132.255V39.2C132.255 39.0776 132.302 38.9599 132.385 38.87C132.472 38.7815 132.591 38.7312 132.715 38.73H139.465C139.589 38.7325 139.707 38.7829 139.794 38.8705C139.882 38.9581 139.932 39.0761 139.935 39.2V40.87Z" fill="white"/>
<path d="M142.265 42.4599H129.925C129.716 42.4564 129.516 42.3743 129.365 42.2299C129.214 42.0785 129.127 41.8739 129.125 41.6599C129.128 41.4489 129.214 41.2476 129.365 41.0999C129.439 41.0266 129.526 40.9686 129.622 40.9291C129.718 40.8896 129.821 40.8695 129.925 40.8699H142.265C142.369 40.8699 142.471 40.8903 142.567 40.93C142.663 40.9697 142.75 41.0279 142.823 41.1013C142.897 41.1746 142.955 41.2617 142.995 41.3576C143.034 41.4534 143.055 41.5561 143.055 41.6599C143.056 41.8727 142.973 42.0775 142.825 42.2299C142.674 42.3743 142.474 42.4564 142.265 42.4599Z" fill="white"/>
<path d="M139.935 39.28H132.255V39.8H139.935V39.28Z" fill="white"/>
<path d="M137.145 24.4799C137.145 24.5807 137.105 24.6775 137.035 24.7499C136.964 24.8228 136.867 24.8658 136.765 24.8699H135.425C135.323 24.8658 135.226 24.8228 135.155 24.7499C135.085 24.6775 135.045 24.5807 135.045 24.4799C135.045 24.3791 135.085 24.2824 135.156 24.2112C135.227 24.1399 135.324 24.0999 135.425 24.0999H136.765C136.866 24.0999 136.962 24.1399 137.034 24.2112C137.105 24.2824 137.145 24.3791 137.145 24.4799Z" fill="white"/>
<path d="M158.905 135.54H204.635L211.945 200.37H158.945L158.905 135.54Z" fill="#535565"/>
<path d="M179.265 170.5L183.765 197L180.765 197.5L179.265 170.5Z" fill="black" fill-opacity="0.25"/>
<path d="M166.645 45.5201C175.345 50.1001 181.725 43.7801 184.645 44.9401C187.565 46.1001 187.155 48.6501 187.355 49.9401V50.0701C187.635 51.9701 187.575 53.8701 187.885 55.7701C188.241 58.2199 188.913 60.6132 189.885 62.8901C190.465 64.6301 191.105 68.1501 191.625 67.5301C191.795 67.2701 193.375 60.2901 193.365 59.9901C194.365 55.6501 195.105 54.2801 195.095 49.5501C195.118 47.993 194.977 46.4378 194.675 44.9101C194.264 43.6746 193.682 42.5031 192.945 41.4301C191.435 39.6901 189.735 38.5301 185.295 36.7901C182.285 35.6601 163.765 35.6601 166.645 45.5201Z" fill="#535565"/>
<path d="M156.975 180.51C156.975 180.51 152.635 176.79 152.205 173.98C151.775 171.17 157.415 125.98 157.415 125.98L160.295 88.6C160.295 89.26 160.125 83.84 160.995 83.52C163.635 82.52 169.125 80.77 169.125 80.77L172.225 78C172.225 78 167.225 101.82 166.145 108.3L163.765 145.41L163.175 163.68L156.975 180.51Z" fill="url(#paint0_linear)"/>
<path d="M193.555 75.6199L198.145 78.7299L215.355 85.6299L207.705 115L208.705 132.07L209.705 142.91C209.705 142.91 214.825 169.73 219.355 186.03C219.355 186.03 214.355 195.78 210.155 197.14L208.425 198.14L202.275 152.23L197.005 145C196.495 144.3 196.005 143.58 195.575 142.84C194.285 140.69 191.325 135.84 188.965 132.02C185.855 127.02 181.855 115.71 183.035 110.87C184.215 106.03 193.555 75.6199 193.555 75.6199Z" fill="url(#paint1_linear)"/>
<path d="M193.615 76.1899L189.425 103.19C189.536 106.643 190.104 110.066 191.115 113.37L198.585 137.68C198.585 137.68 204.465 150.93 202.435 152.62C200.405 154.31 184.605 152.62 184.605 152.62L163.225 149.5C162.747 149.431 162.313 149.18 162.015 148.8C161.713 148.418 161.573 147.934 161.625 147.45L164.795 114.45C165.865 112.17 166.305 107.51 166.795 105.85L172.075 77.5999L174.725 78.5999L177.655 80.5999L179.195 80.7199L192.135 74.4199L193.615 76.1899Z" fill="#F9FBFF"/>
<path d="M176.295 83.8699H178.605L179.285 87.8699L177.285 90.9499L175.285 90.6999L174.615 87.8299L175.165 86.2399L176.295 83.8699Z" fill="#F8CA57"/>
<path d="M235.035 138.4C235.668 136.832 235.945 135.143 235.844 133.455C235.744 131.767 235.269 130.122 234.455 128.64C232.235 124.47 228.725 117.73 227.995 115.52C226.905 112.23 216.995 86.28 214.995 85.52L205.815 114.81L216.125 135.51L204.045 157.2L214.105 167.55C214.105 167.55 233.165 142.22 234.765 139.09C234.835 138.86 234.945 138.63 235.035 138.4Z" fill="url(#paint2_linear)"/>
<path d="M204.415 174.62C202.672 172.965 201.128 171.113 199.815 169.1C199.821 169.074 199.821 169.046 199.815 169.02C199.82 168.99 199.82 168.96 199.815 168.93L199.735 168.85H199.635C199.105 168.017 198.621 167.156 198.185 166.27C199.725 165.27 201.735 163.74 199.545 163.4C196.855 163.01 194.935 161.68 194.665 160.95C194.613 160.778 194.617 160.594 194.677 160.425C194.736 160.255 194.848 160.109 194.995 160.007C195.143 159.904 195.319 159.852 195.499 159.856C195.678 159.86 195.852 159.921 195.995 160.03C196.804 160.461 197.674 160.768 198.575 160.94C199.294 161.117 200.039 161.164 200.775 161.08C201.625 160.99 205.125 159.44 205.775 159.33L212.325 166.33C212.325 166.33 207.265 171.76 204.415 174.62Z" fill="#FFC9BF"/>
<path d="M151.005 108.62C151.09 108.615 151.174 108.598 151.255 108.57C151.479 108.499 151.696 108.409 151.905 108.3C152.649 107.904 153.287 107.335 153.765 106.64C154.395 105.659 154.843 104.571 155.085 103.43C155.464 102.074 155.754 100.694 155.955 99.3001C156.265 96.3001 156.515 93.6701 156.685 91.7301C156.765 90.8101 156.815 90.0401 156.875 89.4301C156.905 89.1475 156.905 88.8626 156.875 88.5801C156.79 88.8535 156.733 89.135 156.705 89.4201C156.635 90.0601 156.535 90.7901 156.415 91.7101C156.175 93.6301 155.875 96.3201 155.575 99.2601C155.37 100.641 155.089 102.01 154.735 103.36C154.519 104.492 154.11 105.578 153.525 106.57C153.085 107.246 152.501 107.817 151.815 108.24C151.536 108.346 151.265 108.473 151.005 108.62Z" fill="#263238"/>
<g opacity="0.3">
<path opacity="0.3" d="M156.685 88.28C157.476 91.2913 158.024 94.3611 158.325 97.46C158.602 99.3069 158.507 101.191 158.045 103C157.796 103.903 157.331 104.732 156.689 105.415C156.048 106.098 155.25 106.614 154.365 106.92C155.185 100.86 155.908 94.79 156.535 88.71" fill="black"/>
</g>
<g opacity="0.3">
<path opacity="0.3" d="M210.155 147C210.155 147 206.025 155.34 204.335 158.62C200.805 144.05 206.335 126.62 204.895 111.73L207.445 116.87L208.155 128.76L208.705 135.76C208.954 139.533 209.439 143.287 210.155 147Z" fill="black" fill-opacity="0.1"/>
<path opacity="0.3" d="M158.515 155.71C157.515 153.2 155.515 147.94 155.035 147.01L157.355 126.13L158.515 155.71Z" fill="black" fill-opacity="0.1"/>
</g>
<path d="M134.015 137.06C133.485 135.692 133.256 134.225 133.345 132.76C133.428 131.29 133.823 129.855 134.505 128.55C136.355 124.92 138.095 121.71 139.995 118.03C141.415 115.26 155.495 85.03 160.995 84.03L158.495 116.53L149.015 136.47L161.495 154.53L151.065 164.53C151.065 164.53 135.585 140.41 134.275 137.68C134.185 137.46 134.095 137.26 134.015 137.06Z" fill="url(#paint3_linear)"/>
<path d="M161.765 170.14C163.429 168.676 164.916 167.021 166.195 165.21C166.186 165.187 166.186 165.163 166.195 165.14C166.186 165.114 166.186 165.086 166.195 165.06C166.213 165.032 166.237 165.008 166.265 164.99C166.301 164.98 166.339 164.98 166.375 164.99C166.878 164.248 167.342 163.481 167.765 162.69C166.285 161.78 164.345 160.43 166.445 160.12C169.045 159.77 170.895 158.58 171.165 157.93C171.435 157.28 170.555 156.7 169.875 157.11C169.086 157.495 168.248 157.771 167.385 157.93C166.689 158.08 165.974 158.12 165.265 158.05C164.445 157.97 160.435 156.13 159.845 156.05L153.525 162.31C153.525 162.31 158.985 167.59 161.765 170.14Z" fill="#FFC9BF"/>
<path d="M195.765 162.84C195.827 163.04 195.914 163.232 196.025 163.41C196.205 163.76 196.475 164.26 196.815 164.88C197.505 166.1 198.505 167.77 199.635 169.57C200.765 171.37 201.855 172.94 202.635 174.05C203.035 174.61 203.365 175.05 203.635 175.35C203.743 175.518 203.874 175.669 204.025 175.8C203.66 175.138 203.26 174.497 202.825 173.88C202.065 172.73 201.015 171.1 199.825 169.34C198.635 167.58 197.675 165.91 196.945 164.72C196.592 164.069 196.198 163.441 195.765 162.84Z" fill="#455A64"/>
<path d="M192.765 80.8899C192.368 81.0611 191.98 81.2547 191.605 81.4699L190.525 82.1999C188.705 83.3899 186.165 84.9699 183.255 86.5399C182.307 87.0067 181.328 87.4077 180.325 87.7399L180.585 87.8499C180.005 86.1099 179.815 85.7599 179.425 84.3699L178.605 81.5699L178.265 80.8899C178.265 80.8899 178.175 80.8899 178.265 81.0399C178.365 81.4899 178.495 82.0399 178.635 82.6999C178.975 84.0799 179.265 86.9999 179.885 89.2999L179.935 89.4999L180.145 89.4099C181.145 88.9199 183.005 87.8699 184.145 87.2699C186.56 85.8582 188.897 84.3159 191.145 82.6499L191.725 82.0499C192.095 81.6849 192.442 81.2975 192.765 80.8899Z" fill="#EAEAEA"/>
<path d="M171.035 85.2699C171.895 86.0299 173.035 87.8999 173.965 88.4999L174.105 88.5999L174.175 88.4299L175.335 84.9999C175.945 83.6399 176.115 82.9999 176.495 82.0999C176.691 81.5403 176.838 80.9648 176.935 80.3799C176.631 80.8298 176.373 81.3089 176.165 81.8099C175.725 82.6999 175.165 83.9499 174.495 85.3399L173.675 87.1699L173.875 87.0999C172.98 86.4126 172.03 85.8005 171.035 85.2699Z" fill="#EAEAEA"/>
<path d="M176.565 90.9399C177.265 97.8399 177.775 112.85 177.975 119.81C178.135 125.63 178.115 131.45 178.105 137.27C178.222 139.138 177.999 141.012 177.445 142.8C176.325 145.87 173.565 147.45 171.045 148.69L176.565 90.9399Z" fill="#E4F0FF"/>
<path d="M170.765 146.75L167.495 138L174.995 89.25H178.105C178.105 89.25 177.775 140.18 177.885 140.64L170.765 146.75Z" fill="#F8CA57"/>
<path d="M187.875 55.51C187.965 55.51 191.305 54.51 191.075 58.27C190.845 62.03 187.515 60.99 187.515 60.88C187.515 60.77 187.875 55.51 187.875 55.51Z" fill="#FFC9BF"/>
<path opacity="0.6" d="M10.0449 166.73H141.665V192.84C141.692 195.268 141.461 197.691 140.975 200.07C140.535 201.99 139.975 203.07 139.315 203.07H12.3949C11.7749 203.07 11.1749 201.99 10.7349 200.07C10.2487 197.691 10.0174 195.268 10.0449 192.84V166.73Z" fill="#C2E4ED"/>
<path d="M140.875 167.74H3.07489C2.77789 167.744 2.48175 167.707 2.19489 167.63C1.92865 167.566 1.67508 167.458 1.44489 167.31C1.24458 167.193 1.07355 167.033 0.944893 166.84C0.828182 166.673 0.765375 166.474 0.764893 166.27C0.786174 166.06 0.859498 165.858 0.97823 165.684C1.09696 165.509 1.25735 165.367 1.44489 165.27C1.93596 164.974 2.50163 164.825 3.07489 164.84H140.875C141.175 164.84 141.474 164.877 141.765 164.95C142.03 165.016 142.284 165.124 142.515 165.27C142.712 165.395 142.881 165.559 143.015 165.75C143.125 165.917 143.187 166.11 143.195 166.31C143.188 166.513 143.125 166.71 143.015 166.88C142.881 167.068 142.711 167.228 142.515 167.35C142.284 167.496 142.03 167.604 141.765 167.67C141.475 167.748 141.175 167.785 140.875 167.78V167.74Z" fill="#95CCE8"/>
<path opacity="0.6" d="M140.875 167.74H3.07489C2.77789 167.744 2.48175 167.707 2.19489 167.63C1.92865 167.566 1.67508 167.458 1.44489 167.31C1.24458 167.193 1.07355 167.033 0.944893 166.84C0.828182 166.673 0.765375 166.474 0.764893 166.27C0.786174 166.06 0.859498 165.858 0.97823 165.684C1.09696 165.509 1.25735 165.367 1.44489 165.27C1.93596 164.974 2.50163 164.825 3.07489 164.84H140.875C141.175 164.84 141.474 164.877 141.765 164.95C142.03 165.016 142.284 165.124 142.515 165.27C142.712 165.395 142.881 165.559 143.015 165.75C143.125 165.917 143.187 166.11 143.195 166.31C143.188 166.513 143.125 166.71 143.015 166.88C142.881 167.068 142.711 167.228 142.515 167.35C142.284 167.496 142.03 167.604 141.765 167.67C141.475 167.748 141.175 167.785 140.875 167.78V167.74Z" fill="#D5EEF4"/>
<path d="M91.4549 72.9301C88.7949 72.1201 86.0349 74.5001 83.3049 73.9301C81.6449 73.5901 80.4049 72.2701 78.9249 71.4601C77.773 70.8305 76.4908 70.4767 75.179 70.4264C73.8673 70.3761 72.5617 70.6306 71.3649 71.1701C69.1149 72.3101 67.6649 73.5301 67.3649 76.0301C65.3149 74.9001 61.9049 77.4801 60.7649 80.0001C59.6249 82.5201 59.8949 85.0601 60.5549 87.7201C61.6949 92.3201 62.6349 99.5501 65.4449 103.36C65.6949 103.7 67.1749 101.18 67.5549 101C67.6764 100.919 67.776 100.809 67.8449 100.68C67.907 100.548 67.9443 100.406 67.9549 100.26C68.1848 97.7912 68.121 95.3039 67.7649 92.8501C67.4115 90.3978 67.5681 87.899 68.2249 85.5101C68.5561 84.316 69.1906 83.228 70.0667 82.3519C70.9429 81.4757 72.0309 80.8412 73.2249 80.5101C75.047 80.2574 76.8997 80.6577 78.4549 81.6401C80.0349 82.5301 81.4549 83.7201 82.9549 84.7401C84.4096 85.8474 86.1378 86.5387 87.9549 86.7401C88.8665 86.8138 89.78 86.624 90.5867 86.1931C91.3934 85.7623 92.0593 85.1087 92.5049 84.3101C93.2849 82.6601 92.4149 80.3101 90.6349 79.9401C91.4572 79.8648 92.2295 79.5121 92.8249 78.9401C93.4167 78.3571 93.7879 77.587 93.8755 76.7609C93.963 75.9349 93.7614 75.1041 93.3049 74.4101C92.8694 73.7253 92.2186 73.2046 91.4549 72.9301Z" fill="#535565"/>
<path d="M83.2649 115.65L83.0049 110.37C84.7 109.565 86.1496 108.322 87.2043 106.77C88.2589 105.218 88.8805 103.412 89.0049 101.54C88.9249 98.1699 89.0049 91.7599 88.2749 85.4799C87.8949 82.2317 86.3045 79.246 83.8209 77.1183C81.3373 74.9906 78.143 73.8771 74.8749 73.9999H74.2049C66.9549 74.6699 63.4849 81.2199 64.3649 88.4499L66.0249 116.6C66.0882 117.727 66.3744 118.831 66.867 119.847C67.3596 120.864 68.0489 121.772 68.8949 122.52C70.1633 123.653 71.7382 124.386 73.4219 124.627C75.1057 124.868 76.823 124.607 78.3584 123.875C79.8937 123.143 81.1786 121.973 82.0516 120.514C82.9245 119.054 83.3467 117.369 83.2649 115.67V115.65Z" fill="#FFC9BF"/>
<path d="M83.0149 110.37C83.0149 110.37 77.2049 112.97 71.1349 106.9C71.1349 106.9 75.4149 113.69 83.1349 112.18L83.0149 110.37Z" fill="#F19F90" fill-opacity="0.5"/>
<path d="M86.3449 91.3299C86.3545 91.5914 86.2611 91.8464 86.0849 92.0399C85.9794 92.1593 85.8468 92.2518 85.6983 92.3097C85.5498 92.3675 85.3896 92.389 85.2311 92.3723C85.0726 92.3557 84.9203 92.3014 84.787 92.214C84.6538 92.1266 84.5433 92.0086 84.4649 91.8699C84.403 91.7591 84.3655 91.6363 84.3549 91.5099C84.3426 91.2497 84.4323 90.995 84.6049 90.7999C84.7772 90.6075 85.0173 90.4892 85.2749 90.4699C85.4004 90.4456 85.5294 90.4456 85.6549 90.4699C85.7778 90.5096 85.8929 90.5705 85.9949 90.6499C86.0905 90.7324 86.1717 90.8305 86.2349 90.9399C86.2911 91.053 86.3282 91.1747 86.3449 91.2999V91.3299Z" fill="#3A3F5A"/>
<path d="M87.9049 91.0001C87.7749 91.1701 86.9049 90.4901 85.7749 90.5401C84.6449 90.5901 83.7749 91.3201 83.6549 91.1501C83.5349 90.9801 83.7149 90.7801 84.0749 90.4401C84.5446 90.0201 85.1455 89.7763 85.7749 89.7501C86.3923 89.7252 86.9973 89.9281 87.4749 90.3201C87.8449 90.6301 87.9749 90.9201 87.9049 91.0001Z" fill="#3A3F5A"/>
<path d="M75.6748 91.3299C75.6872 91.5901 75.5975 91.8448 75.4248 92.0399C75.2501 92.2346 75.0059 92.3531 74.7448 92.3699C74.6233 92.3996 74.4964 92.3996 74.3748 92.3699C74.2519 92.3302 74.1368 92.2692 74.0348 92.1899C73.9372 92.1093 73.8558 92.0109 73.7948 91.8999C73.7329 91.7891 73.6954 91.6664 73.6848 91.5399C73.6725 91.2797 73.7622 91.025 73.9348 90.8299C74.1096 90.6352 74.3537 90.5167 74.6148 90.4999C74.7403 90.4756 74.8693 90.4756 74.9948 90.4999C75.1147 90.5398 75.2264 90.6007 75.3248 90.6799C75.4225 90.7605 75.5039 90.8589 75.5648 90.9699C75.6254 91.0813 75.6628 91.2037 75.6748 91.3299Z" fill="#3A3F5A"/>
<path d="M77.0449 90.9999C76.8949 91.1699 75.9149 90.4899 74.5649 90.5399C73.2149 90.5899 72.2349 91.3199 72.0849 91.1499C71.9349 90.9799 72.1549 90.7799 72.5749 90.4399C73.1541 90.0085 73.8529 89.7674 74.5749 89.7499C75.2857 89.7179 75.9877 89.918 76.5749 90.3199C76.9749 90.6299 77.1249 90.9299 77.0449 90.9999Z" fill="#3A3F5A"/>
<path d="M81.5949 98.67C82.1573 98.4875 82.7371 98.3635 83.3249 98.3C83.6049 98.3 83.8549 98.2 83.8949 98.01C83.9061 97.7253 83.833 97.4435 83.6849 97.2C83.4049 96.54 83.1149 95.85 82.8049 95.2C82.0026 93.4532 81.3341 91.648 80.8049 89.8C81.7501 91.4669 82.5626 93.2056 83.2349 95C83.5249 95.72 83.8049 96.41 84.0849 97.07C84.2624 97.3967 84.3257 97.7733 84.2649 98.14C84.2263 98.2372 84.1685 98.3257 84.0949 98.4C84.0174 98.4721 83.9253 98.5266 83.8249 98.56C83.6756 98.606 83.521 98.6329 83.3649 98.64C82.7788 98.7281 82.1837 98.7381 81.5949 98.67Z" fill="#F19F90"/>
<path d="M77.0549 87.5499C76.9249 87.8299 75.7349 87.6299 74.3149 87.6999C72.8949 87.7699 71.7349 88.0599 71.5649 87.7899C71.3949 87.5199 71.7049 87.3999 72.1749 87.1399C72.8189 86.8263 73.5196 86.6461 74.2349 86.6099C74.9582 86.5794 75.6799 86.6986 76.3549 86.9599C76.8649 87.1699 77.1149 87.4099 77.0549 87.5499Z" fill="#3A3F5A"/>
<path d="M88.0049 87.5301C87.7349 87.7901 86.7349 87.5301 85.5249 87.6101C84.3149 87.6901 83.2649 87.8701 83.0449 87.6101C82.8249 87.3501 83.1149 87.2401 83.5749 86.9801C84.2003 86.6798 84.8814 86.5129 85.5749 86.4901C86.2647 86.4654 86.9504 86.606 87.5749 86.9001C87.9849 87.1501 88.1149 87.4001 88.0049 87.5301Z" fill="#3A3F5A"/>
<path d="M65.4049 92C65.3249 92 61.9849 91 62.2049 94.76C62.4249 98.52 65.7649 97.51 65.7649 97.4C65.7649 97.29 65.4049 92 65.4049 92Z" fill="#FFC9BF"/>
<path d="M89.6949 84C88.167 84.4527 86.5531 84.5337 84.9875 84.2363C83.422 83.9388 81.9503 83.2715 80.6949 82.29C78.9449 80.91 77.5549 78.89 75.4049 78.29C74.6732 78.1202 73.9147 78.0997 73.1749 78.2301C72.4314 78.3588 71.7209 78.6341 71.0849 79.04C69.8204 79.8529 68.7377 80.9186 67.9049 82.17C69.3749 85.68 68.6149 89.67 67.8249 93.39C67.774 93.8089 67.592 94.2009 67.3049 94.51C66.7549 94.97 65.8949 94.6501 65.3849 94.1601C64.6278 93.2958 64.141 92.2283 63.9849 91.09C63.3946 88.5406 63.3198 85.8988 63.7649 83.32C64.2173 80.7407 65.4129 78.3496 67.2049 76.4401C69.5424 74.1294 72.6882 72.8202 75.9749 72.79C79.2523 72.7713 82.4516 73.7899 85.1149 75.7C86.3694 76.5258 87.4 77.6492 88.1149 78.97" fill="#535565"/>
<path d="M82.5349 101.53C82.5818 101.998 82.5582 102.47 82.4649 102.93C82.4155 103.157 82.3202 103.371 82.1849 103.56C82.0477 103.749 81.8743 103.909 81.6749 104.03C81.4465 104.134 81.1945 104.176 80.9449 104.15C80.6956 104.135 80.4545 104.056 80.2449 103.92C79.831 103.637 79.5163 103.231 79.3449 102.76C79.1849 102.34 79.1549 101.76 79.5349 101.54C79.7017 101.454 79.887 101.409 80.0749 101.41L82.6149 101.33" fill="white"/>
<path d="M64.6948 115.1L65.6948 112.43L74.2748 121.69L83.2148 111.89L85.6048 115.19C85.6048 115.19 88.2448 128.07 88.0048 128.31C87.7648 128.55 75.2348 136.31 75.2348 136.31L64.8348 135.94L57.8348 122.58L64.6948 115.1Z" fill="white"/>
<path d="M26.3148 162.06L26.2148 144.13C26.2148 144.13 36.6548 128.46 38.6048 126.51C41.3548 123.76 43.2148 121.85 44.4648 120.87C44.8341 120.578 45.2944 120.426 45.7648 120.44C46.2216 120.435 46.6663 120.587 47.0248 120.87L64.9148 114.65C64.9148 114.65 62.1748 119.15 66.3148 124.74C68.9527 128.373 71.3287 132.189 73.4248 136.16C73.4248 136.16 77.6548 129.24 79.2848 127.86C80.9148 126.48 86.5748 117.21 85.2848 114.45L100.125 120.89C100.125 120.89 100.835 119.82 101.735 120.26C102.635 120.7 109.335 123.49 111.935 128.41C114.535 133.33 127.545 152.26 127.545 152.26L113.285 164.71L26.3148 162.06Z" fill="#535565"/>
<path d="M99.9549 154.12C99.9222 154.059 99.8955 153.996 99.8749 153.93C99.8749 153.79 99.7649 153.62 99.6949 153.4C99.5449 152.93 99.3349 152.25 99.0949 151.4C98.6249 149.7 98.0249 147.4 97.4549 144.72C96.8849 142.04 96.4549 139.72 96.2349 137.96C96.1249 137.09 96.0649 136.38 96.0349 135.88V135.12C96.0349 134.98 96.2349 134.79 96.2349 134.86C96.2349 134.93 96.4849 135.6 96.4949 135.86C96.5449 136.35 96.7249 137.14 96.8549 138C97.1049 139.74 98.0749 142.13 98.6449 144.75C99.2149 147.37 99.6449 149.88 100.075 151.58C100.295 152.41 100.295 152.94 100.425 153.42C100.485 153.64 100.745 154.65 100.785 154.79C100.825 154.93 99.9449 154.05 99.9549 154.12Z" fill="#0F1015" fill-opacity="0.4"/>
<path d="M48.0249 152.6C48.0557 152.542 48.0825 152.482 48.1049 152.42C48.1583 152.28 48.2183 152.1 48.2849 151.88C48.4349 151.41 48.6449 150.73 48.8849 149.88C49.3549 148.19 49.9549 145.88 50.5249 143.21C51.0949 140.54 51.5249 138.21 51.7449 136.44C51.8549 135.57 51.9149 134.86 51.9449 134.37V133.6C51.9449 133.46 51.7449 133.28 51.7449 133.34C51.7449 133.4 51.4949 134.08 51.4849 134.34C51.4349 134.83 51.2449 135.62 51.1249 136.48C50.8749 138.23 49.9049 140.62 49.3349 143.24C48.7649 145.86 48.3349 148.37 47.9049 150.06C47.6849 150.89 47.6849 151.42 47.5549 151.9C47.4949 152.12 47.2349 153.14 47.1949 153.28C47.1549 153.42 48.0349 152.53 48.0249 152.6Z" fill="black" fill-opacity="0.4"/>
<path d="M28.2049 143.21C27.0728 143.653 26.0496 144.335 25.2049 145.21C23.3199 147.736 21.6061 150.385 20.0749 153.14C20.0749 153.14 19.0749 164.83 19.4449 164.74C19.8149 164.65 37.2549 164.74 37.2549 164.74H58.3449C58.3449 164.74 53.7649 154.58 45.9249 152.7L40.3549 151.61C40.3549 151.61 39.8749 149.2 39.2449 149.11C38.6149 149.02 28.2049 143.21 28.2049 143.21Z" fill="#535565"/>
<path d="M101.995 153.48C102.212 153.19 102.492 152.954 102.815 152.79C103.123 152.625 103.466 152.536 103.815 152.53C105.035 152.53 109.535 152.1 109.535 152.1C109.535 152.1 112.855 149.49 114.535 148.97C114.585 148.415 114.782 147.884 115.105 147.43C115.421 146.969 115.857 146.603 116.365 146.37C118.534 145.705 120.766 145.266 123.025 145.06C123.236 145.031 123.451 145.048 123.655 145.11C123.861 145.167 124.053 145.27 124.215 145.41C127.319 147.964 130.109 150.877 132.525 154.09C135.065 157.87 132.855 164.09 130.865 164.77H100.865L101.995 153.48Z" fill="#535565"/>
<g opacity="0.3">
<path opacity="0.3" d="M30.4348 144.45C33.1448 144.6 35.5848 144.86 37.8348 146.37C38.5036 146.91 39.2198 147.389 39.9748 147.8C40.7648 148.15 41.6348 148.22 42.4648 148.5C43.8656 149.123 45.1017 150.065 46.0748 151.25C46.4048 151.58 48.7348 153.52 48.5448 153.67C48.3548 153.82 45.8848 152.61 45.6648 152.57L42.3048 152.06C41.4457 152.04 40.6295 151.68 40.0348 151.06C39.7748 150.69 39.6748 150.23 39.4348 149.85C39.0393 149.338 38.5146 148.941 37.9148 148.7C35.1948 147.32 33.1548 145.83 30.4348 144.44" fill="#40455B"/>
</g>
<g opacity="0.3">
<path opacity="0.3" d="M103.605 152.54C104.395 151.711 105.463 151.202 106.605 151.11C107.465 151.164 108.327 151.052 109.145 150.78C110.275 150.25 110.805 148.96 111.585 147.98C112.701 146.701 114.204 145.82 115.865 145.47C117.495 145.07 120.645 144.11 123.015 145.55C123.015 145.55 119.865 145.29 119.155 145.37C118.449 145.489 117.754 145.663 117.075 145.89C116.32 146.132 115.647 146.579 115.132 147.181C114.616 147.783 114.278 148.517 114.155 149.3V149.38C112.573 150.184 111.046 151.093 109.585 152.1C109.525 152.1 105.585 152.51 103.585 152.55" fill="#40455B"/>
</g>
<g opacity="0.3">
<path opacity="0.3" d="M58.0849 164.21C58.1741 164.384 58.2285 164.575 58.2449 164.77H45.0049C44.3768 164.784 43.7594 164.606 43.2349 164.26C42.9674 163.986 42.7627 163.657 42.6349 163.296C42.5071 162.935 42.4594 162.551 42.4949 162.17C42.5135 160.426 43.0267 158.723 43.9749 157.26C44.9228 155.793 46.2733 154.63 47.8649 153.91C47.8649 153.91 48.3049 153.24 49.5249 154.24C50.7449 155.24 58.0849 164.21 58.0849 164.21Z" fill="black"/>
</g>
<path d="M48.295 153.67L48.105 153.58L47.555 153.31C46.8871 152.971 46.1825 152.709 45.455 152.53C44.535 152.3 43.455 152.23 42.165 152.05C41.8434 151.987 41.5261 151.903 41.215 151.8C40.8864 151.706 40.5681 151.578 40.265 151.42C39.9796 151.193 39.7617 150.892 39.635 150.55C39.5017 150.228 39.3376 149.92 39.145 149.63L32.765 145.89L30.835 144.74L30.305 144.41L30.135 144.29C30.2027 144.31 30.2669 144.34 30.325 144.38L31.245 144.6L33.245 145.7L39.665 149.42C39.875 149.71 39.665 150.11 39.795 150.42C39.925 150.73 40.495 150.94 40.795 151.15C41.0877 151.298 41.3921 151.422 41.705 151.52C42.0099 151.619 42.3205 151.699 42.635 151.76C43.865 151.95 45.005 152.04 45.925 152.28C46.6551 152.478 47.3598 152.76 48.025 153.12C48.265 153.24 48.025 153.42 48.175 153.49C48.2235 153.544 48.2639 153.605 48.295 153.67Z" fill="black" fill-opacity="0.4"/>
<g opacity="0.3">
<path opacity="0.3" d="M105.085 164.86C105.549 164.287 105.867 163.61 106.012 162.887C106.156 162.164 106.123 161.417 105.915 160.71C105.475 158.079 104.043 155.718 101.915 154.11L100.815 164.77L105.085 164.86Z" fill="black"/>
</g>
<path d="M120.075 148.7C120.075 148.7 118.275 148.64 117.785 148.64C117.111 148.671 116.441 148.765 115.785 148.92C114.792 149.158 113.843 149.553 112.975 150.09C112.485 150.38 111.975 150.75 111.475 151.09C110.943 151.48 110.357 151.79 109.735 152.01C108.513 152.338 107.25 152.489 105.985 152.46C104.97 152.453 103.96 152.591 102.985 152.87C102.322 153.06 101.712 153.403 101.205 153.87C101.025 154.045 100.858 154.232 100.705 154.43C100.728 154.368 100.762 154.311 100.805 154.26C100.905 154.098 101.026 153.95 101.165 153.82C101.665 153.328 102.275 152.961 102.945 152.75C103.945 152.45 104.835 151.53 105.865 151.53C107.073 151.555 108.279 151.407 109.445 151.09C110.701 150.476 111.894 149.739 113.005 148.89C113.87 148.444 114.802 148.143 115.765 148C116.496 147.919 117.234 147.919 117.965 148C118.155 148 119.205 148.33 119.395 148.35C119.585 148.37 120.015 148.68 120.075 148.7Z" fill="#020202" fill-opacity="0.4"/>
<path d="M123.235 145.58C123.089 145.6 122.941 145.6 122.795 145.58L121.635 145.47C120.359 145.336 119.07 145.424 117.825 145.73C116.591 146.058 115.51 146.803 114.765 147.84C114.482 148.288 114.27 148.777 114.135 149.29C114.135 149.29 114.005 149.13 114.005 149.06C114.012 148.94 114.012 148.82 114.005 148.7C113.958 148.332 114.024 147.959 114.195 147.63C114.867 146.468 115.93 145.582 117.195 145.13C118.669 144.949 120.162 145.013 121.615 145.32C122.105 145.38 122.505 145.44 122.775 145.49C122.931 145.502 123.085 145.532 123.235 145.58Z" fill="#020202" fill-opacity="0.4"/>
<path d="M65.6949 112.43C65.7528 112.471 65.8064 112.518 65.8549 112.57L66.2849 113.01L67.8549 114.64L72.9649 120.06L74.2049 121.39L74.3449 121.53H74.1449C73.1084 121.525 72.0837 121.751 71.1449 122.19C70.2807 122.628 69.5333 123.265 68.9649 124.05C68.5377 124.851 68.1797 125.688 67.8949 126.55C67.7149 126.94 67.5349 126.24 67.5249 126.23C67.5201 126.173 67.5201 126.116 67.5249 126.06C67.5749 125.9 67.6349 125.75 67.6949 125.6C67.9264 125.027 68.236 124.488 68.6149 124C69.2644 123.17 70.0949 122.501 71.0429 122.041C71.991 121.582 73.0315 121.345 74.0849 121.35L74.0249 121.49L72.7849 120.16L67.7649 114.7L66.2349 113L65.8249 112.54C65.7783 112.507 65.7348 112.47 65.6949 112.43Z" fill="#D5E2E8"/>
<path d="M69.1549 123.55L71.4449 128H75.6749L78.1149 124.68C77.4525 123.636 76.6631 122.679 75.7649 121.83L72.7049 121.61C71.3515 121.88 70.1129 122.556 69.1549 123.55Z" fill="#95E78C"/>
<path d="M71.4449 128L70.3749 130.68C70.3749 130.68 73.3049 136.42 73.4549 136.16C73.6049 135.9 77.1149 130.46 77.1149 130.46L75.6649 128H71.4449Z" fill="#95E78C"/>
<path d="M83.2149 111.89C83.2149 111.89 83.2149 111.89 83.2149 111.95L83.0949 112.09L82.6049 112.65L80.7649 114.71L74.3949 121.71L74.3049 121.57C74.6706 121.463 75.0592 121.463 75.4249 121.57C75.7882 121.713 76.111 121.943 76.3649 122.24C76.9033 122.766 77.3736 123.357 77.7649 124C78.3836 125.02 78.7853 126.157 78.9449 127.34H78.8049C80.1911 126.059 81.4411 124.638 82.5349 123.1C82.9951 122.459 83.4159 121.792 83.7949 121.1C84.1167 120.485 84.4006 119.85 84.6449 119.2C84.9944 118.27 85.2556 117.309 85.4249 116.33C85.4949 116 85.5149 115.72 85.5549 115.54C85.5475 115.47 85.5475 115.4 85.5549 115.33C85.5631 115.4 85.5631 115.47 85.5549 115.54C85.5549 115.72 85.5549 115.99 85.4649 116.34C85.314 117.329 85.0662 118.3 84.7249 119.24C84.4861 119.897 84.2055 120.538 83.8849 121.16C83.5127 121.879 83.0952 122.574 82.6349 123.24C81.6868 124.838 80.5741 126.333 79.3149 127.7L78.6049 128.42L78.4449 127.42C78.3929 126.297 78.0996 125.199 77.5849 124.2C77.1845 123.549 76.7003 122.954 76.1449 122.43C75.9105 122.157 75.6113 121.947 75.2749 121.82C74.9477 121.729 74.602 121.729 74.2749 121.82L73.9949 121.9L74.1949 121.69L80.6249 114.69L82.5049 112.69L83.0149 112.15L83.1549 112.01C83.2149 111.91 83.2149 111.89 83.2149 111.89Z" fill="#D5E2E8"/>
<path d="M57.0549 152L56.6149 141.28L56.9449 138.87C56.9449 138.87 60.4449 139.78 70.3849 139.78C77.9281 139.723 85.45 138.969 92.8549 137.53L93.8549 139.53L90.3549 164.76H58.4749L57.0549 152Z" fill="white"/>
<path d="M48.1649 153.68L52.7649 154.21L54.5049 151.79L56.8949 150.32L57.0449 152.63C58.0492 153.029 59.0779 153.363 60.1249 153.63C61.2484 153.73 62.3453 154.028 63.3649 154.51C63.8649 154.89 63.8549 156.09 63.1649 156.3L61.4749 156.67C61.4749 156.67 67.2949 156.96 67.7849 157C68.9749 157.07 69.5349 157.81 69.1849 158.66C68.9749 159.19 68.1349 159.37 67.8549 159.48L67.5949 159.58C67.5949 159.58 68.8249 159.82 68.8649 160.58C68.886 160.726 68.8762 160.875 68.8362 161.018C68.7963 161.16 68.727 161.293 68.6328 161.406C68.5386 161.52 68.4217 161.613 68.2894 161.679C68.1572 161.746 68.0126 161.783 67.8649 161.79C67.5349 161.86 67.3849 161.86 66.1649 162.02C64.9449 162.18 63.1649 162.23 63.1649 162.23C63.2375 162.29 63.2956 162.365 63.3349 162.45C63.3808 162.53 63.4081 162.618 63.4149 162.71C63.4302 162.803 63.4302 162.897 63.4149 162.99C63.3843 163.078 63.3367 163.16 63.2749 163.23C62.8449 163.75 59.5649 163.93 59.5649 163.93L56.8049 164.5C55.1485 164.843 53.4342 164.784 51.8049 164.33L49.5449 163.24L42.5449 162.74C42.5269 161.358 42.7642 159.985 43.2449 158.69C44.1805 156.45 45.9423 154.656 48.1649 153.68Z" fill="#FFC9BF"/>
<path d="M62.1748 156.71C61.5752 156.878 60.9573 156.972 60.3348 156.99C59.7148 157.08 59.0849 157.08 58.4648 156.99C59.0748 156.9 59.6948 156.85 60.3148 156.82C60.9318 156.743 61.5531 156.707 62.1748 156.71Z" fill="#F19F90" fill-opacity="0.5"/>
<path d="M67.2549 159.87C66.8819 159.895 66.5078 159.895 66.1349 159.87C65.4449 159.87 64.4749 159.87 63.4249 159.8C62.3749 159.73 61.4249 159.73 60.7249 159.69C60.3489 159.688 59.9739 159.652 59.6049 159.58C59.9778 159.555 60.3519 159.555 60.7249 159.58C61.4249 159.58 62.3849 159.58 63.4349 159.65L66.1349 159.77C66.5105 159.768 66.8855 159.802 67.2549 159.87Z" fill="#F19F90" fill-opacity="0.5"/>
<path d="M63.7649 162.48C63.4592 162.515 63.1505 162.515 62.8449 162.48C62.2849 162.48 61.4949 162.48 60.6349 162.41L58.4149 162.28C58.1066 162.278 57.7989 162.251 57.4949 162.2C57.8008 162.17 58.1089 162.17 58.4149 162.2C58.9849 162.2 59.7749 162.2 60.6449 162.27L62.8549 162.4C63.1599 162.402 63.4642 162.429 63.7649 162.48Z" fill="#F19F90" fill-opacity="0.5"/>
<path d="M86.415 156.34C86.415 156.34 85.8849 154.97 87.0249 154.58L92.1849 152.76L92.255 151.76L94.625 152.01C95.1552 151.682 95.727 151.426 96.325 151.25C97.065 151.1 97.5149 151.16 98.195 152.12C98.9083 153.01 99.6872 153.846 100.525 154.62L102.725 154.84C104.176 156.171 105.217 157.888 105.725 159.79C105.883 160.729 105.977 161.678 106.005 162.63C105.675 163.32 104.415 163.58 102.805 163.63H100.935C100.921 163.9 100.814 164.156 100.631 164.355C100.449 164.554 100.202 164.683 99.9349 164.72C99.1849 164.83 97.1049 164.59 96.5249 164.72C95.9126 164.77 95.2973 164.77 94.6849 164.72C93.1249 164.45 88.7649 164.06 88.6849 162.42L83.965 162.51C83.6667 162.524 83.3706 162.453 83.1118 162.304C82.853 162.155 82.6424 161.935 82.505 161.67C82.4482 161.583 82.4139 161.483 82.4049 161.38C82.38 161.281 82.38 161.178 82.4049 161.08C82.4556 160.952 82.5229 160.831 82.6049 160.72C82.7287 160.573 82.8821 160.454 83.055 160.37C83.2253 160.281 83.4129 160.23 83.6049 160.22L89.915 159.52C89.9782 159.473 90.0242 159.406 90.0459 159.33C90.0676 159.254 90.0638 159.173 90.035 159.1C90.0052 159.026 89.9527 158.963 89.8849 158.92C89.8139 158.884 89.7347 158.866 89.6549 158.87C87.4103 159.224 85.1461 159.442 82.875 159.52C82.6319 159.381 82.4299 159.18 82.2894 158.937C82.1489 158.695 82.0749 158.42 82.075 158.14C82.075 157.54 83.0749 157.04 84.1549 156.84C85.4249 156.61 86.415 156.34 86.415 156.34Z" fill="#FFC9BF"/>
<path d="M92.5449 155.09C92.1832 155.221 91.8122 155.325 91.4349 155.4L88.7649 156L86.0649 156.64C85.6986 156.75 85.3241 156.83 84.9449 156.88C85.0353 156.829 85.1331 156.791 85.2349 156.77C85.4149 156.7 85.6949 156.62 86.0349 156.53C86.7149 156.33 87.6649 156.09 88.7249 155.84C89.7849 155.59 90.7249 155.38 91.4349 155.24C91.8092 155.146 92.1904 155.082 92.5749 155.05L92.5449 155.09Z" fill="#F19F90" fill-opacity="0.5"/>
<path d="M94.4849 162.52C93.4494 162.643 92.4076 162.707 91.3649 162.71C90.3224 162.77 89.2773 162.77 88.2349 162.71C89.2703 162.587 90.3121 162.523 91.3549 162.52C92.3975 162.465 93.4423 162.465 94.4849 162.52Z" fill="#F19F90" fill-opacity="0.5"/>
<path d="M94.9649 152C93.7884 152.523 92.5667 152.938 91.3149 153.24C92.492 152.718 93.7136 152.303 94.9649 152Z" fill="#F19F90" fill-opacity="0.5"/>
<path d="M105.085 164.86C105.153 164.713 105.233 164.573 105.325 164.44C105.405 164.31 105.505 164.15 105.605 163.96C105.711 163.737 105.789 163.502 105.835 163.26C106.059 161.836 105.907 160.378 105.395 159.03C104.919 157.672 104.174 156.424 103.205 155.36C102.455 154.54 101.885 154.15 101.905 154.12C102.049 154.198 102.186 154.288 102.315 154.39C102.667 154.664 103.001 154.962 103.315 155.28C104.328 156.334 105.099 157.597 105.575 158.98C106.102 160.352 106.24 161.844 105.975 163.29C105.918 163.54 105.831 163.782 105.715 164.01L105.405 164.49C105.31 164.623 105.203 164.747 105.085 164.86Z" fill="#40455B"/>
<path d="M92.1749 152.76C92.1704 152.68 92.1704 152.6 92.1749 152.52C92.1749 152.36 92.1749 152.12 92.2549 151.82C92.3349 151.2 92.4448 150.3 92.5948 149.17L93.7948 139.58L93.8748 139.65C91.4248 140.17 88.6848 140.65 85.7448 141.19C84.2782 141.443 82.7582 141.673 81.1848 141.88C79.6048 142.1 77.9949 142.28 76.3449 142.37C74.4549 142.47 72.5948 142.43 70.8048 142.37C69.0148 142.31 67.2748 142.22 65.6048 142.13C62.2848 141.92 59.2348 141.68 56.6048 141.46L56.6748 141.39C56.7948 144.85 56.8948 147.66 56.9548 149.62C56.9548 150.62 57.0048 151.35 57.0248 151.88V152.66C57.0289 152.593 57.0289 152.527 57.0248 152.46C57.0248 152.33 57.0248 152.13 57.0248 151.88C57.0248 151.35 56.9648 150.59 56.9248 149.63C56.8448 147.63 56.7248 144.85 56.5948 141.4V141.32H56.6648C59.3048 141.55 62.3448 141.78 65.6648 141.99C67.3248 142.08 69.0648 142.17 70.8548 142.23C72.6448 142.29 74.5148 142.32 76.3848 142.23C78.0448 142.14 79.6348 141.95 81.2048 141.74C82.7748 141.53 84.2948 141.3 85.7648 141.05C88.7048 140.56 91.4449 140.05 93.8949 139.54H93.9949V139.64C93.4649 143.64 92.9948 146.92 92.7348 149.22C92.5748 150.37 92.4548 151.22 92.3748 151.88L92.2748 152.58L92.1749 152.76Z" fill="#D7E2E8"/>
<path d="M93.7649 139.15H93.6749L93.3949 139.21L92.3349 139.44C91.4149 139.65 90.0649 139.9 88.4049 140.19C87.5749 140.33 86.6549 140.48 85.6749 140.62C84.6949 140.76 83.6749 140.9 82.5349 141.03C80.3049 141.28 77.8649 141.49 75.2849 141.6C72.7049 141.71 70.2849 141.71 68.0149 141.65C66.9049 141.65 65.8349 141.57 64.8449 141.51L62.0949 141.3C61.2549 141.23 60.4949 141.15 59.8249 141.08L58.1149 140.88L57.0349 140.73H56.7549H56.6649H56.7649H57.0449L58.1249 140.84C58.5949 140.84 59.1249 140.96 59.8349 141.01C60.5449 141.06 61.2549 141.15 62.1049 141.21C62.9549 141.27 63.8649 141.35 64.8549 141.39L68.0249 141.52C70.2549 141.52 72.7049 141.52 75.2749 141.46C77.8449 141.4 80.2749 141.12 82.5149 140.9C83.6149 140.77 84.6749 140.65 85.6549 140.5L88.3849 140.1C90.0449 139.83 91.3849 139.59 92.3249 139.41L93.3949 139.21L93.6749 139.16L93.7649 139.15Z" fill="#D7E2E8"/>
<path d="M93.7649 138.13L93.6849 138.18L93.4249 138.29C93.1949 138.39 92.8549 138.52 92.4249 138.67C91.1604 139.106 89.8629 139.441 88.5449 139.67C86.59 139.971 84.6206 140.168 82.6449 140.26C80.4149 140.39 77.9649 140.52 75.3949 140.62C71.0022 140.822 66.6014 140.768 62.2149 140.46C60.5349 140.34 59.2149 140.18 58.2149 140.07L57.1349 139.92H56.8549H56.7549H56.8549H57.1349L58.2149 140.04C59.1549 140.13 60.5149 140.27 62.2149 140.37C66.5964 140.641 70.9894 140.678 75.3749 140.48C77.9449 140.38 80.3749 140.25 82.6249 140.15C84.5849 140.063 86.5415 139.877 88.4949 139.59C89.8086 139.386 91.1055 139.085 92.3749 138.69C92.8249 138.54 93.1749 138.43 93.3749 138.34L93.6449 138.24H93.7449L93.7649 138.13Z" fill="#D7E2E8"/>
<path d="M43.2649 164.77L43.1749 164.66C43.0969 164.555 43.0267 164.445 42.9649 164.33C42.7202 163.92 42.5509 163.47 42.4649 163C42.3398 162.282 42.3398 161.548 42.4649 160.83C42.638 159.957 42.9132 159.108 43.2849 158.3C43.9803 156.838 45.054 155.588 46.3949 154.68C46.7938 154.399 47.2152 154.151 47.6549 153.94L48.0149 153.77H48.1449C47.9974 153.87 47.8438 153.96 47.6849 154.04C47.2628 154.279 46.8554 154.542 46.4649 154.83C45.175 155.751 44.1423 156.987 43.4649 158.42C43.0979 159.216 42.8228 160.052 42.6449 160.91C42.5049 161.608 42.4846 162.325 42.5849 163.03C42.6581 163.503 42.8031 163.961 43.0149 164.39C43.1071 164.511 43.1907 164.638 43.2649 164.77Z" fill="#40455B"/>
<path d="M239.005 30H206.765C206.011 30 205.287 30.2989 204.753 30.8312C204.219 31.3636 203.918 32.0859 203.915 32.84V55.48C203.918 56.2351 204.219 56.9585 204.753 57.4924C205.286 58.0263 206.01 58.3274 206.765 58.33H239.045C239.8 58.3274 240.523 58.0263 241.057 57.4924C241.591 56.9585 241.892 56.2351 241.895 55.48V32.84C241.894 32.4632 241.818 32.0904 241.671 31.7432C241.525 31.3959 241.311 31.0811 241.043 30.817C240.774 30.5529 240.455 30.3447 240.106 30.2045C239.756 30.0642 239.382 29.9947 239.005 30Z" fill="#FED546"/>
<path fill-rule="evenodd" clip-rule="evenodd" d="M211.475 54.1699C211.475 54.1699 212.395 63.9299 200.765 68.5099C200.765 68.5099 216.255 67.2499 216.985 53.9399L211.475 54.1699Z" fill="#FED546"/>
<path d="M229.325 34.6499C229.507 34.6507 229.687 34.6881 229.855 34.7599C230.025 34.8264 230.178 34.9288 230.305 35.0599C230.437 35.1917 230.542 35.3479 230.615 35.5199C230.679 35.6894 230.713 35.8688 230.715 36.0499V36.7199H226.915L229.325 34.6499Z" fill="#F0F0EF"/>
<path d="M229.935 53.0499C232.675 47.6199 227.195 39.6299 229.325 34.6499H217.695C217.161 34.6582 216.649 34.8609 216.255 35.2199C215.86 35.5798 215.616 36.0769 215.575 36.6099C215.125 41.6099 219.265 48.6099 216.455 53.3999H229.315C229.441 53.401 229.564 53.37 229.675 53.3099C229.785 53.2501 229.875 53.1598 229.935 53.0499Z" fill="white"/>
<path d="M216.455 53.4C216.294 53.4013 216.135 53.3707 215.986 53.3098C215.838 53.249 215.703 53.1592 215.589 53.0456C215.476 52.9321 215.386 52.797 215.325 52.6484C215.264 52.4998 215.234 52.3406 215.235 52.18V51.73H228.165V52.18C228.163 52.3409 228.193 52.5006 228.253 52.65C228.313 52.7993 228.402 52.9352 228.515 53.05C228.749 53.2742 229.061 53.3996 229.385 53.4H216.455Z" fill="#F0F0EF"/>
<path d="M226.525 37.25H217.365V38H226.525V37.25Z" fill="#FFB600"/>
<path d="M226.955 40H217.765V40.76H226.925L226.955 40Z" fill="#FFB600"/>
<path d="M227.445 42H218.285V42.76H227.445V42Z" fill="#FFB600"/>
<path d="M227.935 44H218.765V44.77H227.925L227.935 44Z" fill="#FFB600"/>
<path d="M226.915 50.13C227.197 50.132 227.473 50.0501 227.708 49.8949C227.943 49.7396 228.126 49.5179 228.235 49.258C228.344 48.9982 228.373 48.7118 228.318 48.4355C228.264 48.1591 228.128 47.9051 227.929 47.7059C227.73 47.5068 227.476 47.3713 227.199 47.3168C226.923 47.2624 226.637 47.2913 226.377 47.4C226.117 47.5088 225.895 47.6923 225.74 47.9274C225.585 48.1624 225.503 48.4383 225.505 48.72C225.505 49.094 225.653 49.4526 225.918 49.717C226.182 49.9815 226.541 50.13 226.915 50.13Z" fill="#FFB600"/>
</g>
<defs>
<linearGradient id="paint0_linear" x1="162.205" y1="77.98" x2="162.205" y2="180.51" gradientUnits="userSpaceOnUse">
<stop stop-color="#7BFCA2"/>
<stop offset="1" stop-color="#4CD174"/>
</linearGradient>
<linearGradient id="paint1_linear" x1="201.095" y1="75.6199" x2="201.095" y2="198.19" gradientUnits="userSpaceOnUse">
<stop stop-color="#7BFCA2"/>
<stop offset="0.61" stop-color="#4CD174"/>
</linearGradient>
<linearGradient id="paint2_linear" x1="5937.6" y1="9418.07" x2="5937.6" y2="2747.39" gradientUnits="userSpaceOnUse">
<stop stop-color="#7BFCA2"/>
<stop offset="0.61" stop-color="#4CD174"/>
</linearGradient>
<linearGradient id="paint3_linear" x1="3198.65" y1="8858.53" x2="2827.27" y2="3001.07" gradientUnits="userSpaceOnUse">
<stop stop-color="#7BFCA2"/>
<stop offset="0.61" stop-color="#4CD174"/>
</linearGradient>
<clipPath id="clip0">
<rect width="246.47" height="203.07" fill="white" transform="translate(0.764893)"/>
</clipPath>
</defs>
</svg>
