<svg width="200" height="202" viewBox="0 0 200 202" fill="none" xmlns="http://www.w3.org/2000/svg">
<path fill-rule="evenodd" clip-rule="evenodd" d="M96.7036 0.00552614C139.312 -0.427286 178.385 24.5929 192.411 64.7358C207.413 107.672 197.816 157.249 161.02 184.079C123.939 211.118 73.025 206.213 36.5183 178.406C2.56458 152.544 -6.81455 107.013 6.81217 66.6211C19.9758 27.6017 55.4396 0.424678 96.7036 0.00552614Z" fill="#ECFBFF"/>
<mask id="mask0" mask-type="alpha" maskUnits="userSpaceOnUse" x="0" y="0" width="200" height="202">
<path fill-rule="evenodd" clip-rule="evenodd" d="M96.7036 0.00552614C139.312 -0.427286 178.385 24.5929 192.411 64.7358C207.413 107.672 197.816 157.249 161.02 184.079C123.939 211.118 73.025 206.213 36.5183 178.406C2.56458 152.544 -6.81455 107.013 6.81217 66.6211C19.9758 27.6017 55.4396 0.424678 96.7036 0.00552614Z" fill="#C4C4C4"/>
</mask>
<g mask="url(#mask0)">
<g filter="url(#filter0_d)">
<rect x="29.0684" y="51.2512" width="82.7532" height="115.135" rx="2" transform="rotate(-22.5383 29.0684 51.2512)" fill="url(#paint0_linear)"/>
<rect x="52.043" y="48.9512" width="38.5496" height="2.56997" rx="1.28499" transform="rotate(-22.5383 52.043 48.9512)" fill="#4CD174"/>
<rect x="60.3823" y="51.6121" width="25.1858" height="1.54198" rx="0.770992" transform="rotate(-22.5383 60.3823 51.6121)" fill="#95B7D6"/>
<rect x="44.6606" y="68.7097" width="67.3333" height="1.54198" rx="0.770992" transform="rotate(-22.5383 44.6606 68.7097)" fill="#95B7D6"/>
<rect x="46.8281" y="73.9319" width="56.0254" height="1.54198" rx="0.770992" transform="rotate(-22.5383 46.8281 73.9319)" fill="#95B7D6"/>
<rect x="48.9956" y="79.1539" width="67.3333" height="1.54198" rx="0.770992" transform="rotate(-22.5383 48.9956 79.1539)" fill="#95B7D6"/>
<rect x="51.1626" y="84.3761" width="67.3333" height="1.54198" rx="0.770992" transform="rotate(-22.5383 51.1626 84.3761)" fill="#95B7D6"/>
<rect x="53.3301" y="89.5981" width="33.9237" height="1.54198" rx="0.770992" transform="rotate(-22.5383 53.3301 89.5981)" fill="#95B7D6"/>
<rect x="55.4971" y="94.8203" width="67.3333" height="1.54198" rx="0.770992" transform="rotate(-22.5383 55.4971 94.8203)" fill="#95B7D6"/>
<rect x="57.6641" y="100.042" width="67.3333" height="1.54198" rx="0.770992" transform="rotate(-22.5383 57.6641 100.042)" fill="#95B7D6"/>
<rect x="59.8311" y="105.265" width="67.3333" height="1.54198" rx="0.770992" transform="rotate(-22.5383 59.8311 105.265)" fill="#95B7D6"/>
<rect x="61.9985" y="110.487" width="46.2595" height="1.54198" rx="0.770992" transform="rotate(-22.5383 61.9985 110.487)" fill="#95B7D6"/>
<rect x="64.1655" y="115.709" width="67.3333" height="1.54198" rx="0.770992" transform="rotate(-22.5383 64.1655 115.709)" fill="#95B7D6"/>
<rect x="66.3325" y="120.931" width="67.3333" height="1.54198" rx="0.770992" transform="rotate(-22.5383 66.3325 120.931)" fill="#95B7D6"/>
<rect x="68.4995" y="126.153" width="67.3333" height="1.54198" rx="0.770992" transform="rotate(-22.5383 68.4995 126.153)" fill="#95B7D6"/>
<rect x="70.667" y="131.375" width="58.5954" height="1.54198" rx="0.770992" transform="rotate(-22.5383 70.667 131.375)" fill="#95B7D6"/>
<rect x="72.834" y="136.597" width="67.3333" height="1.54198" rx="0.770992" transform="rotate(-22.5383 72.834 136.597)" fill="#95B7D6"/>
<rect x="75.001" y="141.819" width="67.3333" height="1.54198" rx="0.770992" transform="rotate(-22.5383 75.001 141.819)" fill="#95B7D6"/>
</g>
<path opacity="0.2" d="M66.59 139.807H63.249L57.8521 108.205C59.0522 107.014 59.8394 105.47 60.0982 103.8C60.9 99.5234 60.3346 85.774 71.0412 84.3554C81.7477 82.9368 69.1805 112.606 69.6739 117.191C69.6739 122.588 71.0412 133.382 66.59 139.807Z" fill="black" fill-opacity="0.7"/>
<path d="M68.9543 112.925C70.157 108.813 74.8446 95.6443 74.2279 89.8207C74.1777 89.336 74.0672 88.8594 73.8989 88.4021C72.2541 84.0537 65.5311 84.4751 62.9457 88.0783C60.1136 92.0412 57.8057 99.1754 57.6001 103.498C57.4184 105.667 56.7128 107.758 55.5441 109.594C55.1404 110.272 54.685 110.918 54.182 111.527L38.8547 75.1616C37.3062 76.4509 35.9539 77.9591 34.8404 79.6385C34.2144 80.5751 33.8101 81.6421 33.6582 82.7584C33.3447 86.3461 29.2841 101.103 27.6136 107.271C27.5777 107.404 27.5417 107.533 27.5109 107.656C25.8866 113.629 30.1733 135.813 28.9449 142.258C27.7164 148.704 28.1276 148.647 26.781 153.135C25.8138 156.357 21.8723 166.632 16.5011 177.061C13.4171 183.039 10.1687 189.094 7.48047 194.023L46.7086 192.394C47.387 187.629 48.0861 182.597 48.7234 177.724C49.0005 175.697 49.3917 173.688 49.8953 171.705C50.7588 168.21 50.6046 164.633 51.2574 162.782C52.0909 160.065 53.0564 157.385 54.5213 154.928C59.0856 150.097 65.0685 142.505 66.8006 137.365V137.329C67.2248 136.274 67.3597 135.124 67.1913 133.999C67.0001 133.075 66.8952 132.135 66.8777 131.192C66.6773 125.61 67.9468 116.343 68.9543 112.925Z" fill="#FFC9BF"/>
<path d="M55.5541 109.63C54.336 112.072 52.8711 114.441 51.9562 117.175C51.0413 119.91 50.0184 118.491 47.2737 120.635C44.5289 122.778 44.9504 118.568 44.9504 118.568C44.9504 118.568 46.1583 117.283 44.9504 115.181C43.7425 113.079 39.2194 107.852 39.4867 104.968C39.7539 102.085 38.875 96.2199 38.875 96.2199C38.875 96.2199 43.5986 91.594 42.2674 86.8806C41.5426 84.3106 39.9595 78.8931 36.8652 76.9451C37.9787 75.2657 37.3265 76.4355 38.875 75.1461L54.2126 111.547C54.7078 110.943 55.1563 110.302 55.5541 109.63Z" fill="#F19F90" fill-opacity="0.4"/>
<path d="M39.1011 96.1531C39.1011 96.1531 42.699 97.1554 45.3204 95.8961C45.44 94.6136 45.6652 93.3431 45.9937 92.0977" stroke="#F19F90" stroke-linecap="round" stroke-linejoin="round"/>
<path d="M46.1738 96.4152C46.1738 96.4152 46.2098 96.9292 48.0294 96.9292" stroke="#F19F90" stroke-linecap="round" stroke-linejoin="round"/>
<g filter="url(#filter1_d)">
<rect x="91.2617" y="51.52" width="82.7532" height="115.135" rx="2" fill="url(#paint1_linear)"/>
<rect x="113.363" y="58.202" width="38.5496" height="2.56997" rx="1.28499" fill="#4CD174"/>
<rect x="120.045" y="63.8559" width="25.1858" height="1.54198" rx="0.770992" fill="#95B7D6"/>
<rect x="98.9717" y="73.6218" width="67.3333" height="1.54198" rx="0.770992" fill="#95B7D6"/>
<rect x="98.9717" y="79.2758" width="67.3333" height="1.54198" rx="0.770992" fill="#95B7D6"/>
<rect x="98.9717" y="84.9297" width="67.3333" height="1.54198" rx="0.770992" fill="#95B7D6"/>
<rect x="98.9717" y="90.5837" width="46.2595" height="1.54198" rx="0.770992" fill="#95B7D6"/>
<rect x="98.9717" y="96.2376" width="67.3333" height="1.54198" rx="0.770992" fill="#95B7D6"/>
<rect x="98.9717" y="101.892" width="67.3333" height="1.54198" rx="0.770992" fill="#95B7D6"/>
<rect x="98.9717" y="107.545" width="67.3333" height="1.54198" rx="0.770992" fill="#95B7D6"/>
<rect x="98.9717" y="113.199" width="62.1934" height="1.54198" rx="0.770992" fill="#95B7D6"/>
<rect x="98.9717" y="118.853" width="67.3333" height="1.54198" rx="0.770992" fill="#95B7D6"/>
<rect x="98.9717" y="124.507" width="67.3333" height="1.54198" rx="0.770992" fill="#95B7D6"/>
<rect x="98.9717" y="130.161" width="67.3333" height="1.54198" rx="0.770992" fill="#95B7D6"/>
<rect x="98.9717" y="135.815" width="46.2595" height="1.54198" rx="0.770992" fill="#95B7D6"/>
<rect x="98.9717" y="141.469" width="67.3333" height="1.54198" rx="0.770992" fill="#95B7D6"/>
<rect x="98.9717" y="147.123" width="67.3333" height="1.54198" rx="0.770992" fill="#95B7D6"/>
<rect x="98.9717" y="152.777" width="67.3333" height="1.54198" rx="0.770992" fill="#95B7D6"/>
</g>
<path opacity="0.2" d="M117.99 110.758C117.99 110.758 117.949 130.413 117.99 131.559C118.031 132.706 119.532 139.608 119.532 139.608L114.757 148.408L118.869 151.718L126.861 143.864C126.861 143.864 133.667 148.064 134.911 154.077C136.154 160.091 143.561 164.47 151.245 181.124C158.93 197.777 167.693 143.864 167.693 143.864L143.983 114.012L117.99 110.758Z" fill="black" fill-opacity="0.7"/>
<path d="M189.446 187.61L152.952 193.82C152.952 193.82 146.599 160.076 142.811 154.756C139.023 149.436 139.727 147.252 137.877 143.669C136.766 141.505 131.195 137.47 126.831 133.487C126.45 133.142 126.08 132.798 125.726 132.459C125.572 132.32 125.428 132.171 125.284 132.032C124.703 131.457 124.163 130.896 123.685 130.346C123.51 130.151 123.339 129.956 123.171 129.76C122.361 128.858 121.757 127.79 121.403 126.63C121.387 126.578 121.377 126.525 121.372 126.471C121.357 126.408 121.347 126.345 121.341 126.281C121.244 125.484 121.141 124.574 121.038 123.587C121.038 123.392 120.997 123.186 120.971 122.981L120.94 122.734C120.853 121.912 120.755 121.038 120.642 120.138C120.529 119.239 120.406 118.221 120.262 117.239C120.216 116.9 120.169 116.561 120.113 116.211C120.056 115.831 119.995 115.451 119.933 115.065L119.753 114.073C119.753 114.017 119.727 113.965 119.722 113.919L119.506 112.778C119.492 112.736 119.484 112.693 119.481 112.649C119.409 112.315 119.342 111.986 119.265 111.652C119.105 110.907 118.926 110.177 118.751 109.468C118.397 108.133 117.942 106.827 117.389 105.561C114.757 99.6865 118.18 101.809 116.119 86.6927C116.119 86.6927 117.635 83.1872 121.958 85.9885C122.292 86.2064 122.615 86.4415 122.924 86.6927C123.801 87.4012 124.574 88.2281 125.222 89.1496C126.101 90.4042 126.771 91.7928 127.206 93.2615C127.913 95.6438 128.112 98.1476 127.792 100.612C127.792 100.612 131.04 111.745 132.752 114.279C134.464 116.813 141.541 102.256 141.084 100.56C140.923 99.7994 140.801 99.0308 140.719 98.2576C140.688 98.0057 140.657 97.7436 140.621 97.4557C140.585 97.1679 140.554 96.8801 140.524 96.5768C140.524 96.4329 140.488 96.2787 140.467 96.1296C140.467 96.068 140.467 96.0063 140.467 95.9497C140.405 95.3689 140.333 94.7521 140.267 94.1148C140.267 93.9349 140.231 93.7653 140.21 93.6008C140.179 93.2975 140.148 92.984 140.118 92.6756C140.115 92.6242 140.115 92.5727 140.118 92.5214C140.118 92.3466 140.076 92.1667 140.061 92.0074C140.02 91.6476 139.984 91.2827 139.948 90.9177C139.912 90.5528 139.886 90.2907 139.855 89.9771C139.794 89.386 139.737 88.7949 139.681 88.2244C139.64 87.7978 139.598 87.3763 139.562 86.9651C139.562 86.8726 139.562 86.7801 139.537 86.6927C139.321 84.4311 139.151 82.5807 139.09 81.7789C139.09 81.7789 133.95 74.1615 133.436 70.5738C132.922 66.9861 132.952 63.2083 135.106 61.6714C140.205 58.0426 138.704 63.8919 140.996 66.2974C143.289 68.7029 146.779 72.6863 148.763 73.9251C150.593 75.0867 152.227 79.579 152.459 80.2575C152.196 79.2706 149.58 69.5664 149.524 67.6132C149.457 65.5572 147.884 54.6811 150.552 50.7799C153.219 46.8787 156.776 49.9061 157.105 50.6771C157.434 51.4481 157.532 61.985 158.472 64.9147C159.413 67.8445 163.35 80.0622 163.35 80.0622C163.35 80.0622 163.515 68.1786 164.378 62.8588C165.242 57.5389 167.575 53.3807 169.837 53.1443C172.098 52.9078 174.19 55.4007 174.19 55.4007C174.19 55.4007 173.296 63.8816 173.553 65.8399C173.81 67.7982 173.183 74.8708 174.257 78.6898C174.257 78.6898 174.134 68.559 175.707 67.2637C177.279 65.9684 178.631 65.3465 179.515 66.2357C180.399 67.1249 180.59 73.1078 181.489 76.7161C182.389 80.3243 182.275 85.2278 182.867 90.8561C183.458 96.4843 185.786 104.297 185.323 108.764C184.861 113.23 183.437 124.307 182.291 130.809C181.145 137.311 178.22 146.229 178.22 146.229C178.22 146.229 179.551 150.983 179.294 155.224C179.037 159.464 189.446 187.61 189.446 187.61Z" fill="#FFC9BF"/>
<path d="M158.426 64.8839C159.125 67.053 161.464 74.3106 162.625 77.9342C162.625 77.9342 157.527 81.6813 157.65 85.1662C157.773 88.651 156.72 95.6876 154.427 95.482C152.135 95.2764 152.371 80.6533 151.595 78.1912C152.063 79.2501 152.361 80.1084 152.423 80.2781C152.253 79.6458 149.529 69.5767 149.472 67.5824C149.472 67.1147 149.364 66.1792 149.256 64.9713C149.256 64.9713 154.329 60.114 158.051 63.0849C158.135 63.6924 158.26 64.2934 158.426 64.8839Z" fill="#F19F90" fill-opacity="0.4"/>
<path d="M173.584 69.0575C171.209 71.3088 167.626 75.2872 167.174 79.1267C167.174 79.1267 168.495 89.8486 167.93 94.5465L163.304 80.0467C163.304 80.0467 163.468 68.1632 164.332 62.8433C164.332 62.6994 164.383 62.5504 164.409 62.4064C167.296 60.937 170.483 60.151 173.722 60.1089C173.524 61.9986 173.457 63.8998 173.522 65.7988C173.6 66.8832 173.62 67.971 173.584 69.0575Z" fill="#F19F90" fill-opacity="0.4"/>
<path opacity="0.4" d="M175.686 67.2072C175.63 67.2432 175.491 67.3562 175.291 67.5259C175.41 67.2947 175.544 67.0716 175.691 66.8577L175.686 67.2072Z" fill="#92E3A9"/>
<path d="M176.894 96.8493C176.894 96.8493 173.841 85.3975 173.81 76.1764C173.784 72.7635 174.18 69.6538 175.285 67.5516C175.404 67.3205 175.538 67.0973 175.686 66.8834V67.2123C176.239 66.7354 176.85 66.3313 177.505 66.0096C176.647 67.346 175.66 69.9622 176.801 74.2335C178.595 80.8692 177.033 89.0057 176.894 96.8493Z" fill="#F19F90" fill-opacity="0.4"/>
<path d="M134.782 118.673C134.782 118.673 135.6 129.586 126.831 133.492C126.451 133.148 126.081 132.803 125.726 132.464C125.572 132.325 125.428 132.176 125.284 132.037C124.703 131.462 124.163 130.901 123.685 130.351C123.505 130.151 123.346 129.956 123.171 129.766C122.361 128.863 121.758 127.795 121.403 126.635C121.388 126.583 121.377 126.53 121.372 126.476C121.357 126.413 121.347 126.35 121.342 126.286C121.244 125.489 121.141 124.579 121.038 123.592C121.038 123.397 120.997 123.192 120.971 122.986L120.941 122.739C120.853 121.917 120.756 121.043 120.642 120.144C120.529 119.244 120.406 118.226 120.262 117.245C120.211 116.905 120.164 116.561 120.113 116.217C120.057 115.836 119.995 115.456 119.933 115.07L119.753 114.073C119.753 114.017 119.728 113.965 119.722 113.919L119.507 112.778C119.493 112.736 119.484 112.693 119.481 112.649C119.409 112.315 119.342 111.986 119.265 111.652C119.1 110.912 118.921 110.182 118.751 109.468C122.22 106.132 130.228 108.224 126.353 100.488C126.353 100.488 128.306 93.8681 122.925 86.6927C126.605 89.6585 128.491 94.8755 127.792 100.571C127.792 100.571 131.041 111.704 132.752 114.238C134.464 116.772 141.542 102.215 141.084 100.519C140.923 99.7583 140.802 98.9898 140.719 98.2165C140.688 97.9646 140.657 97.7025 140.621 97.4147C140.585 97.1268 140.555 96.839 140.524 96.5357C140.524 96.3918 140.488 96.2376 140.467 96.0886C140.467 96.0269 140.467 95.9652 140.467 95.9086C140.406 95.3227 140.339 94.7111 140.267 94.0737C140.267 93.8938 140.231 93.7242 140.21 93.5597C140.179 93.2564 140.149 92.9429 140.118 92.6345C140.115 92.5831 140.115 92.5317 140.118 92.4803C140.118 92.3056 140.077 92.1257 140.061 91.9663C140.02 91.6065 139.984 91.2416 139.948 90.8767C139.912 90.5117 139.886 90.2496 139.856 89.936C139.794 89.3449 139.737 88.7538 139.681 88.1833C139.64 87.7567 139.604 87.3301 139.563 86.924C139.563 86.8315 139.563 86.739 139.537 86.6516C139.676 87.3249 142.282 99.7328 143.772 102.621C145.268 105.582 138.771 121.243 134.782 118.673Z" fill="#F19F90" fill-opacity="0.4"/>
<path d="M171.327 59.3481L172.376 58.315L172.849 58.1762L172.818 58.6902L171.857 59.9187L171.327 59.3481Z" fill="#757575"/>
<path d="M172.181 59.9239L170.474 63.7891L124.626 124.924L119.522 121.665L126.435 112.968L167.616 61.3117L171.25 59.0038C171.473 59.0613 171.676 59.1767 171.84 59.3383C172.003 59.5 172.121 59.702 172.181 59.9239Z" fill="#92E3A9"/>
<path opacity="0.3" d="M172.181 59.9227L170.474 63.7833L124.626 124.843L119.522 121.589L126.435 112.902C129.622 112.574 130.157 114.443 130.157 114.443L169.657 62.9516C169.266 61.5655 167.601 61.2986 167.601 61.2986L171.235 58.9935C171.462 59.0494 171.669 59.1651 171.835 59.3286C172.002 59.4921 172.121 59.6973 172.181 59.9227Z" fill="black" fill-opacity="0.3"/>
<path d="M139.578 106.821C139.578 106.821 134.438 116.977 129.534 124.163L126.018 125.073C126.018 125.073 117.949 133.091 113.025 137.095C112.131 136.54 111.321 135.86 110.619 135.075C110.619 135.075 117.609 121.649 125.345 113.153C126.251 113.475 127.105 113.929 127.879 114.5C128.883 115.212 129.776 116.067 130.531 117.039L139.151 106.194L139.578 106.821Z" fill="#92E3A9"/>
<path opacity="0.3" d="M139.578 106.763C139.578 106.763 134.438 116.907 129.534 124.084L126.019 124.992C126.019 124.992 117.949 133.001 113.025 137L113.159 134.823C118.499 126.676 125.284 117.79 127.879 114.432C128.883 115.143 129.777 115.998 130.532 116.968L125.741 123.355L128.486 122.841L139.151 106.116L139.578 106.763Z" fill="black" fill-opacity="0.3"/>
<path d="M157.007 95.631L142.688 109.509L140.4 111.729C141.968 107.7 141.207 101.449 141.11 100.714C141.11 100.673 141.11 100.648 141.11 100.648C141.11 100.648 141.11 100.565 141.11 100.54C140.949 99.7788 140.827 99.0103 140.745 98.237C140.714 97.9851 140.683 97.723 140.647 97.4352C140.611 97.1473 140.58 96.8595 140.549 96.5562C140.549 96.4123 140.513 96.2581 140.493 96.1091C140.493 96.0474 140.493 95.9857 140.493 95.9291C140.431 95.3483 140.359 94.7315 140.292 94.0942C140.292 93.9143 140.256 93.7447 140.236 93.5802C140.205 93.2769 140.174 92.9634 140.143 92.655C140.14 92.6036 140.14 92.5522 140.143 92.5008C140.143 92.3261 140.102 92.1462 140.087 91.9868C140.046 91.627 140.01 91.2621 139.974 90.8971C139.938 90.5322 139.912 90.2701 139.881 89.9565C139.819 89.3654 139.763 88.7743 139.706 88.2038C139.665 87.7772 139.624 87.3557 139.588 86.9445C139.588 86.852 139.588 86.7595 139.562 86.6721C139.347 84.4105 139.177 82.5601 139.115 81.7583C139.115 81.7583 133.975 74.1409 133.461 70.5532C132.947 66.9655 132.978 63.1877 135.132 61.6508C140.231 58.022 138.73 63.8713 141.022 66.2768C143.315 68.6823 146.805 72.6657 148.789 73.9045C150.773 75.1432 152.433 80.3037 152.433 80.3037C153.857 84.4979 154.664 91.1901 155.476 93.205C156.288 95.2198 157.007 95.631 157.007 95.631Z" fill="#FFC9BF"/>
<path d="M142.688 109.519L140.4 111.74C141.968 107.71 141.207 101.46 141.11 100.725C141.116 100.667 141.116 100.608 141.11 100.55C140.949 99.7891 140.827 99.0206 140.745 98.2473C140.714 97.9955 140.683 97.7333 140.647 97.4455C140.611 97.1577 140.58 96.8698 140.549 96.5666C140.549 96.4226 140.513 96.2684 140.493 96.1194C140.493 96.0577 140.493 95.996 140.493 95.9395C140.431 95.3535 140.364 94.7419 140.292 94.1045C140.292 93.9246 140.256 93.755 140.236 93.5905C140.205 93.2873 140.174 92.9737 140.143 92.6653C140.14 92.614 140.14 92.5625 140.143 92.5111C140.143 92.3364 140.102 92.1565 140.087 91.9971C140.046 91.6373 140.01 91.2724 139.974 90.9075C139.938 90.5425 139.912 90.2804 139.881 89.9669C139.819 89.3758 139.763 88.7847 139.706 88.2141C139.665 87.7875 139.629 87.3609 139.588 86.9549C139.588 86.8623 139.588 86.7698 139.562 86.6824C139.701 87.3558 142.307 99.7636 143.798 102.652C144.302 103.701 143.777 106.517 142.688 109.519Z" fill="#F19F90" fill-opacity="0.4"/>
</g>
<defs>
<filter id="filter0_d" x="26.6816" y="20.1452" width="125.337" height="143.834" filterUnits="userSpaceOnUse" color-interpolation-filters="sRGB">
<feFlood flood-opacity="0" result="BackgroundImageFix"/>
<feColorMatrix in="SourceAlpha" type="matrix" values="0 0 0 0 0 0 0 0 0 0 0 0 0 0 0 0 0 0 127 0"/>
<feOffset dy="4"/>
<feGaussianBlur stdDeviation="1.5"/>
<feColorMatrix type="matrix" values="0 0 0 0 0.843137 0 0 0 0 0.890196 0 0 0 0 0.945098 0 0 0 1 0"/>
<feBlend mode="normal" in2="BackgroundImageFix" result="effect1_dropShadow"/>
<feBlend mode="normal" in="SourceGraphic" in2="effect1_dropShadow" result="shape"/>
</filter>
<filter id="filter1_d" x="88.2617" y="51.52" width="88.7532" height="122.135" filterUnits="userSpaceOnUse" color-interpolation-filters="sRGB">
<feFlood flood-opacity="0" result="BackgroundImageFix"/>
<feColorMatrix in="SourceAlpha" type="matrix" values="0 0 0 0 0 0 0 0 0 0 0 0 0 0 0 0 0 0 127 0"/>
<feOffset dy="4"/>
<feGaussianBlur stdDeviation="1.5"/>
<feColorMatrix type="matrix" values="0 0 0 0 0.843137 0 0 0 0 0.890196 0 0 0 0 0.945098 0 0 0 1 0"/>
<feBlend mode="normal" in2="BackgroundImageFix" result="effect1_dropShadow"/>
<feBlend mode="normal" in="SourceGraphic" in2="effect1_dropShadow" result="shape"/>
</filter>
<linearGradient id="paint0_linear" x1="70.445" y1="51.2512" x2="70.445" y2="166.386" gradientUnits="userSpaceOnUse">
<stop stop-color="white"/>
<stop offset="1" stop-color="#F2F2F2"/>
</linearGradient>
<linearGradient id="paint1_linear" x1="132.638" y1="51.52" x2="132.638" y2="166.655" gradientUnits="userSpaceOnUse">
<stop stop-color="white"/>
<stop offset="1" stop-color="#F2F2F2"/>
</linearGradient>
</defs>
</svg>
