<svg width="405" height="470" viewBox="0 0 405 470" fill="none" xmlns="http://www.w3.org/2000/svg">
<path fill-rule="evenodd" clip-rule="evenodd" d="M206.656 1.00766C113.727 0.154399 38.2365 70.6761 10.3012 159.403C-16.8356 245.594 10.4006 339.931 83.0628 393.558C157.312 448.357 259.376 453.002 333.342 397.821C404.833 344.486 419.371 247.928 392.228 162.91C364.612 76.4092 297.368 1.84058 206.656 1.00766Z" fill="#ECFBFF"/>
<mask id="mask0" mask-type="alpha" maskUnits="userSpaceOnUse" x="0" y="1" width="405" height="436">
<path fill-rule="evenodd" clip-rule="evenodd" d="M206.656 1.00766C113.727 0.154399 38.2365 70.6761 10.3012 159.403C-16.8356 245.594 10.4006 339.931 83.0628 393.558C157.312 448.357 259.376 453.002 333.342 397.821C404.833 344.486 419.371 247.928 392.228 162.91C364.612 76.4092 297.368 1.84058 206.656 1.00766Z" fill="#ECFBFF"/>
</mask>
<g mask="url(#mask0)">
<path d="M-9 116H31V202.111H71V395H-9V116Z" fill="#DEF8FF"/>
<rect x="63" y="240" width="53" height="204" fill="#DEF8FF"/>
<rect x="87" y="193" width="60" height="245" fill="#DEF8FF"/>
<rect x="141" y="240" width="47" height="207" fill="#DEF8FF"/>
<rect x="187" y="132" width="31" height="316" fill="#DEF8FF"/>
<rect x="218" y="208" width="58" height="240" fill="#DEF8FF"/>
<rect x="291" y="208" width="58" height="240" fill="#DEF8FF"/>
<rect x="349" y="237" width="58" height="211" fill="#DEF8FF"/>
</g>
<path d="M272.116 442.54L252.897 333.718L285.128 332.103L277.521 442.54L283.326 452.837C282.592 453.779 279.803 455.583 274.518 455.26C269.233 454.937 266.443 453.51 265.709 452.837L272.116 442.54Z" fill="#FFC9BF"/>
<path d="M265.564 453.073C264.741 450.488 269.064 447.073 269.064 447.073L280.564 451.573L275.564 455.573L271.564 456.073C271.564 456.073 266.359 455.569 265.564 453.073Z" fill="#088446"/>
<path d="M305.852 324.227C318.91 223.152 306.441 181.851 301 179.5L241.5 184.5C241.5 184.5 238 192 236.331 202.719C233.991 217.746 239.689 293.397 246.406 330.676C258.175 340.831 290.94 330.608 305.852 324.227Z" fill="#FFDC63"/>
<path opacity="0.51" d="M266.5 205L240.5 187L238.5 192L237.5 197L264 206L266.5 205Z" fill="#FFC600"/>
<path opacity="0.5" d="M277 432.085C265.642 372.5 270 342.5 269 334.5L297.02 329C298.769 337.943 299.292 357.253 298 365C296.709 372.747 290.562 413.123 286.325 432.085L287.5 457C281.513 457.538 271.271 459.4 271.594 455.688C271.916 451.976 272.695 446.879 273.973 444.795L277 432.085Z" fill="#F19F90"/>
<path d="M278.433 431.607C270.038 370.442 271.437 341.029 273.186 333.969L297.5 327.5C299.249 336.443 301 344 301 353.5C301 361.353 290.137 412.644 285.899 431.607L287.5 457.5C281.514 458.038 270.845 458.922 271.168 455.21C271.491 451.498 274.128 446.401 275.406 444.317L278.433 431.607Z" fill="#FFC9BF"/>
<path d="M279.564 459.073C266.064 459.073 270.064 453.073 272.564 447.573C277.764 453.173 284.731 450.573 287.564 448.573L289.064 452.573C289.064 452.573 289.564 455.073 288.564 458.073C288.226 459.086 279.564 459.073 279.564 459.073Z" fill="#139052"/>
<path d="M255.174 15.3715C251.436 15.695 248.322 18.4455 246.154 21.5071C243.986 24.5687 242.479 28.0783 240.211 31.0653C238.517 33.293 236.362 35.3092 235.527 37.9725C234.194 42.2289 236.536 47.1324 234.68 51.1772C233.621 53.4672 231.404 55.0229 230.307 57.2879C228.937 60.1131 229.56 63.5107 230.394 66.4976C230.812 68.6513 231.877 70.6266 233.447 72.1603C234.861 73.1292 236.49 73.74 238.193 73.9401C250.961 76.2856 264.143 74.6564 275.954 69.273" fill="#535565"/>
<path d="M282.677 29.1563C283.737 31.5214 281.952 34.4095 282.004 37L281.504 83.9462C281.454 91.5006 279.16 97.5 271.623 97.5C264.086 97.5 261.004 93 261.004 83.9462V71C260.1 71.0074 257.195 70.786 256.479 70.5535C253.987 69.7445 247.829 64.4115 246.272 54.6169C245.749 51.3686 245.628 46.6096 245.628 37.5369C245.691 27.1822 253.651 18.2712 264.004 17.7485C266.594 17.6128 269.185 17.9988 271.623 18.8835C274.061 19.7682 276.296 21.1335 278.195 22.8982C280.094 24.663 281.618 26.7912 282.677 29.1563Z" fill="#FFC9BF"/>
<path d="M249.262 42.3462C249.262 42.7569 249.422 43.1515 249.708 43.4466C249.994 43.7416 250.384 43.9138 250.795 43.9267C250.995 43.9437 251.197 43.9201 251.388 43.8573C251.579 43.7946 251.755 43.694 251.906 43.5615C252.058 43.429 252.181 43.2674 252.268 43.0864C252.355 42.9054 252.405 42.7087 252.414 42.508C252.421 42.0963 252.265 41.6984 251.981 41.4004C251.696 41.1023 251.306 40.928 250.894 40.9149C250.693 40.8997 250.49 40.9249 250.298 40.9889C250.106 41.053 249.929 41.1546 249.777 41.2879C249.625 41.4212 249.501 41.5835 249.413 41.7652C249.324 41.9469 249.273 42.1444 249.262 42.3462Z" fill="#535565"/>
<path d="M248.324 41.5576C248.511 41.7691 249.707 40.8855 251.414 40.8855C253.121 40.8855 254.354 41.7318 254.541 41.5327C254.728 41.3336 254.429 41.0722 253.881 40.6739C253.15 40.1651 252.279 39.8955 251.389 39.9023C250.494 39.8888 249.618 40.1686 248.897 40.6988C248.399 41.0971 248.225 41.4829 248.324 41.5576Z" fill="#535565"/>
<path d="M265.873 42.3462C265.867 42.7566 266.023 43.1532 266.307 43.4492C266.592 43.7453 266.982 43.9169 267.393 43.9267C267.594 43.9437 267.795 43.9201 267.986 43.8573C268.177 43.7946 268.354 43.6939 268.505 43.5615C268.656 43.429 268.779 43.2674 268.866 43.0864C268.954 42.9054 269.003 42.7086 269.013 42.5079C269.019 42.0962 268.864 41.6984 268.579 41.4004C268.295 41.1023 267.905 40.9279 267.493 40.9149C267.292 40.8997 267.09 40.925 266.899 40.9891C266.708 41.0533 266.531 41.1552 266.38 41.2886C266.229 41.4221 266.107 41.5844 266.019 41.7661C265.932 41.9477 265.883 42.145 265.873 42.3462Z" fill="#535565"/>
<path d="M265.024 41.8811C265.224 42.0802 266.42 41.1965 268.114 41.1965C269.808 41.1965 271.054 42.0553 271.241 41.8437C271.428 41.6321 271.141 41.3832 270.593 40.985C269.859 40.4834 268.991 40.2145 268.102 40.2134C267.208 40.2087 266.335 40.4876 265.61 41.0099C265.112 41.4081 264.925 41.7815 265.024 41.8811Z" fill="#535565"/>
<path d="M258.937 52.5453C258.013 52.394 257.072 52.3661 256.141 52.4623C255.709 52.5272 255.282 52.4529 255.166 52.181C255.074 51.7561 255.108 51.3134 255.264 50.9076L256.006 47.461C257.07 42.5563 257.776 38.5361 257.569 38.5042C256.576 41.3763 255.814 44.3232 255.291 47.3167C255.032 48.5261 254.803 49.6807 254.553 50.788C254.362 51.3428 254.372 51.9474 254.583 52.4951C254.669 52.6358 254.785 52.7557 254.923 52.846C255.06 52.9363 255.217 52.9948 255.38 53.0172C255.631 53.0434 255.884 53.0432 256.136 53.0168C257.086 52.9815 258.028 52.823 258.937 52.5453Z" fill="#F19F90"/>
<path d="M261.004 71C261.004 71 267.092 71.5206 275.329 64C275.329 64 273.362 76.1674 261.004 74.9228V71Z" fill="#F19F90"/>
<path d="M261.269 57.927C261.04 57.7774 260.041 59.3102 258.002 59.5413C255.963 59.7725 254.433 58.5379 254.287 58.7396C254.14 58.9414 254.455 59.2801 255.12 59.743C256.018 60.3409 257.096 60.6072 258.168 60.4962C259.198 60.3849 260.143 59.8761 260.802 59.0781C261.307 58.486 261.412 58.005 261.269 57.927Z" fill="#F19F90"/>
<path d="M264.599 38.1734C264.8 38.6185 266.469 38.2519 268.476 38.3312C270.483 38.4105 272.141 38.7943 272.367 38.3629C272.462 38.155 272.152 37.7442 271.47 37.365C270.559 36.8915 269.551 36.6312 268.525 36.6038C267.498 36.5763 266.478 36.7824 265.542 37.2065C264.835 37.5663 264.506 37.9565 264.599 38.1734Z" fill="#535565"/>
<path d="M248.293 37.9819C248.624 38.3447 249.918 37.9819 251.473 37.9819C253.029 37.9819 254.337 38.2277 254.639 37.8414C254.777 37.6541 254.639 37.2913 253.992 36.9518C253.22 36.5375 252.319 36.3295 251.407 36.3545C250.494 36.3795 249.611 36.6365 248.871 37.0923C248.321 37.4317 248.142 37.8063 248.293 37.9819Z" fill="#535565"/>
<path d="M243.378 35.4086C245.87 38.2213 252.099 35.4086 255.637 32.6582C257.86 33.6565 260.386 33.7496 262.677 32.9177C264.968 32.0858 266.845 30.3944 267.908 28.2027C270.549 30.6918 274.934 29.1237 276.13 25.7136C277.326 22.3035 275.744 18.0098 273.065 15.5456C270.4 13.2678 267.006 12.0185 263.498 12.0235C259.45 11.8309 255.435 12.8252 251.946 14.884C248.458 16.9428 245.648 19.9761 243.864 23.6103C242.194 27.1573 241.547 31.6999 243.378 35.3962" fill="#535565"/>
<path d="M272.816 15.184C279.779 12.4765 287.718 19.3129 289.181 24.8632C291.718 34.4883 290.681 35.9097 292.913 40.3635C294.376 43.2605 298.424 45.7785 300.229 48.7432C302.217 51.8838 302.961 57.6237 302.363 61.4142C301.863 64.609 299.29 73.7061 299.29 73.7061C299.29 73.7061 288.596 75.0599 282.95 74.383C281.502 74.3037 280.093 73.8394 278.84 73.0293C277.621 72.1629 279.328 68.2099 278.938 66.7073C277.804 62.443 274.536 60.3989 274.816 55.9586C275.182 50.0698 279.182 49.1899 278.328 43.2876C277.877 40.1875 273.121 36.4106 272.341 33.4053C271.56 30.4 268.536 19.9356 272.768 15.211" fill="#535565"/>
<path d="M299.5 184L296.967 150.164L301.626 129.816L307.504 90.5C307.504 90.5 297.475 81.809 281.504 81C281.504 81 281.504 86 278.004 88.3517C273.304 91.5099 268.054 91.7221 263.504 88.3517C261.004 86.5 261.004 81 261.004 81C256.943 82.0072 247.155 85.7785 243.858 88.3517C240.561 90.9249 237.843 94.1632 235.883 97.8554L221 160L224.5 168L249.5 200L258.004 166.5C258.004 166.5 237.504 157 237.504 155C237.504 153 237.711 152.997 240.564 147.073C242.694 157.253 243.858 160 243.858 160L258.004 166.5L299.5 184Z" fill="url(#paint0_linear)"/>
<path d="M255 202.5L250 198.5L252 185.5L271.5 195V207L255 202.5Z" fill="#FAB7AB"/>
<path opacity="0.51" d="M242.064 122.073C239.564 128.073 240.564 141.073 240.564 147.073L237.564 155.073C236.064 134.573 239.564 123.073 245.564 111.073C245.897 110.239 245.16 114.642 242.064 122.073Z" fill="#FFC600" fill-opacity="0.5"/>
<path d="M259.909 128.796C260.644 130.252 303.736 164.589 316.095 174.408C316.525 174.751 316.882 175.175 317.148 175.656C317.413 176.137 317.58 176.665 317.641 177.211C317.701 177.757 317.652 178.309 317.498 178.836C317.344 179.364 317.087 179.855 316.743 180.283L287.989 215.939C287.302 216.796 286.303 217.347 285.21 217.47C284.118 217.594 283.021 217.281 282.159 216.599L227.082 173.039C226.64 172.69 226.273 172.254 226.005 171.759C225.736 171.263 225.571 170.719 225.52 170.157C225.469 169.596 225.532 169.031 225.707 168.495C225.881 167.959 226.162 167.464 226.534 167.041L259.909 128.796Z" fill="#139152"/>
<path d="M259.085 125.295C259.845 126.801 305.99 163.54 316.455 171.853C317.003 172.295 317.354 172.936 317.431 173.636C317.508 174.335 317.305 175.037 316.866 175.587L286.231 213.596C285.789 214.144 285.148 214.494 284.447 214.571C283.747 214.648 283.045 214.445 282.494 214.006L225.012 168.481C224.73 168.258 224.496 167.98 224.324 167.663C224.152 167.347 224.046 167 224.012 166.641C223.978 166.283 224.017 165.922 224.127 165.579C224.237 165.236 224.415 164.919 224.651 164.648L259.085 125.295Z" fill="#1CA863"/>
<path d="M264.159 126.644C278.772 138.803 318.277 170.203 318.277 170.203L287.655 208.199C286.768 209.291 285.488 209.991 284.091 210.149C282.693 210.307 281.289 209.911 280.18 209.046L227.034 166.955C226.465 166.503 225.993 165.941 225.647 165.301C225.301 164.662 225.089 163.96 225.022 163.236C224.956 162.513 225.037 161.783 225.261 161.092C225.485 160.401 225.846 159.762 226.324 159.214L254.068 127.49C255.31 126.067 257.058 125.183 258.942 125.025C260.825 124.868 262.696 125.448 264.159 126.644Z" fill="#2DB974"/>
<path d="M297 153.5L297.772 159.376L311.775 171.386L315 168L297 153.5Z" fill="#56D697"/>
<path d="M271.74 215.26L279.003 205L291.003 196.542L280.503 189.5L273.003 197.861C270.918 198.415 265.419 197.989 263.269 198.172C262.162 198.283 261.045 198.198 259.967 197.923C258.619 197.639 257.316 197.175 256.093 196.542C255.034 195.833 253.676 196.791 254.075 197.861C254.473 198.932 257.339 200.948 261.375 201.595C265 202.155 260.902 204.831 258.572 206.25C258.367 206.374 258.215 206.57 258.146 206.8C258.077 207.03 258.096 207.277 258.198 207.494C259.407 210.232 264.166 219.205 271.74 215.26Z" fill="#FFC9BF"/>
<path d="M291.273 110.099C290.289 96.4086 303.401 82.8166 310.826 94.3287C318.974 106.948 326.471 131.6 330.868 151.761C332.924 161.158 280.977 205.066 277.501 207.829C277.401 207.916 277.076 207.416 277.001 207.329L268.001 197.79C267.939 197.703 271.278 194.293 271.365 194.205L311.111 151.5C311.138 151.462 311.111 155.267 311.111 155.22C311.111 155.173 311.138 151.538 311.111 151.5C309.778 149.073 292.207 120.715 291.273 110.422V110.099Z" fill="url(#paint1_linear)"/>
<path opacity="0.51" d="M288.5 114.5C287 118.5 285.351 123.406 286.472 135.565C287.07 141.974 291.656 149.403 297 153V150.5C297.785 146.928 300.5 133.5 300.5 133.5C300.5 133.5 296.301 123.592 294.358 120.07C290.621 113.629 289.25 112.5 288.5 114.5Z" fill="#FFC600" fill-opacity="0.5"/>
<path d="M108.115 457.008C110.198 456.084 111.265 446.281 110.397 443.489C104.418 442.334 85.506 441.401 83.8859 442.787C82.2657 444.173 62.537 446.831 50.0002 448.275V453.473C51.061 454.243 56.0972 456.18 61.9392 457.008C84.237 460.169 105.511 458.164 108.115 457.008Z" fill="#535565"/>
<path d="M183.992 469.835C196.87 469.835 200.465 457.307 195.327 450.17L177.418 448.941L173.591 453.586C170.297 458.833 172.577 469.835 183.992 469.835Z" fill="#535565"/>
<path d="M86.0356 439.926C86.8673 440.253 87.7693 440.36 88.6545 440.237C89.6171 440.195 90.5714 440.041 91.4978 439.776C92.0459 439.62 92.5833 439.428 93.1065 439.202C93.4151 439.088 93.7051 438.928 93.967 438.728C94.1438 438.58 94.2665 438.377 94.3161 438.152C94.3658 437.926 94.3395 437.69 94.2414 437.481C94.1287 437.294 93.9746 437.134 93.7909 437.015C93.6071 436.897 93.3986 436.821 93.1813 436.795C92.8503 436.751 92.5147 436.751 92.1837 436.795C91.6097 436.858 91.0422 436.971 90.4877 437.132C89.5598 437.411 88.6806 437.832 87.8813 438.379C86.5345 439.29 86.0107 440.15 86.098 440.2C86.1853 440.25 86.8837 439.614 88.2305 438.891C89.0172 438.465 89.8554 438.142 90.7246 437.93C91.2368 437.806 91.7581 437.723 92.2835 437.681C92.8571 437.606 93.331 437.681 93.4432 437.918C93.5554 438.155 93.4432 438.043 93.3559 438.192C93.1606 438.337 92.9467 438.454 92.7199 438.541C92.2375 438.763 91.7419 438.954 91.2359 439.115C90.375 439.398 89.4901 439.603 88.5922 439.726C87.7364 439.733 86.8821 439.799 86.0356 439.926Z" fill="#263238"/>
<path d="M197.872 212.885L110.827 215.678C110.827 215.678 91.4476 345.086 91.9838 354.103L85.9448 442.972C85.9448 442.972 91.4762 445.525 98.235 445.781C105.126 446.041 111.754 442.972 111.754 442.972C111.754 442.972 117.243 418.337 121.06 397.498C123.554 383.631 128.052 362.193 129.311 350.62C133.35 335.17 151.095 260.922 151.095 260.922C151.095 260.922 163.511 350.237 163.548 354.103C163.586 357.968 175.312 449.117 175.312 449.117C175.312 449.117 183.492 450.324 190.09 450.346C197.009 450.368 198.487 450.346 198.487 450.346C200.271 434.495 199.68 366.922 200.591 354.103C202.237 330.957 199.83 267.244 200.591 250.571C201.351 233.898 197.872 212.885 197.872 212.885Z" fill="#535565"/>
<path d="M180.326 225.842C180.032 224.891 179.93 223.89 180.027 222.899C179.932 221.904 180.033 220.899 180.326 219.943C180.619 220.899 180.721 221.904 180.625 222.899C180.723 223.89 180.621 224.891 180.326 225.842Z" fill="#2DB974"/>
<path d="M202.35 218.815C202.039 217.704 195.121 160.161 195.121 160.161L198.717 85.5702L167.763 74.6755L162.861 70.9316H136.51L130.54 76.0233L98.7617 90.0004L106.973 151.15L109.275 202.317L111.452 221.261L198.779 226.49L202.35 218.815Z" fill="url(#paint2_linear)"/>
<g opacity="0.3">
<path opacity="0.3" d="M197.71 180.337L164.962 184.277C164.911 185.496 165.245 186.7 165.917 187.718C166.588 188.737 167.563 189.518 168.703 189.952C171.025 190.749 173.519 190.908 175.924 190.413C178.318 189.91 180.761 189.684 183.207 189.74C185.701 189.964 188.033 190.924 190.477 190.775C191.696 190.7 192.882 190.349 193.945 189.748C195.008 189.147 195.92 188.312 196.612 187.306C197.304 186.3 197.758 185.15 197.94 183.942C198.122 182.735 198.026 181.502 197.66 180.337H197.71Z" fill="black"/>
</g>
<path d="M198.752 85.6798C198.752 85.6798 206.006 86.6897 210.244 99.3938C214.481 112.098 224.453 158.327 225.088 161.506C225.724 164.685 222.97 174.883 211.901 179.434C205.912 182.023 199.363 183.049 192.869 182.413V159.012L197.53 153.926L195.71 145.672L198.752 85.6798Z" fill="url(#paint3_linear)"/>
<path d="M219.907 156.629C219.524 156.503 217.866 155.764 217.507 155.582C216.793 155.269 216.108 155.172 214.806 154.684C213.294 154.107 211.735 153.663 210.146 153.358C209.208 153.17 208.258 153.049 207.303 152.995C206.289 152.923 205.27 152.982 204.271 153.17C200.724 153.861 197.162 154.447 194.822 157.198C194.154 158.056 193.617 159.009 193.232 160.025C193.139 160.416 193.022 160.8 192.881 161.176C192.865 161.077 192.865 160.976 192.881 160.876C192.881 160.663 192.981 160.363 193.069 159.988C193.415 158.935 193.931 157.947 194.597 157.061C196.925 154.199 200.19 152.249 203.816 151.556C204.843 151.356 205.892 151.297 206.935 151.381C207.902 151.445 208.864 151.571 209.816 151.757C211.415 152.092 212.982 152.565 214.5 153.17C215.753 153.683 216.818 154.171 217.507 154.521C217.857 154.684 218.372 155.171 218.547 155.271C218.66 155.314 219.812 156.555 219.907 156.629Z" fill="black" fill-opacity="0.09"/>
<path d="M196.969 113.42C197.085 113.42 197.921 117.626 197.761 131.579C197.6 145.532 197.863 153.1 197.761 153.1C197.71 153.1 196.177 148.392 195.385 145.702C195.118 142.207 195.86 137.828 195.941 130.797C196.101 116.844 196.866 113.42 196.969 113.42Z" fill="black" fill-opacity="0.09"/>
<path d="M197.121 156.484L179.618 156.26C179.032 156.258 178.457 156.409 177.95 156.7C177.442 156.991 177.021 157.41 176.73 157.915L164.777 183.676L165.227 185.405H185.544L197.434 158.848L197.121 156.484Z" fill="#535565"/>
<path d="M197.01 160.123L196.372 161.564L192.835 168.61C192.835 168.61 183.671 167.809 182.221 167.612C180.771 167.415 180.021 168.942 179.921 169.829C179.952 170.535 180.22 171.211 180.683 171.751C180.683 171.751 175.02 169.989 173.095 168.659C171.17 167.329 170.22 168.166 170.22 168.166C169.936 167.905 169.598 167.709 169.229 167.59C168.86 167.472 168.469 167.435 168.084 167.482C167.699 167.529 167.329 167.659 167 167.862C166.671 168.066 166.392 168.338 166.182 168.659C166.855 170.972 167.79 173.203 168.969 175.311C169.732 176.469 173.97 180.497 174.258 180.965C174.545 181.433 177.808 182.295 181.558 184.315C182.57 184.896 183.742 185.145 184.907 185.025C186.071 184.905 187.166 184.424 188.034 183.65C188.209 183.668 188.385 183.668 188.559 183.65C189.434 183.551 191.734 181.383 192.31 181.445C192.885 181.507 193.372 181.445 194.522 180.127C196.66 177.231 198.369 174.05 199.598 170.679C200.26 168.425 199.873 167.846 199.685 167.698C200.749 168.219 201.894 168.556 203.073 168.696C205.473 169.078 206.724 167.366 206.911 164.151C207.099 160.936 199.685 160.973 197.01 160.123Z" fill="#FFC9BF"/>
<path d="M196 175C195.808 175.075 195 175.5 195 175.5C195 175.5 193.574 176.201 192.85 176.261C190.977 176.381 189.096 176.248 187.262 175.866C185.423 175.49 183.651 174.861 182 174C181.497 173.75 181.541 172.385 181.079 172.07C180.897 171.97 180.729 171.85 180.579 171.711C180.579 171.711 181.354 172.141 182.616 172.751C184.281 173.539 186.039 174.129 187.853 174.51C189.667 174.887 191.523 175.043 193.378 174.976C194.778 174.928 196 174.952 196 175Z" fill="#F7B0A3"/>
<path d="M199.309 161.879C199.383 161.879 199.098 162.86 199.087 164.081C199.063 164.593 199.109 165.106 199.224 165.602C199.288 165.795 199.398 165.965 199.541 166.092C199.541 166.092 199.477 166.092 199.372 166.092C199.24 166 199.134 165.868 199.066 165.709C198.89 165.2 198.814 164.652 198.845 164.105C198.81 163.328 198.97 162.555 199.309 161.879Z" fill="#F7B0A3"/>
<path d="M190.411 180.427H190.125L189.405 181.481C188.698 181.481 187.378 181.63 186.124 181.481C184.653 181.326 183.202 181.022 181.792 180.576C180.958 180.306 180.152 179.957 179.384 179.535C178.589 179.101 177.807 178.593 177 178.085C173.375 175.766 170.374 172.395 168.289 171.031C168.394 170.219 168.807 169.478 169.443 168.961C169.611 168.828 169.795 168.715 169.989 168.626C170.113 168.626 170.188 168.539 170.188 168.552C170.188 168.564 169.915 168.688 169.505 169.035C168.927 169.561 168.561 170.279 168.475 171.056V170.969C170.598 172.271 173.838 174.328 177.463 176.634C178.27 177.142 179.052 177.651 179.834 178.085C180.59 178.496 181.379 178.844 182.193 179.126C183.584 179.575 185.013 179.894 186.463 180.08C187.705 180.254 188.71 180.328 189.405 180.403L190.212 180.489L190.411 180.427Z" fill="#F7B0A3"/>
<path d="M187.602 183.65C187.309 183.649 186.619 184.155 186.332 184.096C185.778 184.007 184.983 184.217 184 184C181.441 183.443 178.936 182.312 176.511 181.314C175.172 180.744 173.919 179.983 172.792 179.056C171.888 178.294 171.045 177.462 170.27 176.567C169.602 175.802 169.353 174.947 169 174.5C168.812 174.277 168.787 173.719 168.64 173.466C168.854 173.662 169.052 173.876 169.232 174.105C169.61 174.526 170.14 175.151 170.821 175.878C171.599 176.75 172.442 177.561 173.342 178.303C174.46 179.194 175.695 179.924 177.011 180.472C179.424 181.461 181.906 182.267 184.437 182.884C185.408 183.127 186.19 183.292 186.744 183.42C187.035 183.478 187.321 183.555 187.602 183.65Z" fill="#F7B0A3"/>
<path d="M102.273 104.993C101.527 103.29 100.884 101.548 100.348 99.7749C99.7135 98.0326 99.1838 96.2576 98.7617 94.4585C99.5133 96.1597 100.156 97.9022 100.687 99.6764C101.323 101.418 101.853 103.193 102.273 104.993Z" fill="#263238"/>
<g opacity="0.3">
<path opacity="0.3" d="M101.935 182.507C98.7788 180.692 95.4334 179.228 91.9586 178.142C88.4682 177.054 84.7165 177.146 81.2837 178.404C80.9096 178.553 80.4856 178.803 80.4606 179.202C80.4357 179.601 81.134 180.025 81.7077 180.112C88.367 181.172 95.4254 181.659 102.06 182.606" fill="black"/>
</g>
<g opacity="0.3">
<path opacity="0.3" d="M104.592 117.884C102.325 129.6 103.067 141.7 106.749 153.051L104.592 117.884Z" fill="black"/>
</g>
<path d="M138.792 240.187C138.792 240.187 131.932 234.648 129.954 232.134C127.977 229.619 126.675 228.175 126.675 228.175C126.675 228.175 118.463 225.686 115.409 222.275C112.354 218.865 107.434 213.848 107.434 213.848L97.708 223.981C97.708 223.981 103.316 233.017 103.779 236.005C104.242 238.992 107.66 247.207 107.66 247.207L126.324 236.117C126.324 236.117 130.305 241.643 132.846 242.253C134.974 242.726 138.629 244.232 138.792 240.187Z" fill="#FFC9BF"/>
<path d="M99.5 89.5C99.5 89.5 91.8469 91.6031 85.219 116.61C79.2378 139.184 71.1052 182.746 71.3788 187.139C71.6524 191.531 97.4924 230.814 97.4924 230.814L103.076 232.81L115.076 222.827C115.076 222.827 118.993 216.301 117.873 214.716C116.754 213.132 111.78 209.725 111.78 209.725L101.957 182.522L107.416 146.459L105.5 115.5L99.5 89.5Z" fill="url(#paint4_linear)"/>
<path d="M91.7383 180.861C91.9794 180.834 92.2229 180.834 92.464 180.861L94.516 181.136L101.961 182.271H102.098L102.161 182.421C103.712 186.662 105.677 191.988 107.816 197.788C109.355 202.079 110.807 206.108 112.07 209.601L111.983 209.476C112.796 210.162 113.597 210.723 114.31 211.447C114.975 212.12 115.52 212.9 115.924 213.754C116.566 215.15 116.801 216.698 116.6 218.22C116.428 219.174 116.143 220.103 115.749 220.989C115.643 221.318 115.496 221.632 115.311 221.925C115.362 221.588 115.451 221.257 115.574 220.939C115.9 220.047 114.954 219.657 115.086 218.716C115.22 217.266 114.951 215.808 114.31 214.5C113.924 213.702 113.403 212.977 112.771 212.355C112.108 211.718 111.257 211.107 110.444 210.459L110.5 210L110.444 209.732C109.193 206.239 108.792 202.366 107.228 198.063L100.8 183.338L101 183.5L94.4159 181.51L92.3889 181.098C92.1614 181.052 91.942 180.972 91.7383 180.861Z" fill="black" fill-opacity="0.09"/>
<path d="M104.725 116.581C104.895 116.581 105.941 124.491 107.156 134.254C108.372 144.018 106.326 155.345 106.144 155.345C106.018 155.345 103.997 170.306 103.997 170.306C103.618 167.543 103.639 138.653 103.281 135.623C102.126 125.854 104.603 116.581 104.725 116.581Z" fill="black" fill-opacity="0.09"/>
<path d="M127.029 44.0139C128.467 49.1819 130.993 53.1391 132.098 52.8408C132.098 52.8408 131.317 49.5417 130.291 44.2771C129.09 38.1351 128.923 33.8621 126.424 34.099C125.293 34.2043 125.6 38.8371 127.029 44.0139Z" fill="#FFC9BF"/>
<path d="M170.858 44.014C169.42 49.182 167.044 53.1743 165.947 52.8672C165.947 52.8672 167.114 48.6029 167.807 44.093C168.762 37.951 168.964 33.8271 171.463 34.064C172.595 34.2044 172.288 38.8372 170.858 44.014Z" fill="#FFC9BF"/>
<path d="M136.621 71.1705C136.621 71.1705 136.512 78.9082 148.246 80.9912C159.98 83.0743 162.761 72.675 162.761 72.675L162.377 60.8889L134.883 56.7115L136.621 71.1705Z" fill="#FFC9BF"/>
<path opacity="0.6" d="M135.5 62C137.955 67.1417 143.5 71.5 150 71.5C154 71.5 158.606 69.4665 162.5 63.5L162.227 55H135L135.5 62Z" fill="#F19F90"/>
<path d="M132.098 52.8409C136.64 67.7571 149.04 68.0204 149.04 68.0204C149.04 68.0204 162.133 68.0204 166.044 52.4812C168.631 42.2504 174.814 26.5883 167.395 14.98C163.177 8.40806 132.528 5.78456 128.915 14.98C125.302 24.1754 129.432 44.0842 132.098 52.8409Z" fill="#FFC9BF"/>
<path d="M142.375 52.2886C141.866 52.7098 143.419 58.106 149.022 58.1674C153.784 58.2113 156.169 53.324 155.74 52.587C155.205 51.7095 153.311 52.2974 149.215 52.2974C145.12 52.2974 142.919 51.8324 142.375 52.2886Z" fill="white"/>
<path d="M168.798 42.461C168.798 42.461 171.429 32.0722 171.885 26.8252C172.341 21.5782 172.902 14.5413 166.992 12.1283C161.081 9.71543 162.896 17.0595 162.896 17.0595C162.896 17.0595 167.57 20.2007 168.509 28.0712C169.017 32.353 168.798 42.461 168.798 42.461Z" fill="#535565"/>
<path d="M129.511 42.303C129.511 42.303 126.609 32.0722 126.135 26.8252C125.662 21.5782 125.118 14.5413 131.029 12.1283C136.939 9.71543 135.124 17.0595 135.124 17.0595C135.124 17.0595 130.45 20.2007 129.511 28.0712C129.003 32.353 129.511 42.303 129.511 42.303Z" fill="#535565"/>
<path d="M134.343 19.5776C134.343 19.5776 141.543 20.727 146.366 18.4545C147.778 17.7877 154.635 20.7095 157.766 20.1216C159.631 19.7762 161.392 19.0062 162.913 17.8713C164.434 16.7363 165.673 15.2667 166.535 13.576C166.886 12.0932 168.289 9.98735 163.966 6.71455C157.933 2.18704 150.487 3.28382 149.242 1.95891C148.662 1.23939 147.903 0.685418 147.041 0.35272C146.179 0.0200223 145.244 -0.0796743 144.331 0.0636633C137.868 0.712958 137.553 4.51221 133.913 5.08254C129.187 5.81958 127.591 7.71481 127.284 11.7071C126.749 19.2705 134.343 19.5776 134.343 19.5776Z" fill="#535565"/>
<path d="M159.389 36.2413C159.38 36.6745 159.2 37.0864 158.889 37.3872C158.577 37.6881 158.16 37.8537 157.728 37.8479C157.517 37.8573 157.306 37.8243 157.108 37.7508C156.91 37.6773 156.729 37.5647 156.575 37.4198C156.421 37.2749 156.298 37.1006 156.212 36.9072C156.126 36.7137 156.08 36.505 156.076 36.2933C156.092 35.8608 156.273 35.4509 156.583 35.1494C156.893 34.8479 157.307 34.678 157.739 34.6752C157.95 34.6676 158.161 34.7023 158.359 34.7772C158.557 34.8521 158.738 34.9657 158.892 35.1115C159.045 35.2573 159.168 35.4323 159.254 35.6262C159.339 35.8202 159.385 36.0293 159.389 36.2413Z" fill="#535565"/>
<path d="M161.216 35.6933C161.003 35.8993 159.789 34.9261 158.005 34.8598C156.22 34.7935 154.88 35.6246 154.696 35.4258C154.511 35.2271 154.828 34.941 155.413 34.5496C156.199 34.0331 157.129 33.7807 158.067 33.8293C158.994 33.8603 159.886 34.1878 160.613 34.7638C161.15 35.2063 161.321 35.6017 161.216 35.6933Z" fill="#535565"/>
<path d="M141.791 36.9515C141.72 37.3802 141.484 37.7637 141.133 38.0192C140.782 38.2748 140.345 38.3818 139.917 38.3171C139.706 38.2965 139.503 38.2338 139.317 38.1329C139.131 38.032 138.968 37.8948 138.836 37.7296C138.704 37.5643 138.606 37.3742 138.549 37.1705C138.491 36.9668 138.475 36.7536 138.501 36.5436C138.575 36.1162 138.812 35.7345 139.162 35.4795C139.512 35.2245 139.947 35.1164 140.376 35.1779C140.586 35.1986 140.79 35.2612 140.975 35.3621C141.161 35.463 141.325 35.6002 141.457 35.7655C141.589 35.9308 141.686 36.1209 141.744 36.3246C141.801 36.5283 141.817 36.7414 141.791 36.9515Z" fill="#535565"/>
<path d="M143.587 36.2119C143.364 36.4141 142.17 35.3987 140.382 35.3231C138.593 35.2476 137.236 35.9999 137.059 35.7709C136.883 35.5418 137.195 35.28 137.812 34.9108C138.62 34.4343 139.554 34.2158 140.489 34.284C141.412 34.3519 142.29 34.7088 142.999 35.3043C143.499 35.7071 143.618 36.1004 143.587 36.2119Z" fill="#535565"/>
<path d="M143.687 30.6528C143.467 31.1168 141.724 30.7041 139.611 30.7378C137.498 30.7715 135.763 31.1624 135.532 30.7161C135.434 30.4964 135.765 30.066 136.491 29.7247C137.447 29.2288 138.511 28.9757 139.588 28.9878C140.666 28.9643 141.734 29.2021 142.7 29.6808C143.449 30.0046 143.791 30.4254 143.687 30.6528Z" fill="#535565"/>
<path d="M154.085 30.6528C154.305 31.1168 156.048 30.7041 158.161 30.7378C160.274 30.7715 162.01 31.1624 162.24 30.7161C162.339 30.4964 162.007 30.066 161.282 29.7247C160.325 29.2288 159.261 28.9757 158.184 28.9878C157.106 28.9643 156.039 29.2021 155.072 29.6808C154.323 30.0046 153.982 30.4254 154.085 30.6528Z" fill="#535565"/>
<path d="M147.359 46.4222C148.051 46.363 148.747 46.3941 149.431 46.5147C149.751 46.5591 150.068 46.5597 150.167 46.36C150.267 46.0413 150.268 45.6995 150.168 45.3805C150.052 44.5516 149.923 43.684 149.791 42.7726C149.279 39.0723 148.981 36.0607 149.133 36.0416C149.285 36.0225 149.815 39.0068 150.327 42.7071C150.454 43.6082 150.557 44.5018 150.668 45.3204C150.781 45.7437 150.738 46.1933 150.548 46.5876C150.477 46.6868 150.384 46.7689 150.278 46.8277C150.171 46.8865 150.053 46.9206 149.931 46.9276C149.746 46.9354 149.56 46.921 149.379 46.8846C148.689 46.8167 148.01 46.6613 147.359 46.4222Z" fill="#F7B0A3"/>
<defs>
<linearGradient id="paint0_linear" x1="264.252" y1="81" x2="264.252" y2="200" gradientUnits="userSpaceOnUse">
<stop stop-color="#FFE89A"/>
<stop offset="1" stop-color="#FFDC63"/>
</linearGradient>
<linearGradient id="paint1_linear" x1="299.464" y1="90" x2="299.464" y2="207.839" gradientUnits="userSpaceOnUse">
<stop stop-color="#FFE89A"/>
<stop offset="1" stop-color="#FFDC63"/>
</linearGradient>
<linearGradient id="paint2_linear" x1="150.556" y1="70.9316" x2="150.556" y2="226.49" gradientUnits="userSpaceOnUse">
<stop stop-color="#4EDE97"/>
<stop offset="0.84375" stop-color="#2DB974"/>
</linearGradient>
<linearGradient id="paint3_linear" x1="209" y1="71.5" x2="209.021" y2="182.596" gradientUnits="userSpaceOnUse">
<stop stop-color="#4EDE97"/>
<stop offset="0.84375" stop-color="#2DB974"/>
</linearGradient>
<linearGradient id="paint4_linear" x1="95" y1="72" x2="94.7233" y2="232.81" gradientUnits="userSpaceOnUse">
<stop stop-color="#4EDE97"/>
<stop offset="0.84375" stop-color="#2DB974"/>
</linearGradient>
</defs>
</svg>
