<svg width="190" height="193" viewBox="0 0 190 193" fill="none" xmlns="http://www.w3.org/2000/svg">
<path fill-rule="evenodd" clip-rule="evenodd" d="M187.218 104.091C185.558 143.204 156.819 174.391 119.366 185.862C81.7175 197.394 39.3226 188.524 16.6829 156.324C-6.11474 123.9 -0.387802 80.8924 23.1269 48.9849C47.6351 15.7294 87.795 -6.48183 126.97 6.67403C167 20.1171 189.007 61.9245 187.218 104.091Z" fill="#F0FCFF"/>
<mask id="mask0" mask-type="alpha" maskUnits="userSpaceOnUse" x="2" y="2" width="186" height="189">
<path fill-rule="evenodd" clip-rule="evenodd" d="M187.369 103.591C185.709 142.704 156.97 173.891 119.517 185.362C81.8684 196.894 39.4735 188.024 16.8338 155.824C-5.96386 123.4 -0.236923 80.3924 23.2778 48.4849C47.786 15.2294 87.9459 -6.98183 127.121 6.17403C167.151 19.6171 189.158 61.4245 187.369 103.591Z" fill="#F0FCFF"/>
</mask>
<g mask="url(#mask0)">
<path d="M68.6357 191.575C68.4238 190.699 74.6378 158.467 74.6378 158.467L107.919 153.571C107.919 153.571 121.426 162.028 121.849 169.02C122.273 176.011 125.413 191.563 125.413 191.563H93.2065L92.1894 190.236L91.5345 191.479L68.6357 191.575Z" fill="#7095E1"/>
<path d="M94.7988 185.162C94.7988 185.162 94.7988 185.181 94.7988 185.221C94.7914 185.278 94.7785 185.333 94.7603 185.387C94.6913 185.599 94.5737 185.791 94.4174 185.946C94.1728 186.196 93.8665 186.373 93.5314 186.457C93.0845 186.57 92.6131 186.52 92.1984 186.314C91.6979 186.068 91.2748 185.683 90.9772 185.201C90.6423 184.655 90.4097 184.049 90.2915 183.415C90.1528 182.753 90.0757 182.056 89.9717 181.335C89.8677 180.614 89.7714 179.869 89.6674 179.105C89.2821 176.059 88.8969 173.302 88.6426 171.27C88.5232 170.287 88.4269 169.483 88.3537 168.893C88.3267 168.632 88.3036 168.418 88.2844 168.247C88.275 168.171 88.275 168.094 88.2844 168.018C88.3072 168.09 88.324 168.164 88.3344 168.239L88.4384 168.881C88.5271 169.471 88.6465 170.271 88.789 171.258C89.0703 173.286 89.4516 176.043 89.8754 179.085C89.9781 179.851 90.0783 180.594 90.1759 181.315C90.2761 182.036 90.3493 182.737 90.4802 183.383C90.5898 183.997 90.8078 184.585 91.1236 185.118C91.4075 185.576 91.8069 185.947 92.2793 186.191C92.6657 186.394 93.1089 186.45 93.5314 186.35C93.8434 186.272 94.1294 186.109 94.3597 185.878C94.5634 185.682 94.7146 185.435 94.7988 185.162Z" fill="#3F4256"/>
<path d="M92.0054 165.78C92.1173 165.722 92.2441 165.703 92.3675 165.724C92.5388 165.741 92.7051 165.792 92.8566 165.876C93.0081 165.96 93.1418 166.074 93.2497 166.211C93.4044 166.425 93.5009 166.677 93.5294 166.941C93.5578 167.206 93.5171 167.474 93.4115 167.717C93.2873 168.017 93.0827 168.275 92.8215 168.461C92.5604 168.647 92.2533 168.753 91.9361 168.766C91.6029 168.787 91.2729 168.69 90.9999 168.493C90.7502 168.31 90.5586 168.055 90.449 167.76C90.3448 167.494 90.3207 167.201 90.3797 166.92C90.4321 166.678 90.5495 166.456 90.7187 166.279C90.9571 166.022 91.2769 165.862 91.6202 165.827C91.7428 165.809 91.8679 165.826 91.9823 165.875C91.9823 165.894 91.8513 165.875 91.6279 165.91C91.3167 165.971 91.0337 166.135 90.8227 166.378C90.6708 166.554 90.571 166.77 90.5348 167.003C90.4986 167.235 90.5277 167.473 90.6185 167.689C90.7204 167.956 90.9012 168.184 91.1354 168.34C91.3696 168.497 91.6456 168.573 91.9245 168.56C92.2054 168.548 92.4775 168.456 92.7102 168.293C92.9429 168.131 93.1271 167.905 93.242 167.641C93.3396 167.428 93.381 167.192 93.362 166.957C93.3431 166.722 93.2645 166.496 93.1342 166.302C92.9492 166.04 92.6733 165.862 92.3637 165.803C92.1441 165.764 92.0054 165.799 92.0054 165.78Z" fill="#3F4256"/>
<path d="M113.583 75.0647H96.0156L94.0624 80.3806L82.9212 96.0866L74.1685 160.923L85.3097 163.042C87.2439 163.412 89.2194 163.497 91.1769 163.296L107.92 161.596L108.42 103.763L116.576 80.5113L113.583 75.0647Z" fill="#F5F5F5"/>
<path d="M100.234 86.4531C100.234 86.4531 100.234 86.5205 100.187 86.6472C100.141 86.774 100.099 86.972 100.029 87.2176C99.883 87.7247 99.6749 88.4575 99.4053 89.3963C99.1356 90.3351 98.7927 91.4997 98.4229 92.8504C98.0531 94.2012 97.6139 95.7302 97.1747 97.4375C96.7355 99.1447 96.2309 101.003 95.7416 103.019C95.2524 105.035 94.7361 107.182 94.2006 109.448C93.1682 113.995 92.1126 119.006 91.1187 124.294C90.1248 129.582 89.3466 134.653 88.6878 139.271C88.3758 141.581 88.0676 143.775 87.8326 145.839C87.5976 147.903 87.3626 149.8 87.1777 151.571C86.9927 153.341 86.8425 154.914 86.7077 156.324C86.5728 157.734 86.4688 158.923 86.3879 159.889C86.307 160.856 86.2415 161.628 86.1953 162.155C86.1722 162.405 86.1529 162.603 86.1414 162.741C86.1298 162.88 86.1144 162.943 86.1144 162.943C86.111 162.876 86.111 162.809 86.1144 162.741C86.1144 162.599 86.1375 162.405 86.1491 162.151C86.1876 161.624 86.2415 160.86 86.307 159.885C86.3725 158.911 86.4611 157.695 86.5921 156.297C86.7231 154.898 86.8425 153.31 87.0313 151.543C87.22 149.776 87.4165 147.863 87.6631 145.803C87.9096 143.744 88.1947 141.545 88.5029 139.232C89.1501 134.609 89.9476 129.543 90.9184 124.247C91.8892 118.951 92.964 113.948 94.0003 109.392C94.5397 107.126 95.0405 104.968 95.5413 102.963C96.0421 100.959 96.5391 99.0853 97.0014 97.386C97.4636 95.6866 97.899 94.1536 98.2765 92.8068C98.654 91.46 99.0008 90.3034 99.2897 89.3606L99.9523 87.1939L100.13 86.6314L100.234 86.4531Z" fill="#7095E1"/>
<path d="M79.2338 155.802C79.2396 156.922 79.3623 158.039 79.5998 159.133C79.9084 160.21 80.3308 161.248 80.8596 162.23C80.6328 161.99 80.4419 161.716 80.2933 161.418C79.5124 160.01 79.1133 158.413 79.1375 156.792C79.1221 156.459 79.1545 156.125 79.2338 155.802Z" fill="#7095E1"/>
<path d="M80.2195 162.476C79.9866 162.416 79.7679 162.308 79.5761 162.159C78.6 161.524 77.8249 160.61 77.3456 159.529C77.2295 159.313 77.155 159.077 77.126 158.832C77.8065 160.316 78.8732 161.577 80.2079 162.476H80.2195Z" fill="#7095E1"/>
<path d="M93.7762 156.372C93.8483 156.704 93.8717 157.046 93.8456 157.386C93.8295 158.204 93.7249 159.019 93.5335 159.814C93.3454 160.611 93.0688 161.383 92.7091 162.115C92.5779 162.427 92.4041 162.718 92.1929 162.979C92.3036 162.662 92.4322 162.353 92.5781 162.052C93.214 160.573 93.5934 158.991 93.6992 157.378C93.704 157.041 93.7298 156.705 93.7762 156.372Z" fill="#7095E1"/>
<path d="M94.5202 79.1289C94.5202 79.1289 83.7912 83.7952 82.2464 84.1002C80.7015 84.4052 75.312 85.7956 75.312 85.7956C75.312 85.7956 71.1591 93.4406 71.5443 97.8138C71.9296 102.187 74.8304 133.563 74.8304 133.563C74.8304 133.563 70.0958 160.674 69.9995 162.662C69.9032 164.651 65.8119 183.617 66.6016 183.502C67.3914 183.387 70.9472 179.331 70.9472 179.331L82.7318 112.692C82.7318 112.692 85.8137 97.3978 88.1252 92.4345C90.4367 87.4711 94.5048 81.0144 94.5048 81.0144L94.5202 79.1289Z" fill="#7095E1"/>
<path d="M78.7859 135.009C78.7819 134.956 78.7819 134.903 78.7859 134.851C78.7859 134.74 78.7859 134.585 78.7628 134.391C78.7435 133.995 78.7165 133.385 78.6857 132.629C78.6279 131.084 78.5509 128.865 78.4546 126.132C78.3583 123.399 78.2658 120.119 78.1849 116.491C78.1464 114.677 78.1079 112.775 78.104 110.799C78.2034 108.753 78.5305 106.726 79.0787 104.758C79.9224 101.403 80.9818 98.2575 82.0027 95.35C83.0236 92.4425 84.056 89.7806 85.0076 87.4276C86.0914 86.4954 87.084 85.6411 87.9855 84.8648L88.0548 84.9836L85.8628 85.8669L85.6625 85.9461L85.7973 85.7758L88.2744 82.5593C88.5595 82.1949 88.7791 81.9097 88.937 81.7117L89.1104 81.4938C89.1489 81.4463 89.172 81.4225 89.172 81.4265C89.1582 81.4547 89.1414 81.4812 89.122 81.5057L88.9601 81.7315L88.3206 82.595L85.8859 85.8471L85.8204 85.756L88.0047 84.8568L88.39 84.6944L88.0702 84.9717L85.1077 87.5544L85.1308 87.5227C84.1908 89.8637 83.1738 92.5257 82.1529 95.445C81.132 98.3644 80.088 101.498 79.2482 104.841C78.7023 106.793 78.3752 108.802 78.2735 110.83C78.2735 112.811 78.312 114.708 78.3429 116.518C78.4276 120.147 78.5047 123.411 78.5701 126.16C78.6356 128.909 78.6973 131.111 78.7358 132.656C78.7358 133.413 78.7666 134.007 78.7743 134.423C78.7743 134.617 78.7743 134.772 78.7743 134.882C78.7808 134.924 78.7847 134.967 78.7859 135.009Z" fill="#3F4256"/>
<path d="M75.2907 85.7957C75.2907 85.7957 71.7542 88.5685 71.1494 91.6978C70.5445 94.8271 69.6392 108.073 69.6392 108.073C69.6392 108.073 68.1213 109.824 68.1213 110.141C68.1213 110.458 67.3932 118.764 67.3932 118.764L56.044 104.108L45.7349 114.118C45.7349 114.118 59.1067 138.158 64.3999 140.293C72.4592 143.546 74.867 138.828 74.867 138.828L76.0766 119.47L75.2907 85.7957Z" fill="#7095E1"/>
<path d="M72.6697 98.9902C72.6822 99.0246 72.6899 99.0606 72.6928 99.0972C72.6928 99.1804 72.7236 99.2834 72.7429 99.4101L72.9162 100.622C73.0626 101.672 73.2668 103.193 73.5057 105.075C73.9757 108.838 74.592 114.047 74.9195 119.83C75.0736 122.726 75.1237 125.487 75.0929 127.998C75.062 129.254 75.0428 130.446 74.9696 131.563C74.9349 132.121 74.9156 132.66 74.8733 133.179C74.8309 133.698 74.7885 134.189 74.7461 134.661C74.6768 135.611 74.5574 136.459 74.4726 137.208C74.4264 137.584 74.384 137.929 74.3416 138.253C74.2993 138.578 74.2453 138.859 74.2068 139.125C74.122 139.636 74.0566 140.04 74.0065 140.313C73.9834 140.44 73.9641 140.543 73.9525 140.626C73.941 140.709 73.9294 140.733 73.9256 140.729C73.9222 140.694 73.9222 140.658 73.9256 140.622C73.9256 140.539 73.9487 140.436 73.9641 140.305C74.0026 140.016 74.0566 139.608 74.1259 139.097C74.1606 138.832 74.1991 138.539 74.2453 138.222C74.2916 137.905 74.3185 137.552 74.357 137.18C74.4341 136.431 74.542 135.595 74.6036 134.633C74.6383 134.161 74.6768 133.666 74.7153 133.151C74.7538 132.636 74.7693 132.098 74.7962 131.539C74.8656 130.426 74.8771 129.238 74.9041 127.974C74.9272 125.471 74.8694 122.714 74.7153 119.822C74.3879 114.047 73.7946 108.838 73.3593 105.071C73.1397 103.201 72.974 101.68 72.8353 100.61C72.7776 100.095 72.7352 99.6914 72.7005 99.3982C72.7005 99.2675 72.6774 99.1645 72.6697 99.0813C72.6674 99.051 72.6674 99.0206 72.6697 98.9902Z" fill="#3F4256"/>
<path d="M70.5942 130.264C70.5596 130.109 70.5428 129.951 70.5441 129.792C70.5441 129.491 70.494 129.052 70.4401 128.513C70.2957 127.111 70.038 125.724 69.6696 124.366C69.2978 123.006 68.8145 121.681 68.2249 120.404C68.0015 119.913 67.8088 119.521 67.6702 119.256C67.5903 119.12 67.5257 118.975 67.4775 118.824C67.5797 118.945 67.6676 119.078 67.7395 119.22C67.8975 119.474 68.1247 119.858 68.352 120.341C69.6176 122.879 70.3723 125.653 70.571 128.497C70.6096 129.04 70.6211 129.48 70.6134 129.785C70.6259 129.945 70.6194 130.105 70.5942 130.264Z" fill="#3F4256"/>
<path d="M71.876 127.344C71.8413 127.344 71.8182 126.778 71.6602 125.883C71.2455 123.535 70.2023 121.352 68.6476 119.581C68.0505 118.903 67.6267 118.539 67.6498 118.511C67.7668 118.571 67.8746 118.648 67.9696 118.741C68.2419 118.97 68.4993 119.217 68.7401 119.481C70.3794 121.228 71.4463 123.458 71.7912 125.859C71.8446 126.218 71.8755 126.581 71.8837 126.944C71.9 127.077 71.8974 127.212 71.876 127.344Z" fill="#3F4256"/>
<path d="M78.784 135.009C78.7891 135.049 78.7891 135.089 78.784 135.128C78.784 135.219 78.7532 135.334 78.7339 135.481C78.68 135.802 78.6106 136.273 78.5143 136.827C78.3178 138.016 78.0327 139.691 77.6783 141.767C76.9541 145.95 75.9524 151.702 74.8468 158.059C73.7411 164.417 72.6971 170.161 71.9536 174.34C71.5684 176.411 71.2717 178.091 71.056 179.271L70.8017 180.61L70.7285 180.955C70.7238 180.996 70.7134 181.036 70.6977 181.074C70.6926 181.033 70.6926 180.992 70.6977 180.951C70.6977 180.86 70.7285 180.745 70.7517 180.602C70.8017 180.282 70.8749 179.83 70.9674 179.256C71.1677 178.067 71.4528 176.392 71.8034 174.316L74.6388 158.02C75.7637 151.682 76.7884 145.918 77.5281 141.739C77.9133 139.672 78.2138 137.988 78.4295 136.812L78.6838 135.473C78.7108 135.33 78.7339 135.215 78.7532 135.124C78.7605 135.085 78.7708 135.047 78.784 135.009Z" fill="#3F4256"/>
<path d="M114.549 76.8669L104.841 98.7049C104.841 98.7049 99.8095 112.854 99.4281 114.613C99.0467 116.372 94.0347 138.721 94.0347 138.721L97.3555 171.808C97.3555 171.808 97.7792 183.323 100.984 184.302C104.19 185.28 128.398 181.081 128.398 181.081L124.411 153.46C124.411 153.46 122.889 132.28 122.889 131.987C122.889 131.694 127.258 100.361 127.258 100.361L130.147 88.2672L121.942 84.8447L114.549 76.8669Z" fill="#7095E1"/>
<path d="M95.6699 133.381C95.6844 133.329 95.7037 133.279 95.7277 133.23L95.9126 132.775C96.0937 132.379 96.348 131.804 96.6831 131.072L99.5455 124.829C101.996 119.56 105.37 112.304 109.103 104.286C111.973 98.1662 114.635 92.4859 116.808 87.8632L116.881 87.982H113.626H113.368L113.588 87.8434C114.797 87.0511 115.899 86.3698 116.847 85.7519L116.82 85.8073C116.739 83.7039 116.673 82.0403 116.627 80.8915C116.608 80.329 116.592 79.8933 116.585 79.5883V79.2516C116.581 79.2134 116.581 79.1749 116.585 79.1367C116.587 79.175 116.587 79.2133 116.585 79.2516C116.585 79.3335 116.592 79.4444 116.608 79.5843C116.627 79.8933 116.65 80.3251 116.685 80.8876C116.743 82.0363 116.827 83.7 116.935 85.7994V85.8351L116.905 85.8549C115.945 86.4847 114.867 87.1858 113.657 87.9701L113.618 87.8315H116.874H117.005L116.947 87.9503C114.786 92.5809 112.135 98.2494 109.273 104.393C101.811 120.293 96.1476 132.363 95.6699 133.381Z" fill="#3F4256"/>
<path d="M119.534 108.6C119.383 108.616 119.231 108.616 119.08 108.6C118.791 108.576 118.371 108.553 117.855 108.529C115.153 108.393 112.446 108.614 109.799 109.186C109.291 109.293 108.882 109.388 108.597 109.456C108.454 109.503 108.305 109.531 108.154 109.539C108.29 109.471 108.432 109.418 108.578 109.381C108.855 109.285 109.264 109.171 109.768 109.044C111.091 108.72 112.435 108.5 113.79 108.386C115.146 108.278 116.507 108.278 117.862 108.386C118.382 108.43 118.802 108.477 119.087 108.525C119.239 108.531 119.389 108.556 119.534 108.6Z" fill="#3F4256"/>
<path d="M118.998 108.493C120.339 108.545 118.771 104.314 118.155 102.27C118.043 101.874 117.839 101.438 117.45 101.399C117.203 101.408 116.967 101.509 116.787 101.684C114.175 103.664 111.995 106.37 110.038 109.044C110.038 109.032 116.209 108.386 118.998 108.493Z" fill="#E0E0E0"/>
<path d="M98.8175 140.286C97.6111 140.779 96.3042 140.954 95.0151 140.797C95.0151 140.737 95.8742 140.725 96.9221 140.579C97.97 140.432 98.8021 140.23 98.8175 140.286Z" fill="#3F4256"/>
<path d="M123.888 153.571C123.888 153.627 120.872 154.134 117.127 154.704C113.383 155.275 110.347 155.687 110.339 155.631C110.332 155.576 113.356 155.069 117.1 154.498C120.845 153.928 123.881 153.516 123.888 153.571Z" fill="#3F4256"/>
<path d="M109.423 179.85C109.4 179.813 109.382 179.773 109.369 179.731C109.331 179.64 109.284 179.525 109.226 179.378C109.099 179.057 108.922 178.586 108.699 178.024C108.475 177.461 108.19 176.709 107.897 175.861C107.605 175.013 107.239 174.051 106.896 172.969C106.553 171.888 106.152 170.719 105.775 169.44C105.397 168.16 105.004 166.794 104.6 165.348C103.829 162.452 103.059 159.244 102.392 155.841C101.726 152.438 101.237 149.174 100.851 146.196C100.682 144.702 100.508 143.288 100.397 141.957C100.285 140.626 100.177 139.386 100.104 138.253C100.031 137.121 99.9845 136.091 99.9421 135.191C99.8997 134.292 99.8766 133.512 99.8689 132.878C99.8612 132.244 99.8497 131.765 99.8458 131.416C99.8458 131.258 99.8458 131.131 99.8458 131.02C99.8424 130.977 99.8424 130.933 99.8458 130.89C99.85 130.933 99.85 130.977 99.8458 131.02C99.8458 131.115 99.8458 131.242 99.8458 131.416L99.9075 132.874C99.9267 133.508 99.9575 134.284 100.015 135.184C100.073 136.083 100.112 137.113 100.208 138.242C100.304 139.371 100.385 140.618 100.524 141.937C100.663 143.256 100.82 144.682 100.998 146.172C101.383 149.143 101.888 152.403 102.539 155.801C103.19 159.2 103.968 162.397 104.727 165.308C105.112 166.754 105.497 168.129 105.883 169.4C106.268 170.672 106.63 171.86 106.981 172.937C107.331 174.015 107.662 174.981 107.951 175.833C108.24 176.685 108.498 177.418 108.722 178.004L109.219 179.378C109.269 179.525 109.307 179.644 109.342 179.735C109.374 179.769 109.402 179.808 109.423 179.85Z" fill="#3F4256"/>
<path d="M128.384 181.082C128.326 181.095 128.269 181.106 128.21 181.113L127.709 181.192L125.783 181.482L118.66 182.492L108.085 183.969L105.03 184.393L103.451 184.611C102.91 184.72 102.358 184.749 101.81 184.698C101.241 184.612 100.703 184.384 100.241 184.033C99.7794 183.682 99.4091 183.219 99.1629 182.686C99.0455 182.413 98.9551 182.129 98.8933 181.838L98.6852 180.986C98.5466 180.412 98.4002 179.838 98.3 179.251C97.4284 174.859 96.8428 170.411 96.5471 165.938C96.2312 161.818 96.0117 158.107 95.7535 154.997C95.4954 151.888 95.2142 149.376 94.9831 147.645C94.8675 146.782 94.7596 146.112 94.698 145.665C94.671 145.443 94.6479 145.269 94.6286 145.146C94.6251 145.086 94.6251 145.027 94.6286 144.968C94.6286 144.968 94.6286 145.027 94.6633 145.142L94.7558 145.657C94.829 146.112 94.9484 146.778 95.0755 147.637C95.3259 149.368 95.6341 151.876 95.9038 154.989C96.1735 158.103 96.4123 161.81 96.7359 165.926C97.0459 170.389 97.6366 174.827 98.5042 179.212C98.612 179.798 98.7584 180.369 98.8894 180.939C99.0023 181.505 99.1569 182.061 99.3517 182.603C99.5847 183.105 99.9342 183.542 100.369 183.873C100.805 184.205 101.312 184.421 101.848 184.504C102.379 184.552 102.913 184.522 103.435 184.417L105.015 184.199L108.07 183.783L118.649 182.353L125.779 181.402L127.706 181.157L128.214 181.097C128.322 181.082 128.384 181.082 128.384 181.082Z" fill="#3F4256"/>
<path d="M96.3662 84.8886L96.7823 89.9074L101.039 91.6979L105.99 86.7504L102.711 84.8886H100.269L98.1075 84.1003L96.3662 84.8886Z" fill="#A2BAFB"/>
<path d="M96.7807 89.9075C96.7807 89.9075 83.6824 124.944 81.8525 141.43L87.1843 153.571L92.8743 144.96L101.176 90.9572L96.7807 89.9075Z" fill="#A2BAFB"/>
<path d="M101.027 91.8485C100.392 91.4009 99.7159 91.0188 99.0081 90.7077C98.2761 90.4619 97.5226 90.2894 96.7583 90.1928C97.5454 90.1165 98.3391 90.2259 99.0789 90.5129C99.8186 90.7998 100.485 91.2567 101.027 91.8485Z" fill="#7095E1"/>
<path d="M102.926 84.9004C102.721 85.2103 102.479 85.4924 102.206 85.7402C101.579 86.3707 100.904 86.9483 100.187 87.4672C99.47 87.9885 98.7124 88.4482 97.9219 88.8418C97.603 89.0216 97.2641 89.1612 96.9126 89.2577C97.2168 89.0548 97.5333 88.8722 97.8603 88.711C98.6224 88.2837 99.3606 87.8129 100.072 87.3009C100.778 86.7828 101.457 86.2261 102.106 85.6332C102.364 85.3716 102.638 85.1269 102.926 84.9004Z" fill="#7095E1"/>
<path d="M100.62 91.4324C100.618 91.4872 100.61 91.5415 100.597 91.5948C100.574 91.7097 100.547 91.8641 100.508 92.0662L100.15 93.8804C99.8419 95.4648 99.3796 97.7386 98.8595 100.563C97.8001 106.208 96.444 114.031 95.2267 122.718C94.6141 127.075 94.0979 131.206 93.6587 134.997C93.4392 136.883 93.2196 138.681 92.9191 140.345C92.6537 141.893 92.279 143.42 91.798 144.912C91.1164 147.086 90.0636 149.119 88.6891 150.913C88.1877 151.571 87.6166 152.169 86.9863 152.696C87.0187 152.652 87.0562 152.612 87.098 152.577L87.4332 152.244C87.856 151.807 88.2548 151.345 88.6275 150.862C89.9683 149.059 90.9953 147.032 91.6632 144.869C92.1321 143.383 92.4965 141.865 92.7534 140.325C93.0462 138.661 93.2619 136.871 93.4777 134.981C93.9053 131.203 94.4138 127.059 95.0187 122.702C96.236 114.011 97.6113 106.188 98.7093 100.547C99.2563 97.7267 99.7302 95.449 100.061 93.8764C100.231 93.0842 100.366 92.494 100.447 92.0701L100.555 91.5987C100.569 91.5404 100.591 91.4844 100.62 91.4324Z" fill="#7095E1"/>
<path d="M96.7651 111.492C96.5189 111.118 96.295 110.729 96.0948 110.327C95.7095 109.602 95.1355 108.604 94.4922 107.519C93.8488 106.433 93.2324 105.467 92.7817 104.773C92.5232 104.409 92.289 104.026 92.0806 103.629C92.0806 103.629 92.173 103.716 92.3156 103.898C92.4581 104.08 92.6584 104.35 92.8973 104.69C93.3788 105.364 94.0106 106.322 94.6617 107.412C95.3128 108.501 95.8521 109.515 96.2027 110.26C96.3876 110.632 96.534 110.937 96.6264 111.151C96.7189 111.365 96.7805 111.484 96.7651 111.492Z" fill="#FAFAFA"/>
<path d="M94.3155 126.782C94.22 126.636 94.1387 126.481 94.0728 126.318C93.911 125.978 93.7068 125.546 93.4679 125.031C92.9556 123.942 92.2506 122.44 91.4416 120.797C90.6326 119.153 89.8698 117.675 89.3189 116.61L88.664 115.346C88.5763 115.194 88.5041 115.034 88.4482 114.867C88.5557 115.004 88.6511 115.151 88.7333 115.306C88.9067 115.592 89.1494 116.015 89.4422 116.538C90.0277 117.588 90.8059 119.054 91.6188 120.702C92.4316 122.349 93.1174 123.87 93.5951 124.968C93.8339 125.522 94.0188 125.974 94.1421 126.287C94.2173 126.445 94.2755 126.611 94.3155 126.782Z" fill="#FAFAFA"/>
<path d="M92.7121 140.325C92.6659 140.357 90.9015 137.497 88.775 133.94C86.6484 130.382 84.961 127.475 85.0073 127.447C85.0535 127.419 86.8179 130.275 88.9445 133.833C91.071 137.39 92.7776 140.289 92.7121 140.325Z" fill="#FAFAFA"/>
<path d="M89.5989 149.654C89.5526 149.685 87.9077 147.297 85.9236 144.322C83.9396 141.347 82.3679 138.907 82.4141 138.871C82.4603 138.836 84.1053 141.228 86.0893 144.207C88.0733 147.186 89.6451 149.622 89.5989 149.654Z" fill="#FAFAFA"/>
<path d="M98.4406 101.981C98.2082 101.76 97.9967 101.517 97.8088 101.256C97.3889 100.741 96.8919 100.139 96.3487 99.4693L94.854 97.7106C94.6329 97.4805 94.433 97.2299 94.2568 96.9619C94.5142 97.1498 94.7495 97.3678 94.958 97.6115C95.3702 98.0354 95.9211 98.6414 96.499 99.3386C97.0768 100.036 97.5776 100.685 97.9205 101.169C98.1228 101.419 98.2972 101.691 98.4406 101.981Z" fill="#FAFAFA"/>
<path d="M97.4361 92.5179C97.3822 92.5416 97.2319 92.296 96.9777 92.0663C96.7234 91.8365 96.4691 91.7098 96.4846 91.6702C96.5 91.6306 96.8197 91.6702 97.1086 91.9277C97.3976 92.1851 97.4862 92.502 97.4361 92.5179Z" fill="#FAFAFA"/>
<path d="M97.9807 93.805C97.9383 93.8486 97.7611 93.7297 97.5955 93.5435C97.4298 93.3574 97.2988 93.1712 97.3373 93.1474C97.3759 93.1237 97.5569 93.2267 97.7226 93.4128C97.8882 93.599 98.0192 93.7654 97.9807 93.805Z" fill="#FAFAFA"/>
<path d="M99.9536 95.3975C99.6124 95.1741 99.3069 94.8975 99.0483 94.5776C98.7415 94.3027 98.4812 93.9774 98.2778 93.615C98.9257 94.1105 99.4893 94.7128 99.9459 95.3975H99.9536Z" fill="#FAFAFA"/>
<path d="M100.116 87.1818C100.077 87.2294 99.3878 86.6194 98.417 86.0608C97.4462 85.5023 96.5909 85.2013 96.6102 85.1418C97.9557 85.433 99.1804 86.1457 100.116 87.1818Z" fill="#FAFAFA"/>
<path d="M103.764 88.8297C103.71 88.8614 103.309 88.2474 102.705 87.5898C102.1 86.9323 101.53 86.4807 101.549 86.4292C102.515 86.9649 103.288 87.8067 103.752 88.8297H103.764Z" fill="#FAFAFA"/>
<path d="M96.7871 95.0372C96.9676 94.2343 97.2137 93.4485 97.5229 92.6883C97.7701 91.905 98.0807 91.1445 98.4514 90.4146C98.2662 91.2166 98.0188 92.0021 97.7117 92.7635C97.4647 93.5462 97.1555 94.3067 96.7871 95.0372Z" fill="#7095E1"/>
<path d="M97.2881 98.0755C97.3045 97.7143 97.3574 97.3559 97.446 97.006C97.5693 96.3484 97.7658 95.4492 98.0162 94.4629C98.2666 93.4766 98.517 92.5893 98.7173 91.9555C98.8097 91.6041 98.9389 91.2641 99.1026 90.9414C99.0552 91.2988 98.9779 91.6514 98.8714 91.9951C98.6865 92.7081 98.4862 93.5796 98.2242 94.5144C97.9623 95.4492 97.7735 96.3246 97.5963 97.0377C97.5252 97.3927 97.422 97.7402 97.2881 98.0755Z" fill="#7095E1"/>
<g opacity="0.3">
<path opacity="0.3" d="M97.1792 90.2795V90.3271C97.4219 90.3944 97.5644 90.4657 97.5644 90.7232C97.565 90.9811 97.5124 91.2363 97.4103 91.4718C97.1522 92.2047 96.898 92.9375 96.6398 93.6743C96.5744 93.8604 96.5358 94.1258 96.713 94.209C96.8903 94.2922 97.0405 94.1219 97.1484 93.9753L98.0421 92.7434C97.9035 93.4485 97.7609 94.1575 97.6184 94.8626C97.576 95.0725 97.549 95.334 97.7185 95.4647C97.7917 95.509 97.8771 95.5272 97.9614 95.5165C98.0457 95.5057 98.1242 95.4667 98.1847 95.4053C98.3019 95.2783 98.389 95.1251 98.4389 94.9577C98.647 94.419 98.855 93.8842 99.0592 93.3494C99.1887 92.965 99.3675 92.6 99.5908 92.2641C99.8158 91.9255 100.16 91.6898 100.55 91.6065C99.5754 90.7073 98.4775 90.4578 97.1792 90.2795Z" fill="#393235"/>
</g>
<path d="M94.521 80.4244C94.5362 80.4691 94.5453 80.5158 94.548 80.5631L94.5942 80.9592C94.6328 81.3553 94.6867 81.8584 94.7522 82.5159C94.8755 83.8865 95.0527 85.8116 95.2646 88.1289L95.1028 88.1051L96.2778 84.8372V84.8015L96.3163 84.7817L98.0576 83.9895H98.0923H98.1308L100.292 84.7817H102.727L107.419 87.4397L107.303 87.4634L111.568 81.898L112.793 80.3135L113.124 79.9174C113.161 79.868 113.202 79.8228 113.248 79.7827C113.219 79.837 113.185 79.8886 113.148 79.9372C113.07 80.0481 112.966 80.1907 112.839 80.365L111.657 81.9693C110.62 83.3557 109.164 85.2927 107.45 87.5783L107.419 87.6417L107.35 87.6021L102.677 84.9798H102.723H100.253L98.0923 84.1875H98.1655L96.4203 84.9798L96.4704 84.9243C96.0428 86.0889 95.6421 87.1901 95.2761 88.1883L95.1451 88.5488L95.1143 88.1527C94.9294 85.8314 94.7792 83.9023 94.6674 82.5357C94.6212 81.8742 94.5865 81.3474 94.5596 80.9711C94.5596 80.8007 94.5403 80.6661 94.5365 80.5749C94.5256 80.5256 94.5204 80.475 94.521 80.4244Z" fill="#7095E1"/>
<path d="M68.6357 191.575C68.4238 190.699 74.6378 158.467 74.6378 158.467L107.919 153.571C107.919 153.571 121.426 162.028 121.849 169.02C122.273 176.011 125.413 191.563 125.413 191.563H93.2065L92.1894 190.236L91.5345 191.479L68.6357 191.575Z" fill="#535565"/>
<path d="M69.5396 186.089L74.0193 160.84L77.2772 161.654L69.5396 186.089Z" fill="black" fill-opacity="0.26"/>
<path d="M98.0469 186.496C95.4405 185.519 95.0604 170.613 95.1962 163.283L100.083 162.061L103.748 178.758L122.889 179.573L124.111 185.682C116.509 186.36 100.653 187.473 98.0469 186.496Z" fill="black" fill-opacity="0.26"/>
<path d="M113.583 75.0647H96.0156L94.0624 80.3806L82.9212 96.0866L74.1685 160.923L85.3097 163.042C87.2439 163.412 89.2194 163.497 91.1769 163.296L107.92 161.596L108.42 103.763L116.576 80.5113L113.583 75.0647Z" fill="white"/>
<path d="M94.5202 79.1289C94.5202 79.1289 83.7912 83.7952 82.2464 84.1002C80.7015 84.4052 75.312 85.7956 75.312 85.7956C75.312 85.7956 71.1591 93.4406 71.5443 97.8138C71.9296 102.187 74.8304 133.563 74.8304 133.563C74.8304 133.563 70.0958 160.674 69.9995 162.662C69.9032 164.651 65.8119 183.617 66.6016 183.502C67.3914 183.387 70.9472 179.331 70.9472 179.331L82.7318 112.692C82.7318 112.692 85.8137 97.3978 88.1252 92.4345C90.4367 87.4711 94.5048 81.0144 94.5048 81.0144L94.5202 79.1289Z" fill="#2DB974"/>
<path d="M75.2907 85.7957C75.2907 85.7957 71.7542 88.5685 71.1494 91.6978C70.5445 94.8271 69.6392 108.073 69.6392 108.073C69.6392 108.073 68.1213 109.824 68.1213 110.141C68.1213 110.458 67.3932 118.764 67.3932 118.764L56.044 104.108L45.7349 114.118C45.7349 114.118 59.1067 138.158 64.3999 140.293C72.4592 143.546 74.867 138.828 74.867 138.828L76.0766 119.47L75.2907 85.7957Z" fill="#2DB974"/>
<path d="M72.6702 98.5308C72.6827 98.5651 72.6905 98.6011 72.6933 98.6377C72.6933 98.7209 72.7241 98.8239 72.7434 98.9507L72.9168 100.163C73.0632 101.212 73.2673 102.734 73.5062 104.615C73.9762 108.378 74.5926 113.587 74.92 119.37C75.0741 122.266 75.1242 125.027 75.0934 127.538C75.0626 128.794 75.0433 129.986 74.9701 131.103C74.9354 131.662 74.9162 132.201 74.8738 132.72C74.8314 133.239 74.789 133.73 74.7467 134.201C74.6773 135.152 74.5579 135.999 74.4731 136.748C74.4269 137.124 74.3845 137.469 74.3422 137.794C74.2998 138.119 74.2615 138.3 74.2458 138.394C74.2206 138.546 74.0697 138.982 74.0196 139.255C73.9965 139.382 73.7076 140.073 73.6961 140.156C73.6845 140.24 73.7015 140.171 73.6977 140.167C73.6942 140.202 73.6942 140.131 73.6977 140.167C73.7011 140.131 73.2051 140.477 73.2051 140.477C73.2051 140.477 73.2051 140.477 72.3906 140.884C72.4253 140.619 73.1589 137.943 73.2051 137.626C73.2513 137.31 73.9811 135.963 74.0196 135.59C74.0967 134.842 74.2805 134.517 74.3422 133.554C74.3768 133.083 74.3883 132.44 74.4269 131.925C74.4654 131.41 74.4462 130.855 74.4731 130.296C74.5425 129.183 74.3999 127.894 74.4269 126.631C74.45 124.127 74.1737 120.97 74.0196 118.079C73.6922 112.303 73.7951 108.378 73.3598 104.611C73.1402 102.741 72.9746 101.22 72.8359 100.151C72.7781 99.6359 72.7357 99.2319 72.701 98.9388C72.701 98.808 72.6779 98.7051 72.6702 98.6219C72.6679 98.5915 72.6679 98.5611 72.6702 98.5308Z" fill="black" fill-opacity="0.1"/>
<path d="M114.549 76.8669L104.841 98.7049C104.841 98.7049 99.8095 112.854 99.4281 114.613C99.0467 116.372 94.0347 138.721 94.0347 138.721L97.3555 171.808C97.3555 171.808 97.7792 183.323 100.984 184.302C104.19 185.28 128.398 181.081 128.398 181.081L124.411 153.46C124.411 153.46 122.889 132.28 122.889 131.987C122.889 131.694 127.258 100.361 127.258 100.361L130.147 88.2672L121.942 84.8447L114.549 76.8669Z" fill="#2DB974"/>
<path d="M96.3662 84.8886L96.7823 89.9074L101.039 91.6979L105.99 86.7504L102.711 84.8886H100.269L98.1075 84.1003L96.3662 84.8886Z" fill="#28A768"/>
<path d="M96.7807 89.9075C96.7807 89.9075 83.6824 124.944 81.8525 141.43L87.1843 153.571L92.8743 144.96L101.176 90.9572L96.7807 89.9075Z" fill="#28A768"/>
<path d="M94.521 80.4244C94.5362 80.4691 94.5453 80.5158 94.548 80.5631L94.6674 80.7833C94.706 81.1794 94.7234 81.1761 94.7888 81.8337C94.9121 83.2042 95.2261 84.5352 95.4379 86.8525L95.2761 86.8287L96.2778 84.8372V84.8015L96.3163 84.7817L98.0576 83.9895H98.0923H98.1308L100.292 84.7817H102.727L107.414 86.7206L107.298 86.7444L111.568 81.898L112.793 80.3135L113.124 79.9174C113.161 79.868 113.202 79.8228 113.248 79.7827C113.219 79.837 113.185 79.8886 113.148 79.9372C113.07 80.0481 112.966 80.1907 112.839 80.365L111.657 81.9693C110.62 83.3557 109.164 85.2927 107.45 87.5783L107.419 87.6417L107.35 87.6021L102.677 84.9798H102.723H100.253L98.0923 84.1875H98.1655L96.4203 84.9798L96.4704 84.9243C96.0428 86.0889 95.6421 87.1901 95.2761 88.1883L95.1451 88.5488L95.1143 88.1527C94.9294 85.8314 94.7792 83.9023 94.6674 82.5357C94.6212 81.8742 94.5865 81.3474 94.5596 80.9711C94.5596 80.8007 94.5403 80.6661 94.5365 80.5749C94.5256 80.5256 94.5204 80.475 94.521 80.4244Z" fill="#E0E0E0"/>
<path d="M86.6264 49.5262C87.0109 49.917 87.4825 50.2052 88.0002 50.3658L108.038 71.7865C108.832 72.126 109.686 72.2947 110.546 72.2824C111.407 72.27 112.256 72.0769 113.041 71.7148C113.826 71.3527 113.844 70.6525 114.425 70C114.425 70 117.951 69.4492 119.037 59.7676C120.123 50.0859 120.343 44.8204 115.731 37.5184C115.402 36.2341 114.658 35.103 113.621 34.3112C112.585 33.5193 108.626 33.8875 107.336 33.9349C106.195 34.0101 105.093 34.4458 103.938 34.3112C102.381 34.1329 101.114 32.9248 99.6075 32.4851C98.8684 32.278 98.0916 32.2567 97.3427 32.4228C96.5939 32.589 95.8948 32.9377 95.3044 33.4397C94.4722 34.1646 93.8982 35.1787 93.016 35.8402C92.0452 36.5611 90.8471 36.775 89.7337 37.2266C88.6204 37.6782 87.4955 38.4704 87.2836 39.6588C87.0563 40.958 87.9732 42.3682 87.4647 43.5565C87.2258 44.119 86.7404 44.5072 86.3552 44.9865C86.02 45.4228 85.7937 45.9367 85.6959 46.4834C85.598 47.0302 85.6317 47.5932 85.7938 48.1236C85.956 48.6539 86.2418 49.1354 86.6264 49.5262Z" fill="#535565"/>
<path d="M112.056 52.7964C112.19 52.7686 117.332 52.4374 116.001 57.4576C114.67 62.4779 110.062 60.1335 110.091 59.9856C110.12 59.8377 112.056 52.7964 112.056 52.7964Z" fill="#FFC9BF"/>
<path d="M89.9017 67.1727C89.4944 63.9147 88.2639 56.075 88.6799 49.2538C88.8963 45.715 90.2244 41.7398 92.7172 39.2897C95.21 36.8395 98.5086 35.4443 101.957 35.3816H102.669C110.336 35.7064 113.687 42.6206 113.175 50.4756V76.4272L100.05 84.7972L95.4266 81.0776V72.4669C95.4266 72.4669 90.3089 70.4307 89.9017 67.1727Z" fill="#FFC9BF"/>
<path d="M95.479 72.4669C95.479 72.4669 98.8613 74.0855 107.006 69.6162C107.006 69.6162 102.837 74.7823 95.4791 74.2317L95.479 72.4669Z" fill="#F19F90"/>
<path d="M91.1074 53.8131C91.1094 54.0952 91.2184 54.3653 91.4113 54.5658C91.6042 54.7663 91.8656 54.8815 92.1399 54.8866C92.2738 54.8952 92.4081 54.8761 92.5347 54.8304C92.6614 54.7848 92.7779 54.7135 92.8773 54.6209C92.9768 54.5282 93.0572 54.416 93.1138 54.2909C93.1704 54.1658 93.2021 54.0303 93.207 53.8924C93.205 53.6103 93.096 53.3403 92.9031 53.1397C92.7102 52.9392 92.4488 52.824 92.1745 52.8189C92.0407 52.8109 91.9067 52.8304 91.7802 52.8762C91.6538 52.9221 91.5375 52.9933 91.4382 53.0859C91.3389 53.1785 91.2584 53.2904 91.2017 53.4153C91.1449 53.5402 91.1128 53.6754 91.1074 53.8131Z" fill="#3C4045"/>
<path d="M102.596 53.6784C102.599 53.9598 102.709 54.2288 102.901 54.4285C103.094 54.6282 103.355 54.7428 103.629 54.7479C103.763 54.7565 103.897 54.7374 104.024 54.6917C104.15 54.6461 104.267 54.5748 104.366 54.4822C104.466 54.3895 104.546 54.2773 104.603 54.1522C104.659 54.0271 104.691 53.8916 104.696 53.7537C104.694 53.4717 104.585 53.2016 104.392 53.001C104.199 52.8005 103.938 52.6854 103.663 52.6802C103.529 52.6722 103.395 52.6918 103.268 52.7379C103.141 52.784 103.025 52.8556 102.926 52.9486C102.826 53.0416 102.746 53.154 102.689 53.2794C102.633 53.4047 102.601 53.5403 102.596 53.6784Z" fill="#3C4045"/>
<path d="M90.3241 53.8974C90.4551 54.0361 91.241 53.4142 92.3736 53.3983C93.5062 53.3825 94.3422 53.9489 94.4655 53.7944C94.5233 53.731 94.3846 53.4775 94.0186 53.2161C93.5242 52.8742 92.9383 52.6997 92.3428 52.717C91.7535 52.7218 91.1811 52.9203 90.7094 53.2834C90.378 53.5766 90.2663 53.834 90.3241 53.8974Z" fill="#3C4045"/>
<path d="M101.734 53.8333C101.872 53.964 102.62 53.2906 103.748 53.1995C104.877 53.1084 105.748 53.6233 105.86 53.4688C105.914 53.4015 105.763 53.1599 105.382 52.9182C104.866 52.6099 104.27 52.4717 103.675 52.5221C103.089 52.5692 102.532 52.8063 102.084 53.1995C101.761 53.5124 101.664 53.7738 101.734 53.8333Z" fill="#3C4045"/>
<path d="M97.318 60.9906C97.318 60.9273 96.6169 60.8124 95.4766 60.6856C95.1876 60.6579 94.9102 60.6025 94.8602 60.4044C94.8292 60.0969 94.8911 59.7871 95.0374 59.5171L95.8541 57.2434C96.9829 53.9992 97.7803 51.3373 97.6724 51.3016C97.5646 51.266 96.5167 53.8487 95.3918 57.0889C95.1183 57.8811 94.8602 58.6496 94.6213 59.3785C94.4457 59.7401 94.3993 60.1537 94.4903 60.547C94.5336 60.6513 94.5995 60.7441 94.683 60.8182C94.7664 60.8923 94.8652 60.9459 94.9719 60.9748C95.1332 61.0156 95.2989 61.0355 95.465 61.0342C96.6053 61.0659 97.3142 61.058 97.318 60.9906Z" fill="#F19F90"/>
<path d="M99.2877 64.1873C99.1472 64.0671 98.3457 65.0339 96.9634 65.0558C95.5811 65.0777 94.6655 64.1331 94.5416 64.2721C94.4901 64.3323 94.6096 64.643 95.0261 65.0096C95.5759 65.4734 96.2754 65.725 97.0032 65.7206C97.7054 65.7203 98.3875 65.4456 98.9052 64.9547C99.2648 64.5638 99.3573 64.2364 99.2877 64.1873Z" fill="#F19F90"/>
<path d="M100.956 49.1377C101.099 49.4387 102.209 49.1733 103.545 49.2011C104.882 49.2288 105.988 49.4863 106.134 49.2011C106.2 49.0585 105.984 48.7812 105.522 48.5197C104.911 48.2053 104.238 48.0386 103.555 48.0324C102.872 48.0262 102.197 48.1807 101.581 48.4841C101.114 48.7178 100.895 48.9911 100.956 49.1377Z" fill="#3C4045"/>
<path d="M90.2451 49.4795C90.4492 49.7409 91.2236 49.4518 92.1713 49.424C93.119 49.3963 93.9049 49.5706 94.0975 49.2894C94.1784 49.1547 94.0474 48.8933 93.7123 48.6477C93.2432 48.3527 92.6968 48.2143 92.1482 48.2515C91.5978 48.2698 91.067 48.4652 90.6303 48.8101C90.2605 49.0794 90.1565 49.3528 90.2451 49.4795Z" fill="#3C4045"/>
<path d="M95.7685 35.7393C98.3342 34.5905 100.989 35.05 103.766 35.3431C105.905 35.5404 107.96 36.2942 109.737 37.5337C112.607 39.5539 114.11 42.8852 114.383 46.4503C114.654 49.8804 113.496 52.973 112.743 56.326C112.56 57.1405 112.336 57.7436 112.336 59.1767C112.336 59.9912 112.322 60.8016 111.521 60.4768C110.581 60.0807 110.504 58.7814 110.55 57.7436C110.682 54.2383 110.087 51.9288 109.737 48.4394C109.502 45.8329 108.219 42.1247 106.192 40.9561C101.639 38.3616 98.4845 40.3184 96.9512 40.9561C94.4317 38.8924 90.0825 41.5162 89.4951 45.1814C89.9459 42.369 93.2028 36.888 95.7685 35.7393Z" fill="#535565"/>
<path d="M55.2152 105.419C55.0572 105.308 49.1283 97.893 49.1283 97.893C49.1283 97.893 49.0744 96.1659 47.0788 94.2764C45.0833 92.3869 39.8362 86.6115 39.8362 86.6115L33.9035 85.9619C33.9035 85.9619 33.1677 86.9879 33.9035 87.9069L34.0152 88.0455C33.5491 87.9861 32.1506 87.9346 32.0659 89.42C31.958 91.1986 32.4858 91.7413 32.4858 91.7413C32.1196 92.5404 31.8877 93.3976 31.8001 94.2764C31.7689 94.9858 31.8403 95.696 32.012 96.3838C32.012 96.3838 31.854 96.867 32.012 98.4356C32.0352 98.8628 32.1453 99.2801 32.3351 99.6608C32.5249 100.042 32.7901 100.377 33.1137 100.646C32.7432 101.339 32.6493 102.153 32.8518 102.916C33.237 104.104 34.6894 104.896 34.6894 104.896C34.6894 104.896 37.5787 106.247 38.3107 106.354C39.0426 106.461 43.6155 107.273 43.6155 107.273L47.1559 112.652L55.2152 105.419Z" fill="#FFC9BF"/>
<path d="M37.9466 102.753L38.1932 114.7H35.5234V104.017L36.1629 103.09L37.9466 102.753Z" fill="#FED546"/>
<path d="M33.7324 87.5466C34.1433 87.8958 34.5729 88.2212 35.0191 88.5211C36.1174 89.2039 37.3762 89.5655 38.6597 89.5668H39.0449L39.0218 89.6936C38.912 90.3092 38.9215 90.941 39.0498 91.5527C39.178 92.1645 39.4225 92.7442 39.7692 93.2586C40.064 93.6746 40.4039 94.0547 40.7824 94.3915C40.6546 94.3381 40.5372 94.2617 40.4357 94.1658C40.1426 93.928 39.8832 93.6494 39.6652 93.3379C39.33 92.8735 39.0806 92.3499 38.9294 91.793C38.7404 91.102 38.4248 91 38.4248 91C37.4248 90.5 36.0441 89.4042 34.9382 88.6637C34.6064 88.4421 34.2967 88.1873 34.0136 87.9031C33.9025 87.8001 33.8076 87.6798 33.7324 87.5466Z" fill="#F19F90" fill-opacity="0.5"/>
<path d="M32.4995 91.7015C32.5766 91.644 32.5952 91.2589 32.6883 91.2381C32.9384 91.1592 33.1974 91.1139 33.4588 91.1034C34.3095 91.094 35.1533 91.2611 35.9397 91.5946C36.7087 91.9219 37.4991 92.1933 38.3051 92.4066C38.542 92.4639 38.9026 92.6047 39.1218 92.4961C39.2721 92.4089 39.2952 92.5056 39.3068 92.5175C39.3183 92.5294 39.2721 92.6244 39.1218 92.7393C38.8933 92.8892 38.6179 92.9444 38.3514 92.8938C37.5252 92.7221 36.7175 92.4674 35.9397 92.1333C35.1723 91.8113 34.3563 91.629 33.5281 91.5945C33.1835 91.6088 32.84 91.6445 32.4995 91.7015Z" fill="#F19F90" fill-opacity="0.5"/>
<path d="M32.1025 96.3047C32.2004 96.2156 31.9791 95.7191 32.1025 95.6749C32.4373 95.5416 33.0925 95.3845 33.4509 95.4056C33.9016 95.4056 34.8546 95.4406 35.4248 95.5C35.9949 95.5594 36.2092 95.6868 36.8795 95.7621C37.2109 95.7977 37.5614 95.9166 37.8735 95.9205C38.0314 95.9205 38.1971 95.9205 38.3473 95.9205C38.4873 95.9073 38.7939 95.973 38.9248 95.9205C39.174 95.825 39.2143 95.842 39.4248 95.6749C39.5218 95.6076 39.6281 95.5009 39.6995 95.4056C39.7578 95.3122 39.7996 95.2554 39.8228 95.147C39.9015 94.8058 39.913 94.6733 39.8344 94.3321C39.8045 94.2078 39.7592 94.0879 39.6995 93.9756C39.6995 93.9756 39.8344 94.0548 39.9114 94.3083C40.0159 94.6644 40.0305 95.0421 39.9538 95.4056C39.9318 95.5317 39.8874 95.6525 39.8228 95.7621C39.7441 95.8739 39.6493 95.9728 39.5416 96.0552C39.3217 96.2436 39.0748 96.3959 38.8096 96.5068C38.6624 96.57 38.5064 96.6088 38.3473 96.6216C38.1932 96.6216 38.0353 96.6216 37.8735 96.6216C37.5414 96.6192 37.2097 96.5993 36.8795 96.5622C36.2054 96.483 35.5697 96.3721 34.9918 96.3087C34.414 96.2453 33.8901 96.1107 33.4509 96.0829C32.991 96.054 32.5306 96.1297 32.1025 96.3047Z" fill="#F19F90" fill-opacity="0.5"/>
<path d="M33.2202 100.642C33.2726 100.517 33.2089 100.259 33.2201 100.227C33.2841 100.048 33.3733 99.9065 33.5168 99.8419C33.708 99.7631 33.909 99.7124 34.1139 99.6914L34.8305 99.6201C35.108 99.5866 35.387 99.5681 35.6665 99.5646C36.252 99.5646 36.8954 99.5924 37.5619 99.5646C37.8798 99.5692 38.1966 99.5252 38.5018 99.4339C38.7777 99.3475 39.0159 99.1655 39.176 98.919C39.3083 98.7045 39.3933 98.4629 39.4253 98.2111C39.4572 97.9593 39.4248 97.5949 39.4248 97.5C39.3283 97.17 39.4315 97.0275 39.23 96.7522C39.1453 96.6536 39.0693 96.5476 39.0027 96.4353C39.1137 96.5052 39.2116 96.5951 39.2916 96.7007C39.5321 96.9715 39.7168 97.2895 39.8348 97.6355C39.9263 97.8992 39.9589 98.1807 39.9302 98.4591C39.9016 98.7375 39.8123 99.0057 39.6691 99.2438C39.4859 99.5274 39.2142 99.7384 38.8986 99.8419C38.5752 99.9423 38.2388 99.9917 37.9009 99.9885C37.219 100.008 36.5795 99.9607 35.9978 99.9647C35.7101 99.9647 35.4366 99.9766 35.1772 100L34.4568 100.048C34.1163 100.049 33.7858 100.166 33.5168 100.381C33.3203 100.543 33.2317 100.654 33.2202 100.642Z" fill="#F19F90" fill-opacity="0.5"/>
<path d="M34.8141 103.09C34.8141 103.054 34.793 103.044 35.4248 103C36.2403 102.96 37.2224 102.428 37.9248 102C38.3061 101.775 38.5702 101.491 38.5702 101.491C38.6557 101.333 38.7975 101.207 38.9248 101C39.0521 100.793 39.2317 100.57 39.1827 100.396C39.1207 100.157 38.9857 99.9447 38.7975 99.7903C38.6627 99.6833 38.5664 99.6516 38.5702 99.6318C38.6671 99.6326 38.7614 99.6645 38.8399 99.7229C39.0636 99.8706 39.2309 100.093 39.3137 100.353C39.379 100.547 39.4044 100.752 39.3885 100.957C39.3726 101.161 39.3157 101.36 39.2213 101.541C38.9924 101.969 38.6523 102.323 38.2389 102.563C37.5123 103.01 36.6817 103.247 35.835 103.248C35.5763 103.25 35.3182 103.225 35.0645 103.173C34.9027 103.118 34.8102 103.09 34.8141 103.09Z" fill="#F19F90" fill-opacity="0.5"/>
<path d="M40.3431 94.0032C40.1929 94.5293 40.0936 95.0693 40.0464 95.6154C39.98 96.9406 40.3387 98.2516 41.0673 99.3468C41.8161 100.424 42.8573 101.251 44.0607 101.724C44.5654 101.9 45.08 102.046 45.6016 102.159C45.4564 102.175 45.3096 102.169 45.1663 102.139C44.7726 102.087 44.2995 102.294 43.9248 102.159C42.6699 101.711 41.6887 101.618 40.9248 100.5C40.168 99.3713 39.7949 96.958 39.9039 95.5916C39.9396 95.1861 40.025 94.7868 40.1581 94.4033C40.2013 94.2617 40.2635 94.127 40.3431 94.0032Z" fill="#F19F90" fill-opacity="0.5"/>
<path d="M47.6243 113.567H26.1206C25.5683 113.567 25.1206 114.015 25.1206 114.567V120.086C25.1206 120.638 25.5683 121.086 26.1206 121.086H47.6243C48.1766 121.086 48.6243 120.638 48.6243 120.086V114.567C48.6243 114.015 48.1766 113.567 47.6243 113.567Z" fill="#FED546"/>
<path d="M35.0713 80.9629L35.7455 72.8306H37.4367L38.1224 80.9629H35.0713Z" fill="#FED546"/>
<path d="M37.6207 82.2583L37.9134 84.429L37.5475 84.6746L37.9134 86.4056L34.7583 86.061L35.5249 84.6746L35.2322 84.2627L35.3631 82.29L37.6207 82.2583Z" fill="#FED546"/>
<path d="M36.6008 73.4962C37.9646 73.4962 39.0702 72.3594 39.0702 70.9571C39.0702 69.5548 37.9646 68.418 36.6008 68.418C35.2369 68.418 34.1313 69.5548 34.1313 70.9571C34.1313 72.3594 35.2369 73.4962 36.6008 73.4962Z" fill="#FED546"/>
<path d="M25.6526 81.8145C25.7951 82.3334 26.5303 84.5289 27.6552 88.6643L32.1786 105.946L32.2171 106.089H20.0435L20.0743 105.95C21.6692 99.0456 23.0638 92.9968 24.0654 88.6554C25.0247 84.5239 25.5332 82.3373 25.6526 81.8145C25.537 82.3453 25.469 84.5952 24.5367 88.802C23.5775 93.1196 21.8002 99.1327 20.2862 106.001L20.1783 105.863L25.8732 105.593L32.0669 105.863L31.959 106.005C30.1676 99.1446 28.3385 93.1236 27.2097 88.802C26.1156 84.5794 25.7913 82.3453 25.6526 81.8145Z" fill="#FED546"/>
<path d="M18.769 105.467H34.0594C34.0594 105.467 33.2889 111.29 26.3545 111.258C19.4894 111.226 18.769 105.467 18.769 105.467Z" fill="#FED546"/>
<path d="M28.0557 110.386C27.9495 110.44 27.8345 110.472 27.7167 110.481C27.4043 110.544 27.0872 110.578 26.769 110.584C26.2958 110.597 25.8224 110.563 25.3552 110.485C24.7835 110.382 24.2234 110.22 23.6832 110.002C23.1421 109.777 22.6256 109.495 22.1422 109.158C21.755 108.887 21.3926 108.579 21.0597 108.239C20.8349 108.008 20.6299 107.758 20.4472 107.491C20.3702 107.399 20.309 107.295 20.2661 107.182C20.2969 107.154 20.5897 107.578 21.1714 108.121C21.5165 108.438 21.8863 108.725 22.2771 108.98C22.7513 109.292 23.2531 109.557 23.7757 109.772C24.3016 109.986 24.8459 110.15 25.4014 110.26C25.8552 110.346 26.3152 110.394 26.7767 110.402C27.5511 110.434 28.0557 110.347 28.0557 110.386Z" fill="white"/>
<path d="M48.6506 81.8145C48.7932 82.3334 49.3865 84.5239 50.5114 88.6594L55.1767 105.946L55.2152 106.089H43.0415L43.0762 105.95L47.0634 88.6554C48.0227 84.5239 48.5312 82.3373 48.6506 81.8145C48.5351 82.3453 48.1886 84.9031 47.2563 89.1098C46.2971 93.4275 44.7982 99.1327 43.2842 106.001L43.1802 105.863H55.065L54.9609 106.005C53.1657 99.1446 51.0581 92.986 49.9293 88.6643C48.8391 84.4417 48.7893 82.3453 48.6506 81.8145Z" fill="#FED546"/>
<path d="M41.7686 105.467H57.055C57.055 105.467 56.2845 111.29 49.3501 111.258C42.4851 111.226 41.7686 105.467 41.7686 105.467Z" fill="#FED546"/>
<path d="M51.0444 110.387C50.9382 110.44 50.8232 110.472 50.7054 110.482C50.393 110.544 50.0759 110.578 49.7577 110.585C49.2845 110.597 48.8112 110.563 48.3439 110.486C47.7722 110.382 47.2121 110.221 46.6719 110.002C46.1309 109.778 45.6143 109.495 45.131 109.159C44.7424 108.881 44.3789 108.568 44.0446 108.224C43.8197 107.993 43.6148 107.742 43.432 107.475C43.3567 107.382 43.2957 107.278 43.251 107.166C43.2856 107.138 43.5784 107.562 44.1563 108.105C44.4967 108.426 44.8613 108.718 45.2465 108.98C46.1935 109.622 47.2558 110.062 48.3709 110.276C48.8247 110.362 49.2847 110.41 49.7462 110.418C50.5513 110.434 51.0367 110.347 51.0444 110.387Z" fill="white"/>
<path d="M123.6 119.465C123.6 119.465 122.922 127.499 123.172 129.653C123.423 131.808 125.484 143.937 127.691 145.633C129.899 147.328 132.391 149.681 135.631 149.356C138.871 149.031 140.454 148.509 140.963 146.877C141.471 145.245 143.948 138.911 143.378 136.102C142.808 133.294 140.708 128.921 140.708 128.921C140.708 128.921 139.06 115.797 138.231 115.076L137.407 114.359C137.407 114.359 138.805 109.21 138.678 107.625C138.551 106.041 136.837 92.4659 134.078 90.4299C132.776 89.4693 131.35 88.7001 129.841 88.1443L126.921 100.574L123.6 119.465Z" fill="#2DB974"/>
<path d="M140.374 131.896C140.238 131.755 140.118 131.6 140.015 131.433C139.803 131.12 139.507 130.66 139.183 130.066C138.806 129.367 138.478 128.642 138.201 127.895C137.902 126.977 137.515 126.092 137.045 125.253C136.508 124.462 135.845 123.769 135.084 123.205L133.227 121.779L131.351 120.805C131.192 120.687 128.726 119.853 128.59 119.708C128.763 119.795 130.627 119.708 131.441 120.115L133.227 120.805C134.292 121.337 135.22 122.02 135.921 122.558C136.706 123.127 137.651 124.192 138.201 125.002C138.676 125.855 140.108 126.917 140.401 127.853C140.668 128.595 140.859 129.188 141.215 129.889C141.516 130.491 141.837 131.571 142.03 131.896C142.142 132.062 143.251 134.369 140.374 131.896Z" fill="black" fill-opacity="0.1"/>
<path d="M134.15 126.271C134.115 126.108 133.403 122.706 131.214 120.614C129.026 118.523 126.052 112.938 126.052 112.938C126.052 112.938 124.7 110.462 124.804 108.208C124.908 105.954 125.53 105.052 124.409 104.557C123.288 104.061 120.925 107 120.925 109.5C120.925 112 121.925 114 121.925 114C121.925 114 115.142 114.573 115.192 116.716C115.242 118.859 116.575 119.517 116.575 119.517C116.575 119.517 115.192 121.102 115.889 121.989C116.587 122.876 117.916 122.864 117.916 122.864C117.916 122.864 117.064 123.142 117.97 124.623C118.22 125.05 118.555 125.418 118.954 125.702C119.352 125.986 119.805 126.18 120.281 126.271C120.194 126.614 120.178 126.972 120.233 127.322C120.288 127.671 120.413 128.006 120.601 128.303C121.244 129.4 121.672 129.456 122.142 129.4C122.612 129.345 125.224 128.85 125.224 128.85C125.224 128.85 125.544 130.074 127.2 130.723L127.092 131.816C127.092 131.816 126.988 135.108 130.833 134.066C134.678 133.025 134.897 129.673 134.15 126.271Z" fill="#FFC9BF"/>
<path d="M125.214 115.79C124.811 116.015 124.392 116.21 123.962 116.372L120.88 117.651C119.678 118.15 118.591 118.602 117.798 118.947C117.412 119.117 117.097 119.263 116.885 119.366C116.777 119.429 116.664 119.479 116.546 119.517C115.425 119 116.998 118.177 117.425 118C118.195 117.604 119.223 117.499 120.425 117C121.627 116.501 123.154 116.301 123.925 116C124.361 115.818 124.755 115.903 125.214 115.79Z" fill="#F19F90" fill-opacity="0.5"/>
<path d="M130.197 124C130.151 124.137 130.079 124.264 129.985 124.372C129.742 124.685 129.441 124.945 129.099 125.137C128.595 125.419 128.046 125.603 127.477 125.68C126.788 125.763 126.094 125.799 125.401 125.786C124.154 125.791 122.913 125.971 121.714 126.321C120.797 126.595 120.25 126.844 120.238 126.812C120.355 126.723 119.286 126.509 119.424 126.462C119.772 126.3 120.561 126.082 120.925 125.962C122.128 125.565 123.662 125.008 124.925 125.006C125.61 125.018 126.743 125.035 127.425 124.962C127.976 124.899 128.929 124.718 129.425 124.462C129.872 124.214 129.888 124.415 130.197 124Z" fill="#F19F90" fill-opacity="0.5"/>
<path d="M131.181 126.568C131.181 126.568 131.223 126.663 131.212 126.849C131.183 127.114 131.079 127.363 130.911 127.566C130.666 127.867 130.022 129.256 129.658 129.374C129.226 129.509 128.784 129.606 128.336 129.663C127.396 129.818 126.545 129.941 125.925 130C125.589 130.057 125.233 129 125.233 128.834C125.233 128.806 125.618 128.774 126.227 128.675L128.627 128.279C129.064 128.222 129.497 128.134 129.921 128.014C130.259 127.913 130.564 127.72 130.804 127.455C131.016 127.207 131.148 126.897 131.181 126.568Z" fill="#F19F90" fill-opacity="0.5"/>
<path d="M126.578 120.424C126.578 120.46 126.073 120.464 125.272 120.594C124.225 120.771 123.194 121.036 122.19 121.387L119.177 122.44C118.767 122.606 118.344 122.738 117.914 122.836C117.425 122.836 116.506 122.642 116.925 122.5C117.695 122.203 120.742 121.404 121.925 121C122.934 120.64 124.181 120.586 125.241 120.448C125.562 120.407 125.885 120.388 126.208 120.388C126.332 120.378 126.458 120.39 126.578 120.424Z" fill="#F19F90" fill-opacity="0.5"/>
<path d="M50.5119 86.2776C50.6806 86.4852 50.86 86.4901 51.0294 86.2915C51.1989 86.093 51.3514 85.6991 51.4696 85.1551C51.5878 84.6111 51.6668 83.9391 51.6975 83.2163C51.7283 82.4934 51.7095 81.749 51.6435 81.0685C51.4888 79.6837 51.138 78.582 50.4251 78.3775C48.5089 77.8424 26.6615 76.8037 22.7047 76.6464C22.4431 76.5787 22.1827 76.8432 21.9578 77.405C21.7329 77.9668 21.5541 78.7997 21.4448 79.7938C21.4122 80.3027 21.4093 80.8367 21.4362 81.3514C21.4631 81.866 21.5191 82.3464 21.5995 82.7524C22.0898 84.3262 22.5199 83.6495 23.1913 81.5879C24.0513 78.9755 34.164 82.7052 35.2956 84.2947H37.6267C37.6267 84.2947 39.5127 81.6666 46.2759 81.5721C50.2176 81.5721 49.4708 83.8698 50.1573 85.8999L50.5119 86.2776Z" fill="#FED546"/>
<path d="M80.9425 94.8657L78.9062 131.518V94.8657L82.9787 92.4222L82.5715 87.9425L92.7526 81.4265L83.7932 88.3497V92.8294L80.9425 94.8657Z" fill="black" fill-opacity="0.1"/>
<path d="M112.387 99.7901L95.7735 132.524L114.149 100.811L111.85 96.6551L115.966 92.723L115.151 80.6119L115.151 92.723L110.941 96.5991L112.387 99.7901Z" fill="black" fill-opacity="0.1"/>
</g>
</svg>
