<svg width="222" height="191" viewBox="0 0 222 191" fill="none" xmlns="http://www.w3.org/2000/svg">
<g clip-path="url(#clip0)">
<path opacity="0.81" d="M17.5002 44.8001C16.8002 52.6101 19.4402 60.6501 17.2402 68.4001C14.6202 77.6701 6.9702 84.6101 3.8502 93.7001C-0.850883 107.248 -0.420369 122.049 5.0602 135.3C7.7502 141.61 11.6902 147.48 17.0602 151.53C25.3302 157.79 36.1902 159.15 46.3702 158.36C61.5502 157.18 77.5702 150.61 92.8402 152.36C101.27 153.36 103.84 162.47 108.19 168.48C113.124 175.205 119.654 180.597 127.19 184.17C134.013 187.475 141.456 189.302 149.033 189.531C156.61 189.76 164.151 188.386 171.16 185.5C186.05 179.16 199.05 163.68 198.16 146.17C197.77 138.07 194.53 130.03 196.02 122.07C197.91 112.07 205.44 102.98 210.89 94.8401C216.97 85.7095 220.552 75.1456 221.28 64.2001C221.27 64.077 221.27 63.9533 221.28 63.8301C221.795 54.6408 219.256 45.5393 214.06 37.9428C208.864 30.3464 201.301 24.6814 192.55 21.8301L154.39 9.23013C115.62 -3.49987 76.8902 -3.06987 41.2602 15.6301C33.5502 19.6301 21.0002 31.7301 18.4102 40.0501C17.9382 41.5965 17.6331 43.1889 17.5002 44.8001Z" fill="#F0FCFF"/>
<g opacity="0.81">
<path opacity="0.81" d="M135.85 167.5H124.62C124.476 167.497 124.338 167.438 124.237 167.335C124.136 167.232 124.08 167.094 124.08 166.95C124.079 166.877 124.092 166.805 124.119 166.738C124.147 166.671 124.188 166.611 124.24 166.56C124.341 166.459 124.477 166.402 124.62 166.4H135.85C135.922 166.4 135.994 166.414 136.061 166.441C136.128 166.469 136.189 166.509 136.24 166.56C136.341 166.665 136.398 166.804 136.4 166.95C136.396 167.095 136.339 167.234 136.24 167.34C136.189 167.391 136.128 167.431 136.061 167.459C135.994 167.486 135.922 167.5 135.85 167.5Z" fill="#4CD174"/>
<path opacity="0.81" d="M135.85 179.21H124.62C124.477 179.208 124.341 179.15 124.24 179.05C124.188 179.001 124.147 178.942 124.12 178.877C124.092 178.811 124.079 178.741 124.08 178.67C124.077 178.597 124.09 178.525 124.118 178.457C124.145 178.39 124.187 178.329 124.24 178.28C124.341 178.179 124.477 178.122 124.62 178.12H135.85C135.922 178.12 135.994 178.134 136.06 178.161C136.127 178.189 136.188 178.23 136.239 178.281C136.29 178.332 136.33 178.392 136.358 178.459C136.386 178.526 136.4 178.597 136.4 178.67C136.398 178.812 136.341 178.949 136.24 179.05C136.189 179.101 136.128 179.141 136.061 179.168C135.994 179.196 135.922 179.21 135.85 179.21Z" fill="#4CD174"/>
<g opacity="0.81">
<g opacity="0.81">
<path opacity="0.81" d="M144.33 191H74.97C74.7736 191.001 74.5789 190.963 74.3974 190.888C74.2159 190.813 74.0513 190.702 73.9133 190.562C73.7754 190.422 73.6668 190.256 73.5941 190.074C73.5214 189.891 73.486 189.696 73.4901 189.5V153.5C73.5041 153.125 73.6574 152.768 73.9201 152.5C74.1867 152.235 74.5442 152.081 74.9201 152.07H144.28C144.656 152.081 145.013 152.235 145.28 152.5C145.418 152.638 145.527 152.801 145.6 152.982C145.674 153.162 145.712 153.355 145.71 153.55V189.55C145.699 189.926 145.545 190.283 145.28 190.55C145.011 190.811 144.655 190.964 144.28 190.98L144.33 191ZM74.97 153.13C74.9205 153.12 74.8696 153.12 74.82 153.13L74.7001 153.21C74.6613 153.246 74.6306 153.291 74.61 153.34C74.6006 153.389 74.6006 153.44 74.61 153.49V189.49C74.6006 189.539 74.6006 189.59 74.61 189.64C74.6586 189.728 74.7315 189.801 74.82 189.85C74.8696 189.859 74.9205 189.859 74.97 189.85H144.33C144.382 189.85 144.434 189.84 144.483 189.819C144.531 189.798 144.574 189.768 144.61 189.73C144.68 189.657 144.72 189.561 144.72 189.46V153.5C144.721 153.448 144.712 153.397 144.693 153.349C144.674 153.301 144.645 153.257 144.609 153.221C144.572 153.184 144.529 153.156 144.481 153.137C144.433 153.118 144.382 153.108 144.33 153.11L74.97 153.13Z" fill="#4CD174"/>
<path opacity="0.66" d="M144.33 191H74.97C74.7736 191.001 74.5789 190.963 74.3974 190.888C74.2159 190.813 74.0513 190.702 73.9133 190.562C73.7754 190.422 73.6668 190.256 73.5941 190.074C73.5214 189.891 73.486 189.696 73.4901 189.5V153.5C73.5041 153.125 73.6574 152.768 73.9201 152.5C74.1867 152.235 74.5442 152.081 74.9201 152.07H144.28C144.656 152.081 145.013 152.235 145.28 152.5C145.418 152.638 145.527 152.801 145.6 152.982C145.674 153.162 145.712 153.355 145.71 153.55V189.55C145.699 189.926 145.545 190.283 145.28 190.55C145.011 190.811 144.655 190.964 144.28 190.98L144.33 191ZM74.97 153.13C74.9205 153.12 74.8696 153.12 74.82 153.13L74.7001 153.21C74.6613 153.246 74.6306 153.291 74.61 153.34C74.6006 153.389 74.6006 153.44 74.61 153.49V189.49C74.6006 189.539 74.6006 189.59 74.61 189.64C74.6586 189.728 74.7315 189.801 74.82 189.85C74.8696 189.859 74.9205 189.859 74.97 189.85H144.33C144.382 189.85 144.434 189.84 144.483 189.819C144.531 189.798 144.574 189.768 144.61 189.73C144.68 189.657 144.72 189.561 144.72 189.46V153.5C144.721 153.448 144.712 153.397 144.693 153.349C144.674 153.301 144.645 153.257 144.609 153.221C144.572 153.184 144.529 153.156 144.481 153.137C144.433 153.118 144.382 153.108 144.33 153.11L74.97 153.13Z" fill="#4CD174"/>
</g>
<path opacity="0.81" d="M135.85 161.87H82.34C82.1942 161.87 82.0543 161.812 81.9511 161.709C81.848 161.606 81.79 161.466 81.79 161.32C81.7921 161.177 81.8495 161.041 81.95 160.94C82.0013 160.889 82.0622 160.848 82.1291 160.821C82.196 160.793 82.2677 160.78 82.34 160.78H135.85C135.922 160.78 135.994 160.793 136.061 160.821C136.128 160.848 136.189 160.889 136.24 160.94C136.341 161.041 136.398 161.177 136.4 161.32C136.4 161.392 136.386 161.464 136.358 161.53C136.331 161.597 136.29 161.658 136.239 161.709C136.188 161.76 136.127 161.8 136.061 161.828C135.994 161.856 135.922 161.87 135.85 161.87Z" fill="#4CD174"/>
<path opacity="0.81" d="M135.85 173.21H82.34C82.2667 173.211 82.1941 173.196 82.1269 173.167C82.0596 173.137 81.9994 173.094 81.95 173.04C81.8495 172.939 81.7921 172.802 81.79 172.66C81.79 172.514 81.848 172.374 81.9511 172.271C82.0543 172.168 82.1942 172.11 82.34 172.11H135.85C135.922 172.11 135.994 172.124 136.061 172.152C136.127 172.179 136.188 172.22 136.239 172.271C136.29 172.322 136.331 172.383 136.358 172.449C136.386 172.516 136.4 172.588 136.4 172.66C136.398 172.802 136.341 172.939 136.24 173.04C136.191 173.094 136.13 173.137 136.063 173.167C135.996 173.196 135.923 173.211 135.85 173.21Z" fill="#4CD174"/>
<path opacity="0.81" d="M111.19 167.5H82.34C82.2677 167.5 82.196 167.486 82.1291 167.459C82.0622 167.431 82.0013 167.391 81.95 167.34C81.8505 167.234 81.7935 167.095 81.79 166.95C81.7916 166.804 81.8488 166.665 81.95 166.56C82.0013 166.509 82.0622 166.469 82.1291 166.441C82.196 166.414 82.2677 166.4 82.34 166.4H111.19C111.262 166.4 111.334 166.414 111.401 166.441C111.468 166.469 111.529 166.509 111.58 166.56C111.681 166.665 111.739 166.804 111.74 166.95C111.737 167.095 111.68 167.234 111.58 167.34C111.529 167.391 111.468 167.431 111.401 167.459C111.334 167.486 111.262 167.5 111.19 167.5Z" fill="#4CD174"/>
<path opacity="0.81" d="M111.19 179.21H82.34C82.2677 179.21 82.196 179.196 82.1291 179.168C82.0622 179.141 82.0013 179.101 81.95 179.05C81.8495 178.949 81.7921 178.812 81.79 178.67C81.79 178.524 81.848 178.384 81.9511 178.281C82.0543 178.178 82.1942 178.12 82.34 178.12H111.19C111.336 178.12 111.476 178.178 111.579 178.281C111.682 178.384 111.74 178.524 111.74 178.67C111.738 178.812 111.681 178.949 111.58 179.05C111.529 179.101 111.468 179.141 111.401 179.168C111.334 179.196 111.262 179.21 111.19 179.21Z" fill="#4CD174"/>
<path opacity="0.81" d="M101.79 184.62H82.34C82.1942 184.62 82.0543 184.562 81.9511 184.459C81.848 184.355 81.79 184.216 81.79 184.07C81.7921 183.927 81.8495 183.791 81.95 183.69C81.9999 183.637 82.0605 183.595 82.1277 183.567C82.195 183.54 82.2674 183.527 82.34 183.53H101.79C101.863 183.527 101.935 183.54 102.002 183.567C102.07 183.595 102.13 183.637 102.18 183.69C102.281 183.791 102.338 183.927 102.34 184.07C102.34 184.216 102.282 184.355 102.179 184.459C102.076 184.562 101.936 184.62 101.79 184.62Z" fill="#4CD174"/>
</g>
</g>
<g opacity="0.81">
<path opacity="0.81" d="M28.4 132.5H15.76C15.6173 132.498 15.4811 132.44 15.38 132.34C15.2804 132.234 15.2235 132.095 15.22 131.95C15.2215 131.804 15.2788 131.665 15.38 131.56C15.4811 131.459 15.6173 131.402 15.76 131.4H28.4C28.4723 131.4 28.544 131.414 28.6109 131.441C28.6778 131.469 28.7387 131.509 28.79 131.56C28.8912 131.665 28.9484 131.804 28.95 131.95C28.9465 132.095 28.8895 132.234 28.79 132.34C28.7387 132.391 28.6778 132.431 28.6109 132.459C28.544 132.486 28.4723 132.5 28.4 132.5Z" fill="#4CD174"/>
<path opacity="0.81" d="M28.4 119.42H15.76C15.6883 119.419 15.6176 119.404 15.5522 119.375C15.4868 119.345 15.4282 119.303 15.38 119.25C15.2794 119.149 15.222 119.012 15.22 118.87C15.2197 118.797 15.2337 118.726 15.2611 118.659C15.2886 118.592 15.329 118.531 15.38 118.48C15.4811 118.379 15.6174 118.322 15.76 118.32H28.4C28.5458 118.32 28.6857 118.378 28.7889 118.481C28.892 118.584 28.95 118.724 28.95 118.87C28.9479 119.012 28.8906 119.149 28.79 119.25C28.7406 119.304 28.6804 119.347 28.6132 119.377C28.5459 119.406 28.4733 119.421 28.4 119.42Z" fill="#4CD174"/>
<g opacity="0.81">
<g opacity="0.81">
<path opacity="0.81" d="M84.33 148.73H6.15001C5.77299 148.715 5.41561 148.558 5.15001 148.29C4.88135 148.026 4.72698 147.667 4.72 147.29V106.59C4.71868 106.395 4.75605 106.202 4.82996 106.022C4.90386 105.842 5.01283 105.678 5.15052 105.54C5.28822 105.403 5.4519 105.294 5.63206 105.22C5.81223 105.146 6.00528 105.109 6.2 105.11H84.33C84.7217 105.113 85.0966 105.269 85.3736 105.546C85.6506 105.823 85.8074 106.198 85.81 106.59V147.29C85.8048 147.681 85.6472 148.054 85.3708 148.331C85.0944 148.607 84.7209 148.765 84.33 148.77V148.73ZM6.15001 106.16C6.09767 106.16 6.04591 106.171 5.9978 106.191C5.9497 106.212 5.90624 106.242 5.87001 106.28C5.79981 106.352 5.76039 106.449 5.76 106.55V147.25C5.75999 147.301 5.77014 147.351 5.78986 147.398C5.80958 147.444 5.83846 147.487 5.87482 147.522C5.91117 147.558 5.95425 147.585 6.00151 147.604C6.04878 147.622 6.09927 147.631 6.15001 147.63H84.33H84.48C84.5686 147.581 84.6414 147.508 84.69 147.42C84.6995 147.37 84.6995 147.319 84.69 147.27V106.57C84.6995 106.52 84.6995 106.469 84.69 106.42C84.6414 106.331 84.5686 106.258 84.48 106.21C84.4305 106.2 84.3796 106.2 84.33 106.21L6.15001 106.16Z" fill="#4CD174"/>
<path opacity="0.66" d="M84.33 148.73H6.15001C5.77299 148.715 5.41561 148.558 5.15001 148.29C4.88135 148.026 4.72698 147.667 4.72 147.29V106.59C4.71868 106.395 4.75605 106.202 4.82996 106.022C4.90386 105.842 5.01283 105.678 5.15052 105.54C5.28822 105.403 5.4519 105.294 5.63206 105.22C5.81223 105.146 6.00528 105.109 6.2 105.11H84.33C84.7217 105.113 85.0966 105.269 85.3736 105.546C85.6506 105.823 85.8074 106.198 85.81 106.59V147.29C85.8048 147.681 85.6472 148.054 85.3708 148.331C85.0944 148.607 84.7209 148.765 84.33 148.77V148.73ZM6.15001 106.16C6.09767 106.16 6.04591 106.171 5.9978 106.191C5.9497 106.212 5.90624 106.242 5.87001 106.28C5.79981 106.352 5.76039 106.449 5.76 106.55V147.25C5.75999 147.301 5.77014 147.351 5.78986 147.398C5.80958 147.444 5.83846 147.487 5.87482 147.522C5.91117 147.558 5.95425 147.585 6.00151 147.604C6.04878 147.622 6.09927 147.631 6.15001 147.63H84.33H84.48C84.5686 147.581 84.6414 147.508 84.69 147.42C84.6995 147.37 84.6995 147.319 84.69 147.27V106.57C84.6995 106.52 84.6995 106.469 84.69 106.42C84.6414 106.331 84.5686 106.258 84.48 106.21C84.4305 106.2 84.3796 106.2 84.33 106.21L6.15001 106.16Z" fill="#4CD174"/>
</g>
<path opacity="0.81" d="M75.93 138.9H15.76C15.6174 138.898 15.4811 138.841 15.38 138.74C15.329 138.689 15.2886 138.628 15.2611 138.561C15.2337 138.494 15.2197 138.422 15.22 138.35C15.222 138.207 15.2794 138.071 15.38 137.97C15.4287 137.918 15.4876 137.877 15.5531 137.85C15.6185 137.822 15.689 137.809 15.76 137.81H75.9C75.9726 137.807 76.045 137.82 76.1123 137.848C76.1795 137.875 76.2401 137.917 76.29 137.97C76.3906 138.071 76.4479 138.207 76.45 138.35C76.45 138.496 76.392 138.636 76.2889 138.739C76.1857 138.842 76.0458 138.9 75.9 138.9H75.93Z" fill="#4CD174"/>
<path opacity="0.81" d="M75.93 126.17H15.76C15.6173 126.168 15.4811 126.11 15.38 126.01C15.2804 125.904 15.2235 125.765 15.22 125.62C15.2215 125.474 15.2788 125.335 15.38 125.23C15.4811 125.129 15.6173 125.072 15.76 125.07H75.9C75.9723 125.07 76.044 125.084 76.1109 125.111C76.1778 125.138 76.2387 125.179 76.29 125.23C76.3912 125.335 76.4484 125.474 76.45 125.62C76.4465 125.765 76.3895 125.904 76.29 126.01C76.2387 126.061 76.1778 126.101 76.1109 126.129C76.044 126.156 75.9723 126.17 75.9 126.17H75.93Z" fill="#4CD174"/>
<path opacity="0.81" d="M75.9299 132.5H43.5C43.4276 132.5 43.3559 132.486 43.289 132.459C43.2221 132.431 43.1612 132.391 43.11 132.34C43.0104 132.234 42.9534 132.095 42.95 131.95C42.9515 131.804 43.0087 131.665 43.11 131.56C43.1612 131.509 43.2221 131.469 43.289 131.441C43.3559 131.414 43.4276 131.4 43.5 131.4H75.9299C76.0752 131.403 76.2141 131.46 76.3199 131.56C76.4212 131.665 76.4784 131.804 76.4799 131.95C76.4799 132.022 76.4657 132.094 76.4381 132.16C76.4104 132.227 76.3699 132.288 76.3189 132.339C76.2678 132.39 76.2072 132.43 76.1404 132.458C76.0737 132.486 76.0022 132.5 75.9299 132.5Z" fill="#4CD174"/>
<path opacity="0.81" d="M75.9299 119.42H43.5C43.4266 119.421 43.354 119.406 43.2868 119.377C43.2196 119.347 43.1593 119.304 43.11 119.25C43.0094 119.149 42.952 119.012 42.95 118.87C42.95 118.724 43.0079 118.584 43.111 118.481C43.2142 118.378 43.3541 118.32 43.5 118.32H75.9299C76.0752 118.323 76.2141 118.38 76.3199 118.48C76.371 118.531 76.4113 118.592 76.4388 118.659C76.4663 118.726 76.4802 118.797 76.4799 118.87C76.4779 119.012 76.4205 119.149 76.3199 119.25C76.2174 119.356 76.0772 119.417 75.9299 119.42Z" fill="#4CD174"/>
<path opacity="0.81" d="M75.9301 113.33H54.0601C53.9187 113.331 53.7823 113.278 53.6801 113.18C53.6287 113.129 53.588 113.068 53.5605 113.001C53.533 112.934 53.5193 112.862 53.5201 112.79C53.5174 112.717 53.5303 112.645 53.5579 112.577C53.5855 112.51 53.6272 112.45 53.6801 112.4C53.7812 112.299 53.9175 112.242 54.0601 112.24H75.9301C76.0754 112.243 76.2143 112.3 76.3201 112.4C76.3711 112.451 76.4115 112.512 76.439 112.579C76.4664 112.646 76.4804 112.717 76.4801 112.79C76.4766 112.935 76.4197 113.074 76.3201 113.18C76.2133 113.276 76.0742 113.33 75.9301 113.33Z" fill="#4CD174"/>
</g>
</g>
<path d="M63.7 27.5H129.8C130.439 27.5 131.052 27.7539 131.504 28.2059C131.956 28.6578 132.21 29.2708 132.21 29.91V127.28C132.213 128.373 131.999 129.456 131.582 130.467C131.165 131.478 130.552 132.396 129.779 133.169C129.006 133.942 128.088 134.555 127.077 134.972C126.066 135.389 124.983 135.603 123.89 135.6H78.01C75.6822 135.601 73.3769 135.144 71.2258 134.254C69.0748 133.364 67.1201 132.059 65.4736 130.413C63.8271 128.768 62.521 126.814 61.6298 124.663C60.7387 122.513 60.28 120.208 60.28 117.88V30.88C60.2813 30.4306 60.3696 29.9858 60.54 29.57C60.7232 29.1709 60.9774 28.8084 61.29 28.5C61.6025 28.181 61.9768 27.9292 62.39 27.76C62.8058 27.5896 63.2507 27.5013 63.7 27.5Z" fill="url(#paint0_linear)"/>
<path d="M119.82 85.1602H72.2101C72.0539 85.1576 71.9042 85.097 71.7901 84.9902C71.6817 84.8772 71.6208 84.7268 71.6201 84.5702C71.6194 84.4925 71.634 84.4153 71.6632 84.3432C71.6924 84.2712 71.7355 84.2056 71.7901 84.1502C71.9032 84.0406 72.0528 83.9765 72.2101 83.9702H119.82C119.978 83.9725 120.129 84.0372 120.24 84.1502C120.295 84.2056 120.338 84.2712 120.367 84.3432C120.396 84.4153 120.411 84.4925 120.41 84.5702C120.41 84.7268 120.349 84.8772 120.24 84.9902C120.185 85.0448 120.119 85.088 120.047 85.1171C119.975 85.1463 119.898 85.161 119.82 85.1602Z" fill="#95B7D6"/>
<path d="M121.7 65.1202H72.2102C72.0539 65.1176 71.9042 65.057 71.7902 64.9502C71.6802 64.838 71.6187 64.6872 71.6187 64.5302C71.6187 64.3731 71.6802 64.2223 71.7902 64.1102C71.9032 64.0005 72.0528 63.9365 72.2102 63.9302H121.7C121.858 63.9324 122.009 63.9971 122.12 64.1102C122.177 64.1643 122.222 64.2295 122.253 64.3017C122.284 64.3739 122.3 64.4516 122.3 64.5302C122.3 64.6087 122.284 64.6865 122.253 64.7587C122.222 64.8308 122.177 64.896 122.12 64.9502C122.065 65.0048 121.999 65.0479 121.927 65.0771C121.855 65.1063 121.778 65.1209 121.7 65.1202Z" fill="#95B7D6"/>
<path d="M97.2101 75.1302H71.9201C71.7636 75.1302 71.6135 75.0681 71.5029 74.9574C71.3922 74.8468 71.3301 74.6967 71.3301 74.5402C71.3301 74.3837 71.3922 74.2337 71.5029 74.123C71.6135 74.0124 71.7636 73.9502 71.9201 73.9502H97.2101C97.2878 73.9495 97.365 73.9641 97.437 73.9933C97.5091 74.0225 97.5747 74.0656 97.6301 74.1202C97.687 74.1744 97.7322 74.2396 97.7632 74.3117C97.7941 74.3839 97.8101 74.4617 97.8101 74.5402C97.8101 74.6188 97.7941 74.6965 97.7632 74.7687C97.7322 74.8409 97.687 74.9061 97.6301 74.9602C97.5747 75.0148 97.5091 75.058 97.437 75.0871C97.365 75.1163 97.2878 75.131 97.2101 75.1302Z" fill="#95B7D6"/>
<path d="M93.6702 75.1302H72.2102C72.0539 75.1276 71.9042 75.067 71.7902 74.9602C71.6802 74.848 71.6187 74.6973 71.6187 74.5402C71.6187 74.3831 71.6802 74.2324 71.7902 74.1202C71.9042 74.0134 72.0539 73.9528 72.2102 73.9502H93.6702C93.8266 73.9502 93.9767 74.0124 94.0874 74.123C94.198 74.2337 94.2602 74.3837 94.2602 74.5402C94.2602 74.6967 94.198 74.8467 94.0874 74.9574C93.9767 75.068 93.8266 75.1302 93.6702 75.1302Z" fill="#95B7D6"/>
<path d="M104.79 43.6901H72.2102C72.0528 43.6838 71.9033 43.6197 71.7902 43.5101C71.7356 43.4547 71.6925 43.3891 71.6633 43.3171C71.6341 43.245 71.6195 43.1678 71.6202 43.0901C71.6189 43.0122 71.6332 42.9349 71.6624 42.8627C71.6915 42.7905 71.7349 42.7249 71.79 42.6699C71.8451 42.6148 71.9106 42.5714 71.9828 42.5422C72.055 42.5131 72.1323 42.4987 72.2102 42.5001H104.79C104.868 42.4993 104.945 42.514 105.017 42.5432C105.089 42.5723 105.155 42.6155 105.21 42.6701C105.32 42.7832 105.384 42.9327 105.39 43.0901C105.385 43.2476 105.32 43.3974 105.209 43.5088C105.097 43.6203 104.948 43.6851 104.79 43.6901Z" fill="#95B7D6"/>
<path d="M120.55 43.6901H110.62C110.463 43.6838 110.313 43.6197 110.2 43.5101C110.145 43.4547 110.102 43.3891 110.073 43.3171C110.044 43.245 110.029 43.1678 110.03 43.0901C110.029 43.0122 110.043 42.9349 110.072 42.8627C110.101 42.7905 110.145 42.7249 110.2 42.6699C110.255 42.6148 110.321 42.5714 110.393 42.5422C110.465 42.5131 110.542 42.4987 110.62 42.5001H120.55C120.707 42.5007 120.857 42.5616 120.97 42.6701C121.077 42.7842 121.137 42.9338 121.14 43.0901C121.141 43.1678 121.126 43.245 121.097 43.3171C121.068 43.3891 121.025 43.4547 120.97 43.5101C120.858 43.6214 120.708 43.6857 120.55 43.6901Z" fill="#95B7D6"/>
<path d="M122.01 53.7H86.7301C86.5737 53.7 86.4236 53.6379 86.313 53.5272C86.2023 53.4166 86.1401 53.2665 86.1401 53.11C86.1401 52.9535 86.2023 52.8035 86.313 52.6928C86.4236 52.5822 86.5737 52.52 86.7301 52.52H122.01C122.167 52.52 122.317 52.5822 122.427 52.6928C122.538 52.8035 122.6 52.9535 122.6 53.11C122.6 53.2665 122.538 53.4166 122.427 53.5272C122.317 53.6379 122.167 53.7 122.01 53.7Z" fill="#95B7D6"/>
<path d="M82.9702 53.7H72.2102C72.0539 53.6974 71.9042 53.6368 71.7902 53.53C71.6802 53.4179 71.6187 53.2671 71.6187 53.11C71.6187 52.953 71.6802 52.8022 71.7902 52.69C71.9042 52.5833 72.0539 52.5227 72.2102 52.52H82.9702C83.0479 52.5193 83.1251 52.5339 83.1971 52.5631C83.2692 52.5923 83.3348 52.6354 83.3902 52.69C83.447 52.7442 83.4923 52.8094 83.5233 52.8816C83.5542 52.9538 83.5702 53.0315 83.5702 53.11C83.5702 53.1886 83.5542 53.2663 83.5233 53.3385C83.4923 53.4107 83.447 53.4759 83.3902 53.53C83.3348 53.5847 83.2692 53.6278 83.1971 53.657C83.1251 53.6861 83.0479 53.7008 82.9702 53.7Z" fill="#95B7D6"/>
<path d="M121.31 136.16H73.7002C73.5435 136.16 73.3931 136.099 73.2802 135.99C73.1702 135.878 73.1086 135.727 73.1086 135.57C73.1086 135.413 73.1702 135.262 73.2802 135.15C73.3921 135.039 73.5423 134.975 73.7002 134.97H121.31C121.468 134.972 121.619 135.037 121.73 135.15C121.81 135.233 121.865 135.338 121.886 135.451C121.907 135.565 121.895 135.682 121.85 135.789C121.805 135.895 121.73 135.986 121.634 136.05C121.538 136.115 121.426 136.149 121.31 136.15V136.16Z" fill="#95B7D6"/>
<path d="M121.7 116.12H72.2102C72.054 116.117 71.9043 116.057 71.7902 115.95C71.7329 115.89 71.6882 115.82 71.659 115.742C71.6298 115.665 71.6166 115.583 71.6202 115.5C71.6195 115.422 71.6341 115.345 71.6633 115.273C71.6925 115.201 71.7356 115.135 71.7902 115.08C71.9033 114.97 72.0528 114.906 72.2102 114.9H121.7C121.858 114.902 122.009 114.967 122.12 115.08C122.178 115.133 122.224 115.198 122.255 115.271C122.286 115.343 122.301 115.421 122.3 115.5C122.3 115.578 122.284 115.656 122.253 115.728C122.222 115.801 122.177 115.866 122.12 115.92C122.067 115.98 122.003 116.029 121.931 116.063C121.859 116.097 121.78 116.117 121.7 116.12Z" fill="#95B7D6"/>
<path d="M97.5102 126.13H72.2102C72.0539 126.127 71.9042 126.067 71.7902 125.96C71.6802 125.848 71.6187 125.697 71.6187 125.54C71.6187 125.383 71.6802 125.232 71.7902 125.12C71.9032 125.01 72.0528 124.946 72.2102 124.94H97.5102C97.6652 124.944 97.8125 125.008 97.9202 125.12C97.977 125.174 98.0223 125.239 98.0533 125.311C98.0842 125.384 98.1002 125.461 98.1002 125.54C98.1002 125.618 98.0842 125.696 98.0533 125.768C98.0223 125.841 97.977 125.906 97.9202 125.96C97.8114 126.069 97.664 126.13 97.5102 126.13Z" fill="#95B7D6"/>
<path d="M95.6202 126.13H74.1302C74.0147 126.129 73.902 126.095 73.8061 126.03C73.7101 125.966 73.6352 125.875 73.5905 125.769C73.5458 125.662 73.5333 125.545 73.5545 125.431C73.5758 125.318 73.6299 125.213 73.7102 125.13C73.821 125.017 73.9719 124.952 74.1302 124.95H95.6202C95.7784 124.952 95.9294 125.017 96.0402 125.13C96.1204 125.213 96.1745 125.318 96.1958 125.431C96.2171 125.545 96.2046 125.662 96.1599 125.769C96.1152 125.875 96.0402 125.966 95.9443 126.03C95.8483 126.095 95.7357 126.129 95.6202 126.13Z" fill="#95B7D6"/>
<path d="M105.19 94.6901H72.6201C72.4627 94.6838 72.3132 94.6197 72.2001 94.5101C72.1455 94.4547 72.1024 94.3891 72.0732 94.3171C72.044 94.245 72.0294 94.1678 72.0301 94.0901C72.0288 94.0122 72.0431 93.9349 72.0723 93.8627C72.1014 93.7905 72.1448 93.7249 72.1999 93.6699C72.255 93.6148 72.3205 93.5714 72.3927 93.5422C72.4649 93.5131 72.5423 93.4987 72.6201 93.5001H105.2C105.278 93.4993 105.355 93.514 105.427 93.5432C105.499 93.5723 105.565 93.6155 105.62 93.6701C105.73 93.7832 105.794 93.9327 105.8 94.0901C105.795 94.2476 105.73 94.3974 105.619 94.5088C105.507 94.6203 105.358 94.6851 105.2 94.6901H105.19Z" fill="#95B7D6"/>
<path d="M120.84 94.69H110.92C110.763 94.685 110.613 94.6202 110.501 94.5087C110.39 94.3973 110.325 94.2476 110.32 94.09C110.326 93.9326 110.39 93.7831 110.5 93.67C110.555 93.6154 110.621 93.5723 110.693 93.5431C110.765 93.5139 110.842 93.4993 110.92 93.5H120.84C120.918 93.4993 120.995 93.5139 121.067 93.5431C121.139 93.5723 121.205 93.6154 121.26 93.67C121.367 93.7841 121.427 93.9338 121.43 94.09C121.431 94.1678 121.416 94.2449 121.387 94.317C121.358 94.3891 121.315 94.4547 121.26 94.51C121.149 94.6231 120.998 94.6878 120.84 94.69Z" fill="#95B7D6"/>
<path d="M122.3 104.7H87.02C86.8667 104.684 86.7244 104.613 86.62 104.5C86.5101 104.388 86.4485 104.237 86.4485 104.08C86.4485 103.923 86.5101 103.772 86.62 103.66C86.7341 103.553 86.8838 103.492 87.04 103.49H122.32C122.398 103.489 122.475 103.504 122.547 103.533C122.619 103.562 122.685 103.605 122.74 103.66C122.797 103.714 122.842 103.779 122.873 103.851C122.904 103.923 122.92 104.001 122.92 104.08C122.92 104.158 122.904 104.236 122.873 104.308C122.842 104.38 122.797 104.446 122.74 104.5C122.685 104.562 122.617 104.612 122.541 104.647C122.466 104.681 122.383 104.699 122.3 104.7Z" fill="#95B7D6"/>
<path d="M83.3701 104.7H72.6201C72.4638 104.697 72.3142 104.637 72.2001 104.53C72.0901 104.418 72.0286 104.267 72.0286 104.11C72.0286 103.953 72.0901 103.802 72.2001 103.69C72.3111 103.576 72.4611 103.508 72.6201 103.5H83.3701C83.4478 103.499 83.525 103.514 83.597 103.543C83.6691 103.572 83.7347 103.615 83.7901 103.67C83.847 103.724 83.8922 103.789 83.9232 103.862C83.9541 103.934 83.9701 104.011 83.9701 104.09C83.9701 104.169 83.9541 104.246 83.9232 104.319C83.8922 104.391 83.847 104.456 83.7901 104.51C83.7364 104.568 83.6716 104.615 83.5994 104.648C83.5272 104.68 83.4493 104.698 83.3701 104.7Z" fill="#95B7D6"/>
<path d="M179.27 76.2698H179.17L162.62 70.9198C162.551 70.8988 162.487 70.8648 162.43 70.8198C162.372 70.7731 162.325 70.7153 162.29 70.6498C162.261 70.5827 162.241 70.5121 162.23 70.4398C162.215 70.3672 162.215 70.2924 162.23 70.2198C162.257 70.1512 162.294 70.0871 162.34 70.0298C162.388 69.9757 162.445 69.9316 162.51 69.8998C162.572 69.8591 162.646 69.8382 162.72 69.8398C162.789 69.8249 162.861 69.8249 162.93 69.8398L179.5 75.1898C179.572 75.2016 179.64 75.2289 179.7 75.2698C179.76 75.3129 179.811 75.3672 179.85 75.4298C179.887 75.4919 179.914 75.5594 179.93 75.6298C179.94 75.6994 179.94 75.7701 179.93 75.8398C179.91 75.9106 179.88 75.9781 179.84 76.0398C179.803 76.0987 179.751 76.1469 179.69 76.1798C179.63 76.2206 179.562 76.2479 179.49 76.2598C179.417 76.2698 179.343 76.2698 179.27 76.2598V76.2698Z" fill="#95B7D6"/>
<path d="M177.62 81.56H177.52L160.92 76.2C160.85 76.1808 160.786 76.1467 160.73 76.1C160.676 76.053 160.631 75.9951 160.6 75.93C160.564 75.8651 160.54 75.7938 160.53 75.72C160.521 75.6503 160.521 75.5797 160.53 75.51C160.551 75.4409 160.585 75.3764 160.63 75.32C160.677 75.2623 160.735 75.2147 160.8 75.18C160.867 75.1508 160.938 75.1307 161.01 75.12C161.083 75.1052 161.158 75.1052 161.23 75.12L177.82 80.5C177.892 80.5148 177.959 80.5437 178.019 80.5849C178.079 80.6261 178.131 80.6788 178.17 80.74C178.242 80.8673 178.267 81.0161 178.24 81.16C178.208 81.3004 178.122 81.4225 178 81.5C177.939 81.5412 177.87 81.5688 177.798 81.5809C177.725 81.593 177.651 81.5893 177.58 81.57L177.62 81.56Z" fill="#95B7D6"/>
<path d="M175.72 87.31H175.62L159.07 81.97C159.001 81.949 158.937 81.915 158.88 81.87C158.823 81.8191 158.775 81.7581 158.74 81.69C158.71 81.6269 158.689 81.5594 158.68 81.49C158.67 81.417 158.67 81.3429 158.68 81.27C158.703 81.1995 158.74 81.1347 158.79 81.08C158.836 81.0236 158.894 80.979 158.96 80.95C159.019 80.9106 159.089 80.8898 159.16 80.89C159.233 80.8746 159.308 80.8746 159.38 80.89L175.93 86.23C175.998 86.2437 176.063 86.2709 176.12 86.31C176.18 86.3531 176.231 86.4074 176.27 86.47C176.307 86.5321 176.334 86.5996 176.35 86.67C176.365 86.7392 176.365 86.8107 176.35 86.88C176.339 86.9537 176.308 87.023 176.26 87.08C176.221 87.1394 176.17 87.1904 176.11 87.23C176.048 87.2636 175.98 87.2872 175.91 87.3C175.848 87.3154 175.784 87.3188 175.72 87.31Z" fill="#95B7D6"/>
<path d="M155.86 36.7398L101.17 106.55C100.68 107.176 100.458 107.971 100.554 108.76C100.649 109.55 101.055 110.269 101.68 110.76L153.3 151.2C153.926 151.69 154.721 151.912 155.511 151.816C156.3 151.721 157.019 151.315 157.51 150.69L212.2 80.8698C212.69 80.2437 212.912 79.4486 212.817 78.6592C212.721 77.8698 212.316 77.1506 211.69 76.6598L160.08 36.2198C159.769 35.976 159.413 35.796 159.033 35.6902C158.652 35.5844 158.254 35.5548 157.862 35.6031C157.47 35.6514 157.091 35.7767 156.748 35.9718C156.404 36.1668 156.103 36.4278 155.86 36.7398Z" fill="url(#paint1_linear)"/>
<path d="M119.67 37.3198L91.86 123.66C91.6175 124.416 91.6844 125.237 92.0461 125.944C92.4079 126.65 93.035 127.185 93.79 127.43L156.2 147.5C156.576 147.621 156.971 147.667 157.365 147.635C157.758 147.604 158.141 147.494 158.493 147.314C158.844 147.134 159.156 146.886 159.411 146.585C159.666 146.284 159.86 145.936 159.98 145.56L187.79 59.2198C188.017 58.4705 187.943 57.662 187.582 56.9669C187.222 56.2719 186.604 55.7453 185.86 55.4998L123.45 35.3998C122.694 35.1537 121.872 35.2177 121.163 35.5777C120.454 35.9377 119.917 36.5643 119.67 37.3198Z" fill="url(#paint2_linear)"/>
<path opacity="0.14" d="M120.84 32.6702L111 63.2102C110.957 63.3468 110.941 63.4906 110.953 63.6334C110.965 63.7762 111.005 63.9152 111.071 64.0425C111.137 64.1697 111.227 64.2827 111.337 64.375C111.447 64.4673 111.573 64.537 111.71 64.5802L140.1 73.7302C140.237 73.7737 140.38 73.7898 140.523 73.7777C140.666 73.7655 140.805 73.7253 140.932 73.6594C141.06 73.5934 141.173 73.503 141.265 73.3933C141.357 73.2837 141.427 73.1569 141.47 73.0202L151.31 42.5002C151.355 42.3637 151.373 42.2195 151.362 42.0761C151.352 41.9326 151.313 41.7927 151.247 41.6645C151.182 41.5362 151.093 41.422 150.983 41.3286C150.874 41.2352 150.747 41.1644 150.61 41.1202L122.21 31.9802C122.075 31.9349 121.932 31.9169 121.79 31.9271C121.648 31.9373 121.509 31.9756 121.381 32.0397C121.254 32.1039 121.141 32.1926 121.048 32.3009C120.955 32.4091 120.884 32.5346 120.84 32.6702Z" fill="#3E479B"/>
<path d="M120.81 32.7701L111.49 61.6901C111.447 61.8266 111.43 61.9705 111.443 62.1133C111.455 62.2561 111.495 62.3951 111.561 62.5223C111.627 62.6496 111.717 62.7626 111.827 62.8549C111.937 62.9471 112.063 63.0169 112.2 63.0601L139.27 71.7801C139.406 71.8252 139.549 71.8428 139.692 71.8319C139.835 71.821 139.974 71.7819 140.102 71.7168C140.229 71.6516 140.342 71.5618 140.435 71.4525C140.527 71.3432 140.597 71.2166 140.64 71.0801L149.96 42.1601C150.004 42.0235 150.02 41.8797 150.008 41.7369C149.995 41.5941 149.955 41.4551 149.889 41.3278C149.823 41.2006 149.733 41.0876 149.623 40.9953C149.514 40.903 149.387 40.8333 149.25 40.7901L122.18 32.0701C122.044 32.025 121.901 32.0074 121.758 32.0183C121.615 32.0291 121.476 32.0683 121.349 32.1334C121.221 32.1985 121.108 32.2884 121.015 32.3977C120.923 32.507 120.853 32.6336 120.81 32.7701Z" fill="#42C974"/>
<path opacity="0.07" d="M149.09 44.9101L119.94 35.5001L120.85 32.7401C120.891 32.6071 120.96 32.4842 121.051 32.3792C121.142 32.2741 121.254 32.1893 121.38 32.1301C121.63 31.9998 121.92 31.9711 122.19 32.0501L149.35 40.8001C149.48 40.84 149.599 40.9059 149.703 40.9935C149.806 41.0812 149.89 41.1889 149.95 41.3101C150.015 41.43 150.055 41.562 150.067 41.6978C150.079 41.8337 150.063 41.9706 150.02 42.1001L149.09 44.9101Z" fill="#ECF1F7"/>
<path d="M126.38 51.3298C126.165 51.3071 125.954 51.2602 125.75 51.1898L125.35 51.0598C124.319 50.7274 123.462 49.9994 122.967 49.0358C122.472 48.0722 122.38 46.9515 122.71 45.9198L124.49 40.3998C124.523 40.2934 124.578 40.1947 124.65 40.1098C124.719 40.0247 124.804 39.9534 124.9 39.8998C124.996 39.8491 125.102 39.8184 125.21 39.8098C125.315 39.7847 125.425 39.7847 125.53 39.8098C125.633 39.8431 125.729 39.8976 125.81 39.9698C125.896 40.0358 125.965 40.1215 126.01 40.2198C126.06 40.32 126.09 40.4285 126.1 40.5398C126.125 40.645 126.125 40.7546 126.1 40.8598L124.33 46.3798C124.224 46.6844 124.18 47.0069 124.199 47.3288C124.218 47.6506 124.301 47.9655 124.442 48.2553C124.584 48.5452 124.781 48.8043 125.022 49.0179C125.264 49.2314 125.545 49.3952 125.85 49.4998L126.25 49.6298C126.73 49.7816 127.251 49.7385 127.7 49.5098C127.919 49.3944 128.113 49.237 128.271 49.0465C128.428 48.856 128.547 48.6363 128.62 48.3998L133.13 34.3998C133.21 34.1559 133.241 33.8986 133.22 33.6427C133.2 33.3869 133.128 33.1377 133.01 32.9098C132.774 32.4378 132.36 32.0783 131.86 31.9098L131.17 31.6898C130.911 31.6066 130.638 31.5752 130.367 31.5976C130.096 31.6199 129.832 31.6954 129.59 31.8198C129.113 32.0795 128.755 32.5129 128.59 33.0298L128.49 33.3798C128.42 33.5865 128.273 33.7584 128.08 33.8598C127.884 33.9558 127.659 33.9737 127.45 33.9098C127.347 33.8801 127.252 33.829 127.17 33.7598C127.087 33.6868 127.019 33.5985 126.97 33.4998C126.921 33.4067 126.89 33.3048 126.88 33.1998C126.865 33.0937 126.865 32.9859 126.88 32.8798L126.99 32.5298C127.295 31.5904 127.96 30.8101 128.839 30.3602C129.718 29.9103 130.74 29.8274 131.68 30.1298L132.37 30.3498C133.279 30.6453 134.034 31.2892 134.468 32.1402C134.903 32.9913 134.983 33.9801 134.69 34.8898L130.19 48.8898C129.934 49.6791 129.41 50.3545 128.71 50.7998C128.012 51.2439 127.18 51.428 126.36 51.3198L126.38 51.3298Z" fill="#FFC600"/>
<path d="M166.73 95.24H166.62L116.01 78.92C115.87 78.8701 115.752 78.7705 115.68 78.64C115.629 78.5428 115.607 78.4324 115.619 78.323C115.631 78.2136 115.675 78.1103 115.746 78.0263C115.817 77.9423 115.912 77.8815 116.018 77.8519C116.123 77.8222 116.236 77.825 116.34 77.86L166.98 94.17C167.121 94.2067 167.243 94.2962 167.32 94.42C167.358 94.4803 167.384 94.5476 167.396 94.6179C167.408 94.6883 167.406 94.7604 167.39 94.83C167.375 94.8999 167.346 94.9661 167.305 95.0245C167.264 95.0829 167.211 95.1324 167.15 95.17C167.089 95.2106 167.02 95.2379 166.948 95.2499C166.875 95.262 166.801 95.2586 166.73 95.24Z" fill="#95B7D6"/>
<path d="M160.41 114.88H160.31L109.68 98.5598C109.612 98.5365 109.548 98.5028 109.49 98.4598C109.438 98.4101 109.394 98.3528 109.36 98.2898C109.331 98.2227 109.311 98.1521 109.3 98.0798C109.281 98.0111 109.281 97.9384 109.3 97.8698C109.317 97.7991 109.352 97.7339 109.4 97.6798C109.448 97.6257 109.505 97.5815 109.57 97.5498C109.633 97.5193 109.701 97.499 109.77 97.4898C109.842 97.4702 109.918 97.4702 109.99 97.4898L160.62 113.83C160.688 113.853 160.752 113.887 160.81 113.93C160.862 113.979 160.906 114.037 160.94 114.1C160.979 114.159 161 114.229 161 114.3C161.015 114.372 161.015 114.447 161 114.52C160.959 114.64 160.878 114.743 160.77 114.81C160.661 114.872 160.534 114.897 160.41 114.88Z" fill="#95B7D6"/>
<path d="M136.88 96.4999H136.78L112.85 88.7899C112.781 88.7689 112.717 88.735 112.66 88.6899C112.602 88.6432 112.555 88.5854 112.52 88.5199C112.491 88.4528 112.471 88.3822 112.46 88.3099C112.445 88.2373 112.445 88.1625 112.46 88.0899C112.487 88.0213 112.524 87.9572 112.57 87.8999C112.618 87.8458 112.675 87.8017 112.74 87.7699C112.806 87.7382 112.877 87.7179 112.95 87.7099C113.019 87.695 113.091 87.695 113.16 87.7099L137.09 95.4299C137.162 95.4417 137.23 95.469 137.29 95.5099C137.35 95.553 137.401 95.6073 137.44 95.6699C137.478 95.7305 137.502 95.7988 137.51 95.8699C137.53 95.9385 137.53 96.0113 137.51 96.0799C137.499 96.1536 137.468 96.2229 137.42 96.2799C137.381 96.3393 137.33 96.3903 137.27 96.4299C137.207 96.4635 137.14 96.4871 137.07 96.4999C137.007 96.508 136.943 96.508 136.88 96.4999Z" fill="#95B7D6"/>
<path d="M156.06 82.85C156.031 82.8599 155.999 82.8599 155.97 82.85L132.03 75.14C131.963 75.1207 131.902 75.0865 131.85 75.04C131.793 74.9928 131.746 74.9351 131.71 74.87C131.679 74.808 131.662 74.7396 131.66 74.67C131.645 74.5975 131.645 74.5225 131.66 74.45C131.707 74.3156 131.804 74.2045 131.93 74.14C132.065 74.0855 132.216 74.0855 132.35 74.14L156.28 81.86C156.352 81.8748 156.419 81.9037 156.479 81.9449C156.539 81.9861 156.591 82.0388 156.63 82.1C156.703 82.2233 156.728 82.3694 156.7 82.51C156.684 82.5821 156.654 82.6503 156.611 82.7104C156.568 82.7706 156.513 82.8214 156.45 82.86C156.327 82.9332 156.181 82.9581 156.04 82.93L156.06 82.85Z" fill="#95E78C"/>
<path d="M163.62 104.99H163.52L140.71 97.65C140.64 97.6273 140.575 97.5898 140.52 97.54C140.464 97.4947 140.419 97.4363 140.39 97.37C140.349 97.3077 140.328 97.2345 140.33 97.16C140.315 97.0908 140.315 97.0193 140.33 96.95C140.353 96.8796 140.39 96.8148 140.44 96.76C140.485 96.7006 140.543 96.6526 140.61 96.62C140.673 96.5896 140.741 96.5693 140.81 96.56C140.883 96.5496 140.957 96.5496 141.03 96.56L163.83 103.9C163.972 103.934 164.097 104.019 164.18 104.14C164.257 104.266 164.282 104.416 164.25 104.56C164.218 104.7 164.131 104.823 164.01 104.9C163.896 104.979 163.757 105.011 163.62 104.99Z" fill="#95B7D6"/>
<path d="M118.3 118.5H71.7801C71.0057 118.501 70.2388 118.35 69.523 118.054C68.8072 117.759 68.1567 117.325 67.6087 116.778C67.0607 116.231 66.626 115.581 66.3294 114.866C66.0327 114.151 65.8801 113.384 65.8801 112.61V108.75C65.8817 107.971 65.7287 107.199 65.4301 106.48C65.1345 105.762 64.6995 105.109 64.1503 104.56C63.601 104.01 62.9484 103.575 62.2301 103.28C61.5144 102.979 60.7463 102.823 59.9701 102.82H38.4701C37.6926 102.821 36.9231 102.976 36.2053 103.274C35.4876 103.573 34.8357 104.01 34.2869 104.561C33.7381 105.111 33.3032 105.765 33.0069 106.484C32.7106 107.202 32.5588 107.972 32.5601 108.75V170.16C32.5601 171.621 33.1406 173.023 34.1739 174.056C35.2072 175.089 36.6087 175.67 38.0701 175.67H118.3C119.761 175.67 121.163 175.089 122.196 174.056C123.23 173.023 123.81 171.621 123.81 170.16V123.99C123.811 123.266 123.669 122.549 123.393 121.88C123.117 121.21 122.711 120.602 122.2 120.09C121.162 119.06 119.762 118.478 118.3 118.47V118.5Z" fill="#32BA65"/>
<path d="M32.9502 175.14C32.2915 175.14 31.6393 175.01 31.0302 174.76C30.4202 174.508 29.8662 174.137 29.4002 173.67C28.9387 173.203 28.569 172.653 28.3102 172.05C28.0598 171.441 27.9307 170.789 27.9302 170.13V108.72C27.9302 107.282 28.5009 105.902 29.517 104.884C30.5332 103.866 31.9118 103.293 33.3502 103.29H54.8402C56.2786 103.293 57.6571 103.866 58.6733 104.884C59.6895 105.902 60.2602 107.282 60.2602 108.72V112.58C60.2575 114.27 60.9258 115.893 62.1182 117.091C63.3107 118.289 64.9298 118.965 66.6202 118.97H113.15C114.476 118.97 115.748 119.497 116.686 120.435C117.623 121.372 118.15 122.644 118.15 123.97V170.11C118.15 171.436 117.623 172.708 116.686 173.646C115.748 174.583 114.476 175.11 113.15 175.11L32.9502 175.14Z" fill="#42C974" stroke="url(#paint3_linear)"/>
<path opacity="0.42" d="M148.27 99.2701C152.508 95.0326 155.394 89.6337 156.563 83.756C157.732 77.8784 157.132 71.786 154.839 66.2493C152.546 60.7127 148.662 55.9804 143.679 52.651C138.696 49.3215 132.838 47.5444 126.845 47.5444C120.852 47.5444 114.994 49.3215 110.011 52.651C105.028 55.9804 101.145 60.7127 98.8515 66.2493C96.5582 71.786 95.9582 77.8784 97.1275 83.756C98.2967 89.6337 101.183 95.0326 105.42 99.2701C111.103 104.952 118.809 108.144 126.845 108.144C134.881 108.144 142.588 104.952 148.27 99.2701Z" fill="white"/>
<path opacity="0.89" d="M103.11 80.0301C102.599 80.0276 102.11 79.8226 101.75 79.4601C101.571 79.2839 101.43 79.0736 101.334 78.8418C101.237 78.6099 101.189 78.3611 101.19 78.1101C101.198 70.7589 104.121 63.7108 109.317 58.5108C114.513 53.3108 121.559 50.3833 128.91 50.3701C129.162 50.3716 129.41 50.4227 129.642 50.5205C129.874 50.6183 130.084 50.7609 130.26 50.9401C130.527 51.2072 130.709 51.5475 130.782 51.9178C130.856 52.2882 130.818 52.672 130.674 53.0209C130.529 53.3698 130.285 53.668 129.971 53.8779C129.657 54.0877 129.288 54.1999 128.91 54.2001C122.577 54.2107 116.507 56.7311 112.029 61.209C107.551 65.687 105.031 71.7573 105.02 78.0901C105.024 78.3437 104.977 78.5955 104.88 78.8301C104.788 79.066 104.649 79.2804 104.47 79.4601C104.29 79.6403 104.076 79.7831 103.84 79.8801C103.61 79.9797 103.361 80.0307 103.11 80.0301Z" fill="white"/>
<path d="M154.7 99.56L154.84 99.44C160.357 92.3165 162.956 83.3606 162.109 74.3907C161.263 65.4207 157.035 57.109 150.283 51.1429C143.532 45.1769 134.763 42.0037 125.757 42.2677C116.751 42.5316 108.183 46.2129 101.793 52.5641C95.4021 58.9153 91.668 67.4604 91.3485 76.4645C91.029 85.4686 94.1479 94.2569 100.072 101.045C105.996 107.833 114.282 112.113 123.246 113.014C132.211 113.916 141.183 111.372 148.34 105.9L152.43 101.81L154.7 99.56ZM126.85 108.15C119.835 108.154 113.035 105.726 107.609 101.278C102.184 96.8305 98.4685 90.639 97.0966 83.7589C95.7248 76.8788 96.7812 69.7359 100.086 63.5475C103.391 57.3591 108.739 52.5082 115.22 49.8215C121.701 47.1348 128.912 46.7786 135.626 48.8137C142.34 50.8487 148.141 55.149 152.039 60.9817C155.938 66.8143 157.693 73.8184 157.005 80.8002C156.318 87.782 153.231 94.3094 148.27 99.27C142.588 104.949 134.884 108.143 126.85 108.15Z" fill="#FED546"/>
<path d="M181.09 121.2L156.2 96.03C156.11 95.94 155.83 96.03 155.44 96.32C153.883 97.521 152.419 98.8381 151.06 100.26C149.642 101.624 148.35 103.113 147.2 104.71C147.02 105.01 146.95 105.22 147.03 105.29L171.92 130.5C172.52 131.108 173.234 131.592 174.022 131.921C174.81 132.251 175.656 132.42 176.51 132.42C177.363 132.419 178.206 132.249 178.993 131.919C179.779 131.59 180.492 131.107 181.09 130.5C182.308 129.267 182.991 127.603 182.991 125.87C182.991 124.137 182.308 122.473 181.09 121.24V121.2Z" fill="#FED546"/>
</g>
<defs>
<linearGradient id="paint0_linear" x1="96.25" y1="27.5" x2="96.25" y2="135.6" gradientUnits="userSpaceOnUse">
<stop stop-color="white"/>
<stop offset="1" stop-color="#F2F2F2"/>
</linearGradient>
<linearGradient id="paint1_linear" x1="162.66" y1="55.5198" x2="150.68" y2="132.11" gradientUnits="userSpaceOnUse">
<stop stop-color="white"/>
<stop offset="1" stop-color="#F6F6F6"/>
</linearGradient>
<linearGradient id="paint2_linear" x1="14834.8" y1="16498.6" x2="11288.1" y2="6677.78" gradientUnits="userSpaceOnUse">
<stop stop-color="white"/>
<stop offset="1" stop-color="#F6F6F6"/>
</linearGradient>
<linearGradient id="paint3_linear" x1="175.14" y1="138.83" x2="43.1402" y2="139.33" gradientUnits="userSpaceOnUse">
<stop stop-color="#42C974"/>
<stop offset="1" stop-color="white" stop-opacity="0"/>
</linearGradient>
<clipPath id="clip0">
<rect width="220.76" height="190.5" fill="white" transform="translate(0.620117 0.5)"/>
</clipPath>
</defs>
</svg>
