<svg width="184" height="191" viewBox="0 0 184 191" fill="none" xmlns="http://www.w3.org/2000/svg">
<path fill-rule="evenodd" clip-rule="evenodd" d="M87.9217 0.505695C130.426 0.0309671 167.361 29.287 180.008 69.7374C192.202 108.738 175.58 150.328 142.156 173.967C109.89 196.787 66.74 195.712 34.8114 172.425C3.21819 149.382 -6.92102 107.03 4.59978 69.7374C16.7214 30.4995 46.7351 0.965707 87.9217 0.505695Z" fill="#F0FCFF"/>
<rect x="66" y="33.3887" width="103.218" height="137.362" rx="4" fill="#FED546"/>
<rect x="71.2305" y="33.0273" width="92.0539" height="126.319" rx="4" fill="white"/>
<rect x="111.838" y="20.5" width="11.5441" height="15.2624" rx="5.77204" fill="#FED546"/>
<ellipse cx="117.608" cy="25.5874" rx="1.69766" ry="1.69582" fill="#F0FCFF"/>
<rect x="91.4648" y="30.6748" width="52.2879" height="8.13994" rx="4.06997" fill="#FED546"/>
<path d="M102.078 30.6778C102.078 28.8041 103.597 27.2852 105.471 27.2852H129.961C131.834 27.2852 133.353 28.8041 133.353 30.6778H102.078Z" fill="#FED546"/>
<rect x="91.5508" y="53.5" width="48.2428" height="5.09884" rx="2.54942" fill="#95B7D6"/>
<rect x="79" y="75.8564" width="77.267" height="1.96109" rx="0.980546" fill="#95B7D6"/>
<rect x="79" y="82.5244" width="77.267" height="1.96109" rx="0.980546" fill="#95B7D6"/>
<rect x="79" y="89.1919" width="77.267" height="1.96109" rx="0.980546" fill="#95B7D6"/>
<rect x="79" y="95.8594" width="77.267" height="1.96109" rx="0.980546" fill="#95B7D6"/>
<rect x="79" y="102.527" width="77.267" height="1.96109" rx="0.980546" fill="#95B7D6"/>
<rect x="79" y="109.195" width="77.267" height="1.96109" rx="0.980546" fill="#95B7D6"/>
<rect x="79" y="115.863" width="77.267" height="1.96109" rx="0.980546" fill="#95B7D6"/>
<circle cx="143" cy="138.5" r="9" fill="#43D077" fill-opacity="0.6"/>
<mask id="mask0" mask-type="alpha" maskUnits="userSpaceOnUse" x="0" y="0" width="184" height="191">
<path fill-rule="evenodd" clip-rule="evenodd" d="M87.9217 0.505695C130.426 0.0309671 167.361 29.287 180.008 69.7374C192.202 108.738 175.58 150.328 142.156 173.967C109.89 196.787 66.7399 195.712 34.8113 172.425C3.21816 149.382 -6.92104 107.03 4.59975 69.7374C16.7214 30.4995 46.7351 0.965707 87.9217 0.505695Z" fill="#F0FCFF"/>
</mask>
<g mask="url(#mask0)">
<path d="M25.78 133.859C25.6942 133.698 25.6276 133.527 25.5817 133.35C25.4577 132.974 25.2966 132.499 25.1106 131.933C24.6975 130.739 24.1769 129.087 23.5571 127.269C22.9374 125.451 22.3589 123.81 21.9416 122.625C21.7433 122.063 21.5781 121.588 21.45 121.216C21.3828 121.046 21.3302 120.87 21.293 120.691C21.392 120.846 21.4711 121.012 21.5285 121.187C21.6648 121.509 21.8549 121.984 22.0821 122.571C22.5407 123.744 23.1398 125.38 23.7596 127.198C24.3793 129.016 24.8999 130.681 25.2553 131.888C25.4329 132.491 25.5693 132.983 25.6684 133.326C25.7228 133.499 25.7602 133.678 25.78 133.859Z" fill="#535565"/>
<path d="M18.2818 111.048C18.2818 111.048 18.2818 111.106 18.2818 111.221C18.2649 111.387 18.2373 111.551 18.1992 111.713C18.0494 112.31 17.8128 112.883 17.4968 113.411C17.0454 114.218 16.4304 114.922 15.6913 115.477C14.7509 116.113 13.6315 116.43 12.4975 116.382C11.3686 116.338 10.2706 116.001 9.31196 115.403C8.51938 114.94 7.80763 114.351 7.2048 113.659C6.80098 113.194 6.46822 112.672 6.21733 112.11C6.14959 111.957 6.09028 111.802 6.03966 111.643C6.00661 111.531 5.99422 111.473 6.00248 111.473C6.32973 112.233 6.77297 112.937 7.31636 113.56C7.91587 114.221 8.61246 114.786 9.3822 115.237C10.3238 115.809 11.3966 116.129 12.4975 116.167C13.5822 116.208 14.6527 115.909 15.5591 115.312C16.2807 114.783 16.8901 114.116 17.3522 113.349C17.6721 112.833 17.9235 112.278 18.1001 111.697C18.2199 111.283 18.2488 111.044 18.2818 111.048Z" fill="#535565"/>
<path d="M41.6084 99.0036L60.5687 95.1528L76.3435 96.3923L89.9574 101.28L80.6652 140.291L50.5742 141.837L41.6084 99.0036Z" fill="white"/>
<path d="M57.6851 95.7026L38.3653 99.4212L45.6701 152.683C45.6701 152.683 33.6635 172.473 31.8621 192.392H63.5727C63.5727 192.392 66.5765 167.069 66.2583 156.905C65.9402 146.741 66.1385 128.992 66.1385 128.992L57.6851 95.7026Z" fill="url(#paint0_linear)"/>
<path d="M76.3448 96.3926C78.7394 96.7782 81.0982 97.36 83.3976 98.132C87.5499 99.6814 94.611 101.437 94.611 101.437L82.4886 154.736C82.4886 154.736 94.6399 172.746 93.8714 192.388C93.8714 192.388 72.1676 192.752 63.5737 192.388L65.8916 128.004C65.8916 128.004 71.0484 118.758 73.4186 109.278C75.5255 100.85 76.3448 96.3926 76.3448 96.3926Z" fill="url(#paint1_linear)"/>
<path d="M94.6095 101.454C94.6095 101.454 105.509 113.61 111.587 118.27C117.664 122.931 125.262 129.839 125.13 133.38C125.056 135.445 124.225 138.024 123.556 139.788C123.065 141.079 122.367 142.282 121.49 143.349C118.491 147.047 108.157 160.112 102.972 164.619L91.1223 149.551L105.732 134.578C105.732 134.578 89.8622 127.335 89.135 125.488C88.4078 123.641 94.6095 101.454 94.6095 101.454Z" fill="url(#paint2_linear)"/>
<path d="M65.508 135.098C65.4062 135.016 65.3121 134.925 65.2271 134.825L64.4669 133.999L61.5721 131.012L51.8957 120.418L51.8378 120.352L51.8626 120.27L53.3443 115.018L54.0137 112.626L54.1624 112.833L48.0078 112.32H47.7971L47.8674 112.122L52.0693 100.813C52.5899 99.45 53.003 98.3551 53.3088 97.5701L53.9285 96.5124C53.9631 96.4106 53.9604 96.4776 54.0137 96.3843C54 96.4908 53.9722 96.595 53.9311 96.6942C53.8567 96.9173 53.7575 97.2065 53.6377 97.5701C53.3568 98.3592 52.9725 99.4665 52.4891 100.842C51.4686 103.664 50.0514 107.598 48.3987 112.188L48.2583 111.981L54.526 112.205H54.7367L54.6789 112.403C54.4599 113.192 54.2409 113.989 54.0137 114.795L52.5056 120.208L52.4684 120.059L61.835 130.772L64.5578 133.933L65.2767 134.792C65.362 134.888 65.4394 134.99 65.508 135.098Z" fill="black" fill-opacity="0.04"/>
<path d="M63.6189 192.405C63.528 192.405 63.9453 177.874 64.5526 159.959C65.16 142.044 65.7219 127.512 65.7921 127.517C65.8624 127.521 66.3103 142.035 65.703 159.959C65.0956 177.882 63.7304 192.409 63.6189 192.405Z" fill="black" fill-opacity="0.04"/>
<path d="M79.3609 96.9834C79.395 97.1009 79.4185 97.2212 79.4312 97.3429C79.4725 97.6114 79.6891 98.1485 79.7511 98.5782L80.3708 102.297C80.784 105.652 81.3376 110.44 82.0028 115.754L82.0276 115.968L81.8169 115.931L78.3339 115.332L78.5116 115.105C78.7223 115.576 78.9041 116.047 79.1313 116.551L80.5361 119.373L80.5774 119.468L80.5113 119.547L70.5728 130.665C69.3664 132.041 68.3872 133.144 67.6807 133.97L66.8915 134.846C66.8039 134.952 66.7071 135.05 66.6023 135.14C66.6704 135.019 66.7522 134.907 66.8461 134.805L67.5898 133.892L70.3993 130.537L79.9476 119.299L79.9229 119.468C79.5097 118.534 79.0676 117.555 78.6172 116.555L77.9562 115.072L77.8322 114.791L78.1338 114.845L81.6086 115.448L81.4227 115.626C80.8112 110.308 80.2782 105.66 79.8898 102.305C79.7163 100.652 79.5758 99.3467 79.4766 98.4006C79.4394 97.9874 79.4064 97.6197 79.3816 97.3511C79.3628 97.2295 79.3559 97.1064 79.3609 96.9834Z" fill="black" fill-opacity="0.04"/>
<path d="M61.6231 171.887C60.9827 171.06 59.6936 170.519 59.0325 171.35H59.0573C58.7335 171.604 58.4943 171.951 58.3712 172.344C58.248 172.737 58.2467 173.158 58.3673 173.552C58.4662 173.795 58.6126 174.015 58.7981 174.201C58.9835 174.386 59.2042 174.533 59.4471 174.632C59.6901 174.731 59.9503 174.78 60.2126 174.777C60.4749 174.774 60.7339 174.718 60.9744 174.614C61.2057 174.486 61.4077 174.312 61.5676 174.102C61.7275 173.892 61.8416 173.651 61.9027 173.394C61.9638 173.137 61.9705 172.87 61.9223 172.611C61.8742 172.351 61.7722 172.104 61.6231 171.887Z" fill="#3FCB69"/>
<path d="M62.6106 154.84C61.9702 153.993 60.6811 153.472 60.0201 154.298H60.0449C59.7211 154.553 59.4819 154.899 59.3587 155.293C59.2356 155.686 59.2342 156.107 59.3549 156.5C59.4537 156.743 59.6001 156.964 59.7857 157.15C59.9712 157.335 60.192 157.481 60.4351 157.58C60.6781 157.678 60.9384 157.727 61.2007 157.724C61.463 157.72 61.7218 157.664 61.962 157.558C62.1925 157.431 62.394 157.258 62.5534 157.048C62.7128 156.839 62.8268 156.598 62.8878 156.342C62.9489 156.086 62.9558 155.82 62.9081 155.562C62.8603 155.303 62.759 155.057 62.6106 154.84Z" fill="#3FCB69"/>
<g opacity="0.3">
<path opacity="0.3" d="M105.143 134.189C104.794 132.953 104.845 131.638 105.291 130.433C105.736 129.228 106.552 128.195 107.622 127.484C108.066 127.15 108.621 127.002 109.172 127.07C109.705 127.186 110.147 127.798 109.911 128.31C109.716 128.601 109.438 128.827 109.114 128.959C108.131 129.583 107.371 130.501 106.94 131.582C106.52 132.659 106.214 133.776 106.027 134.917" fill="black"/>
</g>
<path d="M92.5864 151.397L92.0782 151.765L83.3108 156.07C83.3108 156.07 88.0003 167.375 89.31 168.284C90.6197 169.193 98.6559 159.107 98.6559 159.107L92.5864 151.397Z" fill="#FFC9BF"/>
<path d="M38.4811 99.4336C37.0929 99.8096 29.1063 114.568 29.1063 114.568L21.4297 120.947L18.2689 111.031C18.267 111.022 18.2618 111.013 18.2543 111.007C18.2467 111.001 18.2373 110.998 18.2276 110.998H9.21227C9.16269 111.044 6.00195 111.411 6.00195 111.453L7.17535 125.885C7.17535 125.885 11.5343 140.193 14.0092 141.626C16.484 143.06 24.2929 140.193 28.1974 138.763C32.1018 137.334 42.8277 124.587 42.8277 124.587L38.4811 99.4336Z" fill="url(#paint3_linear)"/>
<g opacity="0.4">
<path opacity="0.4" d="M21.4956 121.02C22.939 123.165 23.9344 126.482 24.2752 129.045C24.616 131.608 24.36 134.215 23.5273 136.663C23.3369 137.201 23.0179 137.813 22.4503 137.863C21.8828 137.912 21.4518 137.341 21.4064 136.788C21.4178 136.231 21.5553 135.685 21.8086 135.189C22.6369 133.078 23.026 130.821 22.9522 128.554C22.8784 126.287 22.4595 123.073 21.4956 121.02Z" fill="black"/>
</g>
<g opacity="0.3">
<path opacity="0.3" d="M18.2276 111.015L6.00195 111.469C6.69153 113.396 8.09944 114.982 9.93119 115.894C11.7326 116.745 13.815 116.452 15.5296 115.436C17.2443 114.419 18.397 112.531 18.2276 111.015Z" fill="black"/>
</g>
<path d="M8.49439 111.18C8.49439 111.056 8.24236 108.432 9.39097 106.42C10.5396 104.408 11.4775 99.6814 11.4775 99.6814C11.702 98.3831 11.8263 97.0695 11.8493 95.7522C11.8245 94.0582 11.4609 91.9675 12.1799 91.3478C12.8988 90.728 15.4563 90.1083 15.3819 94.6779C15.3158 98.4295 15.9169 99.3288 15.9169 99.3288C15.9169 99.3288 19.935 98.3179 20.373 99.8756C20.8109 101.433 19.9846 102.214 19.9846 102.214C19.9846 102.214 21.3687 103.04 21.0547 103.838C20.7811 104.363 20.3122 104.759 19.7491 104.941C19.7491 104.941 20.4432 104.941 20.1086 106.222C20.0208 106.587 19.8569 106.929 19.6276 107.226C19.3983 107.523 19.1088 107.768 18.7782 107.945C18.9207 108.171 19.0143 108.425 19.0527 108.69C19.0911 108.954 19.0736 109.224 19.0013 109.482C18.774 110.424 18.4724 110.564 18.1006 110.634C17.7287 110.705 15.6835 110.961 15.6835 110.961C15.6575 111.322 15.5503 111.673 15.3701 111.987C15.1898 112.301 14.9411 112.57 14.6423 112.775L14.9687 113.535C14.9687 113.535 15.7951 115.886 12.7087 116.014C9.62234 116.142 8.71337 113.812 8.49439 111.18Z" fill="#FFC9BF"/>
<path d="M12.7422 101.549C13.0928 101.615 13.4476 101.656 13.804 101.673L16.3698 101.884C17.3738 101.962 18.2786 102.036 18.9356 102.103L19.7082 102.189C19.8016 102.211 19.8974 102.221 19.9933 102.218C20.2551 102.014 20.5214 101.213 20.4327 101.2C19.7799 101.105 18.871 101.015 17.867 100.936C16.863 100.858 15.954 100.804 15.2971 100.775C13.2312 100.981 13.0987 101.524 12.7422 101.549Z" fill="#F19F90" fill-opacity="0.5"/>
<path d="M12.5144 107.462C12.5144 107.462 12.549 107.586 12.6636 107.751C12.831 107.976 13.0311 108.146 13.2526 108.25C13.5825 108.396 13.9355 108.449 14.2939 108.405C14.7274 108.344 15.1611 108.244 15.5923 108.103C16.3693 107.874 17.1514 107.799 17.9169 107.88C18.5009 107.967 18.8545 108.065 18.8642 108.021C19.4041 107.655 19.7196 107.202 19.6352 107.179C19.41 107.102 18.9696 107.177 18.7365 107.142C17.9678 107.018 17.1759 107.075 16.3899 107.312C15.9628 107.448 15.5337 107.549 15.1045 107.616C14.7584 107.665 14.3169 107.73 13.8711 107.664C13.3514 107.586 12.7326 107.759 12.5144 107.462Z" fill="#F19F90" fill-opacity="0.5"/>
<path d="M10.7651 110.705C10.7651 110.705 10.7651 110.787 10.8065 110.919C10.8868 111.102 11.019 111.257 11.1866 111.366C11.4339 111.522 11.7201 111.607 12.0129 111.609C12.3636 111.608 14.9507 112.201 15.2955 112.137C15.502 111.93 15.502 111.724 15.5919 111.465C15.5919 111.465 15.7086 111.104 15.6777 110.965C15.6777 110.965 15.3802 111.014 14.9051 111.081L13.0376 111.353C12.7007 111.416 12.3595 111.453 12.017 111.465C11.744 111.471 11.4744 111.404 11.2361 111.271C11.0213 111.139 10.8558 110.94 10.7651 110.705Z" fill="#F19F90" fill-opacity="0.5"/>
<path d="M12.7835 105.205C12.7835 105.23 13.1677 105.114 13.7916 105.023C14.6045 104.91 15.4254 104.865 16.2458 104.887L18.7248 104.949C19.0659 104.974 19.4084 104.974 19.7495 104.949C20.6683 104.7 21.0815 103.873 20.9666 103.952C20.3303 103.915 18.5405 103.783 17.5696 103.766C16.7391 103.744 15.9085 103.806 15.0906 103.952C14.8432 103.997 14.599 104.058 14.3593 104.134C14.1899 104.175 12.7793 105.193 12.7835 105.205Z" fill="#F19F90" fill-opacity="0.5"/>
<path d="M53.3728 61.641C53.7186 60.4054 54.3065 59.2508 55.1023 58.2443C55.8981 57.2379 56.886 56.3996 58.0086 55.7781C60.4876 54.4312 63.4582 54.237 66.2141 54.7865C68.9699 55.336 71.544 56.5879 73.9775 57.9968C75.341 58.786 76.7044 59.6495 77.696 60.889C79.4851 63.1408 79.733 66.2148 79.9065 69.0904C80.047 71.4166 80.0891 79.3659 77.334 85.1791C76.8749 86.1478 76.204 87.0008 75.3708 87.6752C74.5377 88.3496 73.5636 88.8281 72.5206 89.0753" fill="#535565"/>
<path d="M54.5412 59.9184C52.5011 62.1257 51.274 64.9623 51.0622 67.9606C50.8504 70.9589 51.6665 73.9398 53.3761 76.4121C54.807 70.1008 56.7867 63.9266 59.2926 57.96" fill="#535565"/>
<path d="M52.6884 68.7062C52.9859 64.1283 55.4381 58.3149 59.9954 58.8066L70.5477 61.5004C72.171 61.9132 73.6191 62.836 74.6789 64.1331C75.7387 65.4301 76.3544 67.033 76.4354 68.7061C76.4354 68.8796 76.4643 68.6648 76.4601 68.797L73.7598 79.779L73.3466 96.3058L67.098 108.751L59.1856 95.3513C59.1856 93.1243 59.1856 90.5089 59.1856 90.5213C59.1856 90.5337 54.2509 87.8357 53.1009 80.6053C52.4977 76.8124 52.3414 73.7881 52.6884 68.7062Z" fill="#FFC9BF"/>
<path d="M54.7535 73.1922C54.7501 73.4473 54.8469 73.6936 55.023 73.8782C55.1991 74.0628 55.4405 74.1711 55.6955 74.1797C55.82 74.1904 55.9453 74.1759 56.064 74.1371C56.1827 74.0983 56.2924 74.0359 56.3865 73.9538C56.4806 73.8717 56.5572 73.7714 56.6117 73.659C56.6662 73.5466 56.6975 73.4244 56.7037 73.2996C56.7071 73.0452 56.6109 72.7995 56.4357 72.615C56.2604 72.4305 56.02 72.3218 55.7658 72.3122C55.6412 72.302 55.5159 72.3169 55.3972 72.3559C55.2785 72.3949 55.1687 72.4572 55.0744 72.5392C54.9801 72.6212 54.9032 72.7212 54.8481 72.8333C54.7929 72.9454 54.7608 73.0675 54.7535 73.1922Z" fill="#535565"/>
<path d="M53.4386 72.9451C53.5584 73.0732 54.2773 72.6404 55.3268 72.6404C56.3762 72.6404 57.1778 73.0649 57.2893 72.9451C57.3472 72.8873 57.2232 72.6559 56.8761 72.4121C56.4214 72.096 55.8806 71.9273 55.3268 71.9287C54.7787 71.9273 54.2441 72.0978 53.798 72.4163C53.4882 72.6559 53.3766 72.8873 53.4386 72.9451Z" fill="#535565"/>
<path d="M65.0838 73.1922C65.0814 73.447 65.1785 73.6927 65.3544 73.8771C65.5303 74.0615 65.7712 74.17 66.0258 74.1797C66.1504 74.1898 66.2757 74.1749 66.3944 74.136C66.5131 74.097 66.6228 74.0347 66.7171 73.9527C66.8114 73.8707 66.8884 73.7707 66.9435 73.6585C66.9986 73.5464 67.0308 73.4244 67.0381 73.2996C67.0404 73.0448 66.9433 72.7991 66.7674 72.6148C66.5915 72.4304 66.3507 72.3218 66.096 72.3122C65.9715 72.302 65.8462 72.3169 65.7275 72.3559C65.6088 72.3949 65.499 72.4572 65.4047 72.5392C65.3104 72.6212 65.2335 72.7212 65.1783 72.8333C65.1232 72.9454 65.0911 73.0675 65.0838 73.1922Z" fill="#535565"/>
<path d="M63.8574 73.1448C63.9893 73.298 64.7809 72.6504 65.8979 72.6504C67.0149 72.6504 67.8417 73.2881 67.9604 73.1448C68.022 73.0756 67.8901 72.7987 67.5207 72.5071C67.0353 72.1282 66.458 71.9263 65.8671 71.9287C65.2844 71.9268 64.7163 72.1328 64.2444 72.517C63.9145 72.7987 63.8002 73.0756 63.8574 73.1448Z" fill="#535565"/>
<path d="M59.9463 80.9858C59.9463 80.9238 59.2976 80.8122 58.2399 80.6717C57.9713 80.6428 57.7152 80.5891 57.6697 80.4073C57.6478 80.1292 57.7112 79.851 57.8515 79.6099C58.1077 78.9612 58.3721 78.2795 58.653 77.5441C59.7603 74.6519 60.566 72.239 60.4503 72.1935C60.3346 72.1481 59.3348 74.4742 58.2233 77.3871C57.9479 78.106 57.6931 78.7946 57.459 79.4529C57.2894 79.7765 57.2396 80.1497 57.3185 80.5065C57.3542 80.6048 57.4124 80.6933 57.4884 80.7651C57.5645 80.8368 57.6563 80.8898 57.7565 80.9196C57.906 80.9599 58.0602 80.9807 58.2151 80.9816C59.2811 81.0188 59.9421 81.0229 59.9463 80.9858Z" fill="#F19F90"/>
<path d="M70.6604 86.5962C70.6604 86.5962 66.8328 93.8845 59.1934 93.1573V90.5213C62.1904 92.174 67.6027 88.4162 70.6604 86.5962Z" fill="#F19F90" fill-opacity="0.5"/>
<path d="M62.5672 83.5395C62.4334 83.429 61.7097 84.2996 60.439 84.3011C59.1683 84.3025 58.3129 83.4307 58.2113 83.5343C58.1639 83.5917 58.2796 83.88 58.6643 84.2188C59.1758 84.6506 59.8213 84.8916 60.4906 84.9007C61.1335 84.905 61.753 84.6594 62.2182 84.2157C62.5504 83.8845 62.633 83.583 62.5672 83.5395Z" fill="#F19F90"/>
<path d="M63.1181 69.2591C63.267 69.5783 64.417 69.3045 65.8078 69.3405C67.1985 69.3765 68.3494 69.6505 68.5024 69.3341C68.566 69.1869 68.3406 68.8902 67.8622 68.6146C67.2246 68.2808 66.5241 68.1018 65.8135 68.0911C65.1028 68.0805 64.4006 68.2383 63.7596 68.5529C63.2954 68.819 63.0513 69.106 63.1181 69.2591Z" fill="#535565"/>
<path d="M53.1277 69.3394C53.3835 69.5881 54.3782 69.3394 55.5775 69.3394C56.7768 69.3394 57.7943 69.5066 58.0273 69.2494C58.1353 69.1251 57.9705 68.8764 57.5271 68.6406C56.9402 68.3437 56.2441 68.1937 55.5377 68.2119C54.8326 68.2174 54.148 68.3915 53.5824 68.7092C53.1789 68.9622 53.0368 69.2151 53.1277 69.3394Z" fill="#535565"/>
<path d="M53.7212 63.8719C54.1733 62.2182 55.7342 61.4033 56.9345 61.3141C58.141 61.3114 59.3227 61.8234 60.3393 62.7893C64.7404 66.5725 67.213 74.0914 71.5621 77.9936C72.6304 78.9573 73.8107 79.6949 74.7189 80.9679C75.6271 82.2408 76.2193 84.2752 75.7152 85.9765C76.3376 84.8275 76.8456 83.5514 77.2235 82.1873C77.41 81.5019 77.4957 80.7652 77.475 80.0265C77.4543 79.2879 77.3276 78.5643 77.1035 77.9044C76.7274 76.9348 78.695 75.4963 78.511 74.4078C78.3509 73.4501 78.3324 72.503 78.3044 71.5156C78.2287 70.5152 77.595 67.1926 77.2235 66.351C75.5231 61.8718 72.438 59.7835 69.4212 57.2613C67.4536 55.5675 63.9971 55.7624 61.7237 55.8177C59.4408 55.897 57.2523 57.1883 55.5542 59.4581C54.5819 60.8084 53.2131 62.0398 53.7212 63.8719Z" fill="#535565"/>
<path d="M81.1951 83.0842C81.1951 85.5943 77.0944 88.4554 74.5844 88.4554C72.9323 88.4554 74.5861 85.5943 74.5861 83.0842C74.5861 80.5742 75.1731 76.8867 77.6832 76.8867C80.1932 76.8867 81.1951 80.5742 81.1951 83.0842Z" fill="#535565"/>
</g>
<defs>
<linearGradient id="paint0_linear" x1="49.072" y1="95.7026" x2="49.072" y2="192.392" gradientUnits="userSpaceOnUse">
<stop stop-color="#79EB9C"/>
<stop offset="1" stop-color="#4ED276"/>
</linearGradient>
<linearGradient id="paint1_linear" x1="79.0923" y1="96.3926" x2="79.0923" y2="192.55" gradientUnits="userSpaceOnUse">
<stop stop-color="#79EB9C"/>
<stop offset="1" stop-color="#4ED276"/>
</linearGradient>
<linearGradient id="paint2_linear" x1="107.104" y1="101.454" x2="107.104" y2="164.619" gradientUnits="userSpaceOnUse">
<stop stop-color="#79EB9C"/>
<stop offset="1" stop-color="#4ED276"/>
</linearGradient>
<linearGradient id="paint3_linear" x1="24.4148" y1="99.4336" x2="24.4148" y2="142.017" gradientUnits="userSpaceOnUse">
<stop stop-color="#79EB9C"/>
<stop offset="1" stop-color="#4ED276"/>
</linearGradient>
</defs>
</svg>
