<svg width="26" height="27" viewBox="0 0 26 27" fill="none" xmlns="http://www.w3.org/2000/svg">
<path d="M20.8334 26.9998C19.7003 26.9998 18.1086 26.5743 15.7252 25.1917C12.8269 23.5042 10.5851 21.9462 7.70244 18.9611C4.92312 16.0773 3.57061 14.2102 1.67768 10.6338C-0.460793 6.59584 -0.0962546 4.4792 0.311239 3.57457C0.796517 2.49335 1.51282 1.84667 2.43868 1.20481C2.96457 0.84708 3.52108 0.540422 4.10117 0.28873C4.15921 0.262814 4.2132 0.238104 4.26138 0.215805C4.54871 0.0814061 4.98407 -0.121699 5.53552 0.0952679C5.90354 0.238707 6.23209 0.532215 6.7464 1.05957C7.80112 2.13958 9.24244 4.5449 9.77416 5.72616C10.1311 6.52231 10.3674 7.04785 10.368 7.63728C10.368 8.32735 10.0336 8.85952 9.62788 9.43388C9.55183 9.54177 9.47637 9.64482 9.40323 9.74487C8.96149 10.3476 8.86455 10.5217 8.9284 10.8327C9.05785 11.4577 10.0232 13.3182 11.6096 14.9617C13.1961 16.6052 14.9363 17.5442 15.5406 17.678C15.8529 17.7473 16.0241 17.6425 16.6232 17.1675C16.7091 17.0994 16.7973 17.0289 16.8896 16.9584C17.5084 16.4805 17.9972 16.1424 18.6461 16.1424H18.6496C19.2144 16.1424 19.698 16.3967 20.499 16.8162C21.5439 17.3634 23.9302 18.8406 24.9768 19.9369C25.4859 20.4697 25.7697 20.8096 25.9085 21.1911C26.1175 21.7654 25.9207 22.2156 25.7924 22.517C25.7709 22.567 25.7471 22.6219 25.7221 22.6827C25.4778 23.2839 25.1807 23.8605 24.8346 24.4052C24.2176 25.3635 23.5924 26.1054 22.5487 26.6098C22.0127 26.873 21.4262 27.0064 20.8334 26.9998Z" fill="#44BC74"/>
</svg>
