<svg width="28" height="26" viewBox="0 0 28 26" fill="none" xmlns="http://www.w3.org/2000/svg">
<path d="M28 23.92C28 24.596 27.7694 25.1117 27.3082 25.467C26.847 25.8223 26.2809 26 25.6101 26H2.38994C1.71908 26 1.15304 25.818 0.691824 25.454C0.230608 25.09 0 24.5787 0 23.92C0 23.4 0.150943 22.8713 0.45283 22.334L12.0503 1.43C12.6038 0.476667 13.2579 0 14.0126 0C14.7673 0 15.4046 0.476667 15.9245 1.43L27.5472 22.36C27.8491 22.9147 28 23.4347 28 23.92ZM15.7484 10.634V6.838H12.2516V10.634C12.2516 10.8767 12.2683 11.1063 12.3019 11.323C12.3354 11.5397 12.3816 11.7823 12.4403 12.051C12.499 12.3197 12.5451 12.5493 12.5786 12.74L13.2327 16.952H14.717L15.3962 12.74C15.4298 12.5667 15.4801 12.3413 15.5472 12.064C15.6143 11.7867 15.6646 11.5397 15.6981 11.323C15.7317 11.1063 15.7484 10.8767 15.7484 10.634ZM15.7484 20.696C15.7484 20.1933 15.5765 19.7687 15.2327 19.422C14.8889 19.0753 14.4738 18.902 13.9874 18.902C13.5178 18.902 13.1111 19.0753 12.7673 19.422C12.4235 19.7687 12.2516 20.1933 12.2516 20.696C12.2516 21.1987 12.4235 21.6277 12.7673 21.983C13.1111 22.3383 13.5178 22.516 13.9874 22.516C14.4738 22.516 14.8889 22.3383 15.2327 21.983C15.5765 21.6277 15.7484 21.1987 15.7484 20.696Z" fill="#4CD174"/>
</svg>
