<svg width="23" height="23" viewBox="0 0 23 23" fill="none" xmlns="http://www.w3.org/2000/svg">
<path d="M14.1478 11.5237L22.3027 3.38669C22.6598 3.02952 22.8604 2.54511 22.8604 2.04C22.8604 1.5349 22.6598 1.05048 22.3027 0.693314C21.9456 0.336151 21.4612 0.135498 20.9562 0.135498C20.4511 0.135498 19.9668 0.336151 19.6097 0.693314L11.4738 8.8493L3.33795 0.693314C2.98084 0.336151 2.49649 0.135498 1.99145 0.135498C1.48642 0.135498 1.00207 0.336151 0.644958 0.693314C0.287845 1.05048 0.0872209 1.5349 0.0872209 2.04C0.0872209 2.54511 0.287845 3.02952 0.644958 3.38669L8.79979 11.5237L0.644958 19.6607C0.467204 19.8371 0.326118 20.0468 0.229837 20.278C0.133555 20.5091 0.0839844 20.757 0.0839844 21.0074C0.0839844 21.2578 0.133555 21.5057 0.229837 21.7369C0.326118 21.968 0.467204 22.1778 0.644958 22.3541C0.821259 22.5319 1.03101 22.673 1.26211 22.7693C1.49322 22.8656 1.7411 22.9152 1.99145 22.9152C2.24181 22.9152 2.48969 22.8656 2.72079 22.7693C2.95189 22.673 3.16165 22.5319 3.33795 22.3541L11.4738 14.1981L19.6097 22.3541C19.786 22.5319 19.9957 22.673 20.2268 22.7693C20.4579 22.8656 20.7058 22.9152 20.9562 22.9152C21.2065 22.9152 21.4544 22.8656 21.6855 22.7693C21.9166 22.673 22.1264 22.5319 22.3027 22.3541C22.4804 22.1778 22.6215 21.968 22.7178 21.7369C22.8141 21.5057 22.8636 21.2578 22.8636 21.0074C22.8636 20.757 22.8141 20.5091 22.7178 20.278C22.6215 20.0468 22.4804 19.8371 22.3027 19.6607L14.1478 11.5237Z" fill="white"/>
</svg>
